<svg width="575" height="336" viewBox="0 0 575 336" fill="none" xmlns="http://www.w3.org/2000/svg">
<path d="M46.1833 335.725C46.1833 335.725 -24.0346 251.154 10.2831 164.086C32.6521 107.333 116.554 76.2354 163.916 107.333C184.085 120.578 248.791 107.78 283.34 52.9451C350.481 -53.6116 584.802 11.1032 542.138 174.705C521.493 253.876 604.965 256.744 562.433 335.894L46.1833 335.725Z" fill="#EBF3FA"/>
<path d="M98.1618 196.534C98.1618 196.534 91.0798 188.274 97.7254 183.028C97.7254 183.028 102.58 180.089 106.536 180.327C106.536 180.327 100.928 189.731 102.742 190.666C104.557 191.601 108.236 179.738 108.236 179.738C108.236 179.738 119.282 178.667 122.836 180.364C122.836 180.364 113.393 188.088 115.382 188.552C117.372 189.015 127.567 181.437 127.567 181.437C127.567 181.437 137.847 183.187 137.3 189.458C136.753 195.728 133.21 197.664 131.663 197.497C130.116 197.33 120.998 193.854 120.806 195.129C120.614 196.405 126.091 200.574 129.93 200.766C129.93 200.766 122.681 208.757 117.865 206.45C113.048 204.143 112.645 200.488 109.632 199.116C106.62 197.745 104.066 197.749 105.306 199.148C106.547 200.546 111.987 201.905 113.697 204.943C115.407 207.98 116.956 210.028 111.973 209.276C106.989 208.525 98.8883 204.882 98.5313 200.707L98.1618 196.534Z" fill="#C8DBF4"/>
<path d="M132.249 189.627C132.249 189.627 104.326 188.552 98.1608 196.534C98.1608 196.534 96.7974 200.619 92.6009 204.337L91.9453 206.12C91.9453 206.12 96.7849 201.018 98.5157 200.711C98.5157 200.711 95.8078 190.819 132.249 189.627Z" fill="#C8DBF4"/>
<path d="M92.603 204.329C92.603 204.329 86.6088 208.761 86.1934 216.679L87.2811 216.777C87.2811 216.777 89.1957 208.59 92.6552 205.387C96.1147 202.185 92.603 204.329 92.603 204.329Z" fill="#C8DBF4"/>
<path d="M73.3988 186.147C73.3988 186.147 84.6731 179.838 79.4076 171.278C79.4076 171.278 75.2027 166.021 70.695 164.671C70.695 164.671 73.1002 177.436 70.695 177.736C68.2899 178.037 69.0436 163.318 69.0436 163.318C69.0436 163.318 57.1763 157.613 52.5205 158.062C52.5205 158.062 59.8801 170.528 57.477 170.228C55.0739 169.927 46.8123 157.312 46.8123 157.312C46.8123 157.312 34.657 155.064 32.6944 162.268C30.7318 169.472 33.8949 173.081 35.6988 173.54C37.5027 174 49.0609 173.839 48.7665 175.342C48.4722 176.845 40.6553 179.246 36.298 177.895C36.298 177.895 41.1 189.758 47.4136 189.167C53.7272 188.577 55.6752 184.661 59.5815 184.366C63.4878 184.072 66.3398 185.118 64.3835 186.17C62.4272 187.222 55.8234 186.514 52.6666 189.195C49.5098 191.875 46.9585 193.528 52.8169 194.731C58.6754 195.933 69.1897 195.179 71.2922 190.675L73.3988 186.147Z" fill="#C8DBF4"/>
<path d="M38.2539 164.52C38.2539 164.52 69.7969 174.732 73.4005 186.147C73.4005 186.147 73.2502 191.253 76.4049 197.11V199.363C76.4049 199.363 73.1019 191.704 71.298 190.652C71.298 190.652 78.357 180.74 38.2539 164.52Z" fill="#C8DBF4"/>
<path d="M76.4148 197.11C76.4148 197.11 81.2795 204.496 78.5027 213.487L77.25 213.151C77.25 213.151 78.4651 203.248 75.92 198.267C73.3749 193.286 76.4148 197.11 76.4148 197.11Z" fill="#C8DBF4"/>
<path d="M91.3241 177.448C91.3241 177.448 76.4733 169.134 83.4029 157.849C83.4029 157.849 88.9481 150.92 94.8859 149.137C94.8859 149.137 91.7166 165.965 94.8859 166.361C98.0553 166.758 97.0635 147.365 97.0635 147.365C97.0635 147.365 112.706 139.85 118.844 140.435C118.844 140.435 109.142 156.867 112.309 156.471C115.476 156.074 126.366 139.445 126.366 139.445C126.366 139.445 142.405 136.477 144.979 145.979C147.554 155.481 143.395 160.233 141.012 160.825C138.63 161.418 123.391 161.222 123.786 163.201C124.18 165.18 134.48 168.349 140.221 166.568C140.221 166.568 133.885 182.208 125.569 181.414C117.253 180.621 114.679 175.475 109.53 175.081C104.381 174.686 100.621 176.07 103.195 177.457C105.77 178.843 114.48 177.909 118.645 181.444C122.811 184.978 126.162 187.155 118.447 188.739C110.733 190.324 96.8756 189.326 94.0946 183.387L91.3241 177.448Z" fill="#D4E4F8"/>
<path d="M137.655 148.939C137.655 148.939 96.0762 162.401 91.3243 177.448C91.3243 177.448 91.5206 184.178 87.3574 191.9V194.868C87.3574 194.868 91.7126 184.771 94.0886 183.387C94.0949 183.387 84.7894 170.321 137.655 148.939Z" fill="#D4E4F8"/>
<path d="M87.3649 191.9C87.3649 191.9 80.9532 201.634 84.609 213.487L86.2584 213.042C86.2584 213.042 84.657 199.989 88.0121 193.42C91.3673 186.85 87.3649 191.9 87.3649 191.9Z" fill="#D4E4F8"/>
<path d="M90.8221 239.19C94.6421 239.19 98.4247 238.438 101.954 236.976C105.483 235.515 108.69 233.372 111.391 230.671C114.092 227.971 116.234 224.764 117.696 221.235C119.158 217.707 119.91 213.925 119.91 210.105H61.7344C61.7344 217.819 64.7989 225.216 70.2538 230.671C75.7088 236.125 83.1073 239.19 90.8221 239.19Z" fill="#D4E4F8"/>
<path d="M64.923 237.078H116.726C117.678 237.078 118.591 237.456 119.264 238.129C119.937 238.802 120.315 239.715 120.315 240.666H61.334C61.334 239.715 61.7121 238.802 62.3852 238.129C63.0582 237.456 63.9711 237.078 64.923 237.078Z" fill="#D4E4F8"/>
<path d="M120.573 210.101H60.7773V210.992H120.573V210.101Z" fill="#9FC1F4"/>
<path d="M240.922 335.122H241.066C242.242 335.101 243.154 334.141 243.037 333.034L235.197 254.738L228.355 255.348L239.613 334.065C239.667 334.37 239.829 334.645 240.07 334.839C240.31 335.033 240.613 335.133 240.922 335.122Z" fill="#8CB4F4"/>
<path d="M165.42 335.122H165.276C164.1 335.101 163.188 334.141 163.305 333.034L171.145 254.738L177.987 255.348L166.729 334.065C166.676 334.37 166.514 334.645 166.273 334.839C166.032 335.034 165.729 335.134 165.42 335.122Z" fill="#8CB4F4"/>
<path d="M296.239 335.122H296.383C297.558 335.101 298.47 334.141 298.354 333.034L290.514 254.738L283.672 255.348L294.932 334.065C294.984 334.37 295.146 334.645 295.387 334.839C295.627 335.033 295.93 335.134 296.239 335.122Z" fill="#8CB4F4"/>
<path d="M167.756 243.347L153.836 174.624C152.051 165.32 159.761 156.813 169.775 157.041L196.616 157.654C201.129 157.755 205.493 159.293 209.071 162.046C212.649 164.799 215.255 168.622 216.509 172.958L236.873 243.347H167.756Z" fill="#8CB4F4"/>
<path d="M176.176 243.347L162.256 174.624C160.471 165.32 168.181 156.813 178.195 157.041L205.036 157.654C209.548 157.757 213.91 159.296 217.487 162.049C221.063 164.801 223.668 168.623 224.922 172.958L245.285 243.347H176.176Z" fill="#8CB4F4"/>
<path d="M277.834 255.88H171.634C170.605 255.88 169.618 255.471 168.891 254.744C168.164 254.017 167.755 253.03 167.755 252.001V243.336H277.834C278.863 243.336 279.849 243.745 280.577 244.472C281.304 245.199 281.713 246.186 281.713 247.215V251.991C281.714 252.501 281.615 253.007 281.421 253.478C281.226 253.95 280.941 254.379 280.58 254.74C280.22 255.102 279.792 255.388 279.321 255.584C278.849 255.779 278.344 255.88 277.834 255.88Z" fill="#8CB4F4"/>
<path d="M221.471 255.88H289.169C290.896 255.88 292.295 254.481 292.295 252.755V246.472C292.295 244.746 290.896 243.347 289.169 243.347H221.471C219.745 243.347 218.346 244.746 218.346 246.472V252.755C218.346 254.481 219.745 255.88 221.471 255.88Z" fill="#8CB4F4"/>
<path d="M136.068 242.451V244.795C136.068 245.618 135.801 246.288 135.477 246.288H49.8993C49.5757 246.288 49.3105 245.618 49.3105 244.795V242.451C49.3105 241.633 49.5757 240.961 49.8993 240.961H135.477C135.801 240.961 136.068 241.633 136.068 242.451Z" fill="#9ABFE2"/>
<path d="M136.068 242.451V244.795C136.068 245.618 135.824 246.288 135.525 246.288H67.5915C67.293 246.288 67.0508 245.618 67.0508 244.795V242.451C67.0508 241.633 67.293 240.961 67.5915 240.961H135.525C135.824 240.961 136.068 241.633 136.068 242.451Z" fill="#BAD4F4"/>
<path d="M114.41 246.288H53.6602V334.821H114.41V246.288Z" fill="#C8DBF4"/>
<path d="M131.435 246.288H70.6855V334.821H131.435V246.288Z" fill="#DFEBFD"/>
<path d="M128.17 329.932H73.9492V248.793H128.17V329.932ZM74.5338 329.348H127.586V249.373H74.5359L74.5338 329.348Z" fill="#B7D3F3"/>
<path d="M127.879 275.632H74.2422V276.216H127.879V275.632Z" fill="#B7D3F3"/>
<path d="M127.879 302.997H74.2422V303.581H127.879V302.997Z" fill="#B7D3F3"/>
<path d="M106.554 254.022H96.6015C96.3687 254.022 96.1457 253.929 95.9813 253.764C95.8169 253.599 95.7246 253.376 95.7246 253.143C95.7252 252.911 95.8177 252.688 95.9821 252.524C96.1464 252.36 96.3691 252.267 96.6015 252.266H106.554C106.787 252.266 107.01 252.359 107.175 252.523C107.34 252.687 107.433 252.91 107.433 253.143C107.433 253.376 107.34 253.599 107.175 253.764C107.01 253.929 106.787 254.022 106.554 254.022Z" fill="#B7D3F3"/>
<path d="M106.554 280.784H96.6015C96.3689 280.783 96.1462 280.69 95.9819 280.525C95.8177 280.36 95.7252 280.138 95.7246 279.905C95.7252 279.672 95.8177 279.45 95.9819 279.285C96.1462 279.12 96.3689 279.027 96.6015 279.026H106.554C106.787 279.027 107.01 279.12 107.175 279.284C107.34 279.449 107.433 279.672 107.433 279.905C107.433 280.138 107.34 280.361 107.175 280.526C107.01 280.691 106.787 280.783 106.554 280.784Z" fill="#B7D3F3"/>
<path d="M106.554 308.679H96.6015C96.3691 308.679 96.1464 308.586 95.9821 308.422C95.8177 308.258 95.7252 308.035 95.7246 307.802C95.7246 307.57 95.8169 307.347 95.9813 307.182C96.1457 307.017 96.3687 306.924 96.6015 306.924H106.554C106.787 306.924 107.01 307.017 107.175 307.182C107.34 307.346 107.433 307.57 107.433 307.802C107.433 308.035 107.34 308.258 107.175 308.423C107.01 308.587 106.787 308.679 106.554 308.679Z" fill="#B7D3F3"/>
<path d="M374.555 43.518H336.047C334.273 43.518 332.834 44.9564 332.834 46.7307V83.8924C332.834 85.6667 334.273 87.1051 336.047 87.1051H374.555C376.33 87.1051 377.768 85.6667 377.768 83.8924V46.7307C377.768 44.9564 376.33 43.518 374.555 43.518Z" fill="#C0D8FB"/>
<path d="M372.886 45.4072H337.715C336.094 45.4072 334.779 46.7213 334.779 48.3422V82.283C334.779 83.904 336.094 85.218 337.715 85.218H372.886C374.508 85.218 375.822 83.904 375.822 82.283V48.3422C375.822 46.7213 374.508 45.4072 372.886 45.4072Z" fill="#DFEBFD"/>
<path d="M355.3 50.3149C355.815 50.3149 356.231 49.8981 356.231 49.3839C356.231 48.8697 355.815 48.4529 355.3 48.4529C354.786 48.4529 354.369 48.8697 354.369 49.3839C354.369 49.8981 354.786 50.3149 355.3 50.3149Z" fill="#B7D3F3"/>
<path d="M361.883 50.7011C361.972 50.54 362.107 50.4091 362.271 50.3248C362.435 50.2406 362.62 50.2068 362.803 50.2278C362.986 50.2488 363.159 50.3236 363.299 50.4427C363.44 50.5619 363.542 50.72 363.592 50.8972C363.643 51.0743 363.64 51.2625 363.583 51.4378C363.527 51.6132 363.42 51.7679 363.275 51.8823C363.131 51.9967 362.956 52.0658 362.772 52.0807C362.589 52.0956 362.405 52.0558 362.244 51.9661C362.028 51.8461 361.869 51.6455 361.801 51.4083C361.734 51.1712 361.763 50.9168 361.883 50.7011Z" fill="#B7D3F3"/>
<path d="M368.318 55.8113C368.473 55.7113 368.654 55.6595 368.838 55.6624C369.022 55.6653 369.202 55.7227 369.353 55.8275C369.505 55.9323 369.622 56.0796 369.69 56.2509C369.757 56.4222 369.773 56.6098 369.734 56.7898C369.695 56.9699 369.604 57.1344 369.471 57.2624C369.339 57.3905 369.171 57.4765 368.99 57.5094C368.809 57.5423 368.622 57.5207 368.453 57.4473C368.284 57.374 368.14 57.2521 368.041 57.0972C367.907 56.8898 367.861 56.6379 367.914 56.3968C367.966 56.1557 368.111 55.9452 368.318 55.8113Z" fill="#B7D3F3"/>
<path d="M371.503 63.723C371.688 63.7226 371.868 63.7768 372.021 63.8789C372.175 63.9809 372.294 64.1262 372.365 64.2963C372.436 64.4663 372.455 64.6536 372.419 64.8344C372.383 65.0151 372.295 65.1812 372.165 65.3116C372.034 65.442 371.868 65.5309 371.688 65.567C371.507 65.6031 371.32 65.5848 371.15 65.5144C370.979 65.444 370.834 65.3246 370.731 65.1715C370.629 65.0183 370.574 64.8382 370.574 64.654C370.574 64.4074 370.672 64.1709 370.846 63.9964C371.02 63.8219 371.257 63.7235 371.503 63.723Z" fill="#B7D3F3"/>
<path d="M369.877 72.9038C370.007 73.0341 370.096 73.1999 370.132 73.3805C370.168 73.5611 370.149 73.7483 370.079 73.9183C370.008 74.0884 369.889 74.2338 369.736 74.3361C369.582 74.4383 369.402 74.4929 369.218 74.4929C369.034 74.4929 368.854 74.4383 368.701 74.3361C368.548 74.2338 368.429 74.0884 368.358 73.9183C368.288 73.7483 368.269 73.5611 368.305 73.3805C368.341 73.1999 368.429 73.0341 368.56 72.9038C368.735 72.7296 368.971 72.6317 369.218 72.6317C369.465 72.6317 369.702 72.7296 369.877 72.9038Z" fill="#B7D3F3"/>
<path d="M364.032 78.7634C364.162 78.8934 364.25 79.059 364.286 79.2391C364.321 79.4192 364.303 79.6059 364.233 79.7755C364.162 79.9452 364.043 80.0901 363.89 80.1921C363.738 80.2941 363.558 80.3485 363.374 80.3485C363.191 80.3485 363.011 80.2941 362.858 80.1921C362.706 80.0901 362.587 79.9452 362.516 79.7755C362.446 79.6059 362.427 79.4192 362.463 79.2391C362.499 79.059 362.587 78.8934 362.717 78.7634C362.803 78.6767 362.905 78.6079 363.018 78.5609C363.131 78.514 363.252 78.4898 363.374 78.4898C363.497 78.4898 363.618 78.514 363.731 78.5609C363.843 78.6079 363.946 78.6767 364.032 78.7634Z" fill="#B7D3F3"/>
<path d="M354.369 81.7924C354.369 81.6083 354.424 81.4283 354.526 81.2752C354.628 81.1221 354.774 81.0027 354.944 80.9323C355.114 80.8618 355.301 80.8434 355.482 80.8793C355.663 80.9152 355.829 81.0039 355.959 81.1341C356.089 81.2643 356.178 81.4302 356.214 81.6108C356.249 81.7914 356.231 81.9786 356.161 82.1487C356.09 82.3188 355.971 82.4642 355.818 82.5665C355.664 82.6688 355.484 82.7234 355.3 82.7234C355.053 82.7234 354.816 82.6253 354.642 82.4507C354.467 82.2761 354.369 82.0393 354.369 81.7924Z" fill="#B7D3F3"/>
<path d="M348.693 50.7011C348.603 50.54 348.468 50.4091 348.304 50.3248C348.141 50.2406 347.955 50.2068 347.772 50.2278C347.589 50.2488 347.417 50.3236 347.276 50.4427C347.136 50.5619 347.034 50.72 346.983 50.8972C346.932 51.0743 346.936 51.2625 346.992 51.4378C347.048 51.6132 347.156 51.7679 347.3 51.8823C347.444 51.9967 347.619 52.0658 347.803 52.0807C347.987 52.0956 348.171 52.0558 348.332 51.9661C348.547 51.8461 348.706 51.6455 348.774 51.4083C348.842 51.1712 348.812 50.9168 348.693 50.7011Z" fill="#B7D3F3"/>
<path d="M342.258 55.8113C342.104 55.711 341.923 55.6589 341.739 55.6614C341.554 55.664 341.375 55.7211 341.223 55.8256C341.072 55.9302 340.954 56.0773 340.886 56.2486C340.818 56.4198 340.802 56.6073 340.841 56.7875C340.88 56.9676 340.971 57.1322 341.103 57.2605C341.235 57.3888 341.403 57.475 341.584 57.5082C341.765 57.5414 341.952 57.52 342.121 57.4469C342.29 57.3737 342.434 57.252 342.534 57.0972C342.667 56.8899 342.713 56.6384 342.661 56.3975C342.61 56.1566 342.465 55.9459 342.258 55.8113Z" fill="#B7D3F3"/>
<path d="M339.066 63.723C338.882 63.723 338.702 63.7776 338.549 63.8799C338.395 63.9822 338.276 64.1276 338.206 64.2977C338.135 64.4678 338.117 64.655 338.153 64.8356C338.189 65.0162 338.277 65.1821 338.408 65.3123C338.538 65.4425 338.704 65.5312 338.884 65.5671C339.065 65.6031 339.252 65.5846 339.422 65.5142C339.593 65.4437 339.738 65.3244 339.84 65.1712C339.943 65.0181 339.997 64.8381 339.997 64.654C339.997 64.4071 339.899 64.1703 339.724 63.9957C339.55 63.8211 339.313 63.723 339.066 63.723Z" fill="#B7D3F3"/>
<path d="M340.696 72.9038C340.566 73.0341 340.478 73.1999 340.442 73.3805C340.406 73.5611 340.424 73.7483 340.495 73.9183C340.565 74.0884 340.685 74.2338 340.838 74.3361C340.991 74.4383 341.171 74.4929 341.355 74.4929C341.539 74.4929 341.719 74.4383 341.872 74.3361C342.025 74.2338 342.145 74.0884 342.215 73.9183C342.286 73.7483 342.304 73.5611 342.268 73.3805C342.233 73.1999 342.144 73.0341 342.014 72.9038C341.839 72.7296 341.602 72.6317 341.355 72.6317C341.108 72.6317 340.871 72.7296 340.696 72.9038Z" fill="#B7D3F3"/>
<path d="M347.203 80.352C347.717 80.352 348.134 79.9352 348.134 79.421C348.134 78.9068 347.717 78.49 347.203 78.49C346.688 78.49 346.271 78.9068 346.271 79.421C346.271 79.9352 346.688 80.352 347.203 80.352Z" fill="#B7D3F3"/>
<path d="M355.051 64.654C355.051 64.4699 355.105 64.2898 355.208 64.1367C355.31 63.9836 355.455 63.8643 355.626 63.7938C355.796 63.7234 355.983 63.7049 356.164 63.7409C356.344 63.7768 356.51 63.8654 356.64 63.9957C356.771 64.1259 356.859 64.2918 356.895 64.4724C356.931 64.653 356.913 64.8402 356.842 65.0103C356.772 65.1804 356.652 65.3258 356.499 65.4281C356.346 65.5304 356.166 65.585 355.982 65.585C355.735 65.585 355.498 65.4869 355.324 65.3123C355.149 65.1377 355.051 64.9009 355.051 64.654Z" fill="#B7D3F3"/>
<path d="M356.11 53.0266H355.855V64.654H356.11V53.0266Z" fill="#B7D3F3"/>
<path d="M361.798 59.5084L355.633 64.3471L356.103 64.9464L362.269 60.1078L361.798 59.5084Z" fill="#B7D3F3"/>
<path d="M260.273 228.962C254.527 238.959 247.301 242.818 247.301 242.818H217.236C217.236 242.818 264.655 221.338 260.273 228.962Z" fill="#233862"/>
<path d="M297.351 328.293C297.027 331.446 301.414 332.26 306.502 332.569C311.59 332.878 310.051 333.903 317.004 335.241C323.956 336.579 326.783 334.7 327.297 333.763C327.756 332.928 324.526 331.59 321.085 330.074C320.653 329.886 320.219 329.69 319.785 329.496C315.914 327.742 313.768 324.231 310.769 320.964C307.93 317.871 305.308 308.022 305.308 308.022L295.848 305.905C295.848 305.905 298.416 314.762 299.299 318.541C299.819 320.764 298.99 323.233 298.255 325.112C297.862 326.135 297.464 327.181 297.351 328.293Z" fill="#FFB27D"/>
<path d="M306.493 332.569C311.581 332.878 310.043 333.903 316.995 335.241C323.948 336.579 326.775 334.7 327.288 333.763C327.747 332.928 324.518 331.59 321.077 330.074L321.023 330.133C317.566 331.091 313.913 331.096 310.454 330.145C305.861 328.842 301.42 326.037 298.248 325.112C297.854 326.135 297.455 327.181 297.342 328.293C297.025 331.446 301.412 332.26 306.493 332.569Z" fill="#0F2549"/>
<path d="M283.019 218.733C277.929 215.159 244.263 208.788 227.08 206.947L208.081 190.455C208.081 190.455 191.917 214.393 191.796 232.707C191.735 241.244 195.669 242.1 195.671 242.1C195.673 242.1 256.548 242.551 259.218 242.827C263.586 243.276 269.346 254.156 270.787 264.065C272.227 273.974 297.613 314.278 297.613 314.278C297.613 314.278 302.906 315.975 305.355 315.831C307.988 315.677 309.207 314.787 309.207 314.787C309.207 314.787 294.498 226.782 283.019 218.733Z" fill="#233862"/>
<path d="M281.605 328.293C281.279 331.446 285.668 332.26 290.756 332.569C295.844 332.878 294.305 333.903 301.258 335.241C308.21 336.579 311.037 334.7 311.551 333.763C312.01 332.928 308.78 331.59 305.339 330.074C304.907 329.886 304.473 329.69 304.039 329.496C300.168 327.742 298.021 324.231 295.023 320.964C292.184 317.87 289.559 308.022 289.559 308.022L280.102 305.894C280.102 305.894 282.67 314.752 283.553 318.53C284.073 320.753 283.244 323.223 282.509 325.102C282.116 326.135 281.718 327.181 281.605 328.293Z" fill="#FFB27D"/>
<path d="M290.754 332.569C295.842 332.878 294.303 333.903 301.256 335.241C308.208 336.579 311.035 334.7 311.549 333.763C312.008 332.928 308.778 331.59 305.337 330.074L305.283 330.133C301.826 331.091 298.174 331.096 294.715 330.145C290.121 328.842 285.681 326.037 282.509 325.112C282.114 326.135 281.716 327.181 281.603 328.293C281.277 331.446 285.666 332.26 290.754 332.569Z" fill="#233862"/>
<path d="M267.132 218.733C262.712 215.629 249.412 213.222 234.731 211.427C232.748 211.184 230.885 210.345 229.389 209.022C227.892 207.699 226.832 205.954 226.348 204.016L192.204 190.447C192.204 190.447 176.038 214.385 175.919 232.698C175.858 241.236 179.794 242.092 179.794 242.092C179.794 242.092 240.673 242.543 243.341 242.818C247.709 243.267 253.469 254.147 254.91 264.057C256.35 273.966 281.736 314.27 281.736 314.27C281.736 314.27 287.031 315.967 289.478 315.823C292.111 315.668 293.33 314.779 293.33 314.779C293.33 314.779 278.611 226.782 267.132 218.733Z" fill="#2B478B"/>
<path d="M221.442 90.9962C216.749 88.533 209.61 88.199 208.449 88.0424C194.57 86.1783 186.216 106.344 185.723 112.466C184.819 123.739 178.859 125.446 170.482 132.506C153.663 146.651 158.596 163.086 167.791 169.192C173.309 172.856 183.032 169.192 183.032 169.192C183.168 169.288 209.629 154.402 222.674 147.221C242.222 144.418 233.399 97.2733 221.442 90.9962Z" fill="#233862"/>
<path d="M218.546 140.263C218.606 140.295 212.378 143.127 207.883 141.643C203.653 140.249 199.929 133.882 199.987 133.874C201.822 133.606 203.689 131.786 204.211 121.067L205.023 121.275L218.692 124.728C218.692 124.728 218.151 129.058 217.928 133.151C217.74 136.585 217.777 139.856 218.546 140.263Z" fill="#FFB27D"/>
<path d="M218.694 124.724C218.694 124.724 218.694 125.615 218.182 129.644C210.457 127.695 207.044 125.131 204.641 122.198L218.694 124.724Z" fill="#ED975D"/>
<path d="M221.61 125.271C221.61 125.271 203.533 128.212 201.873 116.921C200.213 105.63 196.764 98.4194 208.235 96.0647C219.705 93.71 222.585 97.6825 224.054 101.315C225.524 104.947 226.268 124.215 221.61 125.271Z" fill="#FFB27D"/>
<path d="M221.625 95.5992C221.625 95.5992 213.416 108.554 206.09 111.623C198.764 114.691 195.162 113.134 195.162 113.134C197.359 109.517 198.789 105.487 199.363 101.294C199.484 100.31 199.866 99.3769 200.47 98.5907C201.073 97.8045 201.876 97.194 202.795 96.8224C208.054 94.7224 218.226 91.3949 221.625 95.5992Z" fill="#233862"/>
<path d="M214.422 96.8517C214.422 96.8517 219.224 99.3275 221.209 101.624C223.122 103.853 225.329 109.907 225.176 112.625C225.176 112.625 227.548 99.5988 222.606 95.1211C217.359 90.3783 214.422 96.8517 214.422 96.8517Z" fill="#233862"/>
<path d="M233.003 167.827C232.454 204.567 232.852 196.887 228.827 200.373C227.858 201.208 225.136 201.711 221.553 201.949C210.279 202.697 190.484 200.841 189.73 198.76C187.131 191.556 188.966 189.318 186.807 178.289C186.582 177.118 186.302 175.849 185.972 174.465C184.164 166.892 182.406 164.316 188.818 152.148C194.635 141.126 201.474 132.172 202.017 132.494C217.361 141.602 217.885 133.968 217.885 133.968C217.885 133.968 233.276 149.91 233.003 167.827Z" fill="white"/>
<path d="M217.889 133.968C217.889 133.968 233.591 136.629 235.445 143.426C237.299 150.223 248.21 190.186 248.21 190.186C248.21 190.186 240.185 191.627 236.477 187.919C232.769 184.212 223.574 153.523 223.574 153.523L217.889 133.968Z" fill="white"/>
<path d="M221.562 201.949C210.288 202.697 190.493 200.841 189.739 198.76C187.14 191.556 188.975 189.318 186.816 178.289L192.245 162.992C192.245 162.992 191.347 180.028 196.372 184.508C201.398 188.988 216.946 193.159 219.387 196.904C220.562 198.693 221.337 200.501 221.562 201.949Z" fill="#EBF3FF"/>
<path d="M208.656 194.783C208.656 194.783 219.77 192.309 221.563 193.294C223.357 194.28 227.739 197.872 228.288 199.123C228.837 200.373 224.296 198.173 222.818 197.778C221.862 197.522 219.344 198.405 218.097 198.822C212.853 200.569 209.638 199.672 209.638 199.672L208.656 194.783Z" fill="#FFB27D"/>
<path d="M202.02 132.494C202.02 132.494 186.288 133.414 181.123 140.618C173.851 150.759 159.424 193.981 167.692 199.736C177.003 206.229 210.075 201.436 210.075 201.436C210.075 201.436 211.175 196.292 209.645 193.806C208.114 191.32 183.234 187.299 182.085 186.151C180.937 185.003 196.439 163.762 196.439 160.318C196.439 156.874 202.02 132.494 202.02 132.494Z" fill="white"/>
<path d="M222.102 196.396C222.102 196.396 224.429 199.4 225.194 199.759C225.958 200.118 226.446 200.027 226.446 200.027L224.876 197.204L222.102 196.396Z" fill="#FFB27D"/>
<path d="M221.562 193.294L228.333 196.582C228.333 196.582 228.045 197.054 227.212 197.016C226.379 196.979 224.275 196.209 224.275 196.209L221.562 193.294Z" fill="#FFB27D"/>
<path d="M246.506 201.089H215.059C215.059 200.425 215.323 199.788 215.792 199.318C216.262 198.848 216.9 198.584 217.564 198.584H246.506V201.089Z" fill="#ED7D2B"/>
<path d="M246.415 166.846H295.035L283.372 201.089H234.439L246.415 166.846Z" fill="#ED7D2B"/>
<path d="M295.751 166.846L284.089 201.089H235.156L247.132 166.846H295.751Z" fill="#F99746"/>
<path d="M269.541 183.65C269.238 184.959 267.933 186.019 266.618 186.019C265.303 186.019 264.495 184.959 264.795 183.65C265.096 182.341 266.403 181.281 267.718 181.281C269.033 181.281 269.841 182.341 269.541 183.65Z" fill="white"/>
<path d="M417.252 201.089H204.191C203.295 201.089 202.568 201.815 202.568 202.711V207.17C202.568 208.066 203.295 208.792 204.191 208.792H417.252C418.148 208.792 418.874 208.066 418.874 207.17V202.711C418.874 201.815 418.148 201.089 417.252 201.089Z" fill="#182D4F"/>
<path d="M422.466 335.694H422.558C422.815 335.665 423.063 335.586 423.289 335.461C423.515 335.336 423.714 335.168 423.874 334.966C424.035 334.763 424.154 334.531 424.224 334.283C424.295 334.035 424.315 333.775 424.285 333.518L405.298 205.018L398.348 205.227L420.687 334.42C420.766 334.819 420.994 335.173 421.325 335.409C421.655 335.646 422.063 335.748 422.466 335.694Z" fill="#182D4F"/>
<path d="M197.053 335.694H196.963C196.706 335.665 196.458 335.586 196.232 335.461C196.006 335.336 195.807 335.168 195.647 334.966C195.486 334.763 195.367 334.531 195.297 334.283C195.226 334.035 195.206 333.775 195.236 333.518L214.223 205.018L221.173 205.227L198.834 334.42C198.755 334.82 198.527 335.174 198.196 335.411C197.865 335.647 197.456 335.749 197.053 335.694Z" fill="#182D4F"/>
<path d="M241.01 335.694H240.918C240.661 335.665 240.413 335.586 240.187 335.461C239.961 335.336 239.763 335.167 239.602 334.965C239.442 334.763 239.323 334.531 239.252 334.283C239.182 334.035 239.161 333.775 239.191 333.518L258.178 205.018L265.128 205.227L242.789 334.42C242.71 334.819 242.482 335.173 242.151 335.409C241.821 335.646 241.413 335.748 241.01 335.694Z" fill="#182D4F"/>
<path d="M353.021 335.589H390.696C392.509 333.379 391.843 325.221 391.567 322.557C391.511 322.02 391.473 321.707 391.473 321.707C391.473 321.707 378.606 311.418 376.839 319.296C376.785 319.545 376.72 319.785 376.649 320.025C374.422 327.394 364.436 330.742 358.669 331.675C354.919 332.293 353.533 334.23 353.021 335.589Z" fill="#233862"/>
<path d="M455.823 213.186C454.463 213.186 391.286 225.047 380.836 237.98C375.617 244.451 374.84 319.06 374.84 319.06C374.84 319.06 381.3 327.068 395.248 322.419C395.248 322.419 405.479 271.365 404.719 255.88C404.51 251.598 447.885 255.254 455.823 253.206C463.761 251.158 483.159 233.886 478.885 225.473C474.611 217.061 455.823 213.186 455.823 213.186Z" fill="#233862"/>
<path d="M381.108 194.914C381.108 194.914 368.372 195.085 365.351 196.376C362.33 197.666 356.223 200.632 357.86 201.087C359.497 201.542 367.303 200.899 368.988 201.158C370.673 201.417 372.757 201.085 373.79 201.087H379.636L381.108 194.914Z" fill="#FFB27D"/>
<path d="M366.208 164.337C366.208 164.337 361.863 161.232 357.648 160.629C355.24 160.287 352.902 159.857 351.489 159.36C347.595 157.988 339.797 150.985 340.394 150.162C342.283 147.53 351.378 153.102 352.965 152.505C354.551 151.908 349.914 148.609 351.528 147.449C352.363 146.843 354.341 149.878 355.952 150.183C358.132 150.601 359.836 153.674 360.493 153.834C361.769 154.147 367.364 158.308 367.364 158.308L366.208 164.337Z" fill="#FFB27D"/>
<path d="M449.531 128.085C449.531 128.085 439.831 131.091 430.273 157.406C420.714 183.721 417.086 185.143 413.612 186.168C410.137 187.193 379.643 193.265 379.643 193.265V201.077H426.631C426.631 201.077 444.248 184.318 449.531 173.037C454.813 161.756 449.531 128.085 449.531 128.085Z" fill="#ED7D2B"/>
<path d="M336.371 335.589H374.046C375.858 333.379 375.19 325.221 374.917 322.557C374.86 322.02 374.821 321.707 374.821 321.707C374.821 321.707 361.955 311.418 360.189 319.296C360.135 319.545 360.068 319.785 359.997 320.025C357.771 327.394 347.785 330.742 342.019 331.675C338.269 332.293 336.883 334.23 336.371 335.589Z" fill="#1B3051"/>
<path d="M437.21 213.186C435.848 213.186 372.673 225.047 362.221 237.98C357.001 244.451 356.225 319.06 356.225 319.06C356.225 319.06 362.684 327.068 376.633 322.419C376.633 322.419 386.864 271.365 386.104 255.88C385.895 251.598 429.27 255.254 437.21 253.206C445.15 251.158 464.544 233.886 460.27 225.473C455.996 217.061 437.21 213.186 437.21 213.186Z" fill="#2B478B"/>
<path d="M441.161 136.425C445.706 136.051 450.471 134.838 454.59 133.502C459.738 131.832 463.887 129.392 461.215 124.686C458.749 120.351 454.761 110.665 455.03 102.64L445.449 110.364L438.946 115.61C438.946 115.61 438.971 118.7 439.683 124.117C439.812 125.104 439.965 126.171 440.144 127.31C440.215 127.761 440.151 128.222 439.961 128.637C439.771 129.051 439.463 129.4 439.075 129.64L438.927 129.732C435.693 131.755 437.357 136.74 441.161 136.425Z" fill="#FFB27D"/>
<path d="M438.945 114.326C438.945 114.326 438.611 115.447 439.183 119.593C444.985 118.645 450.407 114.019 450.407 114.019C447.455 113.209 446.379 110.018 444.179 110.316L438.945 114.326Z" fill="#ED975D"/>
<path d="M433.577 115.272C433.577 115.272 455.894 118.977 457.988 105.043C460.082 91.1089 464.374 82.2099 450.215 79.254C436.055 76.2981 432.481 81.1954 430.652 85.6752C428.823 90.155 427.827 113.94 433.577 115.272Z" fill="#FFB27D"/>
<path d="M427.38 79.5149C426.422 82.8696 428.986 86.9548 433.291 88.3012C439.681 90.2969 438.268 98.1355 441.145 98.029C444.022 97.9226 445.181 93.5242 447.749 97.0375C449.941 100.035 445.926 103.59 446.202 105.233C446.676 108.055 451.098 113.829 455.081 113.539C459.065 113.249 466.52 94.3174 465.03 88.4599C463.539 82.6024 457.574 76.4275 451.929 75.5758C446.283 74.7241 438.445 77.1602 436.635 77.1602C434.825 77.1602 427.887 77.703 427.38 79.5149Z" fill="#2B478B"/>
<path d="M479.185 147.419C475.96 134.439 467.049 120.829 461.017 120.829C450.745 120.848 435.98 123.559 430.019 138.264C425.634 149.094 419.77 211.389 426.39 215.821C441.521 225.949 476.594 246.624 482.824 225.54C488.535 206.222 484.783 169.948 479.185 147.419Z" fill="#F99746"/>
<path d="M454.236 134.502C453.556 132.729 452.469 131.14 451.063 129.862C449.658 128.584 447.973 127.654 446.143 127.144C444.313 126.635 442.389 126.561 440.525 126.928C438.662 127.296 436.91 128.094 435.41 129.26C431.924 131.974 427.654 135.834 422.499 141.324C403.331 161.733 399.435 161.606 395.836 161.184C392.236 160.763 361.821 154.308 361.821 154.308C360.791 155.122 359.947 156.147 359.347 157.314C358.123 159.794 358.739 161.489 358.739 161.489C357.547 160.719 369.521 168.971 375.479 172.261C383.35 176.607 395.209 180.68 399.932 182.226C401.27 182.664 402.716 182.643 404.041 182.166C411.052 179.638 434.594 170.432 453.76 154.456C458.809 150.244 456.953 141.568 454.236 134.502Z" fill="#F99746"/>
<path d="M462.051 120.956L459.725 115.719C459.725 115.719 438.909 117.416 435.412 129.26C435.412 129.26 451.547 121.211 462.051 120.956Z" fill="white"/>
<path d="M512.59 335.122H512.732C513.907 335.101 514.82 334.141 514.705 333.034L506.865 254.738L500.023 255.348L511.281 334.065C511.334 334.37 511.496 334.645 511.737 334.839C511.978 335.034 512.281 335.134 512.59 335.122Z" fill="#8CB4F4"/>
<path d="M472.229 335.122H472.373C473.548 335.101 474.461 334.141 474.346 333.034L466.504 254.738L459.662 255.348L470.922 334.065C470.975 334.37 471.136 334.645 471.377 334.839C471.617 335.033 471.92 335.134 472.229 335.122Z" fill="#8CB4F4"/>
<path d="M396.461 335.122H396.317C395.141 335.101 394.229 334.141 394.344 333.034L402.186 254.738L409.027 255.348L397.77 334.065C397.716 334.37 397.554 334.645 397.313 334.839C397.073 335.033 396.77 335.133 396.461 335.122Z" fill="#73A2E5"/>
<path d="M510.371 243.643L517.815 178.25C518.79 168.827 515.635 159.6 502.035 158.884L478.106 157.423C463.925 156.838 457.522 168.639 455.727 177.726L441.529 249.609L510.371 243.643Z" fill="#8CB4F4"/>
<path d="M400.172 243.347H510.251V252.001C510.251 253.03 509.842 254.017 509.115 254.744C508.387 255.471 507.401 255.88 506.372 255.88H400.172C399.143 255.88 398.157 255.471 397.429 254.744C396.702 254.017 396.293 253.03 396.293 252.001V247.225C396.293 246.197 396.702 245.21 397.429 244.483C398.157 243.755 399.143 243.347 400.172 243.347Z" fill="#73A2E5"/>
<path d="M444.534 243.347H510.253V252.868C510.254 253.264 510.177 253.657 510.027 254.024C509.876 254.39 509.654 254.724 509.374 255.004C509.094 255.285 508.762 255.508 508.396 255.66C508.029 255.812 507.637 255.89 507.24 255.89H444.534C443.735 255.89 442.969 255.573 442.404 255.008C441.839 254.443 441.522 253.677 441.522 252.878V246.369C441.52 245.973 441.597 245.58 441.748 245.213C441.899 244.847 442.12 244.513 442.4 244.233C442.68 243.952 443.013 243.729 443.379 243.577C443.745 243.425 444.138 243.347 444.534 243.347Z" fill="#8CB4F4"/>
</svg>
