<svg xmlns="http://www.w3.org/2000/svg" xmlns:xlink="http://www.w3.org/1999/xlink" viewBox="0 0 953 387.27"><defs><style>.cls-1{fill:none;}.cls-2{fill:#96a0fb;}.cls-3{clip-path:url(#clip-path);}.cls-4{fill:#ebf3fa;}.cls-5{fill:#c8dbf4;}.cls-6{fill:#d4e4f8;}.cls-7{fill:#9fc1f4;}.cls-8{fill:#8cb4f4;}.cls-9{fill:#9abfe2;}.cls-10{fill:#bad4f4;}.cls-11{fill:#dfebfd;}.cls-12{fill:#b7d3f3;}.cls-13{fill:#c0d8fb;}.cls-14{fill:#233862;}.cls-15{fill:#ffb27d;}.cls-16{fill:#0f2549;}.cls-17{fill:#2b478b;}.cls-18{fill:#ed975d;}.cls-19{fill:#fff;}.cls-20{fill:#ebf3ff;}.cls-21{fill:#ed7d2b;}.cls-22{fill:#f99746;}.cls-23{fill:#182d4f;}.cls-24{fill:#1b3051;}.cls-25{fill:#73a2e5;}</style><clipPath id="clip-path" transform="translate(0 -67.73)"><path class="cls-1" d="M245.16,246.3C230.75,194,75.85,74,0,67.86V0H953V402.54c-71.24,36.86-266.25,59.11-346.58,50.68-83.82-8.8-137.36-68-173.5-112.26C391.85,290.7,263.19,311.64,245.16,246.3Z"/></clipPath></defs><g id="Layer_2" data-name="Layer 2"><g id="Layer_1-2" data-name="Layer 1"><path class="cls-2" d="M245.16,246.3C230.75,194,75.85,74,0,67.86v-.13H953V402.54c-71.24,36.86-266.25,59.11-346.58,50.68-83.82-8.8-137.36-68-173.5-112.26C391.85,290.7,263.19,311.64,245.16,246.3Z" transform="translate(0 -67.73)"/><g class="cls-3"><path class="cls-4" d="M283.57,454.84s-66-79.53-33.76-161.4c21-53.37,99.93-82.61,144.47-53.37,19,12.46,79.81.42,112.3-51.14C569.72,88.72,790.07,149.58,750,303.42,730.53,377.87,809,380.57,769,455Z" transform="translate(0 -67.73)"/><path class="cls-5" d="M332.45,324s-6.66-7.77-.41-12.7c0,0,4.56-2.76,8.28-2.54,0,0-5.27,8.84-3.56,9.72s5.16-10.27,5.16-10.27,10.39-1,13.73.59c0,0-8.88,7.26-7,7.7s11.46-6.7,11.46-6.7,9.67,1.65,9.15,7.55-3.84,7.71-5.3,7.56-10-3.43-10.21-2.23,5,5.12,8.58,5.3c0,0-6.81,7.52-11.34,5.35s-4.91-5.61-7.74-6.9-5.24-1.29-4.07,0,6.28,2.59,7.89,5.45,3.06,4.78-1.62,4.07-12.31-4.13-12.64-8.05Z" transform="translate(0 -67.73)"/><path class="cls-5" d="M364.5,317.46s-26.25-1-32.05,6.49a19,19,0,0,1-5.23,7.34L326.6,333s4.55-4.8,6.18-5.09C332.78,327.88,330.23,318.58,364.5,317.46Z" transform="translate(0 -67.73)"/><path class="cls-5" d="M327.22,331.28a16.52,16.52,0,0,0-6,11.61l1,.1s1.8-7.7,5-10.71S327.22,331.28,327.22,331.28Z" transform="translate(0 -67.73)"/><path class="cls-5" d="M309.16,314.18s10.6-5.93,5.65-14c0,0-3.95-4.94-8.19-6.21,0,0,2.26,12,0,12.28s-1.55-13.55-1.55-13.55-11.16-5.37-15.54-5c0,0,6.92,11.73,4.66,11.44s-10-12.14-10-12.14-11.43-2.12-13.27,4.66,1.13,10.17,2.82,10.6,12.57.28,12.29,1.69-7.63,3.67-11.72,2.4c0,0,4.51,11.16,10.45,10.6s7.77-4.23,11.44-4.51,6.35.71,4.52,1.7-8.05.32-11,2.84-5.37,4.07.14,5.21,15.39.42,17.37-3.82Z" transform="translate(0 -67.73)"/><path class="cls-5" d="M276.11,293.85s29.67,9.6,33.05,20.33A22.5,22.5,0,0,0,312,324.49v2.12s-3.11-7.2-4.8-8.19C307.19,318.42,313.83,309.1,276.11,293.85Z" transform="translate(0 -67.73)"/><path class="cls-5" d="M312,324.49a19.57,19.57,0,0,1,2,15.4l-1.18-.31s1.15-9.32-1.25-14S312,324.49,312,324.49Z" transform="translate(0 -67.73)"/><path class="cls-6" d="M326,306s-14-7.81-7.45-18.43c0,0,5.21-6.51,10.8-8.19,0,0-3,15.83,0,16.2s2.05-17.87,2.05-17.87,14.71-7.06,20.48-6.51c0,0-9.13,15.45-6.15,15.08s13.22-16,13.22-16,15.08-2.79,17.5,6.14-1.49,13.41-3.73,14-16.57.38-16.2,2.24,10.06,4.84,15.46,3.16c0,0-6,14.71-13.78,14s-10.24-5.58-15.08-6-8.38.93-6,2.23,10.61.43,14.53,3.75,7.07,5.37-.19,6.86-20.28.55-22.9-5Z" transform="translate(0 -67.73)"/><path class="cls-6" d="M369.59,279.2S330.49,291.85,326,306a29.75,29.75,0,0,1-3.73,13.59v2.79s4.09-9.49,6.33-10.79C328.63,311.59,319.87,299.3,369.59,279.2Z" transform="translate(0 -67.73)"/><path class="cls-6" d="M322.3,319.59s-6,9.16-2.6,20.3l1.56-.42S319.75,327.2,322.9,321,322.3,319.59,322.3,319.59Z" transform="translate(0 -67.73)"/><path class="cls-6" d="M325.55,364.06a27.34,27.34,0,0,0,27.35-27.35H298.19a27.36,27.36,0,0,0,27.36,27.35Z" transform="translate(0 -67.73)"/><path class="cls-6" d="M301.19,362.08h48.72a3.38,3.38,0,0,1,3.37,3.37H297.82a3.38,3.38,0,0,1,3.37-3.37Z" transform="translate(0 -67.73)"/><path class="cls-7" d="M353.52,336.71H297.29v.84h56.23Z" transform="translate(0 -67.73)"/><path class="cls-8" d="M466.7,454.27h.13a1.82,1.82,0,0,0,1.85-2l-7.37-73.63-6.43.58,10.58,74a1.19,1.19,0,0,0,1.24,1Z" transform="translate(0 -67.73)"/><path class="cls-8" d="M395.7,454.27h-.14a1.82,1.82,0,0,1-1.85-2l7.37-73.63,6.43.58-10.58,74a1.22,1.22,0,0,1-.43.73A1.17,1.17,0,0,1,395.7,454.27Z" transform="translate(0 -67.73)"/><path class="cls-8" d="M518.71,454.27h.14a1.83,1.83,0,0,0,1.85-2l-7.37-73.63-6.43.58,10.58,74a1.22,1.22,0,0,0,.43.73A1.17,1.17,0,0,0,518.71,454.27Z" transform="translate(0 -67.73)"/><path class="cls-8" d="M397.89,368,384.8,303.35c-1.68-8.75,5.57-16.75,15-16.54l25.24.58a20,20,0,0,1,18.71,14.39L462.89,368Z" transform="translate(0 -67.73)"/><path class="cls-8" d="M405.81,368l-13.09-64.62c-1.68-8.75,5.57-16.75,15-16.54l25.24.58a19.93,19.93,0,0,1,18.7,14.39L470.8,368Z" transform="translate(0 -67.73)"/><path class="cls-8" d="M501.4,379.76H401.54a3.65,3.65,0,0,1-3.65-3.65V368H501.4A3.66,3.66,0,0,1,504,369a3.61,3.61,0,0,1,1.07,2.58v4.49a3.71,3.71,0,0,1-.27,1.4,3.64,3.64,0,0,1-.79,1.19,3.54,3.54,0,0,1-1.19.79A3.68,3.68,0,0,1,501.4,379.76Z" transform="translate(0 -67.73)"/><path class="cls-8" d="M448.4,379.76h63.66a2.94,2.94,0,0,0,2.94-2.94v-5.91a2.94,2.94,0,0,0-2.94-2.94H448.4a2.94,2.94,0,0,0-2.93,2.94v5.91A2.94,2.94,0,0,0,448.4,379.76Z" transform="translate(0 -67.73)"/><path class="cls-9" d="M368.09,367.13v2.2c0,.78-.25,1.41-.55,1.41H287.06c-.3,0-.55-.63-.55-1.41v-2.2c0-.77.25-1.4.55-1.4h80.48C367.84,365.73,368.09,366.36,368.09,367.13Z" transform="translate(0 -67.73)"/><path class="cls-10" d="M368.09,367.13v2.2c0,.78-.22,1.41-.51,1.41H303.7c-.28,0-.51-.63-.51-1.41v-2.2c0-.77.23-1.4.51-1.4h63.88C367.87,365.73,368.09,366.36,368.09,367.13Z" transform="translate(0 -67.73)"/><path class="cls-5" d="M347.73,370.74H290.6V454h57.13Z" transform="translate(0 -67.73)"/><path class="cls-11" d="M363.74,370.74H306.61V454h57.13Z" transform="translate(0 -67.73)"/><path class="cls-12" d="M360.67,449.39h-51v-76.3h51Zm-50.44-.55h49.89v-75.2H310.23Z" transform="translate(0 -67.73)"/><path class="cls-12" d="M360.39,398.33H310v.55h50.43Z" transform="translate(0 -67.73)"/><path class="cls-12" d="M360.39,424.06H310v.55h50.43Z" transform="translate(0 -67.73)"/><path class="cls-12" d="M340.34,378H331a.83.83,0,0,1,0-1.65h9.36a.84.84,0,0,1,.83.82.83.83,0,0,1-.25.59A.83.83,0,0,1,340.34,378Z" transform="translate(0 -67.73)"/><path class="cls-12" d="M340.34,403.18H331a.79.79,0,0,1-.58-.25.82.82,0,0,1,0-1.16.79.79,0,0,1,.58-.25h9.36a.83.83,0,0,1,0,1.66Z" transform="translate(0 -67.73)"/><path class="cls-12" d="M340.34,429.41H331a.83.83,0,0,1,0-1.65h9.36a.83.83,0,0,1,.58.24.81.81,0,0,1,.25.58.83.83,0,0,1-.25.59A.83.83,0,0,1,340.34,429.41Z" transform="translate(0 -67.73)"/><path class="cls-13" d="M592.36,180.06H556.15a3,3,0,0,0-3,3V218a3,3,0,0,0,3,3h36.21a3,3,0,0,0,3-3V183.08A3,3,0,0,0,592.36,180.06Z" transform="translate(0 -67.73)"/><path class="cls-11" d="M590.79,181.84H557.71A2.76,2.76,0,0,0,555,184.6v31.91a2.76,2.76,0,0,0,2.76,2.76h33.08a2.76,2.76,0,0,0,2.76-2.76V184.6A2.76,2.76,0,0,0,590.79,181.84Z" transform="translate(0 -67.73)"/><path class="cls-12" d="M574.25,186.45a.88.88,0,1,0-.87-.87A.88.88,0,0,0,574.25,186.45Z" transform="translate(0 -67.73)"/><path class="cls-12" d="M580.44,186.82a.88.88,0,0,1,.87-.45.88.88,0,0,1,.74.63.89.89,0,0,1,0,.51.87.87,0,0,1-.29.42.88.88,0,0,1-.47.18.85.85,0,0,1-.5-.1,1,1,0,0,1-.42-.53A.89.89,0,0,1,580.44,186.82Z" transform="translate(0 -67.73)"/><path class="cls-12" d="M586.49,191.62a1,1,0,0,1,.49-.14.87.87,0,0,1,.49.16.82.82,0,0,1,.31.4.78.78,0,0,1,0,.5.86.86,0,0,1-.24.45.88.88,0,0,1-.46.23.86.86,0,0,1-.5-.06.88.88,0,0,1-.51-1A.93.93,0,0,1,586.49,191.62Z" transform="translate(0 -67.73)"/><path class="cls-12" d="M589.49,199.06a.88.88,0,0,1,.86,1.05.9.9,0,0,1-.24.45.87.87,0,0,1-1,.19.92.92,0,0,1-.4-.33.91.91,0,0,1-.15-.48.88.88,0,0,1,.26-.62A.85.85,0,0,1,589.49,199.06Z" transform="translate(0 -67.73)"/><path class="cls-12" d="M588,207.69a.88.88,0,0,1,.19,1,.88.88,0,0,1-1.62,0,.89.89,0,0,1,0-.51.9.9,0,0,1,.24-.45.89.89,0,0,1,.62-.25A.9.9,0,0,1,588,207.69Z" transform="translate(0 -67.73)"/><path class="cls-12" d="M582.46,213.2a.9.9,0,0,1,.24.45.89.89,0,0,1-.05.51.94.94,0,0,1-.32.39.86.86,0,0,1-1,0,.88.88,0,0,1-.37-.9.83.83,0,0,1,.24-.45.92.92,0,0,1,.28-.19,1,1,0,0,1,.33-.06,1,1,0,0,1,.34.06A1.07,1.07,0,0,1,582.46,213.2Z" transform="translate(0 -67.73)"/><path class="cls-12" d="M573.38,216.05a.9.9,0,0,1,.14-.48.92.92,0,0,1,.4-.33.87.87,0,0,1,1,.19.9.9,0,0,1,.24.45.89.89,0,0,1-.05.51.94.94,0,0,1-.32.39.88.88,0,0,1-.49.15.87.87,0,0,1-.87-.88Z" transform="translate(0 -67.73)"/><path class="cls-12" d="M568,186.82a.88.88,0,0,0-.87-.45.88.88,0,0,0-.74.63.89.89,0,0,0,0,.51.87.87,0,0,0,.29.42.91.91,0,0,0,1,.08.9.9,0,0,0,.41-.53A.84.84,0,0,0,568,186.82Z" transform="translate(0 -67.73)"/><path class="cls-12" d="M562,191.62a1,1,0,0,0-.49-.14.89.89,0,0,0-.49.16.8.8,0,0,0-.31.39.89.89,0,0,0-.05.51.92.92,0,0,0,.25.44.83.83,0,0,0,.45.24.89.89,0,0,0,.9-.39.94.94,0,0,0,.12-.66A.93.93,0,0,0,562,191.62Z" transform="translate(0 -67.73)"/><path class="cls-12" d="M559,199.06a.84.84,0,0,0-.49.15.77.77,0,0,0-.32.39.81.81,0,0,0,0,.51.83.83,0,0,0,.24.45.91.91,0,0,0,.44.24,1,1,0,0,0,.51-.05.84.84,0,0,0,.39-.33.83.83,0,0,0,.15-.48.89.89,0,0,0-.87-.88Z" transform="translate(0 -67.73)"/><path class="cls-12" d="M560.52,207.69a.9.9,0,0,0-.24.45.81.81,0,0,0,.05.51.88.88,0,0,0,.81.54.83.83,0,0,0,.48-.15.84.84,0,0,0,.33-.39.88.88,0,0,0-.19-1,.9.9,0,0,0-.62-.25A.89.89,0,0,0,560.52,207.69Z" transform="translate(0 -67.73)"/><path class="cls-12" d="M566.64,214.7a.88.88,0,1,0-.88-.88A.87.87,0,0,0,566.64,214.7Z" transform="translate(0 -67.73)"/><path class="cls-12" d="M574,199.94a.91.91,0,0,1,.14-.49.89.89,0,0,1,.4-.32.78.78,0,0,1,.5,0,.8.8,0,0,1,.45.24.86.86,0,0,1,.24.45.78.78,0,0,1,0,.5.88.88,0,0,1-.32.39.84.84,0,0,1-.49.15.85.85,0,0,1-.87-.87Z" transform="translate(0 -67.73)"/><path class="cls-12" d="M575,189h-.24v10.94H575Z" transform="translate(0 -67.73)"/><path class="cls-12" d="M580.36,195.1l-5.8,4.55.45.56,5.79-4.55Z" transform="translate(0 -67.73)"/><path class="cls-14" d="M484.89,354.45c-5.4,9.4-12.2,13-12.2,13H444.42S489,347.28,484.89,354.45Z" transform="translate(0 -67.73)"/><path class="cls-15" d="M519.76,447.85c-.31,3,3.82,3.73,8.6,4s3.34,1.26,9.88,2.52,9.2-.51,9.68-1.39-2.61-2.05-5.84-3.47l-1.23-.55c-3.64-1.65-5.65-5-8.47-8-2.67-2.91-5.14-12.17-5.14-12.17l-8.9-2s2.42,8.33,3.25,11.88c.49,2.09-.29,4.41-1,6.18A11.49,11.49,0,0,0,519.76,447.85Z" transform="translate(0 -67.73)"/><path class="cls-16" d="M528.36,451.87c4.78.29,3.33,1.26,9.87,2.52s9.2-.51,9.68-1.39-2.61-2.05-5.84-3.47l-.05.05a18.63,18.63,0,0,1-9.94,0c-4.32-1.22-8.5-3.86-11.48-4.73a11.89,11.89,0,0,0-.85,3C519.45,450.82,523.58,451.58,528.36,451.87Z" transform="translate(0 -67.73)"/><path class="cls-14" d="M506.28,344.83c-4.79-3.36-36.44-9.36-52.6-11.09l-17.87-15.51S420.61,340.75,420.5,358c-.06,8,3.64,8.83,3.64,8.83s57.25.42,59.76.68c4.11.43,9.52,10.66,10.88,20S520,434.67,520,434.67s5,1.6,7.29,1.46a7.19,7.19,0,0,0,3.62-1S517.08,352.4,506.28,344.83Z" transform="translate(0 -67.73)"/><path class="cls-15" d="M505,447.85c-.31,3,3.82,3.73,8.61,4s3.33,1.26,9.87,2.52,9.2-.51,9.68-1.39-2.61-2.05-5.84-3.47L526,449c-3.64-1.65-5.65-5-8.47-8-2.67-2.91-5.14-12.17-5.14-12.17l-8.89-2s2.41,8.33,3.24,11.88c.49,2.09-.29,4.41-1,6.18A12.09,12.09,0,0,0,505,447.85Z" transform="translate(0 -67.73)"/><path class="cls-14" d="M513.56,451.87c4.78.29,3.33,1.26,9.87,2.52s9.2-.51,9.68-1.39-2.61-2.05-5.84-3.47l0,.05a18.63,18.63,0,0,1-9.94,0c-4.32-1.22-8.5-3.86-11.48-4.73a11.89,11.89,0,0,0-.85,3C504.64,450.82,508.77,451.58,513.56,451.87Z" transform="translate(0 -67.73)"/><path class="cls-17" d="M491.34,344.83c-4.15-2.92-16.66-5.19-30.47-6.87a9.32,9.32,0,0,1-7.88-7l-32.11-12.76s-15.2,22.51-15.31,39.73c-.06,8,3.64,8.83,3.64,8.83s57.25.43,59.76.68c4.11.43,9.52,10.66,10.88,20s25.22,47.22,25.22,47.22,5,1.59,7.29,1.46a7.24,7.24,0,0,0,3.62-1S502.14,352.4,491.34,344.83Z" transform="translate(0 -67.73)"/><path class="cls-14" d="M448.38,224.71c-4.42-2.32-11.13-2.63-12.22-2.78-13.05-1.75-20.91,17.21-21.37,23-.85,10.6-6.46,12.2-14.33,18.84-15.82,13.3-11.18,28.76-2.53,34.5,5.18,3.45,14.33,0,14.33,0s25-13.91,37.28-20.66C467.92,274.94,459.62,230.61,448.38,224.71Z" transform="translate(0 -67.73)"/><path class="cls-15" d="M445.65,271c.06,0-5.8,2.69-10,1.29-4-1.31-7.48-7.29-7.43-7.3,1.73-.25,3.48-2,4-12l.77.19,12.85,3.25s-.51,4.07-.72,7.92C444.89,267.58,444.93,270.65,445.65,271Z" transform="translate(0 -67.73)"/><path class="cls-18" d="M445.79,256.42s0,.84-.48,4.63c-7.26-1.83-10.47-4.24-12.73-7Z" transform="translate(0 -67.73)"/><path class="cls-15" d="M448.53,256.94s-17,2.76-18.56-7.85-4.8-17.4,6-19.62,13.49,1.53,14.87,4.94S452.91,256,448.53,256.94Z" transform="translate(0 -67.73)"/><path class="cls-14" d="M448.55,229s-7.72,12.18-14.61,15.06-10.28,1.43-10.28,1.43a29.06,29.06,0,0,0,3.95-11.14,5.29,5.29,0,0,1,1.05-2.54,5.18,5.18,0,0,1,2.18-1.66C435.79,228.21,445.35,225.08,448.55,229Z" transform="translate(0 -67.73)"/><path class="cls-14" d="M441.78,230.21s4.51,2.33,6.38,4.49,3.87,7.79,3.73,10.35c0,0,2.23-12.25-2.42-16.46C444.54,224.13,441.78,230.21,441.78,230.21Z" transform="translate(0 -67.73)"/><path class="cls-19" d="M459.25,297c-.52,34.55-.14,27.32-3.93,30.6-.91.79-3.47,1.26-6.84,1.48-10.6.71-29.21-1-29.92-3-2.45-6.77-.72-8.87-2.75-19.25-.21-1.1-.48-2.29-.79-3.59-1.7-7.12-3.35-9.55,2.68-21,5.47-10.36,11.9-18.78,12.41-18.48,14.43,8.57,14.92,1.39,14.92,1.39S459.51,280.11,459.25,297Z" transform="translate(0 -67.73)"/><path class="cls-19" d="M445,265.12s14.77,2.5,16.51,8.89,12,44,12,44-7.55,1.36-11-2.13-12.13-32.34-12.13-32.34Z" transform="translate(0 -67.73)"/><path class="cls-20" d="M448.49,329c-10.6.71-29.22-1-29.93-3-2.44-6.77-.71-8.87-2.74-19.25l5.1-14.38s-.84,16,3.88,20.23,19.35,8.14,21.64,11.66A12.74,12.74,0,0,1,448.49,329Z" transform="translate(0 -67.73)"/><path class="cls-15" d="M436.35,322.3s10.45-2.32,12.14-1.4,5.81,4.31,6.32,5.49-3.75-.9-5.14-1.27c-.9-.24-3.27.59-4.44,1-4.93,1.65-8,.8-8,.8Z" transform="translate(0 -67.73)"/><path class="cls-19" d="M430.11,263.73s-14.79.87-19.65,7.64c-6.84,9.54-20.4,50.18-12.63,55.59,8.76,6.11,39.86,1.6,39.86,1.6s1-4.84-.41-7.17-24.83-6.12-25.91-7.2,13.5-21.06,13.5-24.29S430.11,263.73,430.11,263.73Z" transform="translate(0 -67.73)"/><path class="cls-15" d="M449,323.82s2.19,2.83,2.9,3.16a2.16,2.16,0,0,0,1.18.26l-1.47-2.66Z" transform="translate(0 -67.73)"/><path class="cls-15" d="M448.49,320.9l6.37,3.1a1.13,1.13,0,0,1-1.06.4,15,15,0,0,1-2.76-.75Z" transform="translate(0 -67.73)"/><path class="cls-21" d="M472,328.23H442.37a2.36,2.36,0,0,1,2.36-2.35H472Z" transform="translate(0 -67.73)"/><path class="cls-21" d="M471.86,296h45.72l-11,32.2h-46Z" transform="translate(0 -67.73)"/><path class="cls-22" d="M518.25,296l-11,32.2h-46L472.53,296Z" transform="translate(0 -67.73)"/><path class="cls-19" d="M493.61,311.84a3,3,0,0,1-2.75,2.22,1.71,1.71,0,0,1-1.72-2.22,3,3,0,0,1,2.75-2.23A1.72,1.72,0,0,1,493.61,311.84Z" transform="translate(0 -67.73)"/><path class="cls-23" d="M632.51,328.23H432.15a1.53,1.53,0,0,0-1.52,1.53V334a1.52,1.52,0,0,0,1.52,1.53H632.51A1.52,1.52,0,0,0,634,334v-4.19A1.53,1.53,0,0,0,632.51,328.23Z" transform="translate(0 -67.73)"/><path class="cls-23" d="M637.41,454.81h.09a1.92,1.92,0,0,0,.69-.22,1.74,1.74,0,0,0,.87-1.11,1.7,1.7,0,0,0,.06-.71L621.27,331.93l-6.54.2,21,121.48a1.51,1.51,0,0,0,1.67,1.2Z" transform="translate(0 -67.73)"/><path class="cls-23" d="M425.44,454.81h-.08a1.86,1.86,0,0,1-.69-.22,1.73,1.73,0,0,1-.55-.46,1.88,1.88,0,0,1-.39-1.36l17.86-120.84,6.53.2-21,121.48a1.56,1.56,0,0,1-.6.94A1.53,1.53,0,0,1,425.44,454.81Z" transform="translate(0 -67.73)"/><path class="cls-23" d="M466.78,454.81h-.09a1.92,1.92,0,0,1-.69-.22,1.73,1.73,0,0,1-.55-.46,1.9,1.9,0,0,1-.33-.65,1.88,1.88,0,0,1-.05-.71l17.85-120.84,6.54.2-21,121.48a1.51,1.51,0,0,1-1.67,1.2Z" transform="translate(0 -67.73)"/><path class="cls-14" d="M572.11,454.71h35.43c1.7-2.08,1.07-9.75.82-12.25-.06-.51-.09-.8-.09-.8s-12.1-9.68-13.76-2.27c0,.24-.12.46-.18.69-2.1,6.93-11.49,10.08-16.91,10.95C573.89,451.61,572.59,453.44,572.11,454.71Z" transform="translate(0 -67.73)"/><path class="cls-14" d="M668.78,339.61c-1.28,0-60.69,11.15-70.52,23.32-4.9,6.08-5.63,76.24-5.63,76.24s6.07,7.53,19.19,3.16c0,0,9.62-48,8.9-62.57-.19-4,40.59-.59,48.06-2.52s25.7-18.16,21.68-26.08S668.78,339.61,668.78,339.61Z" transform="translate(0 -67.73)"/><path class="cls-15" d="M598.52,322.43s-12,.16-14.82,1.37-8.58,4-7,4.43,8.88-.17,10.46.07a27.06,27.06,0,0,0,4.52-.07h5.5Z" transform="translate(0 -67.73)"/><path class="cls-15" d="M584.51,293.67s-4.09-2.92-8-3.48a34.36,34.36,0,0,1-5.79-1.2c-3.67-1.29-11-7.87-10.44-8.64,1.78-2.48,10.33,2.76,11.82,2.2s-2.86-3.67-1.35-4.76c.79-.57,2.65,2.29,4.16,2.57,2,.4,3.66,3.29,4.27,3.44,1.2.29,6.47,4.21,6.47,4.21Z" transform="translate(0 -67.73)"/><path class="cls-21" d="M662.86,259.58s-9.12,2.83-18.11,27.58-12.4,26.08-15.67,27-31.94,6.68-31.94,6.68v7.34h44.19s16.56-15.76,21.53-26.36S662.86,259.58,662.86,259.58Z" transform="translate(0 -67.73)"/><path class="cls-24" d="M556.45,454.71h35.43c1.7-2.08,1.08-9.75.82-12.25-.06-.51-.09-.8-.09-.8s-12.1-9.68-13.76-2.27c-.05.24-.11.46-.18.69-2.09,6.93-11.49,10.08-16.91,10.95C558.24,451.61,556.93,453.44,556.45,454.71Z" transform="translate(0 -67.73)"/><path class="cls-17" d="M651.28,339.61c-1.28,0-60.69,11.15-70.52,23.32-4.91,6.08-5.64,76.24-5.64,76.24s6.08,7.53,19.19,3.16c0,0,9.62-48,8.91-62.57-.2-4,40.59-.59,48.06-2.52S677,359.08,673,351.16,651.28,339.61,651.28,339.61Z" transform="translate(0 -67.73)"/><path class="cls-15" d="M655,267.43a57.21,57.21,0,0,0,12.63-2.75c4.84-1.57,8.74-3.87,6.23-8.29-2.32-4.08-6.07-13.19-5.82-20.73l-9,7.26-6.11,4.93a72,72,0,0,0,.69,8c.12.93.27,1.93.44,3a2.21,2.21,0,0,1-.18,1.24,2.25,2.25,0,0,1-.83.95l-.14.08A3.42,3.42,0,0,0,655,267.43Z" transform="translate(0 -67.73)"/><path class="cls-18" d="M652.91,246.65s-.32,1,.22,4.95c5.46-.89,10.56-5.24,10.56-5.24-2.78-.76-3.79-3.76-5.86-3.48Z" transform="translate(0 -67.73)"/><path class="cls-15" d="M647.86,247.54s21,3.48,22.95-9.62,6-21.47-7.31-24.25-16.67,1.82-18.39,6S642.45,246.28,647.86,247.54Z" transform="translate(0 -67.73)"/><path class="cls-17" d="M642,213.91c-.9,3.16,1.51,7,5.56,8.26,6,1.88,4.68,9.25,7.39,9.15s3.79-4.23,6.21-.93c2.06,2.82-1.72,6.16-1.46,7.71.45,2.65,4.61,8.08,8.35,7.81s10.76-18.08,9.36-23.59-7-11.31-12.32-12.11-12.68,1.49-14.38,1.49S642.51,212.21,642,213.91Z" transform="translate(0 -67.73)"/><path class="cls-22" d="M690.75,277.77c-3-12.21-11.42-25-17.09-25-9.66,0-23.54,2.57-29.15,16.4-4.12,10.18-9.63,68.76-3.41,72.93,14.23,9.52,47.21,29,53.07,9.14C699.54,333.06,696,299,690.75,277.77Z" transform="translate(0 -67.73)"/><path class="cls-22" d="M667.29,265.62a11.45,11.45,0,0,0-17.71-4.93A108.33,108.33,0,0,0,637.44,272c-18,19.2-21.69,19.08-25.07,18.68s-32-6.47-32-6.47a8.58,8.58,0,0,0-2.32,2.83,5.35,5.35,0,0,0-.57,3.93c-1.13-.73,10.13,7,15.74,10.13,7.4,4.08,18.55,7.91,23,9.37a5.94,5.94,0,0,0,3.86-.06c6.6-2.38,28.74-11,46.76-26.06C671.59,280.42,669.84,272.26,667.29,265.62Z" transform="translate(0 -67.73)"/><path class="cls-19" d="M674.63,252.88,672.45,248s-19.58,1.59-22.86,12.73C649.59,260.69,664.76,253.12,674.63,252.88Z" transform="translate(0 -67.73)"/><path class="cls-8" d="M722.16,454.27h.13a1.83,1.83,0,0,0,1.86-2l-7.37-73.63-6.44.58,10.59,74a1.17,1.17,0,0,0,.43.73A1.15,1.15,0,0,0,722.16,454.27Z" transform="translate(0 -67.73)"/><path class="cls-8" d="M684.21,454.27h.13a1.84,1.84,0,0,0,1.86-2l-7.38-73.63-6.43.58,10.59,74a1.21,1.21,0,0,0,.42.73A1.19,1.19,0,0,0,684.21,454.27Z" transform="translate(0 -67.73)"/><path class="cls-25" d="M613,454.27h-.14a1.83,1.83,0,0,1-1.85-2l7.37-73.63,6.43.58-10.58,74a1.17,1.17,0,0,1-.43.73A1.22,1.22,0,0,1,613,454.27Z" transform="translate(0 -67.73)"/><path class="cls-8" d="M720.07,368.25l7-61.49c.92-8.86-2.05-17.54-14.84-18.21l-22.5-1.38c-13.33-.55-19.35,10.55-21,19.1l-13.35,67.59Z" transform="translate(0 -67.73)"/><path class="cls-25" d="M616.45,368H720v8.14a3.61,3.61,0,0,1-1.07,2.58,3.66,3.66,0,0,1-2.58,1.07H616.45a3.66,3.66,0,0,1-2.58-1.07,3.61,3.61,0,0,1-1.07-2.58v-4.49a3.61,3.61,0,0,1,1.07-2.58A3.66,3.66,0,0,1,616.45,368Z" transform="translate(0 -67.73)"/><path class="cls-8" d="M658.16,368H720v9a2.85,2.85,0,0,1-.21,1.08,2.74,2.74,0,0,1-.61.92,2.82,2.82,0,0,1-.92.62,3,3,0,0,1-1.09.22h-59a2.83,2.83,0,0,1-2.83-2.84v-6.12a2.85,2.85,0,0,1,.21-1.08,2.9,2.9,0,0,1,1.54-1.54A2.86,2.86,0,0,1,658.16,368Z" transform="translate(0 -67.73)"/></g></g></g></svg>