<svg width="849" height="455" viewBox="0 0 849 455" fill="none" xmlns="http://www.w3.org/2000/svg">
<mask id="mask0" mask-type="alpha" maskUnits="userSpaceOnUse" x="0" y="0" width="953" height="455">
<path d="M245.526 246.296C231.117 194.021 76.302 74.0005 0.486328 67.8571V0H952.999V402.535C881.791 439.396 686.889 461.65 606.593 453.218C522.818 444.422 469.304 385.194 433.18 340.961C392.131 290.697 263.537 311.64 245.526 246.296Z" fill="#4174B8"/>
</mask>
<g mask="url(#mask0)">
<path d="M302.183 454.725C302.183 454.725 231.965 370.154 266.283 283.086C288.652 226.333 372.554 195.235 419.916 226.333C440.085 239.578 504.791 226.78 539.34 171.945C606.481 65.3884 840.802 130.103 798.138 293.705C777.493 372.876 860.965 375.744 818.433 454.894L302.183 454.725Z" fill="#EBF3FA"/>
<path d="M354.162 315.534C354.162 315.534 347.08 307.274 353.725 302.028C353.725 302.028 358.58 299.089 362.536 299.327C362.536 299.327 356.928 308.731 358.742 309.666C360.557 310.601 364.236 298.738 364.236 298.738C364.236 298.738 375.282 297.667 378.836 299.364C378.836 299.364 369.393 307.088 371.382 307.552C373.372 308.015 383.567 300.437 383.567 300.437C383.567 300.437 393.847 302.187 393.3 308.458C392.753 314.728 389.21 316.664 387.663 316.497C386.116 316.33 376.998 312.854 376.806 314.129C376.614 315.405 382.091 319.574 385.93 319.766C385.93 319.766 378.681 327.757 373.865 325.45C369.048 323.143 368.645 319.488 365.632 318.116C362.62 316.745 360.066 316.749 361.306 318.148C362.547 319.546 367.987 320.905 369.697 323.943C371.407 326.98 372.956 329.028 367.973 328.276C362.989 327.525 354.888 323.882 354.531 319.707L354.162 315.534Z" fill="#C8DBF4"/>
<path d="M388.249 308.627C388.249 308.627 360.326 307.552 354.161 315.534C354.161 315.534 352.797 319.619 348.601 323.337L347.945 325.12C347.945 325.12 352.785 320.018 354.516 319.711C354.516 319.711 351.808 309.819 388.249 308.627Z" fill="#C8DBF4"/>
<path d="M348.603 323.329C348.603 323.329 342.609 327.761 342.193 335.679L343.281 335.777C343.281 335.777 345.196 327.59 348.655 324.387C352.115 321.185 348.603 323.329 348.603 323.329Z" fill="#C8DBF4"/>
<path d="M329.399 305.147C329.399 305.147 340.673 298.838 335.408 290.278C335.408 290.278 331.203 285.021 326.695 283.671C326.695 283.671 329.1 296.436 326.695 296.736C324.29 297.037 325.044 282.318 325.044 282.318C325.044 282.318 313.176 276.613 308.52 277.062C308.52 277.062 315.88 289.528 313.477 289.228C311.074 288.927 302.812 276.312 302.812 276.312C302.812 276.312 290.657 274.064 288.694 281.268C286.732 288.472 289.895 292.081 291.699 292.54C293.503 293 305.061 292.839 304.767 294.342C304.472 295.845 296.655 298.246 292.298 296.895C292.298 296.895 297.1 308.758 303.414 308.167C309.727 307.577 311.675 303.661 315.582 303.366C319.488 303.072 322.34 304.118 320.384 305.17C318.427 306.222 311.823 305.514 308.667 308.195C305.51 310.875 302.958 312.528 308.817 313.731C314.675 314.933 325.19 314.179 327.292 309.675L329.399 305.147Z" fill="#C8DBF4"/>
<path d="M294.254 283.52C294.254 283.52 325.797 293.732 329.4 305.147C329.4 305.147 329.25 310.253 332.405 316.11V318.363C332.405 318.363 329.102 310.704 327.298 309.652C327.298 309.652 334.357 299.74 294.254 283.52Z" fill="#C8DBF4"/>
<path d="M332.415 316.11C332.415 316.11 337.279 323.496 334.503 332.487L333.25 332.151C333.25 332.151 334.465 322.248 331.92 317.267C329.375 312.286 332.415 316.11 332.415 316.11Z" fill="#C8DBF4"/>
<path d="M347.324 296.448C347.324 296.448 332.473 288.134 339.403 276.849C339.403 276.849 344.948 269.92 350.886 268.137C350.886 268.137 347.717 284.965 350.886 285.361C354.055 285.758 353.064 266.365 353.064 266.365C353.064 266.365 368.706 258.85 374.844 259.435C374.844 259.435 365.142 275.867 368.309 275.471C371.476 275.074 382.366 258.445 382.366 258.445C382.366 258.445 398.405 255.477 400.979 264.979C403.554 274.481 399.395 279.233 397.012 279.825C394.63 280.418 379.391 280.222 379.786 282.201C380.18 284.18 390.48 287.349 396.221 285.568C396.221 285.568 389.885 301.208 381.569 300.414C373.253 299.621 370.679 294.475 365.53 294.081C360.381 293.686 356.621 295.07 359.195 296.457C361.77 297.843 370.48 296.909 374.645 300.444C378.811 303.978 382.162 306.155 374.447 307.739C366.733 309.324 352.876 308.326 350.095 302.387L347.324 296.448Z" fill="#D4E4F8"/>
<path d="M393.655 267.939C393.655 267.939 352.076 281.401 347.324 296.448C347.324 296.448 347.521 303.178 343.357 310.9V313.868C343.357 313.868 347.713 303.771 350.089 302.387C350.095 302.387 340.789 289.321 393.655 267.939Z" fill="#D4E4F8"/>
<path d="M343.365 310.9C343.365 310.9 336.953 320.634 340.609 332.487L342.258 332.042C342.258 332.042 340.657 318.989 344.012 312.42C347.367 305.85 343.365 310.9 343.365 310.9Z" fill="#D4E4F8"/>
<path d="M346.822 358.19C350.642 358.19 354.425 357.438 357.954 355.976C361.483 354.515 364.69 352.372 367.391 349.671C370.092 346.971 372.234 343.764 373.696 340.235C375.158 336.707 375.91 332.925 375.91 329.105H317.734C317.734 336.819 320.799 344.216 326.254 349.671C331.709 355.125 339.107 358.19 346.822 358.19Z" fill="#D4E4F8"/>
<path d="M320.923 356.078H372.726C373.678 356.078 374.591 356.456 375.264 357.129C375.937 357.802 376.315 358.715 376.315 359.666H317.334C317.334 358.715 317.712 357.802 318.385 357.129C319.058 356.456 319.971 356.078 320.923 356.078Z" fill="#D4E4F8"/>
<path d="M376.573 329.101H316.777V329.992H376.573V329.101Z" fill="#9FC1F4"/>
<path d="M496.922 454.122H497.066C498.242 454.101 499.154 453.141 499.037 452.034L491.197 373.738L484.355 374.348L495.613 453.065C495.667 453.37 495.829 453.645 496.07 453.839C496.31 454.033 496.613 454.133 496.922 454.122Z" fill="#8CB4F4"/>
<path d="M421.42 454.122H421.276C420.1 454.101 419.188 453.141 419.305 452.034L427.145 373.738L433.987 374.348L422.729 453.065C422.676 453.37 422.514 453.645 422.273 453.839C422.032 454.034 421.729 454.134 421.42 454.122Z" fill="#8CB4F4"/>
<path d="M552.239 454.122H552.383C553.558 454.101 554.47 453.141 554.354 452.034L546.514 373.738L539.672 374.348L550.932 453.065C550.984 453.37 551.146 453.645 551.387 453.839C551.627 454.033 551.93 454.134 552.239 454.122Z" fill="#8CB4F4"/>
<path d="M423.756 362.347L409.836 293.624C408.051 284.32 415.761 275.813 425.775 276.041L452.616 276.654C457.129 276.755 461.493 278.293 465.071 281.046C468.649 283.799 471.255 287.622 472.509 291.958L492.873 362.347H423.756Z" fill="#8CB4F4"/>
<path d="M432.176 362.347L418.256 293.624C416.471 284.32 424.181 275.813 434.195 276.041L461.036 276.654C465.548 276.757 469.91 278.296 473.487 281.049C477.063 283.801 479.668 287.623 480.922 291.958L501.285 362.347H432.176Z" fill="#8CB4F4"/>
<path d="M533.834 374.88L427.634 374.88C426.605 374.88 425.618 374.471 424.891 373.744C424.164 373.017 423.755 372.03 423.755 371.001V362.336H533.834C534.863 362.336 535.849 362.745 536.577 363.472C537.304 364.199 537.713 365.186 537.713 366.215V370.991C537.714 371.501 537.615 372.007 537.421 372.478C537.226 372.95 536.941 373.379 536.58 373.74C536.22 374.102 535.792 374.388 535.321 374.584C534.849 374.779 534.344 374.88 533.834 374.88Z" fill="#8CB4F4"/>
<path d="M477.471 374.88H545.169C546.896 374.88 548.295 373.481 548.295 371.755V365.472C548.295 363.746 546.896 362.347 545.169 362.347H477.471C475.745 362.347 474.346 363.746 474.346 365.472V371.755C474.346 373.481 475.745 374.88 477.471 374.88Z" fill="#8CB4F4"/>
<path d="M392.068 361.451V363.795C392.068 364.618 391.801 365.288 391.477 365.288H305.899C305.576 365.288 305.311 364.618 305.311 363.795V361.451C305.311 360.633 305.576 359.961 305.899 359.961H391.477C391.801 359.961 392.068 360.633 392.068 361.451Z" fill="#9ABFE2"/>
<path d="M392.068 361.451V363.795C392.068 364.618 391.824 365.288 391.525 365.288H323.592C323.293 365.288 323.051 364.618 323.051 363.795V361.451C323.051 360.633 323.293 359.961 323.592 359.961H391.525C391.824 359.961 392.068 360.633 392.068 361.451Z" fill="#BAD4F4"/>
<path d="M370.41 365.288H309.66V453.821H370.41V365.288Z" fill="#C8DBF4"/>
<path d="M387.435 365.288H326.686V453.821H387.435V365.288Z" fill="#DFEBFD"/>
<path d="M384.17 448.932H329.949V367.793H384.17V448.932ZM330.534 448.348H383.586V368.373H330.536L330.534 448.348Z" fill="#B7D3F3"/>
<path d="M383.879 394.632H330.242V395.216H383.879V394.632Z" fill="#B7D3F3"/>
<path d="M383.879 421.997H330.242V422.581H383.879V421.997Z" fill="#B7D3F3"/>
<path d="M362.554 373.022H352.602C352.369 373.022 352.146 372.929 351.981 372.764C351.817 372.599 351.725 372.376 351.725 372.143C351.725 371.911 351.818 371.688 351.982 371.524C352.146 371.36 352.369 371.267 352.602 371.266H362.554C362.787 371.266 363.01 371.359 363.175 371.523C363.34 371.687 363.433 371.91 363.433 372.143C363.433 372.376 363.34 372.599 363.175 372.764C363.01 372.929 362.787 373.022 362.554 373.022Z" fill="#B7D3F3"/>
<path d="M362.554 399.784H352.602C352.369 399.783 352.146 399.69 351.982 399.525C351.818 399.36 351.725 399.138 351.725 398.905C351.725 398.672 351.818 398.45 351.982 398.285C352.146 398.12 352.369 398.027 352.602 398.026H362.554C362.787 398.027 363.01 398.12 363.175 398.284C363.34 398.449 363.433 398.672 363.433 398.905C363.433 399.138 363.34 399.361 363.175 399.526C363.01 399.691 362.787 399.783 362.554 399.784Z" fill="#B7D3F3"/>
<path d="M362.554 427.679H352.602C352.369 427.679 352.146 427.586 351.982 427.422C351.818 427.258 351.725 427.035 351.725 426.802C351.725 426.57 351.817 426.347 351.981 426.182C352.146 426.017 352.369 425.924 352.602 425.924H362.554C362.787 425.924 363.01 426.017 363.175 426.182C363.34 426.346 363.433 426.57 363.433 426.802C363.433 427.035 363.34 427.258 363.175 427.423C363.01 427.587 362.787 427.679 362.554 427.679Z" fill="#B7D3F3"/>
<path d="M630.555 162.518H592.047C590.273 162.518 588.834 163.956 588.834 165.731V202.892C588.834 204.667 590.273 206.105 592.047 206.105H630.555C632.33 206.105 633.768 204.667 633.768 202.892V165.731C633.768 163.956 632.33 162.518 630.555 162.518Z" fill="#C0D8FB"/>
<path d="M628.886 164.407H593.715C592.094 164.407 590.779 165.721 590.779 167.342V201.283C590.779 202.904 592.094 204.218 593.715 204.218H628.886C630.508 204.218 631.822 202.904 631.822 201.283V167.342C631.822 165.721 630.508 164.407 628.886 164.407Z" fill="#DFEBFD"/>
<path d="M611.3 169.315C611.815 169.315 612.231 168.898 612.231 168.384C612.231 167.87 611.815 167.453 611.3 167.453C610.786 167.453 610.369 167.87 610.369 168.384C610.369 168.898 610.786 169.315 611.3 169.315Z" fill="#B7D3F3"/>
<path d="M617.883 169.701C617.972 169.54 618.107 169.409 618.271 169.325C618.435 169.241 618.62 169.207 618.803 169.228C618.986 169.249 619.159 169.324 619.299 169.443C619.44 169.562 619.542 169.72 619.592 169.897C619.643 170.074 619.64 170.262 619.583 170.438C619.527 170.613 619.42 170.768 619.275 170.882C619.131 170.997 618.956 171.066 618.772 171.081C618.589 171.096 618.405 171.056 618.244 170.966C618.028 170.846 617.869 170.646 617.801 170.408C617.734 170.171 617.763 169.917 617.883 169.701Z" fill="#B7D3F3"/>
<path d="M624.318 174.811C624.473 174.711 624.654 174.66 624.838 174.662C625.022 174.665 625.202 174.723 625.353 174.828C625.505 174.932 625.622 175.08 625.69 175.251C625.757 175.422 625.773 175.61 625.734 175.79C625.695 175.97 625.604 176.134 625.471 176.262C625.339 176.391 625.171 176.476 624.99 176.509C624.809 176.542 624.622 176.521 624.453 176.447C624.284 176.374 624.14 176.252 624.041 176.097C623.907 175.89 623.861 175.638 623.914 175.397C623.966 175.156 624.111 174.945 624.318 174.811Z" fill="#B7D3F3"/>
<path d="M627.503 182.723C627.688 182.723 627.868 182.777 628.021 182.879C628.175 182.981 628.294 183.126 628.365 183.296C628.436 183.466 628.455 183.654 628.419 183.834C628.383 184.015 628.295 184.181 628.165 184.312C628.034 184.442 627.868 184.531 627.688 184.567C627.507 184.603 627.32 184.585 627.15 184.514C626.979 184.444 626.834 184.325 626.731 184.171C626.629 184.018 626.574 183.838 626.574 183.654C626.574 183.407 626.672 183.171 626.846 182.996C627.02 182.822 627.257 182.724 627.503 182.723Z" fill="#B7D3F3"/>
<path d="M625.877 191.904C626.007 192.034 626.096 192.2 626.132 192.381C626.168 192.561 626.149 192.748 626.079 192.918C626.008 193.088 625.889 193.234 625.736 193.336C625.582 193.438 625.402 193.493 625.218 193.493C625.034 193.493 624.854 193.438 624.701 193.336C624.548 193.234 624.429 193.088 624.358 192.918C624.288 192.748 624.269 192.561 624.305 192.381C624.341 192.2 624.429 192.034 624.56 191.904C624.735 191.73 624.971 191.632 625.218 191.632C625.465 191.632 625.702 191.73 625.877 191.904Z" fill="#B7D3F3"/>
<path d="M620.032 197.763C620.162 197.893 620.25 198.059 620.286 198.239C620.321 198.419 620.303 198.606 620.233 198.776C620.162 198.945 620.043 199.09 619.89 199.192C619.738 199.294 619.558 199.349 619.374 199.349C619.191 199.349 619.011 199.294 618.858 199.192C618.706 199.09 618.587 198.945 618.516 198.776C618.446 198.606 618.427 198.419 618.463 198.239C618.499 198.059 618.587 197.893 618.717 197.763C618.803 197.677 618.905 197.608 619.018 197.561C619.131 197.514 619.252 197.49 619.374 197.49C619.497 197.49 619.618 197.514 619.731 197.561C619.843 197.608 619.946 197.677 620.032 197.763Z" fill="#B7D3F3"/>
<path d="M610.369 200.792C610.369 200.608 610.424 200.428 610.526 200.275C610.628 200.122 610.774 200.003 610.944 199.932C611.114 199.862 611.301 199.843 611.482 199.879C611.663 199.915 611.829 200.004 611.959 200.134C612.089 200.264 612.178 200.43 612.214 200.611C612.249 200.791 612.231 200.979 612.161 201.149C612.09 201.319 611.971 201.464 611.818 201.567C611.664 201.669 611.484 201.723 611.3 201.723C611.053 201.723 610.816 201.625 610.642 201.451C610.467 201.276 610.369 201.039 610.369 200.792Z" fill="#B7D3F3"/>
<path d="M604.693 169.701C604.603 169.54 604.468 169.409 604.304 169.325C604.141 169.241 603.955 169.207 603.772 169.228C603.589 169.249 603.417 169.324 603.276 169.443C603.136 169.562 603.034 169.72 602.983 169.897C602.932 170.074 602.936 170.262 602.992 170.438C603.048 170.613 603.156 170.768 603.3 170.882C603.444 170.997 603.619 171.066 603.803 171.081C603.987 171.096 604.171 171.056 604.332 170.966C604.547 170.846 604.706 170.646 604.774 170.408C604.842 170.171 604.812 169.917 604.693 169.701Z" fill="#B7D3F3"/>
<path d="M598.258 174.811C598.104 174.711 597.923 174.659 597.739 174.661C597.554 174.664 597.375 174.721 597.223 174.826C597.072 174.93 596.954 175.077 596.886 175.249C596.818 175.42 596.802 175.607 596.841 175.787C596.88 175.968 596.971 176.132 597.103 176.261C597.235 176.389 597.403 176.475 597.584 176.508C597.765 176.541 597.952 176.52 598.121 176.447C598.29 176.374 598.434 176.252 598.534 176.097C598.667 175.89 598.713 175.638 598.661 175.397C598.61 175.157 598.465 174.946 598.258 174.811Z" fill="#B7D3F3"/>
<path d="M595.066 182.723C594.882 182.723 594.702 182.778 594.549 182.88C594.395 182.982 594.276 183.128 594.206 183.298C594.135 183.468 594.117 183.655 594.153 183.836C594.189 184.016 594.277 184.182 594.408 184.312C594.538 184.443 594.704 184.531 594.884 184.567C595.065 184.603 595.252 184.585 595.422 184.514C595.593 184.444 595.738 184.324 595.84 184.171C595.943 184.018 595.997 183.838 595.997 183.654C595.997 183.407 595.899 183.17 595.724 182.996C595.55 182.821 595.313 182.723 595.066 182.723Z" fill="#B7D3F3"/>
<path d="M596.696 191.904C596.566 192.034 596.478 192.2 596.442 192.381C596.406 192.561 596.424 192.748 596.495 192.918C596.565 193.088 596.685 193.234 596.838 193.336C596.991 193.438 597.171 193.493 597.355 193.493C597.539 193.493 597.719 193.438 597.872 193.336C598.025 193.234 598.145 193.088 598.215 192.918C598.286 192.748 598.304 192.561 598.268 192.381C598.233 192.2 598.144 192.034 598.014 191.904C597.839 191.73 597.602 191.632 597.355 191.632C597.108 191.632 596.871 191.73 596.696 191.904Z" fill="#B7D3F3"/>
<path d="M603.203 199.352C603.717 199.352 604.134 198.935 604.134 198.421C604.134 197.907 603.717 197.49 603.203 197.49C602.688 197.49 602.271 197.907 602.271 198.421C602.271 198.935 602.688 199.352 603.203 199.352Z" fill="#B7D3F3"/>
<path d="M611.051 183.654C611.051 183.47 611.105 183.29 611.208 183.137C611.31 182.984 611.455 182.864 611.626 182.794C611.796 182.723 611.983 182.705 612.164 182.741C612.344 182.777 612.51 182.865 612.64 182.996C612.771 183.126 612.859 183.292 612.895 183.472C612.931 183.653 612.913 183.84 612.842 184.01C612.772 184.18 612.652 184.326 612.499 184.428C612.346 184.53 612.166 184.585 611.982 184.585C611.735 184.585 611.498 184.487 611.324 184.312C611.149 184.138 611.051 183.901 611.051 183.654Z" fill="#B7D3F3"/>
<path d="M612.11 172.027H611.855V183.654H612.11V172.027Z" fill="#B7D3F3"/>
<path d="M617.798 178.508L611.633 183.347L612.103 183.946L618.269 179.108L617.798 178.508Z" fill="#B7D3F3"/>
<path d="M516.273 347.962C510.527 357.959 503.301 361.818 503.301 361.818H473.236C473.236 361.818 520.655 340.338 516.273 347.962Z" fill="#233862"/>
<path d="M553.351 447.293C553.027 450.446 557.414 451.26 562.502 451.569C567.59 451.878 566.051 452.903 573.004 454.241C579.956 455.579 582.783 453.7 583.297 452.763C583.756 451.928 580.526 450.59 577.085 449.074C576.653 448.886 576.219 448.69 575.785 448.496C571.914 446.742 569.768 443.231 566.769 439.964C563.93 436.871 561.308 427.022 561.308 427.022L551.848 424.905C551.848 424.905 554.416 433.762 555.299 437.541C555.819 439.764 554.99 442.233 554.255 444.112C553.862 445.135 553.464 446.181 553.351 447.293Z" fill="#FFB27D"/>
<path d="M562.493 451.569C567.581 451.878 566.043 452.903 572.995 454.241C579.948 455.579 582.775 453.7 583.288 452.763C583.747 451.928 580.518 450.59 577.077 449.074L577.023 449.133C573.566 450.091 569.913 450.096 566.454 449.145C561.861 447.842 557.42 445.037 554.248 444.112C553.854 445.135 553.455 446.181 553.342 447.293C553.025 450.446 557.412 451.26 562.493 451.569Z" fill="#0F2549"/>
<path d="M539.019 337.733C533.929 334.159 500.263 327.788 483.08 325.947L464.081 309.455C464.081 309.455 447.917 333.393 447.796 351.707C447.735 360.244 451.669 361.1 451.671 361.1C451.673 361.1 512.548 361.551 515.218 361.827C519.586 362.276 525.346 373.156 526.787 383.065C528.227 392.974 553.613 433.278 553.613 433.278C553.613 433.278 558.906 434.975 561.355 434.831C563.988 434.677 565.207 433.787 565.207 433.787C565.207 433.787 550.498 345.782 539.019 337.733Z" fill="#233862"/>
<path d="M537.605 447.293C537.279 450.446 541.668 451.26 546.756 451.569C551.844 451.878 550.305 452.903 557.258 454.241C564.21 455.579 567.037 453.7 567.551 452.763C568.01 451.928 564.78 450.59 561.339 449.074C560.907 448.886 560.473 448.69 560.039 448.496C556.168 446.742 554.021 443.231 551.023 439.964C548.184 436.87 545.559 427.022 545.559 427.022L536.102 424.894C536.102 424.894 538.67 433.752 539.553 437.53C540.073 439.753 539.244 442.223 538.509 444.102C538.116 445.135 537.718 446.181 537.605 447.293Z" fill="#FFB27D"/>
<path d="M546.754 451.569C551.842 451.878 550.303 452.903 557.256 454.241C564.208 455.579 567.035 453.7 567.549 452.763C568.008 451.928 564.778 450.59 561.337 449.074L561.283 449.133C557.826 450.091 554.174 450.096 550.715 449.145C546.121 447.842 541.681 445.037 538.509 444.112C538.114 445.135 537.716 446.181 537.603 447.293C537.277 450.446 541.666 451.26 546.754 451.569Z" fill="#233862"/>
<path d="M523.132 337.733C518.712 334.629 505.412 332.222 490.731 330.427C488.748 330.184 486.885 329.345 485.389 328.022C483.892 326.699 482.832 324.954 482.348 323.016L448.204 309.447C448.204 309.447 432.038 333.385 431.919 351.698C431.858 360.236 435.794 361.092 435.794 361.092C435.794 361.092 496.673 361.543 499.341 361.818C503.709 362.267 509.469 373.147 510.91 383.057C512.35 392.966 537.736 433.27 537.736 433.27C537.736 433.27 543.031 434.967 545.478 434.823C548.111 434.668 549.33 433.779 549.33 433.779C549.33 433.779 534.611 345.782 523.132 337.733Z" fill="#2B478B"/>
<path d="M477.442 209.996C472.749 207.533 465.61 207.199 464.449 207.042C450.57 205.178 442.216 225.344 441.723 231.466C440.819 242.739 434.859 244.446 426.482 251.506C409.663 265.651 414.596 282.086 423.791 288.192C429.309 291.856 439.032 288.192 439.032 288.192C439.168 288.288 465.629 273.402 478.674 266.221C498.222 263.418 489.399 216.273 477.442 209.996Z" fill="#233862"/>
<path d="M474.546 259.263C474.606 259.295 468.378 262.127 463.883 260.643C459.653 259.249 455.929 252.882 455.987 252.874C457.822 252.606 459.689 250.786 460.211 240.067L461.023 240.275L474.692 243.728C474.692 243.728 474.151 248.058 473.928 252.151C473.74 255.585 473.777 258.856 474.546 259.263Z" fill="#FFB27D"/>
<path d="M474.694 243.724C474.694 243.724 474.694 244.615 474.182 248.644C466.457 246.695 463.044 244.131 460.641 241.198L474.694 243.724Z" fill="#ED975D"/>
<path d="M477.61 244.271C477.61 244.271 459.533 247.212 457.873 235.921C456.213 224.63 452.764 217.419 464.235 215.065C475.705 212.71 478.585 216.683 480.054 220.315C481.524 223.947 482.268 243.215 477.61 244.271Z" fill="#FFB27D"/>
<path d="M477.625 214.599C477.625 214.599 469.416 227.554 462.09 230.623C454.764 233.691 451.162 232.134 451.162 232.134C453.359 228.517 454.789 224.487 455.363 220.294C455.484 219.31 455.866 218.377 456.47 217.591C457.073 216.805 457.876 216.194 458.795 215.822C464.054 213.722 474.226 210.395 477.625 214.599Z" fill="#233862"/>
<path d="M470.422 215.852C470.422 215.852 475.224 218.327 477.209 220.624C479.122 222.853 481.329 228.907 481.176 231.625C481.176 231.625 483.548 218.599 478.606 214.121C473.359 209.378 470.422 215.852 470.422 215.852Z" fill="#233862"/>
<path d="M489.003 286.827C488.454 323.567 488.852 315.887 484.827 319.373C483.858 320.208 481.136 320.711 477.553 320.949C466.279 321.697 446.484 319.841 445.73 317.76C443.131 310.556 444.966 308.318 442.807 297.289C442.582 296.118 442.302 294.849 441.972 293.465C440.164 285.892 438.406 283.316 444.818 271.148C450.635 260.126 457.474 251.172 458.017 251.494C473.361 260.602 473.885 252.968 473.885 252.968C473.885 252.968 489.276 268.91 489.003 286.827Z" fill="white"/>
<path d="M473.889 252.968C473.889 252.968 489.591 255.629 491.445 262.426C493.299 269.223 504.21 309.186 504.21 309.186C504.21 309.186 496.185 310.627 492.477 306.919C488.769 303.212 479.574 272.523 479.574 272.523L473.889 252.968Z" fill="white"/>
<path d="M477.562 320.949C466.288 321.697 446.493 319.841 445.739 317.76C443.14 310.556 444.975 308.318 442.816 297.289L448.245 281.992C448.245 281.992 447.347 299.028 452.372 303.508C457.398 307.988 472.946 312.159 475.387 315.904C476.562 317.693 477.337 319.501 477.562 320.949Z" fill="#EBF3FF"/>
<path d="M464.656 313.783C464.656 313.783 475.77 311.309 477.563 312.294C479.357 313.28 483.739 316.872 484.288 318.123C484.837 319.373 480.296 317.173 478.818 316.778C477.862 316.522 475.344 317.405 474.097 317.822C468.853 319.569 465.638 318.672 465.638 318.672L464.656 313.783Z" fill="#FFB27D"/>
<path d="M458.02 251.494C458.02 251.494 442.288 252.414 437.123 259.618C429.851 269.759 415.424 312.981 423.692 318.736C433.003 325.229 466.075 320.436 466.075 320.436C466.075 320.436 467.175 315.292 465.645 312.806C464.114 310.32 439.234 306.299 438.085 305.151C436.937 304.003 452.439 282.762 452.439 279.318C452.439 275.874 458.02 251.494 458.02 251.494Z" fill="white"/>
<path d="M478.102 315.396C478.102 315.396 480.429 318.4 481.194 318.759C481.958 319.118 482.446 319.027 482.446 319.027L480.876 316.204L478.102 315.396Z" fill="#FFB27D"/>
<path d="M477.562 312.294L484.333 315.582C484.333 315.582 484.045 316.054 483.212 316.016C482.379 315.979 480.275 315.209 480.275 315.209L477.562 312.294Z" fill="#FFB27D"/>
<path d="M502.506 320.089H471.059C471.059 319.425 471.323 318.788 471.792 318.318C472.262 317.848 472.9 317.584 473.564 317.584H502.506V320.089Z" fill="#ED7D2B"/>
<path d="M502.415 285.846H551.035L539.372 320.089H490.439L502.415 285.846Z" fill="#ED7D2B"/>
<path d="M551.751 285.846L540.089 320.089H491.156L503.132 285.846H551.751Z" fill="#F99746"/>
<path d="M525.541 302.65C525.238 303.959 523.933 305.019 522.618 305.019C521.303 305.019 520.495 303.959 520.795 302.65C521.096 301.341 522.403 300.281 523.718 300.281C525.033 300.281 525.841 301.341 525.541 302.65Z" fill="white"/>
<path d="M673.252 320.089H460.191C459.295 320.089 458.568 320.815 458.568 321.711V326.17C458.568 327.066 459.295 327.792 460.191 327.792H673.252C674.148 327.792 674.874 327.066 674.874 326.17V321.711C674.874 320.815 674.148 320.089 673.252 320.089Z" fill="#182D4F"/>
<path d="M678.466 454.694H678.558C678.815 454.665 679.063 454.586 679.289 454.461C679.515 454.336 679.714 454.168 679.874 453.966C680.035 453.763 680.154 453.531 680.224 453.283C680.295 453.035 680.315 452.775 680.285 452.518L661.298 324.018L654.348 324.227L676.687 453.42C676.766 453.819 676.994 454.173 677.325 454.409C677.655 454.646 678.063 454.748 678.466 454.694Z" fill="#182D4F"/>
<path d="M453.053 454.694H452.963C452.706 454.665 452.458 454.586 452.232 454.461C452.006 454.336 451.807 454.168 451.647 453.966C451.486 453.763 451.367 453.531 451.297 453.283C451.226 453.035 451.206 452.775 451.236 452.518L470.223 324.018L477.173 324.227L454.834 453.42C454.755 453.82 454.527 454.174 454.196 454.411C453.865 454.647 453.456 454.749 453.053 454.694Z" fill="#182D4F"/>
<path d="M497.01 454.694H496.918C496.661 454.665 496.413 454.586 496.187 454.461C495.961 454.336 495.763 454.167 495.602 453.965C495.442 453.763 495.323 453.531 495.252 453.283C495.182 453.035 495.161 452.775 495.191 452.518L514.178 324.018L521.128 324.227L498.789 453.42C498.71 453.819 498.482 454.173 498.151 454.409C497.821 454.646 497.413 454.748 497.01 454.694Z" fill="#182D4F"/>
<path d="M609.021 454.589H646.696C648.509 452.379 647.843 444.221 647.567 441.557C647.511 441.02 647.473 440.707 647.473 440.707C647.473 440.707 634.606 430.418 632.839 438.296C632.785 438.545 632.72 438.785 632.649 439.025C630.422 446.394 620.436 449.742 614.669 450.675C610.919 451.293 609.533 453.23 609.021 454.589Z" fill="#233862"/>
<path d="M711.823 332.186C710.463 332.186 647.286 344.047 636.836 356.98C631.617 363.451 630.84 438.06 630.84 438.06C630.84 438.06 637.3 446.068 651.248 441.419C651.248 441.419 661.479 390.365 660.719 374.88C660.51 370.598 703.885 374.254 711.823 372.206C719.761 370.158 739.159 352.886 734.885 344.473C730.611 336.061 711.823 332.186 711.823 332.186Z" fill="#233862"/>
<path d="M637.108 313.914C637.108 313.914 624.372 314.085 621.351 315.376C618.33 316.666 612.223 319.632 613.86 320.087C615.497 320.542 623.303 319.899 624.988 320.158C626.673 320.417 628.757 320.085 629.79 320.087H635.636L637.108 313.914Z" fill="#FFB27D"/>
<path d="M622.208 283.337C622.208 283.337 617.863 280.232 613.648 279.629C611.24 279.287 608.902 278.857 607.489 278.36C603.595 276.988 595.797 269.985 596.394 269.162C598.283 266.53 607.378 272.102 608.965 271.505C610.551 270.908 605.914 267.609 607.528 266.449C608.363 265.843 610.341 268.878 611.952 269.183C614.132 269.601 615.836 272.674 616.493 272.834C617.769 273.147 623.364 277.308 623.364 277.308L622.208 283.337Z" fill="#FFB27D"/>
<path d="M705.531 247.085C705.531 247.085 695.831 250.091 686.273 276.406C676.714 302.721 673.086 304.143 669.612 305.168C666.137 306.193 635.643 312.265 635.643 312.265V320.077H682.631C682.631 320.077 700.248 303.318 705.531 292.037C710.813 280.756 705.531 247.085 705.531 247.085Z" fill="#ED7D2B"/>
<path d="M592.371 454.589H630.046C631.858 452.379 631.19 444.221 630.917 441.557C630.86 441.02 630.821 440.707 630.821 440.707C630.821 440.707 617.955 430.418 616.189 438.296C616.135 438.545 616.068 438.785 615.997 439.025C613.771 446.394 603.785 449.742 598.019 450.675C594.269 451.293 592.883 453.23 592.371 454.589Z" fill="#1B3051"/>
<path d="M693.21 332.186C691.848 332.186 628.673 344.047 618.221 356.98C613.001 363.451 612.225 438.06 612.225 438.06C612.225 438.06 618.684 446.068 632.633 441.419C632.633 441.419 642.864 390.365 642.104 374.88C641.895 370.598 685.27 374.254 693.21 372.206C701.15 370.158 720.544 352.886 716.27 344.473C711.996 336.061 693.21 332.186 693.21 332.186Z" fill="#2B478B"/>
<path d="M697.161 255.425C701.706 255.051 706.471 253.838 710.59 252.502C715.738 250.832 719.887 248.392 717.215 243.686C714.749 239.351 710.761 229.665 711.03 221.64L701.449 229.364L694.946 234.61C694.946 234.61 694.971 237.7 695.683 243.117C695.812 244.104 695.965 245.171 696.144 246.31C696.215 246.761 696.151 247.222 695.961 247.637C695.771 248.051 695.463 248.4 695.075 248.64L694.927 248.732C691.693 250.755 693.357 255.74 697.161 255.425Z" fill="#FFB27D"/>
<path d="M694.945 233.326C694.945 233.326 694.611 234.447 695.183 238.593C700.985 237.645 706.407 233.019 706.407 233.019C703.455 232.209 702.379 229.018 700.179 229.316L694.945 233.326Z" fill="#ED975D"/>
<path d="M689.577 234.272C689.577 234.272 711.894 237.977 713.988 224.043C716.082 210.109 720.374 201.21 706.215 198.254C692.055 195.298 688.481 200.195 686.652 204.675C684.823 209.155 683.827 232.94 689.577 234.272Z" fill="#FFB27D"/>
<path d="M683.38 198.515C682.422 201.87 684.986 205.955 689.291 207.301C695.681 209.297 694.268 217.135 697.145 217.029C700.022 216.923 701.181 212.524 703.749 216.037C705.941 219.035 701.926 222.59 702.202 224.233C702.676 227.055 707.098 232.829 711.081 232.539C715.065 232.249 722.52 213.317 721.03 207.46C719.539 201.602 713.574 195.428 707.929 194.576C702.283 193.724 694.445 196.16 692.635 196.16C690.825 196.16 683.887 196.703 683.38 198.515Z" fill="#2B478B"/>
<path d="M735.185 266.419C731.96 253.439 723.049 239.829 717.017 239.829C706.745 239.848 691.98 242.559 686.019 257.264C681.634 268.094 675.77 330.389 682.39 334.821C697.521 344.949 732.594 365.624 738.824 344.54C744.535 325.222 740.783 288.948 735.185 266.419Z" fill="#F99746"/>
<path d="M710.236 253.502C709.556 251.729 708.469 250.14 707.063 248.862C705.658 247.584 703.973 246.654 702.143 246.144C700.313 245.635 698.389 245.561 696.525 245.928C694.662 246.296 692.91 247.094 691.41 248.26C687.924 250.974 683.654 254.834 678.499 260.324C659.331 280.733 655.435 280.606 651.836 280.184C648.236 279.763 617.821 273.308 617.821 273.308C616.791 274.122 615.947 275.147 615.347 276.314C614.123 278.794 614.739 280.489 614.739 280.489C613.547 279.719 625.521 287.971 631.479 291.261C639.35 295.607 651.209 299.68 655.932 301.226C657.27 301.664 658.716 301.643 660.041 301.166C667.052 298.638 690.594 289.432 709.76 273.456C714.809 269.244 712.953 260.568 710.236 253.502Z" fill="#F99746"/>
<path d="M718.051 239.956L715.725 234.719C715.725 234.719 694.909 236.416 691.412 248.26C691.412 248.26 707.547 240.211 718.051 239.956Z" fill="white"/>
<path d="M768.59 454.122H768.732C769.907 454.101 770.82 453.141 770.705 452.034L762.865 373.738L756.023 374.348L767.281 453.065C767.334 453.37 767.496 453.645 767.737 453.839C767.978 454.034 768.281 454.134 768.59 454.122Z" fill="#8CB4F4"/>
<path d="M728.229 454.122H728.373C729.548 454.101 730.461 453.141 730.346 452.034L722.504 373.738L715.662 374.348L726.922 453.065C726.975 453.37 727.136 453.645 727.377 453.839C727.617 454.033 727.92 454.134 728.229 454.122Z" fill="#8CB4F4"/>
<path d="M652.461 454.122H652.317C651.141 454.101 650.229 453.141 650.344 452.034L658.186 373.738L665.027 374.348L653.77 453.065C653.716 453.37 653.554 453.645 653.313 453.839C653.073 454.033 652.77 454.133 652.461 454.122Z" fill="#73A2E5"/>
<path d="M766.371 362.643L773.815 297.25C774.79 287.827 771.635 278.6 758.035 277.884L734.106 276.423C719.925 275.838 713.522 287.639 711.727 296.726L697.529 368.609L766.371 362.643Z" fill="#8CB4F4"/>
<path d="M656.172 362.347H766.251V371.001C766.251 372.03 765.842 373.017 765.115 373.744C764.387 374.471 763.401 374.88 762.372 374.88H656.172C655.143 374.88 654.157 374.471 653.429 373.744C652.702 373.017 652.293 372.03 652.293 371.001V366.225C652.293 365.197 652.702 364.21 653.429 363.483C654.157 362.755 655.143 362.347 656.172 362.347Z" fill="#73A2E5"/>
<path d="M700.534 362.347H766.253V371.868C766.254 372.264 766.177 372.657 766.027 373.024C765.876 373.39 765.654 373.724 765.374 374.004C765.094 374.285 764.762 374.508 764.396 374.66C764.029 374.812 763.637 374.89 763.24 374.89H700.534C699.735 374.89 698.969 374.573 698.404 374.008C697.839 373.443 697.522 372.677 697.522 371.878V365.369C697.52 364.973 697.597 364.58 697.748 364.213C697.899 363.847 698.12 363.513 698.4 363.233C698.68 362.952 699.013 362.729 699.379 362.577C699.745 362.425 700.138 362.347 700.534 362.347Z" fill="#8CB4F4"/>
</g>
</svg>
