<svg width="41" height="28" viewBox="0 0 41 28" fill="none" xmlns="http://www.w3.org/2000/svg">
<path d="M9.8 0.791998C6.776 0.791998 4.436 2.052 2.78 4.608C1.268 6.948 0.512 10.116 0.512 14.148C0.512 18.144 1.268 21.312 2.78 23.688C4.436 26.208 6.776 27.504 9.8 27.504C12.824 27.504 15.164 26.208 16.82 23.688C18.332 21.312 19.088 18.108 19.088 14.148C19.088 10.152 18.332 6.984 16.82 4.608C15.164 2.052 12.824 0.791998 9.8 0.791998ZM9.8 4.104C11.888 4.104 13.4 5.256 14.264 7.596C14.876 9.18 15.2 11.376 15.2 14.148C15.2 16.884 14.876 19.08 14.264 20.7C13.4 23.004 11.888 24.192 9.8 24.192C7.676 24.192 6.2 23.004 5.336 20.7C4.688 19.08 4.4 16.884 4.4 14.148C4.4 11.376 4.688 9.18 5.336 7.596C6.2 5.256 7.676 4.104 9.8 4.104ZM31.7819 0.791998C29.0459 0.791998 26.8139 1.692 25.1579 3.564C23.5379 5.292 22.7099 7.596 22.6739 10.476H26.5979C26.6699 8.388 27.1019 6.84 27.9659 5.76C28.7939 4.644 30.0179 4.104 31.6379 4.104C33.1499 4.104 34.3379 4.464 35.1299 5.184C35.9219 5.904 36.3179 6.984 36.3179 8.424C36.3179 9.936 35.7059 11.34 34.5539 12.636C33.8339 13.392 32.6099 14.364 30.8819 15.588C27.9659 17.604 26.0219 19.152 25.0859 20.268C23.3579 22.212 22.5299 24.444 22.5299 27H40.2419V23.544H27.3899C27.9299 22.14 29.5859 20.52 32.3579 18.684C34.9139 16.956 36.6779 15.588 37.6859 14.544C39.3419 12.708 40.2059 10.692 40.2059 8.46C40.2059 6.192 39.4139 4.356 37.8659 2.916C36.2819 1.476 34.2299 0.791998 31.7819 0.791998Z" fill="#C4C4C4"/>
</svg>
