<svg width="293" height="309" viewBox="0 0 293 309" fill="none" xmlns="http://www.w3.org/2000/svg">
<path d="M285.754 46.9246H270.154V10.8504C270.154 6.54259 273.646 3.05056 277.954 3.05056C282.262 3.05056 285.754 6.54259 285.754 10.8504V46.9246Z" fill="#676E84"/>
<path d="M263.887 38.3229V269.318L273.095 304.714C274.473 310.012 281.995 310.012 283.373 304.714L292.581 269.318V38.3229C292.581 34.9551 289.851 32.2251 286.484 32.2251H269.985C266.617 32.2251 263.887 34.9551 263.887 38.3229Z" fill="#7DECC4"/>
<path d="M283.374 304.715L292.582 269.318H263.887L273.095 304.715C274.474 310.012 281.996 310.012 283.374 304.715Z" fill="#676E84"/>
<path d="M263.887 54.0798H292.582V73.3258H263.887V54.0798Z" fill="#676E84"/>
<path d="M227.332 308.688H34.555C26.3965 308.688 19.7832 302.074 19.7832 293.916V14.7718C19.7826 6.61388 26.3965 0 34.555 0H227.332C235.49 0 242.104 6.61388 242.104 14.7718V293.915C242.104 302.074 235.49 308.688 227.332 308.688Z" fill="#EAECF0"/>
<path d="M227.33 0H209.369V308.688H227.33C235.489 308.688 242.102 302.074 242.102 293.916V14.7718C242.102 6.61388 235.489 0 227.33 0V0Z" fill="#D3D7DE"/>
<path d="M141.82 40.2277H68.1698C65.5972 40.2277 63.5117 38.1423 63.5117 35.5697C63.5117 32.997 65.5972 30.9116 68.1698 30.9116H141.82C144.392 30.9116 146.478 32.997 146.478 35.5697C146.478 38.1423 144.392 40.2277 141.82 40.2277Z" fill="#676E84"/>
<path d="M206.768 90.0532H68.1698C65.5972 90.0532 63.5117 87.9677 63.5117 85.3951C63.5117 82.8225 65.5972 80.7371 68.1698 80.7371H206.769C209.342 80.7371 211.427 82.8225 211.427 85.3951C211.427 87.9677 209.341 90.0532 206.768 90.0532Z" fill="#676E84"/>
<path d="M206.768 135.592H68.1698C65.5972 135.592 63.5117 133.507 63.5117 130.934C63.5117 128.361 65.5972 126.276 68.1698 126.276H206.769C209.342 126.276 211.427 128.361 211.427 130.934C211.427 133.507 209.341 135.592 206.768 135.592Z" fill="#676E84"/>
<path d="M206.768 181.131H68.1698C65.5972 181.131 63.5117 179.046 63.5117 176.473C63.5117 173.9 65.5972 171.815 68.1698 171.815H206.769C209.342 171.815 211.427 173.9 211.427 176.473C211.427 179.046 209.341 181.131 206.768 181.131Z" fill="#676E84"/>
<path d="M206.768 226.67H68.1698C65.5972 226.67 63.5117 224.584 63.5117 222.012C63.5117 219.439 65.5972 217.354 68.1698 217.354H206.769C209.342 217.354 211.427 219.439 211.427 222.012C211.427 224.584 209.341 226.67 206.768 226.67Z" fill="#676E84"/>
<path d="M206.768 272.209H68.1698C65.5972 272.209 63.5117 270.123 63.5117 267.55C63.5117 264.978 65.5972 262.892 68.1698 262.892H206.769C209.342 262.892 211.427 264.978 211.427 267.55C211.427 270.123 209.341 272.209 206.768 272.209Z" fill="#676E84"/>
<path d="M29.2542 55.7917H10.3067C4.61464 55.7917 0 51.177 0 45.485C0 39.7929 4.61464 35.1783 10.3067 35.1783H29.2542C34.9463 35.1783 39.5609 39.7929 39.5609 45.485C39.5609 51.1776 34.9469 55.7917 29.2542 55.7917Z" fill="#676E84"/>
<path d="M29.2542 110.221H10.3067C4.61464 110.221 0 105.607 0 99.9146C0 94.2226 4.61464 89.6079 10.3067 89.6079H29.2542C34.9463 89.6079 39.5609 94.2226 39.5609 99.9146C39.5609 105.607 34.9469 110.221 29.2542 110.221Z" fill="#676E84"/>
<path d="M29.2542 164.651H10.3067C4.61464 164.651 0 160.036 0 154.344C0 148.652 4.61464 144.037 10.3067 144.037H29.2542C34.9463 144.037 39.5609 148.652 39.5609 154.344C39.5609 160.036 34.9469 164.651 29.2542 164.651Z" fill="#676E84"/>
<path d="M29.2542 219.08H10.3067C4.61464 219.08 0 214.466 0 208.773C0 203.081 4.61464 198.467 10.3067 198.467H29.2542C34.9463 198.467 39.5609 203.081 39.5609 208.773C39.5609 214.466 34.9469 219.08 29.2542 219.08Z" fill="#676E84"/>
<path d="M29.2542 273.509H10.3067C4.61464 273.509 0 268.895 0 263.203C0 257.511 4.61464 252.896 10.3067 252.896H29.2542C34.9463 252.896 39.5609 257.511 39.5609 263.203C39.5609 268.895 34.9469 273.509 29.2542 273.509Z" fill="#676E84"/>
</svg>
