<svg xmlns="http://www.w3.org/2000/svg" viewBox="0 0 1712.95 695.1"><defs><clipPath id="clip-path" transform="translate(265.45)"><path d="M0 378.5V0h1447.5v616.5c-125.5 37.33-463.8 85.1-813 69.5S66 474.5 0 378.5z" fill="none"/></clipPath><style>.cls-6{fill:#80aeff}.cls-7{fill:#112a54}.cls-8{fill:#2b478b}.cls-9{fill:#183368}.cls-10{fill:#ffb27d}.cls-11{fill:#ed975d}.cls-12{fill:#5895ed}.cls-14{fill:#fff}.cls-15{fill:#233862}.cls-17{fill:#66a4ff}.cls-18{fill:#4d96ff}.cls-19{fill:#ebf3fa}.cls-20{fill:#d35e2a}.cls-24{fill:#ffa15a}.cls-25{fill:#f2863d}.cls-26{fill:#ed985f}.cls-27{fill:#f9ddbf}.cls-28{fill:#efc59e}.cls-30{fill:#f47d42}.cls-31{fill:#ffc9a4}.cls-32{fill:#c94d47}.cls-33{fill:#b5453c}</style></defs><g id="Layer_2" data-name="Layer 2"><g id="Layer_1-2" data-name="Layer 1"><path d="M0 378.5V0h1447.5v616.5c-125.5 37.33-463.8 85.1-813 69.5S66 474.5 0 378.5z" transform="translate(265.45)" fill="#2b4573"/><g clip-path="url(#clip-path)"><path d="M-192.21 692.3l146.11 2.21 98.64.59h5l189.24-.62 520.76-1.43.52-.54c5.35-5.67 50.34-56 35.54-129.07-4.71-23.28-9-39.47-19.81-54.39-6.72-9.3-15.94-18.09-29.33-27.78-19.54-14.15-47.95-30.22-90.38-52.53a113 113 0 01-17.33-11.16 111.33 111.33 0 01-21.14-21.95c-14.48-19.68-22.79-43-31.66-66.7-25-66.56-54.42-135.58-238.08-132.36a791.94 791.94 0 01-80.34-2.66q-10.14-.84-19.74-1.86-5-.53-9.85-1.08C143.64 179.23 82.48 157.51-17 207.25c-57.34 28.67-63.62 57.87-72.43 91.9-4.5 17.37-9.67 36-22.63 56.46q-1.41 2.22-2.94 4.47c-16.06 23.54-42.86 49.51-90.9 78.71q-5.92 3.6-12.27 7.28C-238 457.48-251.67 479-259 504.93a175.74 175.74 0 00-6.3 41.45c-2.09 58.28 21.85 122.72 73.09 145.92z" transform="translate(265.45)" style="isolation:isolate" fill="#99b9ff" opacity=".7"/><path d="M-192.21 692.3l146.11 2.2 98.64.6h5l189.24-.63 520.76-1.42.52-.54c5.35-5.68 50.34-56 35.54-129.08-4.71-23.27-9-39.47-19.81-54.38-6.72-9.3-15.94-18.1-29.33-27.78-18.27 6.91-56.71 18.2-101.47 12.26-62.56-8.3-83.59-5.55-141.22 18S385.5 517.52 327 529.78s-112.17 65.46-181.76 49.53S46 526.84-23 529.36c-66.28 2.42-180.87 1.19-236.06-24.43a176.17 176.17 0 00-6.3 41.44c-2.03 58.29 21.91 122.72 73.15 145.93z" transform="translate(265.45)" style="isolation:isolate" opacity=".4" fill="#80aeff"/><path class="cls-6" d="M-192.21 692.3h501.62s-6.2-14.5-63.53-33.67S21.39 687.49-65.79 605c-66.93-63.36-160-62.44-199.54-58.59-2.07 58.25 21.88 122.68 73.12 145.89zM335.6 692.51H768c3.52-3.74 24.19-26.78 33.71-62.9a144.68 144.68 0 001.83-66.18c-4.71-23.27-9-39.47-19.81-54.38-25.87-3.8-68.58-3.66-100.41 28.59C634.57 587 655.6 621 559.22 609.42s-129.84 16.06-141.4 36.2-84.94 1.38-82.22 46.89z" transform="translate(265.45)"/><path class="cls-7" d="M147.68 692.3h-44.06c-3.16-2.14.85-23 .85-23s12-4.54 14.11 4.7 15.32 12.18 22.32 13.32c4.78.77 6.3 3.39 6.78 4.98z" transform="translate(265.45)"/><path class="cls-8" d="M80.49 476.08s1.21 22.35 2.78 49.49c1.3 22.31 2.84 47.86 4.16 66.89.19 2.72.36 5.31.55 7.73l.15 1.94a388 388 0 0013.72 73.65c12.39 2.6 18-2.16 18-2.16s8.53-99.69 11.69-139.91l.15-1.85c.69-8.83 1.42-17.9 2.08-26.27l2.08-26.1c.43-5.3.68-8.51.68-8.51z" transform="translate(265.45)"/><path class="cls-7" d="M83.26 525.57c1.3 22.31 2.83 47.86 4.16 66.89l19.83-79.76zM82.33 692.3H38.27c-3.16-2.14.85-23 .85-23s12-4.54 14.11 4.7 15.32 12.18 22.32 13.32c4.78.77 6.3 3.39 6.78 4.98z" transform="translate(265.45)"/><path class="cls-8" d="M38.77 671.15a17.54 17.54 0 006.86 2.85 21.76 21.76 0 009.33-.36s20.22-73.93 27.37-95C92.39 549 123.86 471 123.86 471s-10.07-16-42.73-15.05c-7.47.21-12.91 5.91-17 14.72-13.68 29.74-11.5 94.9-17.71 103.65a33.37 33.37 0 00-4.13 8.55c-.27.81-.54 1.65-.79 2.52-.65 2.25-1.21 4.68-1.7 7.22-5.8 30.25-1.03 78.54-1.03 78.54z" transform="translate(265.45)"/><path class="cls-9" d="M46.45 574.31c.31-.36 10.43-11.82 17.33-44.53 7-33.24 29.64-49.93 29.64-49.93l-29.25-9.2c-13.69 29.74-11.51 94.91-17.72 103.66z" transform="translate(265.45)"/><path class="cls-7" d="M41.53 585.38a4.12 4.12 0 00.78-2.52c-.31.84-.53 1.65-.78 2.52z" transform="translate(265.45)"/><path class="cls-9" d="M38.77 671.15a17.52 17.52 0 006.87 2.85c-2.17-16.72-7.66-62.41-5.82-81.37-5.82 30.23-1.05 78.52-1.05 78.52z" transform="translate(265.45)"/><path class="cls-6" d="M131.31 354s31.56 55 25.23 73.92-25.11 7.56-25.11 7.56z" transform="translate(265.45)"/><path class="cls-10" d="M107.67 358.68a19.69 19.69 0 01-13.67-.07 28 28 0 01-8.56-5.1 26.58 26.58 0 01-3.28-3.26s.19-.21.53-.63c1.74-2.2 7.22-10.22 7.27-24.32 0-.18 1.34.27 3.34 1.05 6 2.32 17.92 7.55 18.45 7.8s-.26 2.93-.48 8.22c0 .47 0 .95-.06 1.46s-.06 1.28-.07 1.95c-.14 5.51-3.47 12.9-3.47 12.9z" transform="translate(265.45)"/><path class="cls-11" d="M111.28 342.38c-9.53.81-21.39-14.69-21.39-14.69a14.41 14.41 0 013.4-1.34c6 2.32 17.92 7.55 18.45 7.8s-.24 2.94-.46 8.23z" transform="translate(265.45)"/><path class="cls-6" d="M60 467.64c-.66 5 4.24 7.78 8.68 8.8 0 0 4.11.88 9.29 1.76a102.9 102.9 0 0015.52 1.65 140 140 0 0040.51-6.66c4.16 0 6.06-6.4 6.73-15.35a176.12 176.12 0 000-20.46c-.11-2.33-.24-4.66-.38-6.94-.29-4.52-.64-8.86-.94-12.7-.29-3.6-.55-6.76-.72-9.21 0 0 .59-17.14.36-32.22-.17-10.82-6.26-20.67-7.79-22.27-4.43-4.66-17.24-7.61-19.8-8h-.3c-10.54 5.89-25.24-2-25.17-2a28.58 28.58 0 00-4.94.48c-4.25.65-10.36 2-14.85 4.22l-.81.42a13.6 13.6 0 00-3.25 2.38.91.91 0 00-.18.21c-2.09 2.56-2.32 10.17-2 17.68.42 8.89 1.67 17.63 1.67 17.63-.29 6.93-.39 15-.45 23.39V420.58c0 8.46 0 16.9-.15 24.47-.06 4.19-.16 8.12-.3 11.64v.76c-.19 4.05-.44 7.55-.73 10.19z" transform="translate(265.45)"/><path class="cls-12" d="M85.6 344.12s15.7 16.14 26.93 12.83c0 0 1.49-2.18-3.56-2.87s-10.52-.42-23.37-9.96zM68.63 476.44c7.59-2.39 3.19-17.13 5.24-24.53s34.62-20.1 34.62-20.1l9.62-23.81s-25.83 16.39-32.5 12.9-6.77-24.76-11.74-25.19-12.64 14.8-12.64 14.8V420.63c0 8.46 0 16.9-.15 24.47-.06 4.19-.16 8.12-.31 11.64v.77c-.17 4-.42 7.44-.77 10.13-.71 5.05 4.19 7.78 8.63 8.8z" transform="translate(265.45)"/><path class="cls-10" d="M114.63 336.13a47.8 47.8 0 01-8.95-.21c-7.16-.85-16.12-3.73-16.82-12.81-1.18-15.28-5.15-25.28 10.5-27.37 8.38-1.12 13.27 0 16.27 2a11.76 11.76 0 014.53 6.53c1.64 4.97.84 30.86-5.53 31.86z" transform="translate(265.45)"/><path d="M123.43 296c3 1.59 3.14 7-.45 8.29-6.43 2.35-12.72-.84-15.46-.38-3.93.65-6.09 6.38-6.63 8.24s-1.21 3.37-5.71 1a2.32 2.32 0 00-1.76-.34c-2.29.66-1.22 7-.78 8.43 0 0 0 4.35-2.91 5.71-.36.16-5.69 1-12.7-19.6a16.94 16.94 0 013.14-15.2c4.36-5.28 15-10.49 25.37-7.82 8.23 2.16 11.54 8.32 17.89 11.67z" transform="translate(265.45)" fill="#163560"/><path class="cls-14" d="M117.09 327.08s-.18 1.89-4.8 2.25c0 0-3.87.31-4-1.72a12.54 12.54 0 018.8-.53z" transform="translate(265.45)"/><path class="cls-15" d="M85.19 446.42l40.45-47.19-.58-15.23 2.17-.21 1.19 12.21 9.88-11.51c2.08-2.42 3.66-2.42 5.54-.89s3.31 4 1.23 6.4l-52.72 61.5-.35.5c-2.07 2.06-5 2.61-6.74 1.18s-1.79-4.42-.07-6.76z" transform="translate(265.45)"/><path class="cls-8" d="M87.1 460.22L76 443.88l90.4-60.78 11.06 16.34z" transform="translate(265.45)"/><path d="M87.2 447.63c3 4.51 2.65 10.08-.88 12.45s-8.85.62-11.92-3.89-2.65-10.07.88-12.44 8.88-.63 11.92 3.88z" transform="translate(265.45)" fill="#3f62a8"/><path class="cls-8" d="M176.93 387.52c3 4.51 2.65 10.07-.88 12.45s-8.86.62-11.92-3.89-2.65-10.07.88-12.44 8.88-.64 11.92 3.88z" transform="translate(265.45)"/><path class="cls-15" d="M147.21 415.46l-2.6-7.1-65.29 23.53 2.61 7.1z" transform="translate(265.45)"/><path class="cls-15" d="M85.71 433.61c.73 2-.76 4.29-3.31 5.21s-5.2.07-5.92-1.89.77-4.29 3.31-5.21 5.21-.07 5.92 1.89zM149 410.1c.72 2 .72 4.44-1.82 5.36s-5.2.07-5.92-1.88.77-4.3 3.32-5.22 3.73-.22 4.42 1.74z" transform="translate(265.45)"/><path class="cls-8" d="M164.14 404.19l2.44-2.67 15.35 4.34-.6 2.1z" transform="translate(265.45)"/><path class="cls-11" d="M147.74 423.12a5.48 5.48 0 00-3.46-3.72 42.33 42.33 0 00-7-2.74c-2.41-.43-7.32-3.31-7.72-1.79s3.47 3.23 3.49 4.87-10.87 5.69-10.58 7.4 3.39 5.54 7.61 4.52 14.32-2.79 16.35-4.25c1.82-1.32 1.74-2.63 1.31-4.29zM98.53 447.16s13.75 4.75 17.28 2.73c2.46-1.41 6.5-5.75 7.58-8.46.61-1.55.81-5.59.42-6.48l-9.16 5.42c-1.69-.31-7.15 1.54-9.27.56s-6.85 6.23-6.85 6.23z" transform="translate(265.45)"/><path class="cls-6" d="M33.74 432c1.74 2.77 9.34 7.15 19.77 10.8 2.38.83 4.91 1.62 7.55 2.34 11.53 3.17 25.19 5.08 38 3.39 0 0 7.1-6.44 5.67-8.92 0 0-31.62-12.85-43.54-18.93-2.76-1.41-4.46-2.46-4.47-2.88 0-.78 1.91-3.56 4.5-7.28 5.15-7.38 12.94-18.48 13.59-25.13.67-6.9-3.65-21.68-6.4-30.21-1.2-3.71-2.1-6.23-2.17-6.41a6.28 6.28 0 00-.81.43 22.71 22.71 0 00-3.43 2.58c-3.28 2.91-8.13 8.38-13.43 18.26-9.64 17.86-18.73 55.77-14.83 61.96z" transform="translate(265.45)"/><path class="cls-12" d="M33.74 432c1.74 2.77 9.34 7.15 19.77 10.8 0 0-15.3-9.08-16.6-14.32-1.08-4.37 15.1-41.58 23.1-59 1.61-3.52 2.89-6.24 3.63-7.7a29.89 29.89 0 014.78-6.6 76.54 76.54 0 0112.68-10.69c-4.25.65-10.36 2-14.85 4.22a6.35 6.35 0 00-.81.44 13.8 13.8 0 00-3.25 2.38.91.91 0 00-.18.21c-3.28 2.91-8.12 8.37-13.43 18.26-9.65 17.9-18.74 55.81-14.84 62z" transform="translate(265.45)"/><path class="cls-6" d="M256.34 283.56c57.81 40.54 94.61 11.52 124.89 105 13.82 42.66 86.3 57.61 141.84 27.36 55.22-30.08 126.84 7.81 127.65 8.24q-2.07-3.22-4-6.55a111.62 111.62 0 01-21.14-21.95c-55.18-75-20.77-203.42-269.74-199.06a809.19 809.19 0 01-100.09-4.52c-3.32-.35-6.61-.71-9.84-1.08-20.74 33.53-12.8 76.28 10.43 92.56z" transform="translate(265.45)"/><path class="cls-17" d="M275.5 193.91c18.52 34.18 47.6 59.32 74 63.76 99.67 16.73 115.27-49.2 230.5 60.45a89.76 89.76 0 0013.9 10.81c-25-66.57-54.42-135.58-238.08-132.36a794.85 794.85 0 01-80.32-2.66z" transform="translate(265.45)"/><path class="cls-18" d="M673.78 692.51H768c3.52-3.74 24.19-26.78 33.71-62.9a129.33 129.33 0 00-16.1-1h-1.38c-1.62 0-3.17.12-4.66.23-1 .07-2 .17-2.92.27-24.82 2.81-32.31 16.37-42.37 25.52-.85.78-1.73 1.54-2.64 2.24a31.13 31.13 0 01-4 2.7 25.2 25.2 0 01-2.81 1.38 30.24 30.24 0 01-11.39 2.26c-27.7.53-37.31 22.39-39.66 29.3z" transform="translate(265.45)"/><path class="cls-18" d="M737.43 661.87s-8.85-23.7-16.8-21.93 16.8 21.93 16.8 21.93zM732.14 662.67s-12.53-9.74-20.31-7.83 20.31 7.83 20.31 7.83zM784.94 632.56s5.33-27 0-27.47 0 27.47 0 27.47zM780.87 634.33s-2-13.06-7.11-13.5 7.11 13.5 7.11 13.5z" transform="translate(265.45)"/><path class="cls-19" d="M20.83 286.83a10.92 10.92 0 1111-10.92 10.94 10.94 0 01-11 10.92zM202.24 257.15a1.22 1.22 0 000-.68 1.2 1.2 0 00-.35-.58 1.09 1.09 0 00-.61-.29 1.14 1.14 0 00-.68.1 1.09 1.09 0 00-.5.45 1.19 1.19 0 00-.17.66 1.1 1.1 0 00.23.63 1.18 1.18 0 00.55.41 1.19 1.19 0 00.89 0 1.18 1.18 0 00.64-.7zM73.7 220.15a2.26 2.26 0 00.07-1.36 2.34 2.34 0 00-1.93-1.79 2.33 2.33 0 00-2.36 1.1 2.37 2.37 0 00-.34 1.32 2.35 2.35 0 003.35 2 2.31 2.31 0 001.21-1.27zM224.09 368a2.33 2.33 0 00.06-1.36 2.31 2.31 0 00-.69-1.16 2.35 2.35 0 00-1.24-.59 2.36 2.36 0 00-2.36 1.11 2.28 2.28 0 00-.33 1.32 2.31 2.31 0 001.55 2.09 2.35 2.35 0 001.8-.08 2.43 2.43 0 00.73-.54 2.46 2.46 0 00.48-.79z" transform="translate(265.45)"/><path class="cls-20" d="M483.21 493.74s14.08-1.89 21.93 9.54c4.67 6.81 14.42 23.18 15.34 38.61.6 9.92-22.47 13.07-31.94 6.3-7.88-5.62-26.66 3.65-32.5 0-10.3-6.5 1.7-15.37 2.41-22.45 2.4-23.9 6.83-33.08 24.76-32z" transform="translate(265.45)"/><path class="cls-10" d="M441.24 654.69c.68-3.18 10.08-19.07 10.75-21.09s-3.87-22.59-7.05-37 5.78-38.8 5.78-38.8 6-1.44 14.58-4a6.44 6.44 0 004.59-5.76c.31-4.93 0-10.6 0-10.6l18.49.42a44.93 44.93 0 00.31 11.56 5.15 5.15 0 001.26 2.72 5.21 5.21 0 002.58 1.55c6.61 1.66 9.21 3.34 16.37 6.66 0 0-.1.77-.29 2.16l.13-.11s.34 10.39.12 23.75c-.21 12.05-7.52 42-8.94 47.71 0 .39-.09.77-.12 1.15 4.91 8 11.93 19.67 11.93 19.67s-71.16 3.19-70.49.01z" transform="translate(265.45)"/><path class="cls-7" d="M417.67 670c17.06 13.73 41.53 21.2 41.53 21.2s19.69.35 42 0c21.69-.36 42.9-26 42.9-26s-18.08-.22-23-4.28c-3.45-2.82-7.63-7.52-11.69-12.62-2.91-3.67-5.77-7.56-8.25-11.09 0 0-5.13 4.82-25.95 4.3s-25.88-2.73-25.88-2.73-2.46 2.88-5.7 6.56c-3.92 4.42-9 10-12.22 12.89C430 659.5 417.67 670 417.67 670z" transform="translate(265.45)"/><path d="M415.32 669.37c5.2 4.48 20.59 9.4 35.12 13.31 4.07 1.08 8.07 2.1 11.76 3 3.33 1 10.08 3.17 17.33 5.68 10.22 3.54 14.68 1.85 19.74 1s10.78 2.64 18.27-.09 5.61-17.44 5.61-17.44c-2.53-1.66-12.42-2.14-19.1 2.64s-15.64 3.89-15.64 3.89a5.4 5.4 0 01-2.27-1.08s-6.5-3.79-18.48-13.29a429.8 429.8 0 01-13.23-11c-9.45-8.22-17.6-19-27-21-16-3.39-21.75 2.82-21.75 2.82s-4 19.8 9.64 31.56z" transform="translate(265.45)" fill="#091d3a"/><path class="cls-9" d="M480.9 672.21s-36.49-32.51-47.9-36.57-24.78-2.41-27.19.87-3 10.7-.72 17.8 7.55 18.25 19.9 21.41 42.87 13.41 42.87 13.41l14.61-7.72z" transform="translate(265.45)"/><path class="cls-7" d="M440.14 678.3s.34 12.81 5.05 14.34c6.48 2.09 11.58-1.27 16.93-.29s9.69 2.37 20.47-1.38c7.16-2.5 13.87-4.64 17.58-5.8 1.8-.48 3.69-1 5.61-1.54 14.32-4 30.62-9.4 35.83-14.26 12.61-11.76 7.78-32.62 7.78-32.62s-4.11-5.22-18.95-1.82c-8.7 2-17.69 10.59-26.4 18.76-3.61 3.38-7 6.52-10.17 9.35-10.93 9.85-18.42 16-18.42 16v.06a5.67 5.67 0 01-2.33 1.08s-5.69 2.25-15.59-1.08c-6.87-2.33-14.72-2.57-17.39-.8z" transform="translate(265.45)"/><path d="M488.13 541.84s-3.65 8.43-9.65 7.92-8.48-8.11-8.48-8.11z" transform="translate(265.45)" fill="#e8945b"/><path d="M474.82 633.68c0 1.08.49 2 1.08 2s1.08-.89 1.08-2-.49-2-1.08-2-1.08.91-1.08 2z" transform="translate(265.45)" fill="#f2a672"/><path class="cls-10" d="M378.75 609.75s25.24 25 38.6 23.44c6.08-.72 12.81-7.61 19.64-15.47.6-.69 1.67-2.61 2.27-3.32a324.22 324.22 0 0023.08-32.11l1.44-9.47 2.3-15.39s-7.94-1.75-14.21.68c-2.67 1-4.62.72-5.78 2-2.79 3.15-16.08 31.3-24.48 46.57-3.21 5.82-5.71 9.77-6.63 9.71-3.36-.18-20.83-5.36-33.15-12.5l-2.91 5.47z" transform="translate(265.45)"/><path class="cls-10" d="M380 611s-9.23 4.35-11.94 4.23-11.79-2-11.79-2 .84-2 5.2-1.91 7.82-6 10.77-7.13a13.45 13.45 0 019.59-.24z" transform="translate(265.45)"/><path class="cls-10" d="M380 603.42s-6.68-1.87-9.24-1.39c-1.57.28-3.94 2.43-7.77 2.6-1.32.06-.49 1.13.05 1.46 1.11.68 8.89 1.3 8.89 1.3zM368 613.86c-.39 0-11 2.31-11 2.31s.36-2.94 1.8-3 9.2.69 9.2.69zM467.5 538.33c4.42 5.1 9.85 11.85 24 1.7 2.76-2 4.11-6.48 4.74-11.4.74-5.82 1.31-8.21 1-11.64-.38-4.1-4.11-12-11.22-13.27-13.05-2.41-18.32 5.68-19.28 12.2-2.14 14.13-3.74 17.22.76 22.41z" transform="translate(265.45)"/><path class="cls-14" d="M484.18 536s-2.1 2.57-4.54 2.33-3.13-.09-4.15-.8a7.67 7.67 0 01-1.86-2.88s6.84-.45 10.55 1.35z" transform="translate(265.45)"/><path class="cls-20" d="M477.49 507.73a10 10 0 007.2 10.55c9.88 3.29 11.24 4.79 11 13.35-.26 10.89 12.28 2.19 10.08-8.56s-7.67-20.8-15.79-22.31-18.63-.76-21.92 4.43-4.83 17.9-4.83 17.9h2.3s2.23-11.97 11.96-15.36z" transform="translate(265.45)"/><path class="cls-8" d="M475.49 679.05s-3.25-4.85 4.07-10.57 39.28-31 47.17-33.39 19.19-2.71 22.92.56 4.16 24.25-2.74 31.89-49.75 22.07-54.7 23.27a16.36 16.36 0 01-8.19-.34z" transform="translate(265.45)"/><path class="cls-10" d="M499.44 588.5s3.27 4.91 7.8 11.43c3.89 5.57 8.7 12.33 13.17 18.18.73.93 1.45 1.8 2.17 2.62 9.22 10.36 19.4 11.91 19.4 3a6.36 6.36 0 00-.06-.87c-.31-2.16-1.6-5.57-3.49-9.66-1.16-2.49-2.53-5.22-4-8.09-5.61-10.67-13.08-23.12-17.88-31-2.86-4.67-4.78-7.68-4.78-7.68l-2.81 5z" transform="translate(265.45)"/><path class="cls-24" d="M420.1 607.86c.13.26.28.52.44.79a23 23 0 005.89 6.61 22.55 22.55 0 004.41 2.63 25.32 25.32 0 004.64 1.56l.45.11c.93-1.06 1.84-2.15 2.75-3.27 2.78-3.39 5.45-7 7.92-10.48v.21c.68 3.17 2.34 14 .95 20.24-2.79 12.44 1.71 12.5 1.71 12.5.27.07 2.05.55 4.91 1.13a115.09 115.09 0 0025.05 2.27 78 78 0 0017.48-2.3c1.24-.32 2.48-.68 3.7-1.08l1.35-.46h.09s2.47.2 3.53-3.84a21.74 21.74 0 00.34-7.29 124.07 124.07 0 01.48-13.13c.47-6.82 1.08-13.55 1.08-13.55l.43.64c3.41 5.08 7.39 10.62 11.58 15.69l1.08 1.29a22 22 0 008.81-4.9 19.12 19.12 0 005.16-8.08 12.33 12.33 0 00.49-2.08c-8.3-15.72-18.82-39.48-21.87-41.74-6.5-4.8-17.11-6.64-17.11-6.64s2.35 14.46-16.84 14.3c-6.77-.06-11.19-1.8-14.11-4a14.29 14.29 0 01-5.21-7.77c0-.11-.06-.22-.08-.32a3.83 3.83 0 01-.14-1.39h-.14c-1.49.36-4.36.92-5.78 1.18a11.2 11.2 0 00-1.8.51 33.69 33.69 0 00-4.74 2.3h-.06l-.44.27a9.06 9.06 0 00-1.89 1.49c-2.83 3.18-16.11 31.34-24.51 46.6z" transform="translate(265.45)"/><path class="cls-25" d="M513 561.29s1.53 6.19 3.5 12.88c1.67 5.67 3.65 11.71 5.26 14.62 3.51 6.33 9.51 22.17 9.51 22.17a19 19 0 003.11-5.85 12.33 12.33 0 00.49-2.08c-8.28-15.72-18.8-39.49-21.87-41.74zM479.29 642.18a78 78 0 0017.48-2.31c1.24-.32 2.48-.67 3.7-1.08.45-.14.9-.3 1.35-.46h.09s2.47.2 3.53-3.84a21.72 21.72 0 00.34-7.29 124.07 124.07 0 01.48-13.13c.47-6.82 1.08-13.54 1.08-13.54s1.4-9.75.75-11S504.25 599.6 502 603s-.26 15.8-3.77 22.79-4.04 14.27-18.94 16.39z" transform="translate(265.45)"/><path class="cls-10" d="M540 630.52c-7 3.4-30.9 14.86-44.78 18.56l-1.45-4.31s26.73-24.31 32.41-26.06 13.53-3 14.72.59a22.47 22.47 0 011.45 8 4 4 0 01-2.35 3.22z" transform="translate(265.45)"/><path class="cls-25" d="M426.43 615.26a22.85 22.85 0 004.41 2.63 25.58 25.58 0 004.64 1.56l.45.11c.93-1.06 1.84-2.15 2.75-3.27 2.78-3.39 5.45-7 7.92-10.48v.21s1-5.76.59-7.59-7.56 7.29-10.52 12.42-10.24 4.41-10.24 4.41z" transform="translate(265.45)"/><path class="cls-10" d="M495.6 643.24s-10.19 1.68-11.25 5.17-1.4 5-1.31 6.11 1.88 4.42 2.8 3.6c.59-.53.66-1.47 1.38-2.64a7.65 7.65 0 013.67-2.74 13.79 13.79 0 004.7-2.16 9.34 9.34 0 001.73-2.18z" transform="translate(265.45)"/><path class="cls-10" d="M494.88 643.46a9.27 9.27 0 00-2.23-.21c-2.09.11-4.52.59-6.47.59-2.24 0 2.17 2.76 5.15 1.51s3.55-1.89 3.55-1.89z" transform="translate(265.45)"/><path class="cls-9" d="M660.45 484.8s5.46-7.87 20.43-5.25 15.42 25.66 27.26 33.15 18.41 13.61 19.29 25.62-17.11 30.39-33.11 24.26-19.07-20.11-17.43-28.07 11.24-51.38-12.76-47.1z" transform="translate(265.45)"/><path class="cls-9" d="M635.53 496.17s3.43-8.32 15.18-12.9 18.39 1.56 21.54 4.58c3.81 3.65 7.49 33.36-8.11 34.52s-28.61-26.2-28.61-26.2z" transform="translate(265.45)"/><path class="cls-26" d="M632.21 550.77S597.57 579.92 598 581.5s3.79 8 11.25 4.66 28.85-17.78 28.32-18.49-5.36-16.9-5.36-16.9z" transform="translate(265.45)"/><path class="cls-10" d="M637.45 564.75a39 39 0 0013.72 5.81c21.14 4.87 29.25-12.95 32.29-25.16a18.25 18.25 0 00-7.17-2.19c-1.52-.18-3.13-.3-4.46-.36-2.37-1.8-5.91-9.23-6.7-20.75l-1 .27-16.67 4.54s.77 5.28 1.14 10.27c.29 3.91.34 7.64-.41 8.55l-2.08.46a107 107 0 00-8.66 18.56z" transform="translate(265.45)"/><path class="cls-26" d="M647.47 526.91s.77 5.28 1.14 10.27c9.44-.94 13.82-9.9 15.53-14.81z" transform="translate(265.45)"/><path class="cls-10" d="M644.65 531.88s22.41-1.23 21.43-15.11 1.24-23.41-13.11-23.21-16.75 5.69-17.55 10.41 3.38 27.86 9.23 27.91z" transform="translate(265.45)"/><path class="cls-9" d="M634.6 494.21c3.32-4.65 6.14-3.88 7.77-2.67 12.35-8 21.38 1.86 21.38 1.86a28 28 0 0010.34 15.83s-4.18 3.33-14.16 1.12c-12.78-2.82-17.17-13.86-17.76-15.56-1.35 1.39-3.08 2.28-4.41 5.28a23.11 23.11 0 00-2.6 11.52s-5.53-10.4-.56-17.38z" transform="translate(265.45)"/><path class="cls-27" d="M635 571.39c-1.21 10.76 1.32 7.79 12.52 32.64 9.47 21-1.27 39.92-1.27 39.92s30.14 24.86 47.59 31.41a21.22 21.22 0 006.68 1.55 5.21 5.21 0 004.08-1.34 9.83 9.83 0 001.16-1.48c9.8-15.09 13-86.21-6.27-120.84-2.65-4.77-8.8-8.37-11.74-9.64a32.55 32.55 0 00-5.51-1.8 46 46 0 00-9.19-1.2h-3c-3.18 2-15.27 9.76-20.24 8.8l-.28-.06c-2.34-.59-3.22-2.23-1.27-3.64a23.78 23.78 0 00-12.78 1.92c-7.12 3.28-14.4 11.54-14.4 11.54s6.77 9.23 13.92 12.22z" transform="translate(265.45)"/><path class="cls-28" d="M693.79 675.36l1.88 4.1 4.8-2.55 5.24-2.82c9.8-15.09 13-86.21-6.27-120.84-2.65-4.77-8.8-8.37-11.74-9.64a32.55 32.55 0 00-5.51-1.8 46 46 0 00-9.19-1.2c.3.12 10.26 3.83 13 8.56s3 25.85 3.61 31.66-2.17 8-4.5 15.94-13.72 8.46-15.78 14.73c-1.73 5.3 18.18 49.97 24.46 63.86zM631.05 571.39s4.38-6.76 5.41-8.52.88-1 1 1.88 2 6.56.14 9.91-6.55-3.27-6.55-3.27z" transform="translate(265.45)"/><path class="cls-7" d="M643.44 692.49a10.44 10.44 0 01-4.23-1.44A10.19 10.19 0 01636 688c-.28-.4-.56-.83-.87-1.29-6.34-9.57-8.81-38.87-23.07-70.09-3.48-7.6-15.95-9-19.35-17.56 0 0-8.37-27.84 16-28.66s65.33 77.48 66 85.69c.61 7.91 16.12 41.73-31.27 36.4zM546.48 691.85h34.72s1.3-5.52-1-9.28c-2-3.32-1.25-5.21.25-8a13.53 13.53 0 01-5.85 1.08 12.42 12.42 0 01-5.17-1.8c-1.49 1.7-7.89 8.92-9.89 10.36-2.24 1.68-12.36 1.09-13.06 7.64z" transform="translate(265.45)"/><path class="cls-7" d="M579 679.46c2.19-.57 5.84-4.05 7.53-5.56 11.72-10.5 35.47-40.24 35.47-64.08 0-11.62.21-33.82-8.27-39.46-2.92-1.94-9.1-1.14-14.16 1-4 1.72-7.28 4.29-7.65 7-1.64 12.28-7 45.38-16.28 70.66a109 109 0 01-8.38 18.3c-4.66 7.82 11.68 12.17 11.74 12.14z" transform="translate(265.45)"/><path class="cls-9" d="M664.14 691.85s-1.29-1.8-3.53-5.17c-2.67-4-5.63-12-9.21-22.13-3.77-10.68-8.24-23.81-13.82-37.47-1.72-4.21-3.55-8.48-5.5-12.75-3.47-7.59-13-6.54-16.43-15.13 0 0-13.27-29.79 11.12-30.59s72.8 72.69 75.47 80.49c2.91 8.52 15.09 50.9-38.1 42.75zM572 691.85h34.72s1.3-5.52-1-9.28c-2-3.32-1.25-5.21.25-8a13.53 13.53 0 01-5.85 1.08 12.33 12.33 0 01-5.16-1.8c-1.5 1.7-7.9 8.92-9.9 10.36-2.28 1.68-12.39 1.09-13.06 7.64z" transform="translate(265.45)"/><path class="cls-8" d="M596.81 676.31a33.16 33.16 0 007.71 3.15c2.19-.57 5.84-4.05 7.52-5.56 11.7-10.5 35.43-40.24 35.43-64.08 0-11.62-13.69-32.88-22.17-38.52a8.28 8.28 0 00-4.24-1.41 8.58 8.58 0 00-8.89 7.42c-2.09 15.62-5 66-19.44 90.07-2.31 3.87.6 6.9 4.08 8.93z" transform="translate(265.45)"/><path class="cls-14" d="M640.46 523.88s2.12-.84 8.08-.36c0 0-.32 2.31-4.71 2.54a3.49 3.49 0 01-3.37-2.18z" transform="translate(265.45)"/><path class="cls-9" d="M596.81 676.31a33.16 33.16 0 007.71 3.15c2.19-.57 5.84-4.05 7.52-5.56 11.7-10.5 35.43-40.23 35.43-64.08 0-11.62-13.69-32.88-22.17-38.52a8.28 8.28 0 00-4.24-1.41c.36.22 4.69 2.88 4.13 12.92-.59 10.49-14.78 79.62-22.51 85.35a15.34 15.34 0 00-5.87 8.15z" transform="translate(265.45)"/><path class="cls-10" d="M617.8 611.51s-6.84-.17-9.23-2.71-1.85-11.87 0-13.75 4.49 5.82 6.54 7-2.53-5.4-.88-5.28 4.17 3 4.6 4.48.86 3.31.86 3.31z" transform="translate(265.45)"/><path class="cls-10" d="M679.54 549.12s-18.59 42.94-25 46.66c-4.15 2.4-34.86 8.77-34.86 8.77l-1.89 7s36.35 4.83 45.2-1.06c17.48-11.62 29.36-43.57 31.33-47.86s-3.63-17.7-14.78-13.51z" transform="translate(265.45)"/><path class="cls-27" d="M666.1 571.39a37.81 37.81 0 0010 5.93 30.81 30.81 0 003.67 1.19 24.5 24.5 0 003.16.62 21.6 21.6 0 007.13-.25s14-26.22-2.33-32.28a7.22 7.22 0 00-1-.14 11.67 11.67 0 00-2.13 0c-.25 0-.52.06-.8.11-5.12.89-13.8 5.32-17.7 24.82z" transform="translate(265.45)"/><path class="cls-28" d="M677.1 577.69a19.9 19.9 0 0013 1.19s14-26.22-2.34-32.28a7.09 7.09 0 00-1-.14 11.65 11.65 0 00-2.13 0c-.26 0-4.18-2.52-4.46-2.48.92.8 5.15 4.17 6.21 7.25 4.97 14.54-10.29 26.04-9.28 26.46z" transform="translate(265.45)"/><path class="cls-9" d="M575.63 649.08c11.74-8.29 32.53-67.5 31.35-73.48s-7.42-4.21-7.42-4.21c-4 1.71-7.29 4.29-7.66 7-1.66 12.31-7.04 45.41-16.27 70.69z" transform="translate(265.45)"/><path class="cls-10" d="M589.29 594.92s-4.4 1.7-5.11 5.14.36 5.72 2.55 7.44 5.78 4.29 6.92 1.57.4-7.44-1.44-9.44a17.12 17.12 0 01-2.92-4.71z" transform="translate(265.45)"/><path d="M-115 360.07c11.68 7.77 25.89 14.3 38.75 14 28.32-.65 25-24.9 53.32-20s60.42-11.43 43.8-27.71-19.16-6.4-47.61-25.73c-22.7-15.43-56.89-1.7-62.69-1.47-4.5 17.37-9.67 36-22.63 56.46q-1.45 2.21-2.94 4.45z" transform="translate(265.45)" fill="#8bb6f5"/><path class="cls-30" d="M319.08 681.21s61.65-59.82-6.07-125.12-48.67-95.91-48.67-95.91-42 16.85-45.9 52.81 3.29 48.71-6.43 55.34-15.89-17.13-12.8-28.46c0 0-18.94 14.1-27.65 44.49s3.08 38.83 0 50.94-19.45-5.86-19.45-5.86-12.28 35 5.63 46.39 155.79 17.76 161.34 5.38z" transform="translate(265.45)"/><path class="cls-24" d="M274.46 668.92c1.54-.59 29.77-11.16 25.64-44.39s-26.29-30.13-38.24-45.46-20-23.49-25.22-11.24-2 37.12-18.2 33.6-23.32-20.6-32.54-7.71 10.7 32.42 6.14 52.17 6.65 43.84 31.23 42.07 51.19-19.04 51.19-19.04z" transform="translate(265.45)"/><path class="cls-30" d="M299.28 431.62s-17.65 22.64-10 41.42-12.77 24-20 14.1 6.72-34.61 30-55.52zM198.58 446.88a1.5 1.5 0 00.38-1.11 1.54 1.54 0 00-.52-1l-7.7-6.72a1.57 1.57 0 00-1.12-.37 1.54 1.54 0 00-1.05.52 1.54 1.54 0 00.15 2.16l7.7 6.72a1.53 1.53 0 001.11.37 1.5 1.5 0 001.05-.57z" transform="translate(265.45)"/><path class="cls-31" d="M193.2 302.55a1.52 1.52 0 00.38-1.11 1.56 1.56 0 00-.52-1.05l-7.71-6.72a1.55 1.55 0 00-2.16.14 1.52 1.52 0 00-.38 1.11 1.5 1.5 0 00.52 1.05l7.71 6.72a1.54 1.54 0 001.11.38 1.56 1.56 0 001.05-.52z" transform="translate(265.45)"/><path class="cls-30" d="M281.34 264.69a1 1 0 00.66.22.93.93 0 00.62-.31l7.58-8.6a.91.91 0 00-.08-1.27.91.91 0 00-1.27.08l-7.59 8.64a1 1 0 00-.22.65.92.92 0 00.3.59zM272.42 393.28a1.55 1.55 0 002.05-.72l4.35-9.23a1.49 1.49 0 00.06-1.17 1.52 1.52 0 00-.78-.87 1.58 1.58 0 00-1.17-.06 1.55 1.55 0 00-.87.78l-4.36 9.23a1.49 1.49 0 00-.06 1.17 1.55 1.55 0 00.78.87zM301.81 508.07a1.58 1.58 0 001.17.06 1.61 1.61 0 00.88-.78l4.36-9.25a1.51 1.51 0 00.06-1.16 1.52 1.52 0 00-1.95-.93 1.55 1.55 0 00-.88.77l-4.36 9.22a1.56 1.56 0 00-.06 1.18 1.53 1.53 0 00.78.89z" transform="translate(265.45)"/><path class="cls-31" d="M236.64 666s32.21-3.27 30.8-20.11-13.2-44.1-19.59-39.65-11.52 18-26.88 29.08.38 34.18 15.67 30.68z" transform="translate(265.45)"/><path class="cls-32" d="M327 691.91s-20.72-28.91-26.9-31.62-36.55 4.26-44.05 10.48-8.19 21.2-8.19 21.2zM218.44 692.45s-4.89-17.84-20.25-23.53-31.19-7.31-37.37-2.92-12.1 25.91-12.1 25.91z" transform="translate(265.45)"/><path class="cls-33" d="M264.34 692s-13.94-11.65-25.2-12.42-27.13 4-28.16 6.09a41.33 41.33 0 00-2 6.9zM353.92 691.91s-5.48-12.91-11.62-15.17-18.42-5.35-22.27-3.57-13.48 18.74-13.48 18.74z" transform="translate(265.45)"/><path class="cls-17" d="M467.19 253.16s17.4 5.3 17.47 22.78 9.27 29.27 31.64 27.09 21 4.36 33.32 11.36 44.3 14.54 44.3 14.54L550.5 269s-47.8-15.83-50.43-15.78-32.88-.06-32.88-.06z" transform="translate(265.45)"/></g></g></g></svg>