<svg width="458" height="449" viewBox="0 0 458 449" fill="none" xmlns="http://www.w3.org/2000/svg">
<path d="M73.1527 238.767C73.1527 238.767 73.0882 266.006 74.7513 270.472C75.4797 272.437 79.199 275.498 81.8934 280.911C86.2638 289.713 87.2693 302.279 87.2693 302.279L95.8231 333.372L109.211 314.394C109.211 314.394 104.699 295.552 103.758 289.172C102.037 277.38 102.527 270.304 102.527 270.304C102.527 270.304 94.5726 262.855 93.7411 260.496C91.4721 253.872 85.7352 243.419 83.2213 240.906C79.85 237.536 84.8328 261.269 84.8328 261.269C84.8328 261.269 80.6493 235.132 77.6197 235.132C74.5901 235.132 77.7164 251.7 77.7164 251.7C77.7164 251.7 77.8711 237.091 73.1527 238.767Z" fill="#F7A491"/>
<path d="M287.636 218.726C286.025 218.539 285.297 219.899 285.058 221.826C284.497 218.604 283.666 215.917 282.48 216.194C280.804 216.58 280.668 225.26 280.862 232.69C280.436 226.755 279.663 220.936 278.328 223.082C276.44 226.098 274.796 240.262 274.087 247.228C273.836 249.703 272.669 250.747 270.6 252.126C270.6 252.126 268.021 234.566 265.385 238.767C262.749 242.969 267.783 273.359 267.783 273.359L269.588 300.54L285.922 302.808L286.676 286.827C285.225 281.731 284.912 276.378 285.761 271.148C287.05 262.623 292.033 251.952 293.264 249.973C295.765 245.933 287.636 218.726 287.636 218.726Z" fill="#F7A491"/>
<path d="M288.534 230.615C288.534 230.615 289.307 237.962 286.432 242.969C283.558 247.976 271.323 254.388 271.323 254.388L270.434 251.739L288.534 230.615Z" fill="#F47458"/>
<path d="M310.895 158.861C310.895 173.508 297.068 185.797 292.775 199.02C288.327 212.72 292.13 230.751 283.828 242.157C275.448 253.679 257.051 255.592 245.533 263.97C234.123 272.276 226.665 289.185 212.993 293.638C199.773 297.93 183.838 288.747 169.161 288.747C154.483 288.747 138.575 297.93 125.328 293.638C111.624 289.185 104.637 270.497 93.2336 262.204C81.7082 253.827 62.8474 253.653 54.4611 242.131C46.1587 230.725 49.949 212.694 45.5141 198.994C41.2211 185.771 27.3945 173.483 27.3945 158.835C27.3945 144.188 41.2211 131.899 45.5141 118.676C49.9619 104.976 46.1587 86.9392 54.4611 75.5397C62.8409 64.0178 81.2313 62.1039 92.7566 53.7202C104.179 45.4461 111.637 28.4854 125.328 24.0325C138.549 19.7408 154.483 28.9236 169.161 28.9236C183.838 28.9236 199.753 19.7408 212.993 24.0325C226.665 28.4854 234.123 45.4461 245.533 53.7202C257.051 62.0974 275.442 64.0307 283.828 75.5397C292.13 86.9392 288.34 104.976 292.775 118.676C297.068 131.899 310.895 144.182 310.895 158.861Z" fill="#F7CC7F"/>
<path d="M248.587 238.252C292.461 194.391 292.461 123.278 248.587 79.4173C204.713 35.5563 133.579 35.5563 89.7048 79.4173C45.8307 123.278 45.8307 194.391 89.7048 238.252C133.579 282.113 204.713 282.113 248.587 238.252Z" fill="white"/>
<path d="M227.656 99.9109C227.471 100.937 227.088 101.918 226.528 102.798C225.432 103.887 224.408 105.008 223.428 106.168C224.072 106.123 224.775 106.097 225.458 106.097C232.188 106.097 238.447 108.063 243.088 111.62C247.239 114.803 249.534 118.882 249.534 123.109C249.534 127.337 247.252 131.409 243.088 134.593C238.447 138.15 232.188 140.115 225.458 140.115C218.729 140.115 212.508 138.182 207.867 134.618L206.862 137.093C205.897 137.5 205.049 138.141 204.395 138.958C203.741 139.775 203.3 140.743 203.114 141.773C202.928 142.803 203.001 143.863 203.328 144.857C203.655 145.852 204.224 146.749 204.985 147.468C205.746 148.187 206.674 148.705 207.685 148.975C208.697 149.246 209.76 149.259 210.778 149.016C211.796 148.772 212.737 148.278 213.517 147.579C214.296 146.88 214.889 145.998 215.241 145.013C218.576 145.926 222.02 146.386 225.478 146.379C242.237 146.379 255.812 135.959 255.812 123.109C255.793 110.834 243.378 100.774 227.656 99.9109Z" fill="#E0973F"/>
<path d="M110.082 99.9109C110.263 100.942 110.646 101.928 111.21 102.811C112.297 103.898 113.331 105.021 114.31 106.181C113.633 106.136 112.957 106.11 112.273 106.11C105.544 106.11 99.2848 108.075 94.6437 111.633C90.4989 114.816 88.1977 118.895 88.1977 123.122C88.1977 127.35 90.4796 131.422 94.6437 134.606C99.2848 138.163 105.544 140.128 112.273 140.128C119.003 140.128 125.23 138.195 129.864 134.631L130.876 137.106C131.841 137.513 132.689 138.154 133.343 138.971C133.997 139.788 134.438 140.756 134.624 141.786C134.81 142.815 134.737 143.876 134.41 144.87C134.083 145.864 133.514 146.762 132.753 147.481C131.992 148.2 131.064 148.718 130.053 148.988C129.041 149.258 127.978 149.272 126.96 149.029C125.942 148.785 125.001 148.291 124.221 147.592C123.442 146.893 122.849 146.011 122.497 145.026C119.159 145.939 115.714 146.398 112.254 146.392C95.4945 146.392 81.9258 135.972 81.9258 123.122C81.9451 110.834 94.3858 100.774 110.082 99.9109Z" fill="#E0973F"/>
<path d="M227.656 99.9109C227.471 100.937 227.088 101.918 226.528 102.798C225.432 103.887 224.408 105.008 223.428 106.168C224.072 106.123 224.775 106.097 225.458 106.097C232.188 106.097 238.447 108.063 243.088 111.62C247.239 114.803 249.534 118.882 249.534 123.109C249.534 127.337 247.252 131.409 243.088 134.593C238.447 138.15 232.188 140.115 225.458 140.115C218.729 140.115 212.508 138.182 207.867 134.618L206.862 137.093C205.897 137.5 205.049 138.141 204.395 138.958C203.741 139.775 203.3 140.743 203.114 141.773C202.928 142.803 203.001 143.863 203.328 144.857C203.655 145.852 204.224 146.749 204.985 147.468C205.746 148.187 206.674 148.705 207.685 148.975C208.697 149.246 209.76 149.259 210.778 149.016C211.796 148.772 212.737 148.278 213.517 147.579C214.296 146.88 214.889 145.998 215.241 145.013C218.576 145.926 222.02 146.386 225.478 146.379C242.237 146.379 255.812 135.959 255.812 123.109C255.793 110.834 243.378 100.774 227.656 99.9109Z" fill="#B75742"/>
<path d="M110.082 99.9109C110.263 100.942 110.646 101.928 111.21 102.811C112.297 103.898 113.331 105.021 114.31 106.181C113.633 106.136 112.957 106.11 112.273 106.11C105.544 106.11 99.2848 108.075 94.6437 111.633C90.4989 114.816 88.1977 118.895 88.1977 123.122C88.1977 127.35 90.4796 131.422 94.6437 134.606C99.2848 138.163 105.544 140.128 112.273 140.128C119.003 140.128 125.23 138.195 129.864 134.631L130.876 137.106C131.841 137.513 132.689 138.154 133.343 138.971C133.997 139.788 134.438 140.756 134.624 141.786C134.81 142.815 134.737 143.876 134.41 144.87C134.083 145.864 133.514 146.762 132.753 147.481C131.992 148.2 131.064 148.718 130.053 148.988C129.041 149.258 127.978 149.272 126.96 149.029C125.942 148.785 125.001 148.291 124.221 147.592C123.442 146.893 122.849 146.011 122.497 145.026C119.159 145.939 115.714 146.398 112.254 146.392C95.4945 146.392 81.9258 135.972 81.9258 123.122C81.9451 110.834 94.3858 100.774 110.082 99.9109Z" fill="#B75742"/>
<path d="M228.766 95.4196V101.864C228.766 115.811 223.224 129.188 213.358 139.05C203.493 148.913 190.113 154.453 176.161 154.453H162.025C158.982 154.454 155.946 154.191 152.949 153.667C149.939 153.15 146.981 152.365 144.111 151.322C143.024 150.926 141.95 150.497 140.888 150.033C135.08 147.482 129.78 143.904 125.244 139.471C124.599 138.827 123.987 138.182 123.381 137.538C122.281 136.352 121.237 135.115 120.248 133.826C113.2 124.655 109.388 113.409 109.406 101.844V95.4003L228.766 95.4196Z" fill="#F7CC7F"/>
<path d="M159.847 95.4196L140.902 150.02C135.094 147.469 129.794 143.891 125.258 139.458L140.541 95.4196H159.847Z" fill="#FAE0B2"/>
<path d="M173.159 95.4196L152.951 153.648C149.941 153.131 146.983 152.346 144.113 151.302L163.503 95.4196H173.159Z" fill="#FAE0B2"/>
<path d="M138.016 95.4196L123.396 137.538C122.296 136.352 121.252 135.115 120.264 133.826L133.587 95.4196H138.016Z" fill="#FAE0B2"/>
<path d="M223.557 91.7786H114.93C110.965 91.7786 107.73 93.9824 107.504 96.7663H230.977C230.751 93.9824 227.521 91.7786 223.557 91.7786Z" fill="#F7CC7F"/>
<path d="M148.924 152.894L155.067 184.437H181.94L189.559 152.894H148.924Z" fill="#F7CC7F"/>
<path d="M189.559 152.9L187.845 160.015H150.31L148.924 152.9H189.559Z" fill="#B75742"/>
<path d="M189.559 223.462H148.924L151.966 207.803L155.067 191.919H181.947L185.782 207.803L189.559 223.462Z" fill="#F7CC7F"/>
<path d="M189.559 223.462H148.924L151.966 207.803H185.782L189.559 223.462Z" fill="#B75742"/>
<path d="M186.846 184.437H150.169C148.67 184.437 147.455 185.652 147.455 187.15V189.199C147.455 190.698 148.67 191.912 150.169 191.912H186.846C188.345 191.912 189.56 190.698 189.56 189.199V187.15C189.56 185.652 188.345 184.437 186.846 184.437Z" fill="#FAE0B2"/>
<path d="M143.673 211.025H193.443C195.308 211.025 197.097 211.766 198.415 213.085C199.734 214.403 200.475 216.191 200.475 218.056V221.329H136.66V218.056C136.66 216.195 137.398 214.409 138.713 213.091C140.028 211.773 141.812 211.031 143.673 211.025Z" fill="#F7CC7F"/>
<path d="M221.566 227.483V230.615H115.549V227.483C115.549 226.623 115.718 225.772 116.048 224.977C116.378 224.183 116.861 223.461 117.47 222.854C118.079 222.246 118.801 221.765 119.597 221.437C120.392 221.109 121.244 220.941 122.104 220.943H215.023C215.882 220.943 216.733 221.112 217.527 221.441C218.321 221.769 219.042 222.251 219.649 222.858C220.257 223.466 220.739 224.187 221.068 224.98C221.396 225.774 221.566 226.625 221.566 227.483Z" fill="#F7CC7F"/>
<path d="M140.508 220.943L137.156 230.615H132.734L136.086 220.943H140.508Z" fill="#FAE0B2"/>
<path d="M134.173 220.943L130.821 230.615H126.393L129.751 220.943H134.173Z" fill="#FAE0B2"/>
<path d="M146.142 220.943L142.79 230.615H138.355L141.72 220.943H146.142Z" fill="#FAE0B2"/>
<path d="M203.27 146.939V149.304C203.271 150.277 203.08 151.241 202.708 152.14C202.336 153.039 201.791 153.856 201.103 154.544C200.415 155.232 199.598 155.778 198.699 156.151C197.8 156.523 196.837 156.715 195.864 156.715H142.362C140.396 156.715 138.511 155.934 137.12 154.545C135.73 153.155 134.949 151.27 134.949 149.304V146.939H203.27Z" fill="#F7CC7F"/>
<path d="M203.274 149.304C203.303 150.925 202.798 152.51 201.837 153.815C200.871 155.141 199.496 156.113 197.924 156.58C197.138 156.804 196.324 156.908 195.507 156.889H193.109L188.307 156.934L169.104 157.011L149.908 156.934L145.106 156.889L142.734 156.928C141.917 156.947 141.102 156.843 140.316 156.618C138.743 156.15 137.366 155.179 136.397 153.854C135.438 152.548 134.935 150.963 134.966 149.343C135.005 150.945 135.556 152.492 136.539 153.757C137.509 155.019 138.869 155.925 140.407 156.335C141.165 156.537 141.949 156.624 142.734 156.593H145.131L149.934 156.548L169.13 156.47L188.332 156.548L193.135 156.593H195.533C196.316 156.623 197.1 156.538 197.86 156.341C199.396 155.928 200.755 155.023 201.727 153.764C202.708 152.482 203.25 150.918 203.274 149.304Z" fill="#B26A0B"/>
<path d="M267.339 236.782C261.763 241.029 267.765 273.359 267.765 273.359L275.068 252.299C274.253 252.294 273.457 252.056 272.772 251.614C272.087 251.173 271.542 250.545 271.2 249.806C268.506 244.438 271.007 233.986 267.339 236.782Z" fill="#F7A491"/>
<path d="M208.331 341.375C208.331 341.375 197.521 329.95 188.774 343.85C188.774 343.85 182.051 340.08 177.339 346.795C177.339 346.795 165.201 343.141 162.256 361.287C162.256 361.287 156.009 360.108 155.165 367.532C154.65 371.873 155.701 376.256 158.13 379.891C158.13 379.891 154.624 382.52 156.196 389.345C157.55 395.144 162.352 396.034 162.352 396.034C162.352 396.034 163.641 405.809 167.896 408.754C172.15 411.699 177.913 410.288 177.913 410.288C177.913 410.288 179.441 415.591 184.359 415.114C189.277 414.638 195.433 409.959 200.977 412.054C206.52 414.148 220.888 411.938 220.888 411.938C220.888 411.938 237.003 404.752 232.201 388.256C232.201 388.256 240.69 380.6 233.264 371.411C233.264 371.411 238.685 357.041 227.959 348.554C217.233 340.067 208.331 341.375 208.331 341.375Z" fill="#07345A"/>
<path d="M234.68 428.602L208.322 432.571C208.322 432.571 188.456 432.881 183.183 432.932C182.725 432.932 162.046 533.775 157.019 571.724C151.991 609.673 155.852 616.387 155.852 616.387C155.852 616.387 190.912 624.275 216.85 621.974C243.82 619.583 274.161 605.026 274.161 605.026C274.161 605.026 248.049 532.615 243.478 509.829C238.908 487.043 234.68 428.602 234.68 428.602Z" fill="white"/>
<path d="M288.875 287.89C288.875 287.89 286.561 381.328 283.718 387.057C279.593 395.434 250.109 455.061 250.109 455.061C250.109 455.061 272.289 547.855 281.617 579.895C282.551 583.117 286.709 603.97 286.709 606C286.709 610.51 267.087 616.226 264.793 615.885C262.704 615.582 245.584 527.318 234.658 484.124C230.954 469.489 224.598 455.657 215.906 443.313L208.307 432.513L253.358 378.016C253.358 378.016 263.11 291.763 263.11 286.376C263.085 284.958 286.045 282.586 288.875 287.89Z" fill="#3C8F7C"/>
<path d="M183.155 432.932L138.033 364.883C138.033 364.883 108.736 293.393 108.014 290.777C107.292 288.16 84.2802 291.151 76.9963 290.442C74.6628 290.216 102.89 365.734 106.371 378.28C110.483 393.102 137.311 450.859 137.311 450.859C137.311 450.859 152.537 485.586 150.164 512.419C146.219 556.98 138.394 621.201 140.302 623.128C152.124 630.571 189.291 630.3 192.192 625.705C223.874 574.598 183.155 432.932 183.155 432.932Z" fill="#3C8F7C"/>
<path d="M206.501 418.955L208.435 433.512C208.435 433.512 212.837 454.481 207.146 458.528C201.454 462.575 183.096 432.913 183.096 432.913L185.029 396.034L206.501 418.955Z" fill="#F7A491"/>
<path d="M184.469 407.987C189.136 420.566 200.268 428.299 208.164 431.302L206.501 418.955L185.094 396.034L184.469 407.987Z" fill="#F47458"/>
<path d="M154.982 370.966C154.982 376.585 158.205 381.135 162.125 381.135C166.044 381.135 169.26 376.585 169.26 370.966C169.26 365.347 166.037 360.797 162.125 360.797C158.212 360.797 154.982 365.347 154.982 370.966Z" fill="#07345A"/>
<path d="M176.406 349.102C176.406 352.324 180.274 354.947 185.089 354.947C189.904 354.947 193.772 352.33 193.772 349.102C193.772 345.873 189.904 343.257 185.089 343.257C180.274 343.257 176.406 345.873 176.406 349.102Z" fill="#07345A"/>
<path d="M198.166 357.285C200.859 356.376 203.718 356.067 206.544 356.382C209.369 356.696 212.091 357.626 214.518 359.105C216.945 360.584 219.019 362.577 220.592 364.944C222.166 367.31 223.202 369.993 223.627 372.803C224.561 378.991 225.099 385.233 225.239 391.49C225.548 408.49 216.743 425.038 209.021 425.038C201.298 425.038 179.962 414.032 179.189 389.899C178.679 374.961 186.118 361.429 198.166 357.285Z" fill="#F7A491"/>
<path d="M184.843 391.774C184.843 395.524 182.361 398.566 179.293 398.566C176.224 398.566 173.736 395.524 173.736 391.774C173.736 388.024 176.224 384.982 179.293 384.982C182.361 384.982 184.843 388.024 184.843 391.774Z" fill="#F7A491"/>
<path d="M231.621 348.825C239.594 355.14 242.392 364.741 237.86 370.264C233.329 375.786 223.196 375.142 215.222 368.827C207.248 362.512 204.451 352.91 208.976 347.388C213.501 341.865 223.64 342.516 231.621 348.825Z" fill="#07345A"/>
<path d="M210.766 354.006C210.766 356.751 207.446 358.974 203.36 358.974C199.273 358.974 195.953 356.751 195.953 354.006C195.953 351.261 199.266 349.037 203.36 349.037C207.453 349.037 210.766 351.261 210.766 354.006Z" fill="#07345A"/>
<path d="M232.801 375.129C232.788 376.377 232.406 377.593 231.704 378.624C231.001 379.655 230.008 380.456 228.852 380.924C227.695 381.392 226.425 381.508 225.202 381.256C223.98 381.005 222.859 380.397 221.982 379.51C221.104 378.623 220.508 377.495 220.27 376.271C220.032 375.046 220.162 373.778 220.644 372.626C221.125 371.475 221.936 370.492 222.976 369.801C224.015 369.11 225.236 368.742 226.484 368.743C228.168 368.753 229.78 369.432 230.964 370.629C232.149 371.827 232.809 373.445 232.801 375.129Z" fill="#07345A"/>
<path d="M451.493 464.237C448.328 462.304 441.753 459.333 437.763 459.604C437.36 459.629 436.957 459.54 436.602 459.346C436.248 459.152 435.955 458.862 435.759 458.508L428.139 445.202C427.937 444.845 427.835 444.441 427.844 444.031C427.853 443.622 427.973 443.222 428.191 442.875C430.37 439.453 431.04 432.127 430.956 428.357L414.39 418.601C411.219 420.45 405.475 424.787 403.741 428.479C403.573 428.85 403.3 429.163 402.957 429.382C402.614 429.6 402.215 429.714 401.808 429.71H386.866C386.462 429.706 386.066 429.589 385.725 429.373C385.383 429.157 385.108 428.85 384.932 428.486C383.121 424.8 377.281 420.469 374.071 418.633L357.717 428.434C357.717 432.198 358.549 439.524 360.805 442.946C361.03 443.289 361.158 443.686 361.175 444.096C361.192 444.506 361.097 444.912 360.902 445.272L353.579 458.599C353.387 458.952 353.099 459.243 352.747 459.437C352.395 459.631 351.995 459.721 351.594 459.694C347.604 459.436 341.093 462.439 337.967 464.366L338.18 483.924C341.351 485.857 347.926 488.828 351.909 488.557C352.314 488.532 352.717 488.621 353.073 488.815C353.429 489.009 353.722 489.299 353.921 489.652L361.533 502.972C361.736 503.329 361.838 503.733 361.829 504.143C361.819 504.552 361.7 504.952 361.482 505.299C359.303 508.727 358.626 516.054 358.716 519.823L375.283 529.58C378.454 527.73 384.197 523.393 385.925 519.701C386.095 519.332 386.367 519.019 386.71 518.801C387.053 518.583 387.452 518.468 387.859 518.47H402.8C403.205 518.474 403.6 518.591 403.942 518.807C404.283 519.023 404.558 519.331 404.734 519.695C406.545 523.381 412.379 527.704 415.596 529.547L431.93 519.727C431.93 515.957 431.098 508.637 428.842 505.215C428.616 504.873 428.487 504.476 428.469 504.066C428.451 503.656 428.544 503.249 428.739 502.889L436.068 489.562C436.258 489.209 436.545 488.918 436.896 488.723C437.247 488.529 437.647 488.44 438.047 488.467C442.043 488.725 448.554 485.722 451.68 483.795L451.493 464.237ZM395.246 509.7C376.127 509.7 360.437 493.802 360.244 474.135C360.051 454.468 375.347 438.5 394.459 438.48C413.572 438.461 429.267 454.378 429.461 474.045C429.654 493.712 414.326 509.674 395.213 509.7H395.246Z" fill="#F7CC7F"/>
<path d="M394.507 445.389C379.102 445.389 366.757 458.277 366.932 474.129C367.106 489.981 379.733 502.811 395.139 502.792C410.545 502.773 422.857 489.904 422.715 474.052C422.573 458.199 409.913 445.369 394.507 445.389Z" fill="#F7CC7F"/>
<path d="M375.674 231.446C365.618 231.446 357.561 239.856 357.677 250.199C357.793 260.541 366.057 268.918 376.08 268.886C386.104 268.854 394.193 260.509 394.077 250.128C393.961 239.746 385.743 231.434 375.674 231.446Z" fill="#96D9C9"/>
<path d="M412.852 243.742C410.783 242.492 406.49 240.52 403.886 240.72C403.626 240.733 403.367 240.673 403.139 240.547C402.911 240.42 402.723 240.232 402.597 240.004L397.627 231.324C397.494 231.091 397.427 230.827 397.433 230.559C397.439 230.292 397.517 230.03 397.659 229.803C399.084 227.567 399.522 222.786 399.464 220.331L388.654 213.958C386.579 215.163 382.853 217.998 381.706 220.402C381.596 220.64 381.421 220.842 381.2 220.985C380.98 221.127 380.724 221.204 380.461 221.207H370.709C370.439 221.21 370.175 221.135 369.946 220.993C369.718 220.85 369.535 220.645 369.42 220.402C368.24 217.998 364.424 215.175 362.329 213.958L351.654 220.35C351.654 222.812 352.202 227.593 353.672 229.823C353.818 230.047 353.901 230.307 353.912 230.574C353.924 230.842 353.863 231.107 353.736 231.344L348.96 240.056C348.837 240.287 348.65 240.477 348.421 240.604C348.193 240.731 347.932 240.789 347.671 240.771C345.092 240.604 340.812 242.563 338.775 243.819L338.911 256.585C340.98 257.835 345.273 259.807 347.877 259.607C348.137 259.597 348.395 259.658 348.622 259.784C348.849 259.91 349.038 260.096 349.166 260.322L354.162 269.054C354.299 269.283 354.372 269.544 354.372 269.811C354.372 270.078 354.299 270.34 354.162 270.568C352.737 272.804 352.299 277.586 352.357 280.048L363.173 286.414C365.243 285.209 368.975 282.374 370.116 279.97C370.227 279.732 370.404 279.531 370.625 279.389C370.846 279.248 371.103 279.172 371.366 279.171H381.113C381.381 279.168 381.645 279.241 381.874 279.383C382.102 279.524 382.285 279.728 382.402 279.97C383.588 282.374 387.397 285.196 389.492 286.414L400.167 280.015C400.167 277.56 399.625 272.779 398.149 270.543C398.003 270.319 397.92 270.061 397.909 269.794C397.897 269.528 397.958 269.263 398.085 269.028L402.868 260.329C402.992 260.099 403.179 259.909 403.407 259.782C403.636 259.656 403.896 259.597 404.157 259.613C406.735 259.781 411.009 257.822 413.046 256.565L412.852 243.742ZM376.11 273.384C363.637 273.384 353.408 263.009 353.272 250.186C353.137 237.362 363.186 226.949 375.627 226.929C388.068 226.91 398.33 237.311 398.471 250.128C398.613 262.945 388.609 273.397 376.136 273.417L376.11 273.384Z" fill="#96D9C9"/>
<path d="M63.0275 361.938C62.4552 361.847 61.9205 361.596 61.4848 361.214C61.0492 360.832 60.7303 360.335 60.5651 359.779L54.1191 338.778C53.9465 338.22 53.9291 337.625 54.0688 337.057C54.2085 336.49 54.4999 335.971 54.912 335.556C59.0374 331.451 62.2797 321.412 63.3433 316.121L43.2319 297.272C38.2169 298.857 28.8187 303.13 25.2412 307.75C24.8919 308.209 24.4187 308.558 23.8773 308.757C23.3359 308.956 22.749 308.995 22.1858 308.872L1.28152 304.212C0.715858 304.08 0.198593 303.792 -0.211594 303.381C-0.621773 302.97 -0.908447 302.452 -1.03903 301.886C-2.41203 296.164 -9.22541 288.283 -13.1381 284.7L-39.0896 293.277C-40.2756 298.542 -41.4101 309.052 -39.3281 314.542C-39.1171 315.092 -39.0609 315.689 -39.1655 316.268C-39.27 316.848 -39.5313 317.387 -39.9211 317.829L-54.373 334.139C-54.7513 334.573 -55.2462 334.89 -55.799 335.052C-56.3519 335.214 -56.9397 335.215 -57.4928 335.054C-62.9977 333.436 -73.0469 335.595 -78.0232 337.309L-83.8633 364.735C-80.0344 368.408 -71.7706 374.646 -66.1111 375.522C-65.5389 375.613 -65.0041 375.865 -64.5685 376.246C-64.1328 376.628 -63.814 377.126 -63.6487 377.681L-57.2028 398.682C-57.0352 399.241 -57.0209 399.836 -57.1616 400.402C-57.3022 400.969 -57.5924 401.488 -58.0021 401.904C-62.1275 406.009 -65.3698 416.049 -66.4334 421.339L-46.322 440.188C-41.307 438.603 -31.9088 434.33 -28.3313 429.71C-27.982 429.251 -27.5088 428.902 -26.9674 428.703C-26.426 428.505 -25.8391 428.465 -25.2759 428.589L-4.37159 433.248C-3.80593 433.38 -3.28867 433.668 -2.87848 434.079C-2.4683 434.49 -2.18163 435.008 -2.05104 435.574C-0.678047 441.296 6.13534 449.177 10.048 452.76L35.9995 444.183C37.1856 438.919 38.3201 428.408 36.238 422.918C36.0271 422.368 35.9708 421.771 36.0754 421.192C36.1799 420.613 36.4413 420.073 36.831 419.632L51.2571 403.296C51.6352 402.861 52.1297 402.543 52.6825 402.38C53.2352 402.217 53.8232 402.215 54.377 402.374C59.8818 403.998 69.9311 401.84 74.9074 400.125L80.7474 372.7C76.983 369.052 68.6935 362.815 63.0275 361.938Z" fill="#F7CC7F"/>
<path d="M-13.5366 422.183C-24.1095 419.81 -33.7411 414.356 -41.2135 406.511C-48.6858 398.665 -53.6634 388.781 -55.5168 378.108C-57.3702 367.435 -56.0162 356.452 -51.6259 346.548C-47.2357 336.644 -40.0064 328.264 -30.8522 322.467C-21.6979 316.67 -11.0299 313.717 -0.196999 313.982C10.6359 314.246 21.1472 317.715 30.0077 323.952C38.8683 330.188 45.6802 338.91 49.582 349.017C53.4839 359.123 54.3005 370.159 51.9287 380.729C48.7305 394.896 40.0422 407.216 27.7696 414.987C15.497 422.759 0.642086 425.347 -13.5366 422.183Z" fill="white"/>
<path d="M23.9305 401.318L20.4046 377.043L38.4082 360.385C38.8688 359.957 39.2007 359.409 39.3665 358.802C39.5322 358.196 39.5253 357.555 39.3464 356.952C39.1675 356.349 38.8238 355.808 38.3539 355.39C37.8841 354.972 37.3068 354.693 36.6871 354.586L12.5211 350.436L2.2076 328.171C1.94217 327.602 1.52309 327.118 0.997482 326.773C0.471874 326.429 -0.139412 326.238 -0.767643 326.222C-1.39588 326.206 -2.01614 326.365 -2.55868 326.683C-3.10122 327 -3.54452 327.462 -3.83873 328.017L-15.2545 349.727L-39.6139 352.627C-40.2395 352.7 -40.8321 352.947 -41.3243 353.34C-41.8166 353.733 -42.1888 354.256 -42.3989 354.85C-42.6089 355.444 -42.6484 356.084 -42.5127 356.699C-42.3771 357.314 -42.0718 357.879 -41.6314 358.329L-24.511 375.889L-29.2745 399.951C-29.398 400.568 -29.3461 401.207 -29.1246 401.796C-28.9031 402.385 -28.521 402.899 -28.0215 403.282C-27.5221 403.664 -26.9254 403.899 -26.2991 403.96C-25.6729 404.02 -25.0422 403.904 -24.4787 403.625L-2.46573 392.779L18.9671 404.739C19.5154 405.041 20.1369 405.184 20.7619 405.152C21.3869 405.121 21.9908 404.916 22.5059 404.561C23.0211 404.206 23.4272 403.714 23.6788 403.141C23.9304 402.569 24.0176 401.937 23.9305 401.318Z" fill="#F7CC7F"/>
<path d="M382.63 402.613C383.482 403.13 384.179 403.867 384.648 404.746L386.936 400.989L382.089 398.044L379.807 401.801C380.804 401.811 381.78 402.092 382.63 402.613Z" fill="white"/>
<path d="M374.986 404.482C375.503 403.629 376.24 402.93 377.12 402.458L373.355 400.177L370.416 405.023L374.174 407.311C374.183 406.312 374.464 405.334 374.986 404.482Z" fill="white"/>
<path d="M376.849 412.111C375.996 411.596 375.298 410.859 374.831 409.979L372.543 413.735L377.39 416.68L379.672 412.923C378.676 412.909 377.701 412.629 376.849 412.111Z" fill="white"/>
<path d="M385.305 407.433C385.293 408.43 385.013 409.406 384.495 410.259C383.977 411.111 383.239 411.809 382.359 412.279L386.124 414.56L389.063 409.721L385.305 407.433Z" fill="white"/>
<path d="M421.273 434.131C420.527 435.359 419.434 436.338 418.131 436.945C416.829 437.551 415.376 437.758 413.956 437.539C412.535 437.32 411.212 436.685 410.153 435.714C409.094 434.743 408.347 433.48 408.006 432.084C407.665 430.689 407.746 429.224 408.238 427.874C408.73 426.524 409.612 425.351 410.771 424.502C411.931 423.654 413.316 423.168 414.751 423.106C416.187 423.044 417.609 423.409 418.836 424.155C420.482 425.156 421.664 426.768 422.121 428.639C422.578 430.509 422.273 432.485 421.273 434.131Z" fill="white"/>
<path d="M404.187 349.688L366.052 367.854C363.893 368.881 361.414 369.01 359.16 368.211C356.906 367.412 355.061 365.752 354.031 363.594L343.794 342.123C342.767 339.963 342.64 337.484 343.44 335.231C344.24 332.977 345.902 331.134 348.062 330.105L386.19 311.939C388.35 310.91 390.83 310.78 393.086 311.579C395.341 312.378 397.187 314.039 398.218 316.199L408.454 337.67C409.481 339.83 409.609 342.309 408.808 344.562C408.008 346.816 406.346 348.659 404.187 349.688Z" fill="#9BC1F9"/>
<path d="M350.489 351.879L342.322 376.205L360.461 362.795L350.489 351.879Z" fill="#9BC1F9"/>
<path d="M363.951 342.471L368.772 340.022C368.772 340.022 372.685 332.47 372.085 330.755C371.486 329.041 368.817 326.116 369.559 325.22C370.125 324.489 370.956 324.008 371.872 323.88C372.789 323.753 373.719 323.988 374.464 324.537C376.146 325.645 378.132 331.69 378.886 331.793C379.363 331.857 382.173 330.504 384.21 329.525C384.868 329.199 385.602 329.061 386.333 329.124C387.064 329.188 387.764 329.451 388.355 329.886C388.744 330.174 389.024 330.586 389.149 331.054C389.275 331.522 389.238 332.019 389.045 332.463L388.4 333.9L389.805 334.615C390.307 334.874 390.687 335.321 390.862 335.857C391.037 336.394 390.993 336.978 390.74 337.483L390.199 338.553L391.108 338.933C391.385 339.049 391.634 339.223 391.84 339.442C392.046 339.661 392.203 339.921 392.302 340.205C392.4 340.489 392.438 340.79 392.412 341.089C392.386 341.389 392.297 341.679 392.152 341.942L391.649 342.851L391.862 343.006C392.296 343.316 392.598 343.778 392.709 344.301C392.82 344.823 392.732 345.368 392.461 345.828L391.939 346.704L379.092 353.232C377.888 353.843 376.572 354.2 375.225 354.283L370.326 355.829C370.071 355.91 369.797 355.897 369.551 355.793C369.305 355.689 369.104 355.501 368.985 355.262L363.448 343.934C363.328 343.672 363.313 343.374 363.407 343.102C363.5 342.829 363.695 342.603 363.951 342.471Z" fill="white"/>
<path d="M372.653 139.245L363.209 141.127L364.383 150.02L355.158 152.288L355.236 160.923L348.609 163.752L350.04 167.103L358.897 163.327L358.833 155.136L368.424 152.778L367.27 144.033L375.824 142.326L372.653 139.245Z" fill="#F79C8D"/>
<path d="M292.788 239.411C292.788 239.411 289.7 216.857 287.122 216.174C284.543 215.491 283.686 219.609 284.769 223.147C285.852 226.684 286.703 240.049 285.948 245.153C285.194 250.257 292.788 239.411 292.788 239.411Z" fill="#F7A491"/>
<path d="M73.6563 261.36C73.6563 261.36 73.1277 243.555 75.777 237.994C76.138 237.233 76.9051 236.376 77.7108 238.29C78.8195 240.99 78.0073 255.277 78.0073 255.277C78.0073 255.277 78.1169 232.246 81.2303 232.246C84.3437 232.246 82.816 240.172 82.816 243.336C82.816 246.5 82.5775 257.339 82.5775 257.339C82.5775 257.339 83.8667 232.948 84.1696 231.498C84.4726 230.048 86.9414 229.655 87.6762 231.988C88.4111 234.321 88.7141 257.854 88.7141 257.854C88.7141 257.854 87.225 233.612 90.6607 233.612C94.1996 233.612 92.1433 263.744 95.3341 266.934L102.502 274.106L73.6563 261.36Z" fill="#F7A491"/>
</svg>
