<svg width="458" height="449" fill="none" xmlns="http://www.w3.org/2000/svg"><path d="M73.153 238.767s-.065 27.239 1.598 31.705c.729 1.965 4.448 5.026 7.142 10.439 4.37 8.802 5.376 21.368 5.376 21.368l8.554 31.093 13.388-18.978s-4.512-18.842-5.453-25.222c-1.721-11.792-1.231-18.868-1.231-18.868s-7.954-7.449-8.786-9.808c-2.269-6.624-8.006-17.077-10.52-19.59-3.371-3.37 1.612 20.363 1.612 20.363s-4.184-26.137-7.213-26.137c-3.03 0 .096 16.568.096 16.568s.155-14.609-4.563-12.933zM287.636 218.726c-1.611-.187-2.339 1.173-2.578 3.1-.561-3.222-1.392-5.909-2.578-5.632-1.676.386-1.812 9.066-1.618 16.496-.426-5.935-1.199-11.754-2.534-9.608-1.888 3.016-3.532 17.18-4.241 24.146-.251 2.475-1.418 3.519-3.487 4.898 0 0-2.579-17.56-5.215-13.359-2.636 4.202 2.398 34.592 2.398 34.592l1.805 27.181 16.334 2.268.754-15.981a36.12 36.12 0 01-.915-15.679c1.289-8.525 6.272-19.196 7.503-21.175 2.501-4.04-5.628-31.247-5.628-31.247z" fill="#F7A491"/><path d="M288.534 230.615s.773 7.347-2.102 12.354c-2.874 5.007-15.109 11.419-15.109 11.419l-.889-2.649 18.1-21.124z" fill="#F47458"/><path d="M310.895 158.861c0 14.647-13.827 26.936-18.12 40.159-4.448 13.7-.645 31.731-8.947 43.137-8.38 11.522-26.777 13.435-38.295 21.813-11.41 8.306-18.868 25.215-32.54 29.668-13.22 4.292-29.155-4.891-43.832-4.891-14.678 0-30.586 9.183-43.833 4.891-13.704-4.453-20.691-23.141-32.094-31.434-11.526-8.377-30.387-8.551-38.773-20.073-8.302-11.406-4.512-29.437-8.947-43.137-4.293-13.223-18.12-25.511-18.12-40.159 0-14.647 13.827-26.936 18.12-40.159 4.448-13.7.645-31.737 8.947-43.136 8.38-11.522 26.77-13.436 38.296-21.82 11.422-8.274 18.88-25.235 32.571-29.688 13.221-4.291 29.155 4.892 43.833 4.892 14.677 0 30.592-9.183 43.832-4.892 13.672 4.453 21.13 21.414 32.54 29.688 11.518 8.377 29.909 10.31 38.295 21.82 8.302 11.4 4.512 29.436 8.947 43.136 4.293 13.223 18.12 25.506 18.12 40.185z" fill="#F7CC7F"/><path d="M248.587 238.252c43.874-43.861 43.874-114.974 0-158.835-43.874-43.86-115.008-43.86-158.882 0-43.874 43.861-43.874 114.974 0 158.835 43.874 43.861 115.008 43.861 158.882 0z" fill="#fff"/><path d="M227.656 99.91a8.033 8.033 0 01-1.128 2.888 52.4 52.4 0 00-3.1 3.37 29.685 29.685 0 012.03-.071c6.73 0 12.989 1.966 17.63 5.523 4.151 3.183 6.446 7.262 6.446 11.489 0 4.228-2.282 8.3-6.446 11.484-4.641 3.557-10.9 5.522-17.63 5.522-6.729 0-12.95-1.933-17.591-5.497l-1.005 2.475a6.292 6.292 0 00-3.534 7.764 6.294 6.294 0 004.357 4.118 6.301 6.301 0 005.832-1.396 6.295 6.295 0 001.724-2.566 38.479 38.479 0 0010.237 1.366c16.759 0 30.334-10.42 30.334-23.27-.019-12.275-12.434-22.335-28.156-23.198zM110.082 99.91a7.937 7.937 0 001.128 2.901 54.24 54.24 0 013.1 3.37 30.634 30.634 0 00-2.037-.071c-6.729 0-12.988 1.965-17.63 5.523-4.144 3.183-6.445 7.262-6.445 11.489 0 4.228 2.282 8.3 6.446 11.484 4.64 3.557 10.9 5.522 17.629 5.522 6.73 0 12.957-1.933 17.591-5.497l1.012 2.475a6.292 6.292 0 013.534 7.764 6.3 6.3 0 01-7.45 4.159 6.307 6.307 0 01-4.463-4.003 38.57 38.57 0 01-10.243 1.366c-16.76 0-30.328-10.42-30.328-23.27.02-12.288 12.46-22.348 28.156-23.211z" fill="#E0973F"/><path d="M227.656 99.91a8.033 8.033 0 01-1.128 2.888 52.4 52.4 0 00-3.1 3.37 29.685 29.685 0 012.03-.071c6.73 0 12.989 1.966 17.63 5.523 4.151 3.183 6.446 7.262 6.446 11.489 0 4.228-2.282 8.3-6.446 11.484-4.641 3.557-10.9 5.522-17.63 5.522-6.729 0-12.95-1.933-17.591-5.497l-1.005 2.475a6.292 6.292 0 00-3.534 7.764 6.294 6.294 0 004.357 4.118 6.301 6.301 0 005.832-1.396 6.295 6.295 0 001.724-2.566 38.479 38.479 0 0010.237 1.366c16.759 0 30.334-10.42 30.334-23.27-.019-12.275-12.434-22.335-28.156-23.198zM110.082 99.91a7.937 7.937 0 001.128 2.901 54.24 54.24 0 013.1 3.37 30.634 30.634 0 00-2.037-.071c-6.729 0-12.988 1.965-17.63 5.523-4.144 3.183-6.445 7.262-6.445 11.489 0 4.228 2.282 8.3 6.446 11.484 4.64 3.557 10.9 5.522 17.629 5.522 6.73 0 12.957-1.933 17.591-5.497l1.012 2.475a6.292 6.292 0 013.534 7.764 6.3 6.3 0 01-7.45 4.159 6.307 6.307 0 01-4.463-4.003 38.57 38.57 0 01-10.243 1.366c-16.76 0-30.328-10.42-30.328-23.27.02-12.288 12.46-22.348 28.156-23.211z" fill="#B75742"/><path d="M228.766 95.42v6.444a52.579 52.579 0 01-15.408 37.186 52.608 52.608 0 01-37.197 15.403h-14.136a52.59 52.59 0 01-9.076-.786 51.304 51.304 0 01-8.838-2.345 52.71 52.71 0 01-18.867-11.851 85.554 85.554 0 01-1.863-1.933 52.024 52.024 0 01-3.133-3.712 52.351 52.351 0 01-10.842-31.982V95.4l119.36.02z" fill="#F7CC7F"/><path d="M159.847 95.42l-18.945 54.6a52.71 52.71 0 01-15.644-10.562l15.283-44.038h19.306zM173.159 95.42l-20.208 58.228a51.216 51.216 0 01-8.838-2.346l19.39-55.882h9.656zM138.016 95.42l-14.62 42.118a51.75 51.75 0 01-3.132-3.712l13.323-38.406h4.429z" fill="#FAE0B2"/><path d="M223.557 91.779H114.93c-3.965 0-7.2 2.203-7.426 4.987h123.473c-.226-2.784-3.456-4.987-7.42-4.987zM148.924 152.894l6.143 31.543h26.873l7.619-31.543h-40.635z" fill="#F7CC7F"/><path d="M189.559 152.9l-1.714 7.115H150.31l-1.386-7.115h40.635z" fill="#B75742"/><path d="M189.559 223.462h-40.635l3.042-15.659 3.101-15.884h26.88l3.835 15.884 3.777 15.659z" fill="#F7CC7F"/><path d="M189.559 223.462h-40.635l3.042-15.659h33.816l3.777 15.659z" fill="#B75742"/><path d="M186.846 184.437h-36.677a2.714 2.714 0 00-2.714 2.713v2.049a2.713 2.713 0 002.714 2.713h36.677a2.713 2.713 0 002.714-2.713v-2.049a2.714 2.714 0 00-2.714-2.713z" fill="#FAE0B2"/><path d="M143.673 211.025h49.77a7.03 7.03 0 017.032 7.031v3.273H136.66v-3.273a7.03 7.03 0 017.013-7.031z" fill="#F7CC7F"/><path d="M221.566 227.483v3.132H115.549v-3.132a6.534 6.534 0 014.048-6.046 6.534 6.534 0 012.507-.494h92.919a6.542 6.542 0 016.543 6.54z" fill="#F7CC7F"/><path d="M140.508 220.943l-3.352 9.672h-4.422l3.352-9.672h4.422zM134.173 220.943l-3.352 9.672h-4.428l3.358-9.672h4.422zM146.142 220.943l-3.352 9.672h-4.435l3.365-9.672h4.422z" fill="#FAE0B2"/><path d="M203.27 146.939v2.365a7.398 7.398 0 01-4.571 6.847 7.414 7.414 0 01-2.835.564h-53.502a7.412 7.412 0 01-7.413-7.411v-2.365h68.321z" fill="#F7CC7F"/><path d="M203.274 149.304a7.384 7.384 0 01-1.437 4.511 7.476 7.476 0 01-3.913 2.765c-.786.224-1.6.328-2.417.309h-2.398l-4.802.045-19.203.077-19.196-.077-4.802-.045-2.372.039a8.1 8.1 0 01-2.418-.31 7.508 7.508 0 01-3.919-2.764 7.383 7.383 0 01-1.431-4.511 7.49 7.49 0 001.573 4.414 7.226 7.226 0 003.868 2.578 7.834 7.834 0 002.327.258h2.397l4.803-.045 19.196-.078 19.202.078 4.803.045h2.398a8.047 8.047 0 002.327-.252 7.27 7.27 0 003.867-2.577 7.523 7.523 0 001.547-4.46z" fill="#B26A0B"/><path d="M267.339 236.782c-5.576 4.247.426 36.577.426 36.577l7.303-21.06a4.296 4.296 0 01-3.868-2.493c-2.694-5.368-.193-15.82-3.861-13.024z" fill="#F7A491"/><path d="M208.331 341.375s-10.81-11.425-19.557 2.475c0 0-6.723-3.77-11.435 2.945 0 0-12.138-3.654-15.083 14.492 0 0-6.247-1.179-7.091 6.245a18.353 18.353 0 002.965 12.359s-3.506 2.629-1.934 9.454c1.354 5.799 6.156 6.689 6.156 6.689s1.289 9.775 5.544 12.72c4.254 2.945 10.017 1.534 10.017 1.534s1.528 5.303 6.446 4.826c4.918-.476 11.074-5.155 16.618-3.06 5.543 2.094 19.911-.116 19.911-.116s16.115-7.186 11.313-23.682c0 0 8.489-7.656 1.063-16.845 0 0 5.421-14.37-5.305-22.857-10.726-8.487-19.628-7.179-19.628-7.179z" fill="#07345A"/><path d="M234.68 428.602l-26.358 3.969s-19.866.31-25.139.361c-.458 0-21.137 100.843-26.164 138.792-5.028 37.949-1.167 44.663-1.167 44.663s35.06 7.888 60.998 5.587c26.97-2.391 57.311-16.948 57.311-16.948s-26.112-72.411-30.683-95.197c-4.57-22.786-8.798-81.227-8.798-81.227z" fill="#fff"/><path d="M288.875 287.89s-2.314 93.438-5.157 99.167c-4.125 8.377-33.609 68.004-33.609 68.004s22.18 92.794 31.508 124.834c.934 3.222 5.092 24.075 5.092 26.105 0 4.51-19.622 10.226-21.916 9.885-2.089-.303-19.209-88.567-30.135-131.761a123.528 123.528 0 00-18.752-40.811l-7.599-10.8 45.051-54.497s9.752-86.253 9.752-91.64c-.025-1.418 22.935-3.79 25.765 1.514zM183.155 432.932l-45.122-68.049s-29.297-71.49-30.019-74.106c-.722-2.617-23.734.374-31.018-.335-2.333-.226 25.894 75.292 29.375 87.838 4.112 14.822 30.94 72.579 30.94 72.579s15.226 34.727 12.853 61.56c-3.945 44.561-11.77 108.782-9.862 110.709 11.822 7.443 48.989 7.172 51.89 2.577 31.682-51.107-9.037-192.773-9.037-192.773z" fill="#3C8F7C"/><path d="M206.501 418.955l1.934 14.557s4.402 20.969-1.289 25.016c-5.692 4.047-24.05-25.615-24.05-25.615l1.933-36.879 21.472 22.921z" fill="#F7A491"/><path d="M184.469 407.987c4.667 12.579 15.799 20.312 23.695 23.315l-1.663-12.347-21.407-22.921-.625 11.953z" fill="#F47458"/><path d="M154.982 370.966c0 5.619 3.223 10.169 7.143 10.169 3.919 0 7.135-4.55 7.135-10.169 0-5.619-3.223-10.169-7.135-10.169-3.913 0-7.143 4.55-7.143 10.169zM176.406 349.102c0 3.222 3.868 5.845 8.683 5.845 4.815 0 8.683-2.617 8.683-5.845 0-3.229-3.868-5.845-8.683-5.845-4.815 0-8.683 2.616-8.683 5.845z" fill="#07345A"/><path d="M198.166 357.285a19.455 19.455 0 0125.461 15.518 147.287 147.287 0 011.612 18.687c.309 17-8.496 33.548-16.218 33.548-7.723 0-29.059-11.006-29.832-35.139-.51-14.938 6.929-28.47 18.977-32.614z" fill="#F7A491"/><path d="M184.843 391.774c0 3.75-2.482 6.792-5.55 6.792-3.069 0-5.557-3.042-5.557-6.792s2.488-6.792 5.557-6.792c3.068 0 5.55 3.042 5.55 6.792z" fill="#F7A491"/><path d="M231.621 348.825c7.973 6.315 10.771 15.916 6.239 21.439-4.531 5.522-14.664 4.878-22.638-1.437-7.974-6.315-10.771-15.917-6.246-21.439 4.525-5.523 14.664-4.872 22.645 1.437z" fill="#07345A"/><path d="M210.766 354.006c0 2.745-3.32 4.968-7.406 4.968-4.087 0-7.407-2.223-7.407-4.968s3.313-4.969 7.407-4.969c4.093 0 7.406 2.224 7.406 4.969zM232.801 375.129a6.327 6.327 0 01-3.949 5.795 6.328 6.328 0 01-6.87-1.414 6.321 6.321 0 014.502-10.767 6.356 6.356 0 016.317 6.386z" fill="#07345A"/><path d="M451.493 464.237c-3.165-1.933-9.74-4.904-13.73-4.633a2.145 2.145 0 01-2.004-1.096l-7.62-13.306a2.275 2.275 0 01.052-2.327c2.179-3.422 2.849-10.748 2.765-14.518l-16.566-9.756c-3.171 1.849-8.915 6.186-10.649 9.878a2.1 2.1 0 01-1.933 1.231h-14.942a2.175 2.175 0 01-1.934-1.224c-1.811-3.686-7.651-8.017-10.861-9.853l-16.354 9.801c0 3.764.832 11.09 3.088 14.512a2.267 2.267 0 01.097 2.326l-7.323 13.327a2.103 2.103 0 01-1.985 1.095c-3.99-.258-10.501 2.745-13.627 4.672l.213 19.558c3.171 1.933 9.746 4.904 13.729 4.633a2.153 2.153 0 012.012 1.095l7.612 13.32a2.266 2.266 0 01-.051 2.327c-2.179 3.428-2.856 10.755-2.766 14.524l16.567 9.757c3.171-1.85 8.914-6.187 10.642-9.879a2.113 2.113 0 011.934-1.231H402.8a2.178 2.178 0 011.934 1.225c1.811 3.686 7.645 8.009 10.862 9.852l16.334-9.82c0-3.77-.832-11.09-3.088-14.512a2.264 2.264 0 01-.103-2.326l7.329-13.327a2.09 2.09 0 011.979-1.095c3.996.258 10.507-2.745 13.633-4.672l-.187-19.558zM395.246 509.7c-19.119 0-34.809-15.898-35.002-35.565-.193-19.667 15.103-35.635 34.215-35.655 19.113-.019 34.808 15.898 35.002 35.565.193 19.667-15.135 35.629-34.248 35.655h.033z" fill="#F7CC7F"/><path d="M394.507 445.389c-15.405 0-27.75 12.888-27.575 28.74.174 15.852 12.801 28.682 28.207 28.663 15.406-.019 27.718-12.888 27.576-28.74-.142-15.853-12.802-28.683-28.208-28.663z" fill="#F7CC7F"/><path d="M375.674 231.446c-10.056 0-18.113 8.41-17.997 18.753.116 10.342 8.38 18.719 18.403 18.687 10.024-.032 18.113-8.377 17.997-18.758-.116-10.382-8.334-18.694-18.403-18.682z" fill="#96D9C9"/><path d="M412.852 243.742c-2.069-1.25-6.362-3.222-8.966-3.022a1.394 1.394 0 01-1.289-.716l-4.97-8.68a1.475 1.475 0 01.032-1.521c1.425-2.236 1.863-7.017 1.805-9.472l-10.81-6.373c-2.075 1.205-5.801 4.04-6.948 6.444a1.387 1.387 0 01-1.245.805h-9.752a1.411 1.411 0 01-1.289-.805c-1.18-2.404-4.996-5.227-7.091-6.444l-10.675 6.392c0 2.462.548 7.243 2.018 9.473a1.489 1.489 0 01.064 1.521l-4.776 8.712a1.354 1.354 0 01-1.289.715c-2.579-.167-6.859 1.792-8.896 3.048l.136 12.766c2.069 1.25 6.362 3.222 8.966 3.022a1.423 1.423 0 011.289.715l4.996 8.732a1.474 1.474 0 010 1.514c-1.425 2.236-1.863 7.018-1.805 9.48l10.816 6.366c2.07-1.205 5.802-4.04 6.943-6.444a1.39 1.39 0 011.25-.799h9.747a1.414 1.414 0 011.289.799c1.186 2.404 4.995 5.226 7.09 6.444l10.675-6.399c0-2.455-.542-7.236-2.018-9.472a1.482 1.482 0 01-.064-1.515l4.783-8.699a1.37 1.37 0 011.289-.716c2.578.168 6.852-1.791 8.889-3.048l-.194-12.823zm-36.742 29.642c-12.473 0-22.702-10.375-22.838-23.198-.135-12.824 9.914-23.237 22.355-23.257 12.441-.019 22.703 10.382 22.844 23.199.142 12.817-9.862 23.269-22.335 23.289l-.026-.033z" fill="#96D9C9"/><path d="M63.028 361.938a3.072 3.072 0 01-2.463-2.159l-6.446-21.001a3.221 3.221 0 01.793-3.222c4.125-4.105 7.368-14.144 8.431-19.435l-20.111-18.849c-5.015 1.585-14.413 5.858-17.99 10.478a3.024 3.024 0 01-3.056 1.122l-20.904-4.66a3.107 3.107 0 01-2.321-2.326c-1.373-5.722-8.186-13.603-12.1-17.186l-25.95 8.577c-1.187 5.265-2.321 15.775-.24 21.265a3.22 3.22 0 01-.592 3.287l-14.452 16.31a3.018 3.018 0 01-3.12.915c-5.505-1.618-15.554.541-20.53 2.255l-5.84 27.426c3.829 3.673 12.092 9.911 17.752 10.787a3.08 3.08 0 012.462 2.159l6.446 21.001a3.257 3.257 0 01-.8 3.222c-4.124 4.105-7.367 14.145-8.43 19.435l20.111 18.849c5.015-1.585 14.413-5.858 17.99-10.478a3.024 3.024 0 013.056-1.121l20.904 4.659a3.107 3.107 0 012.321 2.326c1.373 5.722 8.186 13.603 12.099 17.186l25.951-8.577c1.187-5.264 2.321-15.775.239-21.265a3.221 3.221 0 01.593-3.286l14.426-16.336a3.02 3.02 0 013.12-.922c5.505 1.624 15.554-.534 20.53-2.249l5.84-27.425c-3.764-3.648-12.053-9.885-17.72-10.762z" fill="#F7CC7F"/><path d="M-13.537 422.183a54.773 54.773 0 01-41.98-44.075 54.758 54.758 0 013.891-31.56A54.795 54.795 0 01-.197 313.982a54.793 54.793 0 0149.779 35.035 54.758 54.758 0 012.347 31.712 54.843 54.843 0 01-24.16 34.258 54.87 54.87 0 01-41.306 7.196z" fill="#fff"/><path d="M23.93 401.318l-3.525-24.275 18.003-16.658a3.374 3.374 0 00-1.72-5.799l-24.167-4.15-10.313-22.265a3.384 3.384 0 00-2.976-1.949 3.377 3.377 0 00-3.071 1.795l-11.415 21.71-24.36 2.9a3.367 3.367 0 00-2.899 4.072c.136.615.441 1.18.882 1.63l17.12 17.56-4.764 24.062a3.365 3.365 0 004.796 3.674l22.013-10.846 21.433 11.96a3.368 3.368 0 004.963-3.421z" fill="#F7CC7F"/><path d="M382.63 402.613a5.552 5.552 0 012.018 2.133l2.288-3.757-4.847-2.945-2.282 3.757c.997.01 1.973.291 2.823.812zM374.986 404.482a5.578 5.578 0 012.134-2.024l-3.765-2.281-2.939 4.846 3.758 2.288c.009-.999.29-1.977.812-2.829zM376.849 412.111a5.507 5.507 0 01-2.018-2.132l-2.288 3.756 4.847 2.945 2.282-3.757a5.586 5.586 0 01-2.823-.812zM385.305 407.433a5.574 5.574 0 01-2.946 4.846l3.765 2.281 2.939-4.839-3.758-2.288zM421.273 434.131a7.265 7.265 0 01-13.035-6.257 7.264 7.264 0 0110.598-3.719 7.26 7.26 0 012.437 9.976z" fill="#fff"/><path d="M404.187 349.688l-38.135 18.166a9.025 9.025 0 01-12.021-4.26l-10.237-21.471a9.02 9.02 0 014.268-12.018l38.128-18.166a9.026 9.026 0 0112.028 4.26l10.236 21.471a9.02 9.02 0 01-4.267 12.018z" fill="#9BC1F9"/><path d="M350.489 351.879l-8.167 24.326 18.139-13.41-9.972-10.916z" fill="#9BC1F9"/><path d="M363.951 342.471l4.821-2.449s3.913-7.552 3.313-9.267c-.599-1.714-3.268-4.639-2.526-5.535a3.547 3.547 0 014.905-.683c1.682 1.108 3.668 7.153 4.422 7.256.477.064 3.287-1.289 5.324-2.268a4.006 4.006 0 014.145.361 2.14 2.14 0 01.69 2.577l-.645 1.437 1.405.715a2.145 2.145 0 01.935 2.868l-.541 1.07.909.38a2.142 2.142 0 011.044 3.009l-.503.909.213.155a2.135 2.135 0 01.599 2.822l-.522.876-12.847 6.528a9.888 9.888 0 01-3.867 1.051l-4.899 1.546a1.118 1.118 0 01-1.341-.567l-5.537-11.328a1.12 1.12 0 01.503-1.463z" fill="#fff"/><path d="M372.653 139.245l-9.444 1.882 1.174 8.893-9.225 2.268.078 8.635-6.627 2.829 1.431 3.351 8.857-3.776-.064-8.191 9.591-2.358-1.154-8.745 8.554-1.707-3.171-3.081z" fill="#F79C8D"/><path d="M292.788 239.411s-3.088-22.554-5.666-23.237c-2.579-.683-3.436 3.435-2.353 6.973 1.083 3.537 1.934 16.902 1.179 22.006-.754 5.104 6.84-5.742 6.84-5.742zM73.656 261.36s-.528-17.805 2.121-23.366c.361-.761 1.128-1.618 1.934.296 1.109 2.7.296 16.987.296 16.987s.11-23.031 3.223-23.031c3.114 0 1.586 7.926 1.586 11.09 0 3.164-.239 14.003-.239 14.003s1.29-24.391 1.593-25.841c.303-1.45 2.771-1.843 3.506.49.735 2.333 1.038 25.866 1.038 25.866s-1.489-24.242 1.947-24.242c3.539 0 1.482 30.132 4.673 33.322l7.168 7.172-28.846-12.746z" fill="#F7A491"/></svg>