<svg width="776" height="520" viewBox="0 0 776 520" fill="none" xmlns="http://www.w3.org/2000/svg">
<path opacity="0.7" d="M-222.754 516.29L-76.6484 518.495L21.9902 519.089H26.9626L216.202 518.467L736.965 517.042C736.965 517.042 737.145 516.858 737.481 516.502C742.836 510.824 787.819 460.512 773.025 387.426C768.312 364.149 763.983 347.956 753.215 333.041C746.498 323.74 737.272 314.945 723.886 305.259C704.347 291.106 675.931 275.033 633.502 252.723C627.396 249.538 621.594 245.804 616.169 241.568C608.149 235.249 601.036 227.864 595.03 219.618C580.557 199.935 572.248 176.586 563.369 152.916C538.413 86.3579 508.958 17.342 325.294 20.5589C298.486 21.0304 271.671 20.1428 244.953 17.8997C238.193 17.3384 231.612 16.7182 225.211 16.0394C221.884 15.6915 218.603 15.3317 215.368 14.9599C113.089 3.22212 51.9292 -18.5046 -47.5905 31.2423C-104.926 59.9102 -111.209 89.1106 -120.02 123.133C-124.52 140.509 -129.687 159.141 -142.651 179.601C-143.589 181.08 -144.568 182.563 -145.59 184.063C-161.645 207.611 -188.449 233.576 -236.483 262.78C-240.433 265.179 -244.526 267.604 -248.76 270.056C-268.556 281.47 -282.213 303.006 -289.565 328.921C-293.248 341.875 -295.343 355.934 -295.866 370.363C-297.939 428.652 -273.994 493.084 -222.754 516.29Z" fill="#99B9FF"/>
<path opacity="0.4" d="M-222.754 516.284L-76.6484 518.489L21.9902 519.083H26.9626L216.202 518.461L736.965 517.036C736.965 517.036 737.145 516.852 737.481 516.496C742.836 510.818 787.819 460.506 773.025 387.42C768.312 364.143 763.983 347.95 753.215 333.035C746.498 323.734 737.272 314.939 723.886 305.253C705.614 312.165 667.171 323.453 622.416 317.519C559.855 309.218 538.821 311.967 481.189 335.561C423.557 359.156 354.952 341.506 296.489 353.765C238.027 366.025 184.327 419.23 114.736 403.3C45.1441 387.37 15.4435 350.829 -53.5198 353.348C-119.793 355.769 -234.389 354.535 -289.572 328.919C-293.255 341.873 -295.35 355.931 -295.873 370.361C-297.939 428.646 -273.994 493.078 -222.754 516.284Z" fill="#80AEFF"/>
<path d="M-222.758 516.284H278.863C278.863 516.284 272.663 501.786 215.338 482.618C158.013 463.45 -9.15524 511.476 -96.3361 428.949C-163.27 365.586 -256.304 366.507 -295.877 370.354C-297.943 428.646 -273.998 493.078 -222.758 516.284Z" fill="#80AEFF"/>
<path d="M305.05 516.5H737.481C741.001 512.761 761.674 489.721 771.189 453.601C776.91 431.976 777.538 409.327 773.024 387.42C768.311 364.143 763.982 347.95 753.214 333.039C727.348 329.239 684.637 329.379 652.806 361.624C604.025 411.011 625.055 445.008 528.67 433.411C432.284 421.813 398.836 449.463 387.27 469.603C375.703 489.743 302.335 471.013 305.05 516.5Z" fill="#80AEFF"/>
<path d="M117.129 516.284H73.0745C69.9148 514.15 73.9267 493.29 73.9267 493.29C73.9267 493.29 85.9513 488.746 88.0313 497.99C90.1112 507.234 103.349 510.17 110.355 511.304C115.136 512.074 116.649 514.7 117.129 516.284Z" fill="#112A54"/>
<path d="M49.9409 300.067C49.9409 300.067 51.1506 322.42 52.725 349.555C54.0249 371.865 55.5632 397.413 56.8849 416.445C57.0726 419.165 57.2459 421.756 57.4373 424.181C57.4843 424.829 57.5348 425.476 57.5818 426.117C60.7342 465.371 71.3036 499.767 71.3036 499.767C83.693 502.369 89.2901 497.608 89.2901 497.608C89.2901 497.608 97.8265 397.913 100.986 357.702L101.138 355.849C101.828 347.015 102.55 337.943 103.211 329.581C104.453 314.011 105.298 303.479 105.298 303.479C105.724 298.175 105.977 294.972 105.977 294.972L49.9409 300.067Z" fill="#2B478B"/>
<path d="M52.7094 349.555C54.0094 371.865 55.5477 397.413 56.8693 416.445L76.7012 336.684L52.7094 349.555Z" fill="#112A54"/>
<path d="M51.7793 516.284H7.72485C4.56882 514.15 8.57709 493.29 8.57709 493.29C8.57709 493.29 20.6054 488.746 22.6817 497.99C24.7581 507.234 37.9997 510.17 45.005 511.304C49.786 512.074 51.3026 514.7 51.7793 516.284Z" fill="#112A54"/>
<path d="M8.22599 495.14C10.2834 496.561 12.6231 497.526 15.0869 497.968C18.1853 498.525 21.3682 498.402 24.4141 497.608C24.4141 497.608 44.6359 423.674 51.7857 402.613C61.846 373.024 93.3125 294.969 93.3125 294.969C93.3125 294.969 83.245 279.01 50.5797 279.92C43.1157 280.129 37.6739 285.825 33.6079 294.634C19.9257 324.374 22.1068 389.536 15.8958 398.291C14.2708 400.572 12.9059 403.473 11.7648 406.837C11.4904 407.65 11.2267 408.485 10.9775 409.356C10.324 411.612 9.76064 414.034 9.26954 416.581C3.41968 446.847 8.22599 495.14 8.22599 495.14Z" fill="#2B478B"/>
<path d="M15.9047 398.298C16.2188 397.938 26.3333 386.474 33.2376 353.765C40.2502 320.531 62.877 303.839 62.877 303.839L33.6275 294.641C19.9345 324.381 22.1156 389.543 15.9047 398.298Z" fill="#183368"/>
<path d="M10.98 409.367C11.6084 408.327 11.8505 407.499 11.7674 406.848C11.4929 407.683 11.2292 408.499 10.98 409.367Z" fill="#112A54"/>
<path d="M8.22889 495.14C10.2863 496.561 12.626 497.526 15.0898 497.968C12.9232 481.25 7.43804 435.555 9.27605 416.599C3.42257 446.847 8.22889 495.14 8.22889 495.14Z" fill="#183368"/>
<path d="M100.767 178.03C100.767 178.03 132.327 232.995 125.997 251.951C119.667 270.907 100.879 259.507 100.879 259.507L100.767 178.03Z" fill="#80AEFF"/>
<path d="M77.1196 182.672C72.6982 184.28 67.8444 184.254 63.4411 182.597C60.3063 181.42 57.408 179.695 54.8831 177.501C53.6981 176.507 52.6 175.414 51.6007 174.234C51.6007 174.234 51.7957 174.025 52.1315 173.608C53.872 171.409 59.3535 163.392 59.4005 149.287C59.4005 149.103 60.7401 149.553 62.7479 150.334C68.7277 152.655 80.662 157.89 81.1893 158.139H81.2109C81.2109 158.139 80.9545 161.071 80.7306 166.361C80.709 166.825 80.6873 167.311 80.6693 167.818C80.6476 168.437 80.6187 169.096 80.6007 169.772C80.4129 175.281 77.1196 182.672 77.1196 182.672Z" fill="#FFB27D"/>
<path d="M80.7306 166.364C71.2048 167.181 59.3391 151.676 59.3391 151.676C60.4135 151.086 61.559 150.635 62.7479 150.334C68.7277 152.655 80.662 157.89 81.1893 158.139H81.2109C81.2109 158.139 80.9545 161.075 80.7306 166.364Z" fill="#ED975D"/>
<path d="M29.3995 291.626C28.7423 296.663 33.6425 299.409 38.0877 300.431C38.0877 300.431 42.1934 301.309 47.3716 302.183C52.427 303.032 58.5657 303.871 62.8989 303.839C84.9947 303.666 103.479 297.182 103.479 297.182C107.643 297.182 109.539 290.777 110.214 281.828C110.676 275.772 110.575 268.55 110.246 261.364C110.138 259.039 110.005 256.711 109.86 254.43C109.575 249.91 109.228 245.571 108.921 241.728C108.632 238.129 108.369 234.967 108.199 232.516C108.199 232.516 108.795 215.381 108.56 200.3C108.394 189.48 102.302 179.631 100.771 178.027C96.3477 173.367 83.5358 170.416 80.972 170.01C80.7698 169.984 80.6723 169.966 80.6723 169.966C70.1317 175.86 55.4313 167.987 55.5072 167.994C55.1786 167.926 53.2431 168.066 50.5637 168.477C46.3136 169.128 40.2001 170.456 35.7116 172.697C35.4335 172.838 35.1627 172.978 34.8991 173.122L34.8594 173.147C33.6667 173.78 32.572 174.581 31.6095 175.526C31.5447 175.591 31.4843 175.661 31.429 175.734C29.3418 178.293 29.1107 185.911 29.461 193.417C29.8799 202.308 31.1292 211.048 31.1292 211.048C30.8476 217.982 30.7393 226.061 30.6887 234.438C30.6887 235.449 30.6887 236.463 30.6887 237.482C30.6887 239.849 30.6827 242.226 30.6706 244.61C30.649 253.07 30.6418 261.504 30.5262 269.079C30.4648 273.264 30.3673 277.193 30.2193 280.716C30.2193 280.971 30.1976 281.23 30.1867 281.482C29.9989 285.487 29.7462 288.938 29.3995 291.626Z" fill="#80AEFF"/>
<path d="M55.0564 168.11C55.0564 168.11 70.7571 184.245 81.9801 180.941C81.9801 180.941 83.4787 178.761 78.4196 178.063C73.3606 177.365 67.908 177.649 55.0564 168.11Z" fill="#5895ED"/>
<path d="M38.0861 300.431C45.6693 298.042 41.2747 283.296 43.3221 275.901C45.3695 268.507 77.9444 255.797 77.9444 255.797L87.5605 231.951C87.5605 231.951 61.7382 248.341 55.0615 244.844C48.3847 241.346 48.2945 220.084 43.3257 219.656C38.357 219.227 30.6872 234.459 30.6872 234.459C30.6872 235.47 30.6872 236.485 30.6872 237.503C30.6872 239.871 30.6812 242.247 30.6691 244.632C30.6475 253.091 30.6403 261.526 30.5247 269.1C30.4633 273.285 30.3658 277.214 30.2177 280.737C30.2177 280.993 30.196 281.252 30.1852 281.504C30.0119 285.501 29.7592 288.952 29.4125 291.64C28.7408 296.674 33.641 299.409 38.0861 300.431Z" fill="#5895ED"/>
<path d="M84.0856 160.118C81.1018 160.33 78.1045 160.26 75.1339 159.909C67.9733 159.06 59.0145 156.174 58.3175 147.099C57.1331 131.817 53.1646 121.817 68.8147 119.723C77.1958 118.604 82.0887 119.687 85.0823 121.706C87.6822 123.451 88.8485 125.905 89.6104 128.233C91.2498 133.227 90.4518 159.121 84.0856 160.118Z" fill="#FFB27D"/>
<path d="M92.8829 120.014C95.88 121.612 96.0208 127.006 92.4351 128.312C86.0039 130.655 79.7099 127.47 76.9691 127.927C73.0403 128.582 70.8845 134.311 70.3393 136.164C69.794 138.017 69.1332 139.535 64.6375 137.186C63.9153 136.801 63.3231 136.711 62.8753 136.844C60.5859 137.506 61.6512 143.846 62.0953 145.275C62.0953 145.275 62.1423 149.632 59.1849 150.989C58.8238 151.147 53.4903 152.007 46.4849 131.392C45.4016 128.154 45.2607 121.472 49.6228 116.189C53.985 110.907 64.5797 105.693 74.9902 108.367C83.227 110.482 86.5347 116.636 92.8829 120.014Z" fill="#163560"/>
<path d="M86.5391 151.068C86.5391 151.068 86.3658 152.961 81.7472 153.321C81.7472 153.321 77.8725 153.626 77.7064 151.593C77.7064 151.593 81.2344 149.636 86.5391 151.068Z" fill="white"/>
<path d="M54.646 270.406L95.0894 223.222L94.5153 207.997L96.6819 207.785L97.8735 219.958L107.757 208.443C109.83 206.025 111.418 206.032 113.289 207.554C115.159 209.077 116.6 211.538 114.528 213.959L61.8066 275.491L61.4203 275.944C59.3548 278.006 56.437 278.557 54.6857 277.132C52.9344 275.707 52.9271 272.745 54.646 270.406Z" fill="#233862"/>
<path d="M56.5554 284.205L45.4941 267.868L135.891 207.092L146.952 223.429L56.5554 284.205Z" fill="#2B478B"/>
<path d="M56.6547 271.619C59.6988 276.128 59.3051 281.694 55.7736 284.066C52.242 286.437 46.9194 284.692 43.8573 280.179C40.7952 275.667 41.2069 270.104 44.7384 267.733C48.27 265.362 53.6106 267.11 56.6547 271.619Z" fill="#3F62A8"/>
<path d="M146.379 211.505C149.423 216.018 149.029 221.581 145.501 223.956C141.973 226.331 136.644 224.578 133.585 220.069C130.526 215.561 130.938 209.994 134.466 207.623C137.994 205.252 143.346 206.997 146.379 211.505Z" fill="#2B478B"/>
<path d="M116.664 239.45L114.061 232.351L48.7768 255.88L51.3803 262.979L116.664 239.45Z" fill="#233862"/>
<path d="M55.167 257.593C55.8892 259.554 54.405 261.889 51.8556 262.807C49.3062 263.724 46.6556 262.882 45.937 260.921C45.2184 258.96 46.7026 256.628 49.2484 255.711C51.7942 254.793 54.4484 255.635 55.167 257.593Z" fill="#233862"/>
<path d="M118.486 234.089C119.208 236.05 119.208 238.529 116.662 239.45C114.116 240.371 111.466 239.522 110.747 237.565C110.029 235.607 111.509 233.272 114.059 232.351C116.608 231.429 117.767 232.131 118.486 234.089Z" fill="#233862"/>
<path d="M133.597 228.173L136.038 225.51L151.385 229.85L150.785 231.951L133.597 228.173Z" fill="#2B478B"/>
<path d="M117.189 247.104C116.687 245.197 115.525 244.225 113.734 243.387C111.452 242.332 108.216 240.918 106.739 240.652C104.338 240.217 99.4232 237.338 99.0224 238.853C98.6215 240.368 102.489 242.091 102.511 243.732C102.532 245.373 91.6414 249.417 91.9303 251.127C92.2192 252.836 95.3247 256.664 99.5423 255.646C103.76 254.628 113.86 252.861 115.897 251.397C117.706 250.076 117.626 248.763 117.189 247.104Z" fill="#ED975D"/>
<path d="M67.9844 271.144C67.9844 271.144 81.7352 275.901 85.2595 273.882C87.7223 272.472 91.7594 268.125 92.8427 265.416C93.4566 263.872 93.6552 259.827 93.2688 258.939L84.104 264.358C82.4104 264.048 76.9542 265.894 74.8345 264.919C72.7148 263.944 67.9844 271.144 67.9844 271.144Z" fill="#ED975D"/>
<path d="M3.19105 255.959C4.93878 258.73 12.5364 263.105 22.9614 266.754C25.3447 267.585 27.8723 268.381 30.512 269.1C42.042 272.267 55.7025 274.174 68.5252 272.486C68.5252 272.486 75.6245 266.045 74.1945 263.566C74.1945 263.566 42.5764 250.72 30.6564 244.635C27.894 243.225 26.1896 242.181 26.186 241.757C26.186 240.976 28.0926 238.201 30.6889 234.477C35.831 227.101 43.6272 215.993 44.2772 209.343C44.9489 202.452 40.6229 187.666 37.8713 179.142C36.6724 175.425 35.7696 172.903 35.7046 172.726C35.424 172.851 35.1525 172.995 34.8921 173.158L34.8524 173.183C33.6344 173.94 32.4885 174.806 31.4292 175.77C28.154 178.681 23.308 184.147 18.0034 194.028C8.38722 211.89 -0.705246 249.799 3.19105 255.959Z" fill="#80AEFF"/>
<path d="M3.1909 255.959C4.93863 258.73 12.5362 263.105 22.9612 266.754C22.9612 266.754 7.66488 257.676 6.36853 252.433C5.28522 248.072 21.4663 210.858 29.4611 193.42C31.0752 189.897 32.3498 187.181 33.0937 185.713C34.379 183.309 35.9862 181.09 37.8711 179.117C43.3779 173.144 50.5566 168.48 50.5566 168.48C46.3065 169.132 40.193 170.459 35.7045 172.701C35.4238 172.826 35.1523 172.97 34.892 173.133L34.8523 173.158C33.6595 173.791 32.5649 174.592 31.6024 175.537C31.5375 175.602 31.4772 175.672 31.4218 175.745C28.1466 178.656 23.3007 184.122 17.9961 194.003C8.38716 211.89 -0.705395 249.799 3.1909 255.959Z" fill="#5895ED"/>
<path d="M225.791 107.55C283.607 148.092 320.399 119.064 350.685 212.524C364.508 255.186 436.988 270.133 492.522 239.889C547.742 209.811 619.367 247.701 620.172 248.126C618.792 245.981 617.462 243.799 616.182 241.58C608.161 235.261 601.049 227.876 595.043 219.63C539.866 144.591 574.269 16.2027 325.3 20.5638C287.362 21.2295 254.581 19.1245 225.216 16.0443C221.89 15.6965 218.608 15.3367 215.373 14.9648C194.624 48.5156 202.568 91.2638 225.791 107.55Z" fill="#80AEFF"/>
<path d="M244.952 17.8939C263.469 52.078 292.556 77.2159 318.977 81.6526C418.642 98.3884 434.245 32.4563 549.476 142.104C553.741 146.157 558.396 149.78 563.375 152.921C538.412 86.352 508.957 17.3361 325.293 20.553C298.485 21.0245 271.669 20.137 244.952 17.8939Z" fill="#66A4FF"/>
<path d="M643.235 516.5H737.483C741.003 512.761 761.676 489.721 771.191 453.601C765.851 452.933 760.473 452.606 755.09 452.622C754.628 452.622 754.165 452.622 753.714 452.622C752.096 452.658 750.541 452.734 749.049 452.849C748.052 452.921 747.081 453.014 746.135 453.122C721.309 455.929 713.823 469.491 703.766 478.642C702.911 479.422 702.033 480.175 701.127 480.876C699.854 481.88 698.506 482.785 697.093 483.582C696.183 484.093 695.245 484.553 694.284 484.96C690.672 486.441 686.804 487.207 682.898 487.216C655.198 487.724 645.586 509.587 643.235 516.5Z" fill="#4D96FF"/>
<path d="M706.885 485.853C706.885 485.853 698.034 462.158 690.079 463.928C682.124 465.698 706.885 485.853 706.885 485.853Z" fill="#4D96FF"/>
<path d="M701.59 486.655C701.59 486.655 689.067 476.914 681.281 478.832C673.496 480.75 701.59 486.655 701.59 486.655Z" fill="#4D96FF"/>
<path d="M754.389 456.551C754.389 456.551 759.719 429.496 754.389 429.078C749.059 428.661 754.389 456.551 754.389 456.551Z" fill="#4D96FF"/>
<path d="M750.328 458.322C750.328 458.322 748.295 445.26 743.218 444.817C738.141 444.375 750.328 458.322 750.328 458.322Z" fill="#4D96FF"/>
<path d="M-9.71201 110.813C-15.7608 110.813 -20.6642 105.927 -20.6642 99.8997C-20.6642 93.8722 -15.7608 88.986 -9.71201 88.986C-3.66327 88.986 1.24023 93.8722 1.24023 99.8997C1.24023 105.927 -3.66327 110.813 -9.71201 110.813Z" fill="#EBF3FA"/>
<path d="M171.696 81.1344C171.775 80.9174 171.787 80.6821 171.731 80.4581C171.676 80.2342 171.554 80.0318 171.383 79.8764C171.212 79.7211 170.999 79.6199 170.77 79.5856C170.541 79.5513 170.307 79.5855 170.097 79.6838C169.888 79.7821 169.712 79.9402 169.593 80.1379C169.474 80.3356 169.416 80.5642 169.427 80.7946C169.438 81.0251 169.518 81.247 169.655 81.4324C169.793 81.6178 169.983 81.7583 170.201 81.8361C170.493 81.9402 170.814 81.9248 171.094 81.7933C171.374 81.6617 171.591 81.4248 171.696 81.1344Z" fill="#EBF3FA"/>
<path d="M43.1579 44.1329C43.3154 43.697 43.3396 43.2243 43.2275 42.7747C43.1155 42.325 42.872 41.9186 42.5282 41.6068C42.1843 41.295 41.7553 41.0918 41.2955 41.0229C40.8357 40.954 40.3658 41.0226 39.9451 41.2198C39.5244 41.4171 39.1718 41.7343 38.932 42.1312C38.6922 42.5281 38.5759 42.987 38.5978 43.4498C38.6197 43.9126 38.7789 44.3585 39.0551 44.7312C39.3314 45.1039 39.7123 45.3865 40.1498 45.5434C40.7365 45.7529 41.3825 45.722 41.9464 45.4576C42.5102 45.1932 42.9459 44.7168 43.1579 44.1329Z" fill="#EBF3FA"/>
<path d="M193.539 192.01C193.696 191.574 193.72 191.101 193.608 190.652C193.496 190.202 193.253 189.795 192.909 189.484C192.565 189.172 192.136 188.969 191.676 188.9C191.217 188.831 190.747 188.899 190.326 189.097C189.905 189.294 189.553 189.611 189.313 190.008C189.073 190.405 188.957 190.864 188.979 191.327C189.001 191.789 189.16 192.235 189.436 192.608C189.712 192.981 190.093 193.263 190.531 193.42C190.821 193.525 191.13 193.572 191.438 193.557C191.747 193.543 192.049 193.468 192.329 193.337C192.608 193.206 192.859 193.021 193.066 192.794C193.274 192.566 193.435 192.299 193.539 192.01Z" fill="#EBF3FA"/>
<path d="M452.665 317.725C452.665 317.725 466.748 315.835 474.591 327.267C479.26 334.079 489.01 350.444 489.938 365.877C490.534 375.798 467.467 378.943 457.995 372.182C450.112 366.554 431.338 375.83 425.496 372.135C415.19 365.633 427.193 356.766 427.908 349.688C430.306 325.824 434.733 316.645 452.665 317.725Z" fill="#D35E2A"/>
<path d="M410.698 478.678C411.37 475.497 420.776 459.607 421.448 457.591C422.12 455.576 417.573 434.994 414.392 420.561C411.211 406.128 420.17 381.753 420.17 381.753C420.17 381.753 426.211 380.314 434.751 377.795C436.016 377.419 437.135 376.666 437.956 375.636C438.778 374.607 439.262 373.35 439.344 372.038C439.658 367.108 439.362 361.441 439.362 361.441L457.854 361.854C457.327 365.611 457.699 369.911 458.168 373.416C458.306 374.428 458.745 375.376 459.428 376.138C460.112 376.899 461.009 377.439 462.003 377.687C468.612 379.349 471.211 381.03 478.376 384.351C478.376 384.351 478.271 385.118 478.083 386.51C478.17 386.442 478.217 386.399 478.217 386.399C478.217 386.399 478.553 396.783 478.329 410.148C478.127 422.195 470.818 452.122 469.391 457.858C469.352 458.243 469.308 458.628 469.269 459.009C474.187 467.037 481.203 478.678 481.203 478.678C481.203 478.678 410.026 481.855 410.698 478.678Z" fill="#FFB27D"/>
<path d="M387.126 493.988C404.188 507.716 428.652 515.183 428.652 515.183C428.652 515.183 448.343 515.542 470.674 515.183C492.365 514.823 513.576 489.17 513.576 489.17C513.576 489.17 495.492 488.944 490.527 484.888C487.071 482.064 482.897 477.368 478.838 472.265C475.92 468.599 473.061 464.709 470.58 461.179C470.58 461.179 465.456 465.997 444.635 465.479C423.813 464.961 418.751 462.744 418.751 462.744C418.751 462.744 416.292 465.623 413.049 469.308C409.138 473.726 404.086 479.264 400.833 482.2C399.399 483.485 387.126 493.988 387.126 493.988Z" fill="#112A54"/>
<path d="M384.777 493.355C389.973 497.835 405.36 502.761 419.891 506.669C423.96 507.748 427.965 508.77 431.652 509.67C434.981 510.706 441.734 512.84 448.985 515.348C459.2 518.892 463.664 517.201 468.726 516.309C473.789 515.417 479.501 518.946 486.998 516.215C494.494 513.484 492.599 498.774 492.599 498.774C490.071 497.115 480.188 496.637 473.507 501.419C466.827 506.201 457.868 505.305 457.868 505.305C457.507 505.345 456.709 504.945 455.596 504.226C455.596 504.226 449.097 500.437 437.115 490.933C433.266 487.871 428.842 484.223 423.885 479.915C414.434 471.7 406.284 460.898 396.867 458.908C380.819 455.515 375.114 461.726 375.114 461.726C375.114 461.726 371.138 481.599 384.777 493.355Z" fill="#091D3A"/>
<path d="M450.352 496.201C450.352 496.201 413.863 463.683 402.463 459.632C391.063 455.58 377.688 457.217 375.275 460.495C372.863 463.773 372.314 471.2 374.553 478.3C376.792 485.399 382.1 496.547 394.45 499.71C406.8 502.873 437.32 513.114 437.32 513.114L451.938 505.402L450.352 496.201Z" fill="#183368"/>
<path d="M409.591 502.286C409.591 502.286 409.931 515.1 414.647 516.625C421.128 518.72 426.224 515.362 431.575 516.341C436.927 517.32 441.267 518.709 452.046 514.956C459.203 512.462 465.916 510.318 469.621 509.159C471.426 508.673 473.315 508.162 475.229 507.622C489.554 503.596 505.85 498.213 511.064 493.355C523.674 481.599 518.843 460.736 518.843 460.736C518.843 460.736 514.737 455.522 499.896 458.915C491.189 460.905 482.202 469.505 473.492 477.674C469.881 481.06 466.461 484.197 463.323 487.029C452.393 496.881 444.907 502.995 444.907 502.995L444.939 503.056C443.802 503.776 442.968 504.182 442.618 504.136C442.618 504.136 436.919 506.388 427.022 503.056C420.117 500.757 412.267 500.519 409.591 502.286Z" fill="#112A54"/>
<path d="M457.586 365.827C457.586 365.827 453.935 374.261 447.937 373.743C441.939 373.225 439.451 365.636 439.451 365.636L457.586 365.827Z" fill="#E8945B"/>
<path d="M444.269 457.667C444.269 458.746 444.76 459.646 445.352 459.646C445.944 459.646 446.436 458.761 446.436 457.667C446.436 456.573 445.944 455.684 445.352 455.684C444.76 455.684 444.269 456.573 444.269 457.667Z" fill="#F2A672"/>
<path d="M348.208 433.738C348.208 433.738 373.442 458.782 386.806 457.178C392.88 456.458 399.614 449.564 406.446 441.705C407.042 441.014 408.118 439.1 408.711 438.391C421.086 423.566 431.789 406.279 431.789 406.279L433.233 396.808L435.533 381.415C435.533 381.415 427.589 379.67 421.324 382.099C418.655 383.131 416.702 382.818 415.546 384.124C412.751 387.273 399.466 415.43 391.064 430.694C387.857 436.52 385.358 440.467 384.43 440.409C381.072 440.229 363.605 435.044 351.288 427.909L348.378 433.382L348.208 433.738Z" fill="#FFB27D"/>
<path d="M349.464 435.03C349.464 435.03 340.231 439.377 337.519 439.258C334.807 439.139 325.729 437.21 325.729 437.21C325.729 437.21 326.57 435.195 330.936 435.3C335.302 435.404 338.757 429.258 341.708 428.164C347.236 426.11 351.295 427.93 351.295 427.93L349.464 435.03Z" fill="#FFB27D"/>
<path d="M349.465 427.412C349.465 427.412 342.788 425.538 340.224 426.013C338.657 426.3 336.288 428.449 332.453 428.618C331.132 428.679 331.966 429.748 332.504 430.079C333.616 430.762 341.398 431.381 341.398 431.381L349.465 427.412Z" fill="#FFB27D"/>
<path d="M337.486 437.851C337.096 437.869 326.433 440.154 326.433 440.154C326.433 440.154 326.794 437.214 328.238 437.2C329.683 437.185 337.486 437.851 337.486 437.851Z" fill="#FFB27D"/>
<path d="M436.956 362.319C441.369 367.417 446.807 374.171 460.933 364.013C463.696 362.027 465.046 357.536 465.671 352.617C466.418 346.799 466.985 344.406 466.657 340.977C466.274 336.878 462.544 329.02 455.437 327.706C442.387 325.295 437.115 333.384 436.151 339.912C434.056 354.035 432.471 357.13 436.956 362.319Z" fill="#FFB27D"/>
<path d="M453.631 359.965C453.631 359.965 451.533 362.538 449.092 362.293C446.651 362.049 445.968 362.203 444.939 361.498C443.91 360.793 443.079 358.619 443.079 358.619C443.079 358.619 449.922 358.191 453.631 359.965Z" fill="white"/>
<path d="M446.945 331.722C446.945 331.722 445.927 339.541 454.142 342.272C464.025 345.558 465.387 347.058 465.177 355.618C464.914 366.503 477.455 357.806 475.252 347.058C473.049 336.31 467.579 326.26 459.465 324.748C451.351 323.237 440.832 323.989 437.542 329.174C434.252 334.36 432.718 347.076 432.718 347.076H435.018C435.018 347.076 437.213 335.108 446.945 331.722Z" fill="#D35E2A"/>
<path d="M444.94 503.038C444.94 503.038 441.69 498.184 449.013 492.466C456.337 486.749 488.294 461.481 496.188 459.077C504.081 456.674 515.373 456.368 519.1 459.635C522.826 462.902 523.263 483.884 516.363 491.524C509.462 499.163 466.617 513.599 461.663 514.794C458.949 515.38 456.129 515.264 453.473 514.456L444.94 503.038Z" fill="#2B478B"/>
<path d="M468.894 412.49C468.894 412.49 472.162 417.402 476.694 423.915C480.579 429.488 485.389 436.246 489.867 442.097C490.589 443.025 491.311 443.896 492.034 444.717C501.249 455.08 511.436 456.624 511.436 447.728C511.433 447.436 511.412 447.144 511.371 446.854C511.067 444.695 509.774 441.287 507.879 437.196C506.727 434.71 505.351 431.975 503.856 429.107C498.241 418.438 490.773 405.984 485.978 398.161C483.114 393.484 481.197 390.475 481.197 390.475L478.38 395.513L468.894 412.49Z" fill="#FFB27D"/>
<path d="M389.55 431.849C389.687 432.104 389.835 432.364 389.998 432.637C391.51 435.2 393.508 437.446 395.88 439.251C397.246 440.292 398.728 441.172 400.296 441.874C401.787 442.546 403.342 443.069 404.936 443.436C405.081 443.475 405.232 443.508 405.384 443.544C406.309 442.483 407.226 441.395 408.136 440.28C410.909 436.887 413.581 433.299 416.055 429.798L416.098 430.007C416.77 433.173 418.431 444.04 417.044 450.244C414.256 462.683 418.752 462.744 418.752 462.744H418.785C419.055 462.816 420.832 463.298 423.696 463.874C431.937 465.545 440.337 466.309 448.745 466.152C454.64 466.044 460.503 465.272 466.223 463.849C467.465 463.529 468.7 463.172 469.924 462.769C470.375 462.622 470.827 462.467 471.274 462.305L471.361 462.276C471.361 462.276 473.835 462.478 474.893 458.441C475.326 456.807 475.525 454.482 475.232 451.147C475.048 449.031 475.333 443.497 475.712 438.013C476.182 431.201 476.796 424.472 476.796 424.472L477.222 425.106C480.638 430.187 484.613 435.724 488.802 440.794C489.163 441.23 489.524 441.662 489.886 442.086C493.164 441.157 496.18 439.48 498.696 437.189C501.074 434.974 502.847 432.193 503.849 429.107C504.074 428.429 504.241 427.733 504.348 427.027C496.042 411.31 485.52 387.546 482.469 385.287C475.969 380.483 465.367 378.648 465.367 378.648C465.367 378.648 467.714 393.109 448.525 392.944C441.758 392.886 437.331 391.145 434.409 388.917C431.85 386.982 430.017 384.246 429.206 381.149C429.173 381.037 429.148 380.929 429.127 380.828C428.994 380.377 428.946 379.905 428.986 379.436L428.845 379.472C427.354 379.832 424.483 380.386 423.067 380.652C422.451 380.766 421.847 380.936 421.262 381.159C419.586 381.803 417.967 382.583 416.419 383.491L416.365 383.523C416.214 383.613 416.069 383.703 415.928 383.793C415.234 384.207 414.597 384.709 414.032 385.287C411.238 388.428 397.953 416.592 389.55 431.849Z" fill="#FFA15A"/>
<path d="M482.469 385.279C482.469 385.279 484.007 391.472 485.971 398.158C487.643 403.832 489.622 409.863 491.233 412.774C494.742 419.107 500.74 434.951 500.74 434.951C502.112 433.196 503.164 431.216 503.849 429.1C504.074 428.422 504.241 427.726 504.348 427.02C496.039 411.299 485.52 387.532 482.469 385.279Z" fill="#F2863D"/>
<path d="M448.745 466.163C454.64 466.055 460.503 465.283 466.222 463.86C467.465 463.539 468.7 463.183 469.924 462.78C470.375 462.633 470.827 462.478 471.274 462.316L471.361 462.287C471.361 462.287 473.835 462.489 474.893 458.451C475.326 456.818 475.524 454.493 475.232 451.158C475.048 449.042 475.333 443.507 475.712 438.024C476.182 431.212 476.796 424.483 476.796 424.483C476.796 424.483 478.197 414.739 477.539 413.537C476.882 412.335 473.701 423.587 471.401 426.973C469.1 430.359 471.144 442.777 467.638 449.769C464.132 456.76 463.641 464.05 448.745 466.163Z" fill="#F2863D"/>
<path d="M509.469 454.511C502.5 457.912 478.57 469.369 464.693 473.071L463.248 468.753C463.248 468.753 489.97 444.45 495.657 442.701C501.345 440.953 509.188 439.718 510.376 443.284C511.82 447.602 511.737 449.229 511.82 451.258C511.838 452.6 510.675 453.921 509.469 454.511Z" fill="#FFB27D"/>
<path d="M395.881 439.251C397.247 440.292 398.729 441.172 400.297 441.874C401.789 442.546 403.343 443.069 404.938 443.436C405.082 443.475 405.234 443.508 405.385 443.544C406.31 442.483 407.227 441.395 408.137 440.28C410.91 436.887 413.582 433.299 416.056 429.798L416.099 430.007C416.099 430.007 417.132 424.249 416.691 422.418C416.251 420.586 409.13 429.704 406.169 434.839C403.208 439.974 395.881 439.251 395.881 439.251Z" fill="#F2863D"/>
<path d="M465.053 467.228C465.053 467.228 454.859 468.904 453.808 472.395C452.757 475.885 452.407 477.393 452.494 478.512C452.58 479.631 454.375 482.931 455.296 482.11C455.884 481.581 455.953 480.642 456.675 479.466C456.91 479.106 458.34 477.307 460.348 476.724C462.355 476.141 464.117 475.371 465.042 474.565C465.727 473.932 466.311 473.198 466.771 472.388L465.053 467.228Z" fill="#FFB27D"/>
<path d="M464.332 467.444C463.601 467.283 462.853 467.213 462.104 467.235C460.017 467.35 457.587 467.829 455.633 467.832C453.394 467.832 457.8 470.589 460.779 469.336C463.758 468.084 464.332 467.444 464.332 467.444Z" fill="#FFB27D"/>
<path d="M629.902 308.783C629.902 308.783 635.359 300.917 650.33 303.54C665.301 306.163 665.749 329.2 677.59 336.684C689.43 344.169 696.006 350.296 696.883 362.311C697.761 374.326 679.774 392.699 663.774 386.568C647.773 380.436 644.704 366.457 646.347 358.501C647.99 350.545 657.581 307.117 633.582 311.395L629.902 308.783Z" fill="#183368"/>
<path d="M604.98 320.16C604.98 320.16 608.417 311.841 620.168 307.253C631.918 302.665 638.555 308.819 641.707 311.841C645.51 315.483 649.189 345.194 633.59 346.353C617.99 347.511 604.98 320.16 604.98 320.16Z" fill="#183368"/>
<path d="M601.662 374.758C601.662 374.758 567.022 403.904 567.459 405.491C567.896 407.078 571.25 413.44 578.714 410.151C586.178 406.862 607.559 392.365 607.035 391.656C606.512 390.947 601.662 374.758 601.662 374.758Z" fill="#ED985F"/>
<path d="M606.901 388.734C610.483 391.213 614.978 393.257 620.622 394.552C641.765 399.421 649.872 381.598 652.912 369.389C650.703 368.17 648.263 367.423 645.748 367.194C644.22 367.018 642.613 366.896 641.281 366.834C638.909 365.035 635.37 357.605 634.586 346.09L633.593 346.356L616.928 350.901C616.928 350.901 617.69 356.18 618.066 361.171C618.355 365.075 618.402 368.803 617.658 369.717C616.358 369.997 615.578 370.181 615.578 370.181C612.096 376.074 609.19 382.287 606.901 388.734Z" fill="#FFB27D"/>
<path d="M616.927 350.901C616.927 350.901 617.692 356.176 618.064 361.167C627.504 360.228 631.887 351.268 633.592 346.356L616.927 350.901Z" fill="#ED985F"/>
<path d="M614.105 355.867C614.105 355.867 636.515 354.636 635.529 340.754C634.543 326.871 636.775 317.343 622.425 317.544C608.074 317.746 605.673 323.241 604.871 327.958C604.07 332.675 608.251 355.82 614.105 355.867Z" fill="#FFB27D"/>
<path d="M604.056 318.199C607.375 313.55 610.195 314.317 611.827 315.526C624.17 307.566 633.201 317.386 633.201 317.386C635.53 327.746 643.539 333.219 643.539 333.219C643.539 333.219 639.365 336.544 629.38 334.338C616.604 331.517 612.217 320.477 611.621 318.782C610.278 320.168 608.545 321.053 607.212 324.061C605.634 327.634 604.641 329.71 604.612 335.576C604.612 335.561 599.08 325.173 604.056 318.199Z" fill="#183368"/>
<path d="M604.404 395.373C603.198 406.135 605.726 403.163 616.927 428.013C626.391 449.02 615.649 467.933 615.649 467.933C615.649 467.933 645.797 492.801 663.246 499.343C665.773 500.293 668.052 500.854 669.922 500.897C671.666 500.944 673.06 500.537 673.999 499.562C674.433 499.103 674.822 498.604 675.162 498.073C684.962 482.988 688.162 411.871 668.893 377.237C666.243 372.466 660.093 368.871 657.157 367.594C655.375 366.834 653.528 366.232 651.64 365.794C648.625 365.084 645.546 364.684 642.45 364.6C641.446 364.571 640.447 364.571 639.453 364.6C636.278 366.644 624.182 374.362 619.213 373.398L618.938 373.333C616.595 372.746 615.714 371.109 617.667 369.699C613.311 369.149 608.886 369.812 604.884 371.613C597.763 374.902 590.487 383.156 590.487 383.156C590.487 383.156 597.305 392.386 604.404 395.373Z" fill="#F9DDBF"/>
<path d="M663.246 499.343C664.423 501.93 665.12 503.452 665.12 503.452C665.12 503.452 666.925 502.502 669.922 500.897C671.403 500.109 673.172 499.152 675.162 498.073C684.962 482.988 688.162 411.871 668.893 377.237C666.243 372.466 660.093 368.871 657.157 367.594C655.375 366.834 653.528 366.232 651.64 365.795C648.625 365.084 645.546 364.684 642.45 364.6C642.757 364.715 652.716 368.425 655.449 373.157C658.226 377.96 658.41 399.007 659.06 404.822C659.71 410.637 656.894 412.868 654.565 420.755C652.236 428.643 640.843 429.222 638.781 435.483C637.051 440.787 656.959 485.453 663.246 499.343Z" fill="#EFC59E"/>
<path d="M600.501 395.376C600.501 395.376 604.884 388.619 605.917 386.859C606.95 385.1 606.791 385.816 606.925 388.734C607.058 391.652 608.95 395.297 607.065 398.647C605.18 401.997 600.501 395.376 600.501 395.376Z" fill="#EFC59E"/>
<path d="M612.892 516.474C611.394 516.307 609.951 515.816 608.664 515.036C607.377 514.255 606.276 513.204 605.439 511.955C605.168 511.556 604.883 511.124 604.576 510.663C598.235 501.095 595.765 471.801 581.501 440.579C578.024 432.979 565.551 431.612 562.15 423.022C562.15 423.022 553.779 395.178 578.172 394.354C602.564 393.53 643.506 471.834 644.152 480.045C644.777 487.997 660.279 521.804 612.892 516.474Z" fill="#112A54"/>
<path d="M515.93 515.838H550.65C550.65 515.838 551.95 510.318 549.672 506.561C547.653 503.24 548.426 501.347 549.921 498.598C548.076 499.387 546.077 499.756 544.071 499.677C542.341 499.58 540.514 498.796 538.907 497.878C537.416 499.577 531.017 506.802 529.017 508.234C526.749 509.875 516.631 509.289 515.93 515.838Z" fill="#112A54"/>
<path d="M548.482 503.452C550.674 502.88 554.328 499.397 556.011 497.885C567.7 487.385 591.435 457.652 591.435 433.81C591.435 422.187 591.641 399.986 583.162 394.347C580.245 392.411 574.059 393.21 569.007 395.369C565.002 397.086 561.72 399.662 561.352 402.404C559.712 414.689 554.31 447.789 545.077 473.071C542.567 479.94 539.772 486.23 536.696 491.372C532.052 499.127 548.395 503.473 548.482 503.452Z" fill="#112A54"/>
<path d="M633.591 515.838C633.591 515.838 632.305 514.038 630.063 510.663C627.391 506.633 624.437 498.702 620.851 488.533C617.085 477.861 612.618 464.73 607.036 451.071C605.313 446.854 603.482 442.586 601.536 438.322C598.062 430.723 588.5 431.773 585.099 423.184C585.099 423.184 571.832 393.401 596.224 392.598C620.617 391.796 669.022 465.285 671.694 473.089C674.601 481.603 686.781 524.013 633.591 515.838Z" fill="#183368"/>
<path d="M541.419 515.838H576.143C576.143 515.838 577.439 510.318 575.16 506.561C573.142 503.24 573.915 501.347 575.409 498.598C573.566 499.387 571.568 499.756 569.563 499.677C567.834 499.58 566.003 498.796 564.4 497.878C562.905 499.577 556.506 506.802 554.505 508.234C552.238 509.875 542.12 509.289 541.419 515.838Z" fill="#183368"/>
<path d="M566.265 500.3C568.691 501.671 571.282 502.73 573.975 503.452C576.167 502.88 579.814 499.397 581.496 497.885C593.193 487.385 616.928 457.652 616.928 433.81C616.928 422.187 603.238 400.925 594.756 395.283C593.497 394.435 592.028 393.95 590.51 393.879C588.367 393.789 586.267 394.499 584.624 395.872C582.98 397.245 581.911 399.181 581.626 401.299C579.532 416.916 576.571 467.321 562.188 491.372C559.87 495.241 562.781 498.263 566.265 500.3Z" fill="#2B478B"/>
<path d="M609.915 347.864C609.915 347.864 612.034 347.029 617.996 347.504C617.996 347.504 617.678 349.822 613.284 350.052C610.792 350.189 609.915 347.864 609.915 347.864Z" fill="white"/>
<path d="M566.265 500.3C568.691 501.671 571.282 502.73 573.975 503.452C576.167 502.88 579.814 499.397 581.496 497.885C593.192 487.386 616.928 457.653 616.928 433.81C616.928 422.187 603.238 400.925 594.756 395.283C593.497 394.435 592.028 393.95 590.51 393.879C590.871 394.099 595.204 396.758 594.641 406.801C594.056 417.287 579.868 486.414 572.133 492.15C568.926 494.528 567.023 497.486 566.265 500.3Z" fill="#183368"/>
<path d="M587.25 435.494C587.25 435.494 580.411 435.329 578.028 432.792C575.644 430.255 576.175 420.917 578.028 419.035C579.88 417.153 582.512 424.861 584.56 426.027C586.607 427.193 582.032 420.629 583.682 420.748C585.333 420.867 587.85 423.695 588.286 425.224C588.723 426.754 589.139 428.535 589.139 428.535L587.25 435.494Z" fill="#FFB27D"/>
<path d="M648.998 373.103C648.998 373.103 630.408 416.049 623.999 419.766C619.857 422.166 589.141 428.535 589.141 428.535L587.253 435.494C587.253 435.494 623.601 440.327 632.456 434.44C649.936 422.813 661.813 390.864 663.785 386.582C665.756 382.3 660.145 368.921 648.998 373.103Z" fill="#FFB27D"/>
<path d="M635.556 395.373C638.566 397.853 641.944 399.854 645.569 401.303C646.767 401.782 647.995 402.182 649.245 402.501C650.284 402.773 651.34 402.977 652.405 403.113C654.779 403.43 657.19 403.347 659.537 402.868C659.537 402.868 673.529 376.651 657.2 370.584C656.86 370.513 656.515 370.469 656.168 370.451C655.456 370.399 654.742 370.414 654.033 370.494C653.781 370.523 653.514 370.555 653.232 370.605C648.129 371.447 639.463 375.877 635.556 395.373Z" fill="#F9DDBF"/>
<path d="M646.553 401.673C652.908 404.307 657.097 403.379 659.552 402.868C659.552 402.868 673.545 376.651 657.216 370.584C656.876 370.513 656.53 370.469 656.183 370.451C655.472 370.399 654.758 370.414 654.049 370.494C653.796 370.523 649.875 367.975 649.593 368.015C650.51 368.821 654.742 372.192 655.808 375.269C660.802 389.759 645.545 401.256 646.553 401.673Z" fill="#EFC59E"/>
<path d="M545.079 473.071C556.825 464.774 577.61 405.563 576.437 399.59C575.263 393.617 569.012 395.373 569.012 395.373C565.008 397.089 561.725 399.665 561.357 402.407C559.696 414.688 554.312 447.789 545.079 473.071Z" fill="#183368"/>
<path d="M558.743 418.909C558.743 418.909 554.348 420.611 553.63 424.044C552.911 427.477 553.991 429.769 556.186 431.486C558.382 433.202 561.964 435.778 563.108 433.062C564.253 430.345 563.506 425.62 561.664 423.616C560.442 422.215 559.455 420.625 558.743 418.909Z" fill="#FFB27D"/>
<path d="M-145.589 184.054C-133.907 191.83 -119.694 198.354 -106.835 198.058C-78.5175 197.404 -81.8865 173.154 -53.5183 178.027C-25.1502 182.899 6.90125 166.602 -9.71666 150.319C-26.3346 134.037 -28.8768 143.922 -57.3244 124.584C-80.0269 109.155 -114.216 122.886 -120.019 123.113C-124.518 140.489 -129.686 159.121 -142.649 179.581C-143.588 181.071 -144.567 182.553 -145.589 184.054Z" fill="#8BB6F5"/>
<path d="M288.537 505.197C288.537 505.197 350.181 445.379 282.46 380.08C214.739 314.781 233.798 284.163 233.798 284.163C233.798 284.163 191.765 301.014 187.894 336.976C184.023 372.937 191.188 385.69 181.46 392.321C171.732 398.953 165.571 375.186 168.662 363.859C168.662 363.859 149.719 377.957 141.016 408.352C132.314 438.747 144.089 447.181 141.016 459.29C137.943 471.398 121.564 453.432 121.564 453.432C121.564 453.432 109.286 488.447 127.193 499.818C145.1 511.189 282.983 517.579 288.537 505.197Z" fill="#F47D42"/>
<path d="M243.918 492.905C245.453 492.315 273.687 481.751 269.556 448.513C265.425 415.275 243.268 418.391 231.309 403.062C219.349 387.733 211.271 379.572 206.093 391.814C200.915 404.056 204.053 428.934 187.897 425.422C171.741 421.91 164.57 404.822 155.354 417.704C146.139 430.586 166.057 450.125 161.493 469.88C156.929 489.635 168.148 513.718 192.725 511.951C217.301 510.185 243.918 492.905 243.918 492.905Z" fill="#FFA15A"/>
<path d="M268.729 255.607C268.729 255.607 251.085 278.251 258.762 297.027C266.439 315.803 245.99 321.078 238.797 311.129C231.604 301.179 245.419 276.52 268.729 255.607Z" fill="#F47D42"/>
<path d="M168.038 270.871C168.306 270.565 168.441 270.167 168.415 269.762C168.388 269.358 168.202 268.98 167.897 268.712L160.191 261.99C159.884 261.723 159.484 261.589 159.078 261.616C158.672 261.643 158.293 261.829 158.024 262.134C157.757 262.44 157.622 262.838 157.649 263.243C157.676 263.648 157.863 264.025 158.169 264.293L165.871 271.015C166.178 271.281 166.578 271.416 166.984 271.389C167.39 271.362 167.769 271.175 168.038 270.871Z" fill="#F47D42"/>
<path d="M162.656 126.535C162.924 126.229 163.059 125.83 163.032 125.425C163.005 125.021 162.818 124.643 162.512 124.376L154.806 117.657C154.499 117.391 154.099 117.256 153.693 117.283C153.287 117.31 152.908 117.497 152.64 117.801C152.372 118.107 152.237 118.506 152.264 118.911C152.291 119.315 152.478 119.693 152.784 119.96L160.49 126.682C160.797 126.948 161.198 127.082 161.604 127.054C162.01 127.027 162.388 126.84 162.656 126.535Z" fill="#FFC9A4"/>
<path d="M250.796 88.673C250.977 88.8296 251.212 88.9089 251.451 88.8934C251.69 88.8779 251.913 88.7689 252.071 88.5902L259.654 79.9542C259.811 79.7751 259.891 79.5412 259.875 79.3038C259.859 79.0665 259.75 78.8449 259.571 78.6876C259.391 78.5311 259.157 78.452 258.918 78.4675C258.68 78.483 258.458 78.5919 258.3 78.7704L250.717 87.4063C250.559 87.5851 250.479 87.8186 250.494 88.056C250.509 88.2934 250.618 88.5152 250.796 88.673Z" fill="#F47D42"/>
<path d="M241.875 217.266C242.242 217.439 242.663 217.461 243.046 217.326C243.429 217.191 243.743 216.911 243.919 216.547L248.278 207.317C248.452 206.951 248.473 206.532 248.338 206.15C248.203 205.769 247.921 205.456 247.556 205.28C247.189 205.107 246.768 205.086 246.385 205.22C246.002 205.355 245.688 205.635 245.512 206L241.15 215.23C240.977 215.596 240.957 216.015 241.092 216.397C241.228 216.778 241.51 217.09 241.875 217.266Z" fill="#F47D42"/>
<path d="M271.265 332.053C271.632 332.226 272.053 332.248 272.436 332.113C272.818 331.978 273.132 331.698 273.309 331.333L277.674 322.089C277.848 321.723 277.87 321.304 277.734 320.923C277.599 320.541 277.318 320.228 276.952 320.053C276.585 319.879 276.164 319.858 275.781 319.993C275.399 320.128 275.085 320.408 274.908 320.772L270.546 330.002C270.369 330.369 270.345 330.791 270.479 331.176C270.614 331.56 270.897 331.876 271.265 332.053Z" fill="#F47D42"/>
<path d="M206.09 489.976C206.09 489.976 238.304 486.705 236.892 469.869C235.481 453.032 223.694 425.768 217.299 430.219C210.904 434.67 205.783 448.211 190.426 459.293C175.068 470.376 190.801 493.485 206.09 489.976Z" fill="#FFC9A4"/>
<path d="M296.494 515.895C296.494 515.895 275.738 486.947 269.556 484.273C263.374 481.6 233.002 488.534 225.502 494.762C218.002 500.991 217.312 515.956 217.312 515.956L296.494 515.895Z" fill="#C94D47"/>
<path d="M187.898 516.435C187.898 516.435 183.002 498.598 167.644 492.905C152.287 487.213 136.412 485.597 130.27 489.976C124.128 494.356 118.177 515.884 118.177 515.884L187.898 516.435Z" fill="#C94D47"/>
<path d="M233.797 515.956C233.797 515.956 219.858 504.305 208.596 503.539C197.333 502.772 181.459 507.558 180.43 509.63C179.4 511.703 178.379 516.532 178.379 516.532L233.797 515.956Z" fill="#B5453C"/>
<path d="M323.369 515.895C323.369 515.895 317.895 503.028 311.752 500.732C305.61 498.436 293.336 495.377 289.483 497.162C285.63 498.947 276.003 515.895 276.003 515.895H323.369Z" fill="#B5453C"/>
<path d="M436.643 77.1511C436.643 77.1511 454.048 82.4479 454.113 99.925C454.178 117.402 463.386 129.201 485.749 127.013C508.112 124.825 506.798 131.382 519.075 138.373C531.352 145.365 563.375 152.921 563.375 152.921L519.952 92.937C519.952 92.937 472.157 77.1044 469.525 77.1547C466.892 77.2051 436.643 77.1511 436.643 77.1511Z" fill="#66A4FF"/>
</svg>
