<svg width="32" height="28" viewBox="0 0 32 28" fill="none" xmlns="http://www.w3.org/2000/svg">
<path d="M9.8 0.791998C6.776 0.791998 4.436 2.052 2.78 4.608C1.268 6.948 0.512 10.116 0.512 14.148C0.512 18.144 1.268 21.312 2.78 23.688C4.436 26.208 6.776 27.504 9.8 27.504C12.824 27.504 15.164 26.208 16.82 23.688C18.332 21.312 19.088 18.108 19.088 14.148C19.088 10.152 18.332 6.984 16.82 4.608C15.164 2.052 12.824 0.791998 9.8 0.791998ZM9.8 4.104C11.888 4.104 13.4 5.256 14.264 7.596C14.876 9.18 15.2 11.376 15.2 14.148C15.2 16.884 14.876 19.08 14.264 20.7C13.4 23.004 11.888 24.192 9.8 24.192C7.676 24.192 6.2 23.004 5.336 20.7C4.688 19.08 4.4 16.884 4.4 14.148C4.4 11.376 4.688 9.18 5.336 7.596C6.2 5.256 7.676 4.104 9.8 4.104ZM28.9379 1.296C28.0739 2.232 26.9939 3.06 25.6979 3.852C24.4019 4.572 23.2139 5.076 22.0619 5.364V9.252C24.4379 8.568 26.4179 7.488 27.9659 6.012V27H31.8899V1.296H28.9379Z" fill="#C4C4C4"/>
</svg>
