<svg width="41" height="28" viewBox="0 0 41 28" fill="none" xmlns="http://www.w3.org/2000/svg">
<path d="M9.8 0.791998C6.776 0.791998 4.436 2.052 2.78 4.608C1.268 6.948 0.512 10.116 0.512 14.148C0.512 18.144 1.268 21.312 2.78 23.688C4.436 26.208 6.776 27.504 9.8 27.504C12.824 27.504 15.164 26.208 16.82 23.688C18.332 21.312 19.088 18.108 19.088 14.148C19.088 10.152 18.332 6.984 16.82 4.608C15.164 2.052 12.824 0.791998 9.8 0.791998ZM9.8 4.104C11.888 4.104 13.4 5.256 14.264 7.596C14.876 9.18 15.2 11.376 15.2 14.148C15.2 16.884 14.876 19.08 14.264 20.7C13.4 23.004 11.888 24.192 9.8 24.192C7.676 24.192 6.2 23.004 5.336 20.7C4.688 19.08 4.4 16.884 4.4 14.148C4.4 11.376 4.688 9.18 5.336 7.596C6.2 5.256 7.676 4.104 9.8 4.104ZM31.6379 0.791998C29.1179 0.791998 27.0659 1.476 25.4819 2.916C23.7899 4.356 22.8539 6.336 22.6379 8.892H26.4899C26.6339 7.308 27.1739 6.12 28.0379 5.328C28.9019 4.536 30.1259 4.14 31.6739 4.14C33.1859 4.14 34.3739 4.464 35.1659 5.184C35.8859 5.868 36.2819 6.84 36.2819 8.136C36.2819 9.432 35.8499 10.44 35.0579 11.124C34.2659 11.808 33.0779 12.168 31.4939 12.168H29.6579V15.12H31.5299C33.2219 15.12 34.5179 15.48 35.3819 16.2C36.3179 16.92 36.7859 18.036 36.7859 19.548C36.7859 20.844 36.3179 21.888 35.4539 22.752C34.4459 23.688 33.1139 24.192 31.4579 24.192C29.9459 24.192 28.7219 23.76 27.7859 22.896C26.7059 21.96 26.1659 20.628 26.0939 18.9H22.1339C22.3499 21.78 23.3579 23.976 25.1579 25.488C26.7419 26.82 28.8659 27.504 31.4939 27.504C34.2299 27.504 36.4979 26.712 38.2259 25.2C39.8459 23.688 40.6739 21.744 40.6739 19.368C40.6739 17.856 40.2419 16.596 39.3779 15.624C38.5859 14.688 37.4339 13.968 35.9219 13.5C38.7299 12.564 40.1699 10.656 40.1699 7.848C40.1699 5.652 39.3779 3.924 37.8659 2.664C36.2819 1.404 34.2299 0.791998 31.6379 0.791998Z" fill="#C4C4C4"/>
</svg>
