<svg xmlns="http://www.w3.org/2000/svg" viewBox="0 0 423.23 246.01"><defs><style>.cls-1{fill:#9179aa;}.cls-2{fill:#ffdf81;}.cls-3{fill:#9fd3f1;}.cls-4{fill:#f38762;}.cls-5{fill:#231f20;}</style></defs><g id="Layer_2" data-name="Layer 2"><g id="Layer_1-2" data-name="Layer 1"><path class="cls-1" d="M155.74,149.06,12.53,235.79a4.21,4.21,0,0,1-5.66-1.23h0a39.5,39.5,0,0,1,12.05-56l85.58-52.35a4.23,4.23,0,0,1,3.11-.52l46,10.24A7.15,7.15,0,0,1,155.74,149.06Z"/><path class="cls-2" d="M106,125.37l25.34,37.27a.52.52,0,0,0,.68.15l37.86-22.3a.51.51,0,0,0-.15-.94Z"/><path class="cls-2" d="M130.61,161.63l38.24-22,38.81,63.24a27.29,27.29,0,0,1-9,38.06l-7.59,4.55a3.81,3.81,0,0,1-5.13-1.15Z"/><path class="cls-3" d="M122.21,109.14,252.58,29.27a4.2,4.2,0,0,1,5.67,1.18h0a39.48,39.48,0,0,1-11.68,56l-73,45.12a4.24,4.24,0,0,1-3.11.54l-46-9.94A7.15,7.15,0,0,1,122.21,109.14Z"/><path class="cls-4" d="M172.16,132.5,146.57,95.4a.52.52,0,0,0-.68-.15L108.18,117.8a.52.52,0,0,0,.16.94Z"/><path class="cls-4" d="M147.82,97.22,109,118.39,64.25,42.91A27.29,27.29,0,0,1,73,4.79L79.72.69a4.73,4.73,0,0,1,6.42,1.46Z"/><path class="cls-5" d="M289.91,131.86v-3.94h45.84v-5.63h6.19v5.63h13.78v3.94H341.94v12.65q.27,9-8.72,8.72h-8.44v-3.94h6.75q4.5.28,4.22-4.22V131.86Zm8.43-24.19V104H342.5V96.42H296.38V92.48h52.31v18q.56,9.28-9.56,9h-43.6v-3.66h41.91q5.34.29,5.06-4.78v-3.37Zm11.25,39.94a45.21,45.21,0,0,0-7-11.82h5.07a43.35,43.35,0,0,1,7.87,11.82Z"/><path class="cls-5" d="M366.41,153.23V97.54h19.68a2.22,2.22,0,0,1,.29-.84,54.73,54.73,0,0,0,2-7.31h6.47a29.53,29.53,0,0,1-2.53,8.15h30.94v46.69q.27,9-9.84,8.72H408V149h4.22q5.34.28,5.06-4.78V101.76h-45v51.47Zm14.9-14.62V112.45h27v17.72q.29,8.72-8.72,8.44Zm5.63-3.94h11.25q4.5,0,4.5-4.78V116.11H386.94Z"/><path class="cls-5" d="M290.62,184.6l7.14-9-6.4-8.61h2.3l5.33,7.54L304.4,167h2.3l-6.48,8.61,7.13,9H305l-6-7.87-6.07,7.87Z"/><path class="cls-5" d="M308.91,177.3V167h1.89v10.66q0,6.08,5.33,6.07,5.5.24,5.33-6.07V167h1.89v10.25q.24,8-7.3,7.79Q308.84,185.1,308.91,177.3Z"/><path class="cls-5" d="M326.22,184.69V167H328l10.66,15.09V167h1.81v17.72h-1.81l-10.66-15v15Z"/><path class="cls-5" d="M348.86,184.6l7.14-9L349.6,167h2.3l5.33,7.54,5.41-7.54h2.3l-6.48,8.61,7.14,9h-2.38l-6-7.87-6.07,7.87Z"/><path class="cls-5" d="M367,184.6V167h1.81V184.6Z"/><path class="cls-5" d="M370.35,184.6,377.74,167h2.05l7.46,17.63h-2L383,179.19h-8.45l-2.22,5.41Zm8.45-15.83L375.11,178h7.39Z"/><path class="cls-5" d="M388.81,184.69V167h1.81l10.66,15.09V167h1.81v17.72h-1.81l-10.66-15v15Z"/><path class="cls-5" d="M421.87,172.05h-2.05q-1.4-4.1-6-4.1c-4.05.28-6.21,3-6.48,8q.4,7.22,6.89,7.71,4.18,0,5.83-2.46v-4.59H414v-1.32h7.87v6.48q-2.3,3.12-7.55,3.12-8.44-.41-8.86-9,.33-8.78,8.45-9.19Q420,166.65,421.87,172.05Z"/></g></g></svg>