<svg width="40" height="49" viewBox="0 0 40 49" fill="none" xmlns="http://www.w3.org/2000/svg">
<circle cx="20" cy="24" r="20" fill="#FF7777"/>
<path d="M14.0312 29.2188V27.0625C15.5938 29.75 17.7812 31.0625 20.5938 31C23.7188 31 25.25 29.625 25.1875 26.875C25.25 24.25 23.4375 22.9688 19.75 23.0312H18.5312V21.25H19.4688C22.7812 21.25 24.4375 19.9688 24.4375 17.4062C24.4375 15.0938 23.1875 13.9375 20.6875 13.9375C18.4375 13.875 17.0625 15.125 16.5625 17.6875H14.125C14.75 14.0625 16.9375 12.25 20.6875 12.25C24.875 12.375 27.0625 14.0938 27.25 17.4062C27.25 19.5938 26.125 21.125 23.875 22C26.5 22.75 27.8438 24.375 27.9062 26.875C27.9062 30.75 25.5 32.6875 20.6875 32.6875C17.75 32.6875 15.5312 31.5312 14.0312 29.2188Z" fill="white"/>
</svg>
