<svg width="213" height="167" viewBox="0 0 213 167" fill="none" xmlns="http://www.w3.org/2000/svg">
<path fill-rule="evenodd" clip-rule="evenodd" d="M36 35C16.1178 35 0 51.1178 0 71V125.067C0 137.713 6.52044 148.836 16.3827 155.258L10.2233 166.417L23.7725 158.938C27.5899 160.316 31.7072 161.067 36 161.067H96C115.882 161.067 132 144.95 132 125.067V71C132 51.1178 115.882 35 96 35H36Z" fill="#4368FB"/>
<path fill-rule="evenodd" clip-rule="evenodd" d="M83.8342 0C103.437 0 119.328 15.8912 119.328 35.494C119.328 46.192 114.595 55.7847 107.109 62.2922L113.571 74L100.551 66.8128C95.5694 69.4772 89.8782 70.9879 83.8342 70.9879H80.4936C60.8908 70.9879 44.9996 55.0967 44.9996 35.494C44.9996 15.8912 60.8908 0 80.4936 0H83.8342Z" fill="white"/>
<path fill-rule="evenodd" clip-rule="evenodd" d="M148 54C128.118 54 112 70.1177 112 90V104.91C112 116.26 117.253 126.384 125.46 132.982L119.049 144.598L132.269 137.3C137.021 139.613 142.359 140.91 148 140.91H167C186.882 140.91 203 124.792 203 104.91V90C203 70.1178 186.882 54 167 54H148Z" fill="white"/>
<path fill-rule="evenodd" clip-rule="evenodd" d="M188.169 27C201.883 27 213 38.1174 213 51.8315C213 59.3158 209.689 66.0268 204.451 70.5794L208.973 78.7702L199.863 73.742C196.378 75.606 192.397 76.6629 188.169 76.6629H185.831C172.117 76.6629 161 65.5455 161 51.8315C161 38.1174 172.117 27 185.831 27H188.169Z" fill="#4368FB"/>
</svg>
