<svg width="917" height="920" viewBox="0 0 917 920" fill="none" xmlns="http://www.w3.org/2000/svg">
<path d="M766.153 725.834L766.145 725.838L766.136 725.844L60.5089 1149.43C56.5133 1151.82 51.7389 1152.61 47.1702 1151.63C42.6018 1150.65 38.5939 1147.97 35.9676 1144.15L35.9662 1144.14C21.2685 1122.81 11.1038 1098.74 6.08969 1073.4C1.07557 1048.05 1.31662 1021.96 6.79818 996.708C12.2798 971.457 22.8875 947.575 37.9769 926.514C53.0664 905.453 72.3224 887.655 94.574 874.202L94.5768 874.2L516.245 618.529C516.246 618.529 516.246 618.529 516.246 618.529C520.283 616.088 525.118 615.286 529.741 616.292C529.742 616.292 529.743 616.292 529.744 616.293L756.389 666.302L756.399 666.304C762.819 667.695 768.665 670.966 773.18 675.69C777.694 680.414 780.668 686.372 781.718 692.789C782.768 699.205 781.847 705.787 779.072 711.679C776.298 717.572 771.798 722.505 766.153 725.834Z" stroke="url(#paint0_linear_1718_900)" stroke-width="5"/>
<mask id="path-2-inside-1_1718_900" fill="white">
<path fill-rule="evenodd" clip-rule="evenodd" d="M643.756 789.294L522.342 612.287L836.354 681.541C836.85 681.645 837.303 681.897 837.653 682.261C837.949 682.57 838.159 682.947 838.265 683.356L1023.25 990.79C1032.89 1005.81 1039.4 1022.6 1042.39 1040.15C1045.38 1057.71 1044.79 1075.68 1040.65 1093.01C1036.52 1110.33 1028.93 1126.66 1018.32 1141.03C1007.71 1155.4 994.311 1167.52 978.902 1176.67L941.504 1198.89C937.37 1201.35 932.438 1202.14 927.732 1201.1C923.026 1200.05 918.906 1197.25 916.228 1193.28L643.605 789.377L643.756 789.294Z"/>
</mask>
<path d="M522.342 612.287L523.419 607.404L511.06 604.678L518.219 615.115L522.342 612.287ZM643.756 789.294L646.165 793.675L651.001 791.016L647.88 786.465L643.756 789.294ZM836.354 681.541L835.277 686.423L835.3 686.429L835.324 686.434L836.354 681.541ZM837.653 682.261L834.044 685.721L834.044 685.722L837.653 682.261ZM838.265 683.356L833.426 684.613L833.608 685.314L833.981 685.934L838.265 683.356ZM1023.25 990.79L1018.96 993.367L1019 993.43L1019.04 993.491L1023.25 990.79ZM1042.39 1040.15L1047.32 1039.31V1039.31L1042.39 1040.15ZM1040.65 1093.01L1035.79 1091.85V1091.85L1040.65 1093.01ZM1018.32 1141.03L1014.3 1138.06L1018.32 1141.03ZM978.902 1176.67L976.349 1172.37L976.348 1172.37L978.902 1176.67ZM941.504 1198.89L938.95 1194.59L938.947 1194.6L941.504 1198.89ZM916.228 1193.28L920.374 1190.48L920.372 1190.48L916.228 1193.28ZM643.605 789.377L641.196 784.996L636.396 787.634L639.46 792.174L643.605 789.377ZM518.219 615.115L639.633 792.122L647.88 786.465L526.465 609.458L518.219 615.115ZM837.43 676.658L523.419 607.404L521.265 617.169L835.277 686.423L837.43 676.658ZM841.263 678.801C840.214 677.707 838.86 676.959 837.384 676.648L835.324 686.434C834.841 686.332 834.393 686.086 834.044 685.721L841.263 678.801ZM843.105 682.1C842.783 680.862 842.149 679.726 841.263 678.801L834.044 685.722C833.748 685.413 833.534 685.032 833.426 684.613L843.105 682.1ZM833.981 685.934L1018.96 993.367L1027.53 988.212L842.549 680.779L833.981 685.934ZM1019.04 993.491C1028.32 1007.95 1034.58 1024.1 1037.46 1040.99L1047.32 1039.31C1044.21 1021.09 1037.46 1003.67 1027.45 988.089L1019.04 993.491ZM1037.46 1040.99C1040.33 1057.88 1039.77 1075.18 1035.79 1091.85L1045.52 1094.17C1049.81 1076.19 1050.42 1057.53 1047.32 1039.31L1037.46 1040.99ZM1035.79 1091.85C1031.81 1108.52 1024.51 1124.23 1014.3 1138.06L1022.34 1144C1033.35 1129.1 1041.23 1112.15 1045.52 1094.17L1035.79 1091.85ZM1014.3 1138.06C1004.09 1151.9 991.186 1163.56 976.349 1172.37L981.455 1180.97C997.436 1171.48 1011.34 1158.91 1022.34 1144L1014.3 1138.06ZM976.348 1172.37L938.95 1194.59L944.059 1203.19L981.456 1180.97L976.348 1172.37ZM938.947 1194.6C935.91 1196.4 932.281 1196.99 928.817 1196.22L926.648 1205.98C932.595 1207.3 938.83 1206.3 944.062 1203.19L938.947 1194.6ZM928.817 1196.22C925.353 1195.45 922.333 1193.39 920.374 1190.48L912.081 1196.07C915.48 1201.11 920.699 1204.66 926.648 1205.98L928.817 1196.22ZM920.372 1190.48L647.749 786.58L639.46 792.174L912.083 1196.07L920.372 1190.48ZM646.013 793.759L646.165 793.675L641.348 784.912L641.196 784.996L646.013 793.759Z" fill="url(#paint1_linear_1718_900)" mask="url(#path-2-inside-1_1718_900)"/>
<path d="M1245.88 145.077L1245.87 145.081L603.533 535.143C603.529 535.146 603.525 535.149 603.521 535.151C598.037 538.574 593.706 543.532 591.071 549.393C588.435 555.258 587.617 561.766 588.719 568.091C589.821 574.417 592.794 580.278 597.265 584.931C601.734 589.581 607.498 592.814 613.828 594.217C613.831 594.217 613.834 594.218 613.837 594.219L840.464 642.759C840.466 642.76 840.467 642.76 840.469 642.76C845.104 643.736 849.939 642.902 853.967 640.436L1213.65 420.076C1213.65 420.076 1213.65 420.075 1213.65 420.074M1245.88 145.077L1272.51 148.707C1287.49 170.203 1297.92 194.494 1303.14 220.104C1308.37 245.715 1308.28 272.11 1302.9 297.689C1297.52 323.267 1286.95 347.494 1271.83 368.899C1256.71 390.304 1237.36 408.44 1214.96 422.206L1213.65 420.074M1245.88 145.077L1245.88 145.073C1249.85 142.631 1254.62 141.793 1259.2 142.738C1263.78 143.682 1267.81 146.334 1270.46 150.137M1245.88 145.077L1270.46 150.137M1213.65 420.074C1235.77 406.485 1254.87 388.583 1269.79 367.457C1284.71 346.33 1295.14 322.418 1300.46 297.174C1305.77 271.93 1305.85 245.879 1300.69 220.604C1295.54 195.328 1285.25 171.354 1270.46 150.137M1213.65 420.074L1270.46 150.137" stroke="url(#paint2_linear_1718_900)" stroke-width="5"/>
<mask id="path-5-inside-2_1718_900" fill="white">
<path fill-rule="evenodd" clip-rule="evenodd" d="M531.941 577.724L316.63 209.56C306.887 194.6 300.267 177.858 297.16 160.32C294.053 142.783 294.523 124.807 298.542 107.452C302.561 90.0978 310.047 73.7176 320.559 59.2786C331.07 44.8397 344.394 32.6349 359.743 23.3848L392.854 3.36073C398.028 0.243316 404.223 -0.755697 410.128 0.575214C416.032 1.90612 421.182 5.46247 424.487 10.4912L727.957 474.131L843.99 640.875C845.544 643.108 843.561 646.091 840.9 645.522L533.873 579.907C533.389 579.789 532.95 579.532 532.61 579.17C532.27 578.808 532.045 578.355 531.961 577.868C531.953 577.82 531.946 577.772 531.941 577.724Z"/>
</mask>
<path d="M531.941 577.724L536.909 577.162L536.791 576.112L536.257 575.199L531.941 577.724ZM316.63 209.56L320.946 207.035L320.885 206.932L320.82 206.831L316.63 209.56ZM297.16 160.32L302.083 159.448L297.16 160.32ZM298.542 107.452L293.671 106.324H293.671L298.542 107.452ZM320.559 59.2786L324.601 62.2214L320.559 59.2786ZM359.743 23.3848L362.324 27.6672L362.331 27.6632L359.743 23.3848ZM392.854 3.36073L390.274 -0.922015L390.267 -0.917733L392.854 3.36073ZM410.128 0.575214L409.028 5.45283L410.128 0.575214ZM424.487 10.4912L428.671 7.75296L428.665 7.74505L424.487 10.4912ZM727.957 474.131L723.774 476.87L723.813 476.929L723.853 476.987L727.957 474.131ZM843.99 640.875L839.885 643.731H839.886L843.99 640.875ZM840.9 645.522L841.945 640.633L840.9 645.522ZM533.873 579.907L532.684 584.764L532.756 584.781L532.828 584.797L533.873 579.907ZM531.961 577.868L527.033 578.714L527.033 578.714L531.961 577.868ZM536.257 575.199L320.946 207.035L312.314 212.084L527.625 580.248L536.257 575.199ZM320.82 206.831C311.443 192.434 305.072 176.322 302.083 159.448L292.237 161.193C295.461 179.394 302.331 196.767 312.44 212.288L320.82 206.831ZM302.083 159.448C299.094 142.575 299.546 125.278 303.413 108.58L293.671 106.324C289.5 124.335 289.012 142.992 292.237 161.193L302.083 159.448ZM303.413 108.58C307.28 91.882 314.484 76.1187 324.601 62.2214L316.516 56.3359C305.61 71.3164 297.842 88.3136 293.671 106.324L303.413 108.58ZM324.601 62.2214C334.718 48.324 347.544 36.574 362.324 27.6672L357.162 19.1023C341.244 28.6957 327.422 41.3554 316.516 56.3359L324.601 62.2214ZM362.331 27.6632L395.442 7.63919L390.267 -0.917733L357.156 19.1063L362.331 27.6632ZM395.435 7.64346C399.502 5.1927 404.379 4.40475 409.028 5.45283L411.227 -4.3024C404.068 -5.91614 396.554 -4.70607 390.274 -0.922009L395.435 7.64346ZM409.028 5.45283C413.677 6.50074 417.72 9.29809 420.309 13.2374L428.665 7.74505C424.644 1.62684 418.387 -2.68849 411.227 -4.3024L409.028 5.45283ZM420.303 13.2295L723.774 476.87L732.141 471.393L428.671 7.75297L420.303 13.2295ZM848.094 638.019L732.061 471.275L723.853 476.987L839.885 643.731L848.094 638.019ZM839.855 650.412C846.951 651.928 852.238 643.975 848.094 638.019L839.886 643.731C838.849 642.242 840.171 640.254 841.945 640.633L839.855 650.412ZM532.828 584.797L839.855 650.412L841.945 640.633L534.918 575.017L532.828 584.797ZM528.962 582.589C529.968 583.662 531.263 584.416 532.684 584.764L535.061 575.05C535.515 575.161 535.932 575.402 536.258 575.751L528.962 582.589ZM527.033 578.714C527.283 580.17 527.956 581.516 528.962 582.589L536.258 575.751C536.585 576.1 536.807 576.541 536.889 577.021L527.033 578.714ZM526.972 578.285C526.989 578.428 527.009 578.571 527.033 578.714L536.889 577.022C536.897 577.069 536.904 577.116 536.909 577.162L526.972 578.285Z" fill="url(#paint3_linear_1718_900)" mask="url(#path-5-inside-2_1718_900)"/>
<defs>
<linearGradient id="paint0_linear_1718_900" x1="392.32" y1="613.369" x2="392.32" y2="1154.54" gradientUnits="userSpaceOnUse">
<stop stop-color="white" stop-opacity="0"/>
<stop offset="0.536458" stop-color="white"/>
</linearGradient>
<linearGradient id="paint1_linear_1718_900" x1="783.302" y1="612.287" x2="783.302" y2="1201.55" gradientUnits="userSpaceOnUse">
<stop stop-color="white" stop-opacity="0"/>
<stop offset="0.536458" stop-color="white"/>
</linearGradient>
<linearGradient id="paint2_linear_1718_900" x1="946.371" y1="139.859" x2="946.371" y2="645.659" gradientUnits="userSpaceOnUse">
<stop stop-color="white" stop-opacity="0"/>
<stop offset="0.536458" stop-color="white"/>
</linearGradient>
<linearGradient id="paint3_linear_1718_900" x1="569.835" y1="0" x2="569.835" y2="645.593" gradientUnits="userSpaceOnUse">
<stop stop-color="white" stop-opacity="0"/>
<stop offset="0.536458" stop-color="white"/>
</linearGradient>
</defs>
</svg>
