<svg width="917" height="245" viewBox="0 0 917 245" fill="none" xmlns="http://www.w3.org/2000/svg">
<path d="M766.153 -231.166L766.145 -231.162L766.136 -231.156L60.5089 192.426C56.5133 194.825 51.7389 195.615 47.1702 194.631C42.6018 193.647 38.5939 190.965 35.9676 187.146L35.9662 187.144C21.2685 165.813 11.1038 141.742 6.08969 116.396C1.07557 91.0502 1.31662 64.9583 6.79818 39.7077C12.2798 14.4571 22.8875 -9.42535 37.9769 -30.4859C53.0664 -51.5466 72.3224 -69.3453 94.574 -82.798L94.5768 -82.7997L516.245 -338.471C516.246 -338.471 516.246 -338.471 516.246 -338.471C520.283 -340.912 525.118 -341.714 529.741 -340.708C529.742 -340.708 529.743 -340.708 529.744 -340.707L756.389 -290.698L756.399 -290.696C762.819 -289.305 768.665 -286.034 773.18 -281.31C777.694 -276.586 780.668 -270.628 781.718 -264.211C782.768 -257.795 781.847 -251.213 779.072 -245.321C776.298 -239.428 771.798 -234.495 766.153 -231.166Z" stroke="url(#paint0_linear_1718_1038)" stroke-width="5"/>
<mask id="path-2-inside-1_1718_1038" fill="white">
<path fill-rule="evenodd" clip-rule="evenodd" d="M643.756 -167.706L522.342 -344.713L836.354 -275.459C836.85 -275.355 837.303 -275.103 837.653 -274.739C837.949 -274.43 838.159 -274.053 838.265 -273.644L1023.25 33.7896C1032.89 48.8115 1039.4 65.5961 1042.39 83.1524C1045.38 100.709 1044.79 118.681 1040.65 136.008C1036.52 153.334 1028.93 169.665 1018.32 184.034C1007.71 198.404 994.311 210.521 978.902 219.671L941.504 241.893C937.37 244.355 932.438 245.144 927.732 244.099C923.026 243.053 918.906 240.252 916.228 236.277L643.605 -167.623L643.756 -167.706Z"/>
</mask>
<path d="M522.342 -344.713L523.419 -349.596L511.06 -352.322L518.219 -341.885L522.342 -344.713ZM643.756 -167.706L646.165 -163.325L651.001 -165.984L647.88 -170.535L643.756 -167.706ZM836.354 -275.459L835.277 -270.577L835.3 -270.571L835.324 -270.566L836.354 -275.459ZM837.653 -274.739L834.044 -271.279L834.044 -271.278L837.653 -274.739ZM838.265 -273.644L833.426 -272.387L833.608 -271.686L833.981 -271.066L838.265 -273.644ZM1023.25 33.7896L1018.96 36.3674L1019 36.4295L1019.04 36.4905L1023.25 33.7896ZM1042.39 83.1524L1047.32 82.313V82.313L1042.39 83.1524ZM1040.65 136.008L1035.79 134.847V134.847L1040.65 136.008ZM1018.32 184.034L1014.3 181.065L1018.32 184.034ZM978.902 219.671L976.349 215.372L976.348 215.373L978.902 219.671ZM941.504 241.893L938.95 237.595L938.947 237.597L941.504 241.893ZM916.228 236.277L920.374 233.483L920.372 233.479L916.228 236.277ZM643.605 -167.623L641.196 -172.004L636.396 -169.366L639.46 -164.826L643.605 -167.623ZM518.219 -341.885L639.633 -164.878L647.88 -170.535L526.465 -347.542L518.219 -341.885ZM837.43 -280.342L523.419 -349.596L521.265 -339.831L835.277 -270.577L837.43 -280.342ZM841.263 -278.199C840.214 -279.293 838.86 -280.041 837.384 -280.352L835.324 -270.566C834.841 -270.668 834.393 -270.914 834.044 -271.279L841.263 -278.199ZM843.105 -274.9C842.783 -276.138 842.149 -277.274 841.263 -278.199L834.044 -271.278C833.748 -271.587 833.534 -271.968 833.426 -272.387L843.105 -274.9ZM833.981 -271.066L1018.96 36.3674L1027.53 31.2118L842.549 -276.221L833.981 -271.066ZM1019.04 36.4905C1028.32 50.948 1034.58 67.0997 1037.46 83.9918L1047.32 82.313C1044.21 64.0924 1037.46 46.6749 1027.45 31.0887L1019.04 36.4905ZM1037.46 83.9918C1040.33 100.884 1039.77 118.176 1035.79 134.847L1045.52 137.168C1049.81 119.186 1050.42 100.534 1047.32 82.313L1037.46 83.9918ZM1035.79 134.847C1031.81 151.519 1024.51 167.234 1014.3 181.065L1022.34 187.004C1033.35 172.095 1041.23 155.15 1045.52 137.168L1035.79 134.847ZM1014.3 181.065C1004.09 194.896 991.186 206.562 976.349 215.372L981.455 223.97C997.436 214.481 1011.34 201.912 1022.34 187.004L1014.3 181.065ZM976.348 215.373L938.95 237.595L944.059 246.192L981.456 223.97L976.348 215.373ZM938.947 237.597C935.91 239.405 932.281 239.987 928.817 239.218L926.648 248.98C932.595 250.301 938.83 249.304 944.062 246.189L938.947 237.597ZM928.817 239.218C925.353 238.448 922.333 236.389 920.374 233.483L912.081 239.071C915.48 244.115 920.699 247.658 926.648 248.98L928.817 239.218ZM920.372 233.479L647.749 -170.42L639.46 -164.826L912.083 239.074L920.372 233.479ZM646.013 -163.241L646.165 -163.325L641.348 -172.088L641.196 -172.004L646.013 -163.241Z" fill="url(#paint1_linear_1718_1038)" mask="url(#path-2-inside-1_1718_1038)"/>
<defs>
<linearGradient id="paint0_linear_1718_1038" x1="392.32" y1="-343.631" x2="392.32" y2="197.544" gradientUnits="userSpaceOnUse">
<stop stop-color="white" stop-opacity="0"/>
<stop offset="0.536458" stop-color="white"/>
</linearGradient>
<linearGradient id="paint1_linear_1718_1038" x1="783.302" y1="-344.713" x2="783.302" y2="244.549" gradientUnits="userSpaceOnUse">
<stop stop-color="white" stop-opacity="0"/>
<stop offset="0.536458" stop-color="white"/>
</linearGradient>
</defs>
</svg>
