<svg width="40" height="49" viewBox="0 0 40 49" fill="none" xmlns="http://www.w3.org/2000/svg">
<circle cx="20" cy="24" r="20" fill="#FF7777"/>
<path d="M26.7188 32.4062H12.75V30.8125C14.1875 28.25 16.375 25.9062 19.3125 23.7812C22.5625 21.4688 24.0938 19.4062 23.9062 17.5938C23.9062 15.1562 22.625 13.9375 20.0625 13.9375C17.6875 14 16.1562 15.2812 15.4688 17.7812H12.9375C14 14.0938 16.3438 12.25 19.9688 12.25C24.1562 12.5 26.4062 14.2812 26.7188 17.5938C26.9062 20.0938 25.125 22.5625 21.375 25C18.375 27 16.4375 28.9375 15.5625 30.8125H26.7188V32.4062Z" fill="white"/>
</svg>
