<svg width="213" height="147" viewBox="0 0 213 147" fill="none" xmlns="http://www.w3.org/2000/svg">
<path d="M208.956 3.36328H7.65077C3.44155 3.36328 0.0292969 6.94996 0.0292969 11.3744V138.201C0.0292969 142.625 3.44155 146.212 7.65077 146.212H208.956C213.165 146.212 216.577 142.625 216.577 138.201V11.3744C216.577 6.94996 213.165 3.36328 208.956 3.36328Z" fill="#F4EBF9"/>
<path d="M133.899 18.1463V92.7463C133.899 93.7871 133.506 94.7853 132.806 95.5212C132.106 96.2571 131.156 96.6706 130.166 96.6706H12.6543C11.6641 96.6706 10.7145 96.2571 10.0144 95.5212C9.31424 94.7853 8.9209 93.7871 8.9209 92.7463V18.1463C8.9209 17.1055 9.31424 16.1074 10.0144 15.3714C10.7145 14.6355 11.6641 14.222 12.6543 14.222H130.166C131.156 14.222 132.106 14.6355 132.806 15.3714C133.506 16.1074 133.899 17.1055 133.899 18.1463Z" fill="#FAFAFA"/>
<path d="M112.448 83.6756C112.452 88.064 111.903 92.4337 110.816 96.6705H19.2618C17.4994 89.8172 17.1503 82.6473 18.2379 75.6407C19.3254 68.6341 21.8245 61.9525 25.5678 56.0434C29.3111 50.1343 34.2123 45.134 39.9431 41.3773C45.674 37.6206 52.1023 35.1942 58.7976 34.2605C65.4929 33.3269 72.3007 33.9075 78.7652 35.9635C85.2298 38.0196 91.2018 41.5036 96.2815 46.1823C101.361 50.861 105.431 56.6265 108.219 63.0926C111.007 69.5588 112.449 76.5764 112.448 83.6756Z" fill="#E9E8F9"/>
<path d="M64.8273 51.0427C64.8273 51.0427 51.6591 52.7245 48.2457 53.487C44.8323 54.2494 43.6269 58.5324 43.8243 66.3809C44.0216 74.2295 43.8243 96.6538 43.8243 96.6538H85.5317C85.5317 96.6538 85.729 55.1688 85.1264 54.8549C81.6916 53.0777 69.4567 51.7995 64.8273 51.0427Z" fill="#5B4DAF"/>
<path d="M43.8018 81.0017L49.5992 70.1091L46.7031 96.6707H43.8018V81.0017Z" fill="#493B91"/>
<path d="M47.5661 53.6945C47.5661 53.6945 43.0221 54.541 39.806 60.0125C36.5899 65.484 26.1631 87.1683 26.1631 87.1683C26.1631 87.1683 26.6644 93.7162 34.1952 91.2888C41.726 88.8614 50.8569 67.3004 50.8569 67.3004C50.8569 67.3004 55.1023 54.4064 47.5661 53.6945Z" fill="#6254B6"/>
<path d="M66.1648 57.3946C65.506 57.3946 64.8536 57.2581 64.245 56.9929C63.6364 56.7277 63.0835 56.3391 62.6179 55.8491C62.1523 55.3592 61.7831 54.7776 61.5315 54.1376C61.2798 53.4976 61.1507 52.8118 61.1514 52.1193V44.7249H71.1782V52.1193C71.1789 52.8118 71.0498 53.4976 70.7981 54.1376C70.5465 54.7776 70.1773 55.3592 69.7117 55.8491C69.2461 56.3391 68.6932 56.7277 68.0846 56.9929C67.476 57.2581 66.8236 57.3946 66.1648 57.3946Z" fill="#FEC9CF"/>
<path d="M54.6699 88.0428C54.6699 88.0428 61.4754 88.6988 63.4381 88.4633C65.4008 88.2278 69.3049 89.4163 69.8382 93.5088H55.9713L54.6699 88.0428Z" fill="#FEC9CF"/>
<path d="M26.1643 87.1683C26.1643 87.1683 22.8469 96.6706 31.183 96.6706H57.8182L59.6155 86.5796C59.6155 86.5796 51.8181 86.1199 43.8979 85.778C35.6791 85.4248 27.807 83.9504 26.1643 87.1683Z" fill="#6254B6"/>
<path d="M83.4284 54.2157C83.4284 54.2157 87.0444 54.5408 90.2605 60.0348C93.4766 65.5288 103.919 87.1682 103.919 87.1682C103.919 87.1682 103.418 93.7161 95.8819 91.2887C88.3458 88.8612 79.2096 67.3003 79.2096 67.3003C79.2096 67.3003 75.8922 54.9669 83.4284 54.2157Z" fill="#6254B6"/>
<path d="M104.096 87.1683C104.096 87.1683 107.408 96.6706 99.0717 96.6706H72.4366L70.6445 86.5796C70.6445 86.5796 78.4367 86.1199 86.3568 85.778C94.5596 85.4248 102.432 83.9504 104.096 87.1683Z" fill="#6254B6"/>
<path d="M61.1348 47.2027C61.1348 47.2027 63.1028 51.1269 71.1616 50.0057V45.1957L61.1348 47.2027Z" fill="#EE84AA"/>
<path d="M59.6518 23.3433C59.6518 23.3433 57.3798 23.7749 56.4198 27.133C55.6784 29.723 57.9398 36.6633 57.9398 36.6633C57.9398 36.6633 58.5958 24.4533 59.6518 23.3433Z" fill="#2D2056"/>
<path d="M72.6348 23.3433C72.6348 23.3433 74.8855 23.9039 75.8882 27.6431C76.5922 30.2499 74.3468 36.6465 74.3468 36.6465C74.3468 36.6465 73.6908 24.4533 72.6348 23.3433Z" fill="#2D2056"/>
<path d="M58.1661 35.4579C57.7794 35.1738 57.3036 35.0566 56.8371 35.1307C56.3706 35.2048 55.949 35.4644 55.6594 35.8559C54.5927 37.2798 56.4807 40.6827 58.6514 39.9708L58.1661 35.4579Z" fill="#FFCAD0"/>
<path d="M74.1055 35.4579C74.493 35.1734 74.9696 35.0561 75.437 35.1302C75.9044 35.2043 76.327 35.464 76.6175 35.8559C77.6842 37.2798 75.7962 40.6827 73.6201 39.9708L74.1055 35.4579Z" fill="#FFCAD0"/>
<path d="M71.1613 24.767C67.6466 23.0852 66.1426 23.0852 66.1426 23.0852C66.1426 23.0852 64.6332 23.0852 61.1185 24.767C58.1637 26.1966 57.6304 32.5819 58.2064 40.8172C58.7824 49.0525 66.1639 49.1591 66.1639 49.1591C66.1639 49.1591 73.4974 49.0525 74.1 40.8172C74.7027 32.5819 74.164 26.1966 71.1613 24.767Z" fill="#FFCAD0"/>
<path d="M58.7354 23.6796C58.7354 23.6796 59.4127 26.7069 63.4234 26.0734C67.4342 25.4399 68.9969 31.9486 74.6983 28.9942C76.3303 28.142 76.6557 27.3123 76.9384 26.0229C77.6317 22.8275 75.2583 18.7855 71.5409 18.9537C66.3195 19.1947 60.1114 18.2081 58.7354 23.6796Z" fill="#2D2056"/>
<path d="M60.9531 25.0866C60.9531 25.0866 62.1638 26.9759 59.8864 29.2688C58.1637 31.0291 58.4304 36.6464 58.4304 36.6464C58.4304 36.6464 58.2597 36.2259 57.9877 35.3458C57.7157 34.4656 56.3877 27.7383 57.753 25.8154C59.1184 23.8926 60.2011 23.2647 60.9531 25.0866Z" fill="#2D2056"/>
<path d="M71.4553 25.0866C71.4553 25.0866 70.2446 26.9759 72.522 29.2688C74.25 31.0291 73.994 36.6464 73.994 36.6464C73.994 36.6464 74.1647 36.2259 74.4367 35.3458C74.7087 34.4656 76.0634 27.7383 74.6714 25.8154C73.2793 23.8926 72.2073 23.2647 71.4553 25.0866Z" fill="#2D2056"/>
<path d="M63.2427 36.271C63.2427 36.3997 63.2064 36.5254 63.1384 36.6324C63.0704 36.7394 62.9737 36.8228 62.8606 36.872C62.7475 36.9213 62.6231 36.9341 62.503 36.909C62.383 36.8839 62.2727 36.822 62.1862 36.731C62.0996 36.64 62.0407 36.5241 62.0168 36.3979C61.9929 36.2717 62.0052 36.1409 62.052 36.0221C62.0988 35.9032 62.1782 35.8016 62.2799 35.7301C62.3817 35.6586 62.5014 35.6205 62.6238 35.6205C62.7879 35.6205 62.9453 35.689 63.0614 35.811C63.1775 35.933 63.2427 36.0985 63.2427 36.271Z" fill="#2D2056"/>
<path d="M70.3093 36.9215C70.6511 36.9215 70.9282 36.6303 70.9282 36.271C70.9282 35.9117 70.6511 35.6205 70.3093 35.6205C69.9675 35.6205 69.6904 35.9117 69.6904 36.271C69.6904 36.6303 69.9675 36.9215 70.3093 36.9215Z" fill="#2D2056"/>
<path d="M60.7832 33.7371C61.6189 33.0811 62.6586 32.7789 63.6962 32.8903" stroke="#2D2056" stroke-width="1.06" stroke-linecap="round" stroke-linejoin="round"/>
<path d="M72.2294 33.3055C71.3937 32.6495 70.3541 32.3473 69.3164 32.4587" stroke="#2D2056" stroke-width="1.06" stroke-linecap="round" stroke-linejoin="round"/>
<path d="M66.4421 34.8918C66.5969 36.0398 66.8668 37.1673 67.2475 38.2555C67.7488 39.416 65.9941 40.0494 65.9941 40.0494" stroke="#EE84AA" stroke-width="0.86" stroke-linecap="round" stroke-linejoin="round"/>
<path d="M74.6436 38.0206C74.6436 38.0206 74.9797 36.17 76.0841 36.2765" stroke="#EE84AA" stroke-width="0.86" stroke-linecap="round" stroke-linejoin="round"/>
<path d="M56.6484 36.2706C56.999 36.4818 57.3008 36.7718 57.5323 37.1198C57.7638 37.4678 57.9192 37.8653 57.9876 38.2839" stroke="#EE84AA" stroke-width="0.86" stroke-linecap="round" stroke-linejoin="round"/>
<path d="M61.1363 51.0427C61.1363 51.0427 61.0936 55.6229 64.7737 57.1702C64.7737 57.1702 63.8403 60.0965 62.0003 60.0965C60.1602 60.0965 58.7416 53.0497 59.4829 51.7491L61.1363 51.0427Z" fill="#FAFAFA"/>
<path d="M71.1608 51.0427C71.1608 51.0427 71.2035 55.6229 67.5234 57.1702C67.5234 57.1702 68.4568 60.0965 70.2915 60.0965C72.1262 60.0965 73.6996 53.4814 72.9582 52.1864L71.1608 51.0427Z" fill="#FAFAFA"/>
<path d="M63.9082 42.5049C64.0267 43.0761 64.3276 43.5875 64.7608 43.9542C65.1939 44.3209 65.7334 44.5208 66.2896 44.5208C66.8458 44.5208 67.3852 44.3209 67.8184 43.9542C68.2516 43.5875 68.5524 43.0761 68.671 42.5049H63.9082Z" fill="#EE84AA"/>
<path d="M64.4899 38.4684H60.6019C60.486 38.4685 60.3739 38.4251 60.2859 38.3459C60.1979 38.2667 60.1397 38.1571 60.1218 38.0367L59.7645 35.4187C59.7537 35.3452 59.7582 35.2701 59.7777 35.1985C59.7971 35.127 59.8311 35.0607 59.8772 35.0043C59.9233 34.9478 59.9804 34.9025 60.0448 34.8715C60.1091 34.8404 60.1791 34.8244 60.2498 34.8245H64.9006C64.9711 34.8253 65.0406 34.842 65.1045 34.8733C65.1684 34.9047 65.2252 34.95 65.2712 35.0062C65.3171 35.0624 65.3511 35.1283 65.3709 35.1994C65.3907 35.2706 65.3958 35.3453 65.3859 35.4187L65.0019 38.0367C64.9824 38.1625 64.9192 38.2761 64.8247 38.3558C64.7302 38.4355 64.6109 38.4756 64.4899 38.4684V38.4684Z" stroke="#2D2056" stroke-width="0.75" stroke-linecap="round" stroke-linejoin="round"/>
<path d="M72.248 38.4684H68.36C68.2441 38.4685 68.132 38.4251 68.044 38.3459C67.956 38.2667 67.8978 38.1571 67.88 38.0367L67.4959 35.4187C67.4852 35.3452 67.4897 35.2701 67.5091 35.1985C67.5286 35.127 67.5625 35.0607 67.6086 35.0043C67.6547 34.9478 67.7119 34.9025 67.7762 34.8715C67.8406 34.8404 67.9105 34.8244 67.9813 34.8245H72.632C72.7025 34.8253 72.7721 34.842 72.836 34.8733C72.8999 34.9047 72.9567 34.95 73.0026 35.0062C73.0485 35.0624 73.0825 35.1283 73.1023 35.1994C73.1221 35.2706 73.1272 35.3453 73.1174 35.4187L72.7334 38.0367C72.7144 38.1575 72.6551 38.2673 72.5662 38.3464C72.4773 38.4255 72.3645 38.4687 72.248 38.4684V38.4684Z" stroke="#2D2056" stroke-width="0.75" stroke-linecap="round" stroke-linejoin="round"/>
<path d="M65.2949 35.8393C65.2949 35.8393 66.6661 35.1383 67.5677 35.8393" stroke="#2D2056" stroke-width="0.75" stroke-linecap="round" stroke-linejoin="round"/>
<path d="M57.9189 35.0991L59.7383 35.4188" stroke="#2D2056" stroke-width="0.75" stroke-linecap="round" stroke-linejoin="round"/>
<path d="M73.1992 35.6207L74.4903 35.0991" stroke="#2D2056" stroke-width="0.75" stroke-linecap="round" stroke-linejoin="round"/>
<path d="M100.447 96.6707H55.348C54.8289 96.6707 54.331 96.4539 53.9639 96.0681C53.5968 95.6823 53.3906 95.1589 53.3906 94.6133V93.4921H102.432V94.6133C102.432 94.8858 102.38 95.1557 102.28 95.4071C102.18 95.6586 102.033 95.8867 101.849 96.0781C101.664 96.2695 101.445 96.4205 101.205 96.5222C100.964 96.6239 100.707 96.6744 100.447 96.6707Z" fill="#302855"/>
<path d="M105.02 71.1743H74.8165C74.409 71.1737 74.0133 71.3188 73.6945 71.5857C73.3756 71.8526 73.1526 72.2254 73.0618 72.6431L68.2991 94.3498C68.2381 94.6274 68.2375 94.9159 68.2973 95.1938C68.3571 95.4716 68.4757 95.7318 68.6443 95.9548C68.8129 96.1778 69.0272 96.358 69.2713 96.482C69.5153 96.6059 69.7828 96.6705 70.0538 96.6707H100.3C100.708 96.6706 101.104 96.5254 101.423 96.2587C101.743 95.992 101.967 95.6196 102.06 95.202L106.806 73.4896C106.867 73.2096 106.866 72.9188 106.804 72.6391C106.743 72.3595 106.621 72.0983 106.449 71.8752C106.277 71.6522 106.059 71.4733 105.811 71.3518C105.564 71.2304 105.293 71.1697 105.02 71.1743Z" fill="#3B2E64"/>
<path d="M88.2025 81.1979L86.2291 84.001C86.1852 84.062 86.1585 84.1347 86.152 84.2109C86.1454 84.2871 86.1593 84.3636 86.1921 84.4319C86.2248 84.5002 86.2752 84.5575 86.3373 84.5973C86.3995 84.637 86.471 84.6577 86.5438 84.6569H89.6318C89.6955 84.657 89.7582 84.6408 89.8145 84.6096C89.8708 84.5783 89.9189 84.5331 89.9547 84.4778C89.9905 84.4224 90.0128 84.3587 90.0198 84.2922C90.0267 84.2257 90.018 84.1584 89.9945 84.0963L88.8958 81.2932C88.8725 81.2207 88.8303 81.1565 88.774 81.1079C88.7177 81.0593 88.6496 81.0283 88.5774 81.0183C88.5052 81.0084 88.4318 81.02 88.3655 81.0517C88.2992 81.0835 88.2427 81.1341 88.2025 81.1979Z" fill="#E1DEFB"/>
<path d="M206.081 14.222H143.963C141.901 14.222 140.229 15.979 140.229 18.1463V131.428C140.229 133.596 141.901 135.353 143.963 135.353H206.081C208.143 135.353 209.815 133.596 209.815 131.428V18.1463C209.815 15.979 208.143 14.222 206.081 14.222Z" fill="#FAFAFA"/>
<path d="M190.573 37.6669L175.922 41.7369V25.7147C179.157 26.1509 182.221 27.4893 184.798 29.5911C187.374 31.6929 189.368 34.4813 190.573 37.6669Z" fill="#E1DEFB"/>
<path d="M191.863 44.7583C191.863 48.5559 190.792 52.2681 188.785 55.4257C186.777 58.5833 183.924 61.0443 180.587 62.4975C177.249 63.9508 173.576 64.331 170.032 63.5902C166.489 62.8493 163.234 61.0206 160.679 58.3353C158.125 55.65 156.385 52.2288 155.68 48.5042C154.975 44.7796 155.337 40.919 156.72 37.4105C158.102 33.902 160.444 30.9032 163.448 28.7934C166.452 26.6836 169.983 25.5575 173.596 25.5575V44.7583L191.26 39.8586C191.662 41.4575 191.865 43.1045 191.863 44.7583Z" fill="#E1DEFB"/>
<path d="M194.701 36.5173L190.551 37.6385L175.922 41.7366V21.2015C180.099 21.6613 184.071 23.339 187.389 26.0452C190.707 28.7514 193.24 32.3786 194.701 36.5173Z" fill="#E1DEFB"/>
<path d="M194.701 36.5173L190.551 37.6385L175.922 41.7366V21.2015C180.099 21.6613 184.071 23.339 187.389 26.0452C190.707 28.7514 193.24 32.3786 194.701 36.5173Z" fill="#E1A2FF"/>
<path d="M198.967 89.9546H151.116C150.833 89.9546 150.561 89.8365 150.361 89.6262C150.161 89.4159 150.049 89.1307 150.049 88.8334C150.049 88.536 150.161 88.2508 150.361 88.0406C150.561 87.8303 150.833 87.7122 151.116 87.7122H198.967C199.25 87.7122 199.521 87.8303 199.721 88.0406C199.921 88.2508 200.034 88.536 200.034 88.8334C200.034 89.1307 199.921 89.4159 199.721 89.6262C199.521 89.8365 199.25 89.9546 198.967 89.9546Z" fill="#E1DEFB"/>
<path d="M177.787 75.9562H158.848C158.565 75.9562 158.294 75.8381 158.094 75.6278C157.894 75.4175 157.781 75.1323 157.781 74.835C157.781 74.5376 157.894 74.2524 158.094 74.0421C158.294 73.8319 158.565 73.7137 158.848 73.7137H177.787C178.07 73.7137 178.341 73.8319 178.541 74.0421C178.741 74.2524 178.854 74.5376 178.854 74.835C178.854 75.1323 178.741 75.4175 178.541 75.6278C178.341 75.8381 178.07 75.9562 177.787 75.9562Z" fill="#E1DEFB"/>
<path d="M198.967 97.4164H151.116C150.833 97.4164 150.561 97.2983 150.361 97.088C150.161 96.8777 150.049 96.5925 150.049 96.2952C150.049 95.9978 150.161 95.7126 150.361 95.5023C150.561 95.2921 150.833 95.174 151.116 95.174H198.967C199.25 95.174 199.521 95.2921 199.721 95.5023C199.921 95.7126 200.034 95.9978 200.034 96.2952C200.034 96.5925 199.921 96.8777 199.721 97.088C199.521 97.2983 199.25 97.4164 198.967 97.4164Z" fill="#E1DEFB"/>
<path d="M198.967 104.861H151.116C150.833 104.861 150.561 104.743 150.361 104.533C150.161 104.323 150.049 104.037 150.049 103.74C150.049 103.443 150.161 103.157 150.361 102.947C150.561 102.737 150.833 102.619 151.116 102.619H198.967C199.25 102.619 199.521 102.737 199.721 102.947C199.921 103.157 200.034 103.443 200.034 103.74C200.034 104.037 199.921 104.323 199.721 104.533C199.521 104.743 199.25 104.861 198.967 104.861Z" fill="#E1DEFB"/>
<path d="M198.967 112.345H151.116C150.833 112.345 150.561 112.227 150.361 112.017C150.161 111.807 150.049 111.521 150.049 111.224C150.049 110.927 150.161 110.641 150.361 110.431C150.561 110.221 150.833 110.103 151.116 110.103H198.967C199.25 110.103 199.521 110.221 199.721 110.431C199.921 110.641 200.034 110.927 200.034 111.224C200.034 111.521 199.921 111.807 199.721 112.017C199.521 112.227 199.25 112.345 198.967 112.345Z" fill="#E1DEFB"/>
<path d="M198.967 119.807H151.116C150.833 119.807 150.561 119.689 150.361 119.478C150.161 119.268 150.049 118.983 150.049 118.686C150.049 118.388 150.161 118.103 150.361 117.893C150.561 117.683 150.833 117.564 151.116 117.564H198.967C199.25 117.564 199.521 117.683 199.721 117.893C199.921 118.103 200.034 118.388 200.034 118.686C200.034 118.983 199.921 119.268 199.721 119.478C199.521 119.689 199.25 119.807 198.967 119.807Z" fill="#E1DEFB"/>
<path d="M153.062 72.7551H151.004C150.476 72.7551 150.049 73.2044 150.049 73.7586V75.9226C150.049 76.4768 150.476 76.9261 151.004 76.9261H153.062C153.589 76.9261 154.017 76.4768 154.017 75.9226V73.7586C154.017 73.2044 153.589 72.7551 153.062 72.7551Z" fill="#E1DEFB"/>
<path d="M177.787 83.6757H158.848C158.565 83.6757 158.294 83.5575 158.094 83.3472C157.894 83.137 157.781 82.8518 157.781 82.5544C157.781 82.2571 157.894 81.9719 158.094 81.7616C158.294 81.5514 158.565 81.4332 158.848 81.4332H177.787C178.07 81.4332 178.341 81.5514 178.541 81.7616C178.741 81.9719 178.854 82.2571 178.854 82.5544C178.854 82.8518 178.741 83.137 178.541 83.3472C178.341 83.5575 178.07 83.6757 177.787 83.6757Z" fill="#E1DEFB"/>
<path d="M153.062 80.4691H151.004C150.476 80.4691 150.049 80.9184 150.049 81.4726V83.6365C150.049 84.1908 150.476 84.64 151.004 84.64H153.062C153.589 84.64 154.017 84.1908 154.017 83.6365V81.4726C154.017 80.9184 153.589 80.4691 153.062 80.4691Z" fill="#E1DEFB"/>
<path d="M94.5012 110.585H11.993C11.1782 110.585 10.3968 110.245 9.82068 109.639C9.24456 109.033 8.9209 108.212 8.9209 107.356C8.9209 106.499 9.24456 105.678 9.82068 105.072C10.3968 104.467 11.1782 104.127 11.993 104.127H94.5012C94.905 104.126 95.3051 104.209 95.6784 104.371C96.0517 104.533 96.391 104.77 96.6769 105.07C96.9627 105.37 97.1895 105.727 97.3442 106.119C97.4989 106.511 97.5785 106.931 97.5785 107.356C97.5785 107.78 97.4989 108.201 97.3442 108.593C97.1895 108.985 96.9627 109.341 96.6769 109.641C96.391 109.941 96.0517 110.179 95.6784 110.341C95.3051 110.503 94.905 110.586 94.5012 110.585Z" fill="#FAFAFA"/>
<path d="M132.21 110.585H106.465C106.061 110.586 105.661 110.503 105.288 110.341C104.914 110.179 104.575 109.941 104.289 109.641C104.004 109.341 103.777 108.985 103.622 108.593C103.467 108.201 103.388 107.78 103.388 107.356C103.388 106.931 103.467 106.511 103.622 106.119C103.777 105.727 104.004 105.37 104.289 105.07C104.575 104.77 104.914 104.533 105.288 104.371C105.661 104.209 106.061 104.126 106.465 104.127H132.21C132.613 104.126 133.013 104.209 133.387 104.371C133.76 104.533 134.099 104.77 134.385 105.07C134.671 105.37 134.898 105.727 135.053 106.119C135.207 106.511 135.287 106.931 135.287 107.356C135.287 107.78 135.207 108.201 135.053 108.593C134.898 108.985 134.671 109.341 134.385 109.641C134.099 109.941 133.76 110.179 133.387 110.341C133.013 110.503 132.613 110.586 132.21 110.585Z" fill="#FAFAFA"/>
<path d="M34.1647 120.777H10.6975C10.4146 120.777 10.1433 120.659 9.94328 120.448C9.74324 120.238 9.63086 119.953 9.63086 119.656C9.63086 119.358 9.74324 119.073 9.94328 118.863C10.1433 118.652 10.4146 118.534 10.6975 118.534H34.1647C34.4476 118.534 34.7189 118.652 34.9189 118.863C35.119 119.073 35.2313 119.358 35.2313 119.656C35.2313 119.953 35.119 120.238 34.9189 120.448C34.7189 120.659 34.4476 120.777 34.1647 120.777Z" fill="#FAFAFA"/>
<path d="M54.0957 131.311H10.6975C10.4146 131.311 10.1433 131.192 9.94328 130.982C9.74324 130.772 9.63086 130.487 9.63086 130.189C9.63086 129.892 9.74324 129.607 9.94328 129.397C10.1433 129.186 10.4146 129.068 10.6975 129.068H54.0743C54.3573 129.068 54.6286 129.186 54.8286 129.397C55.0287 129.607 55.141 129.892 55.141 130.189C55.1411 130.483 55.0316 130.765 54.8362 130.974C54.6407 131.184 54.3749 131.305 54.0957 131.311Z" fill="#FAFAFA"/>
<path d="M72.3195 131.311H58.5432C58.2603 131.311 57.989 131.192 57.789 130.982C57.5889 130.772 57.4766 130.487 57.4766 130.189C57.4766 129.892 57.5889 129.607 57.789 129.397C57.989 129.186 58.2603 129.068 58.5432 129.068H72.3195C72.6024 129.068 72.8737 129.186 73.0738 129.397C73.2738 129.607 73.3862 129.892 73.3862 130.189C73.3862 130.487 73.2738 130.772 73.0738 130.982C72.8737 131.192 72.6024 131.311 72.3195 131.311Z" fill="#FAFAFA"/>
<path d="M91.7643 120.777H39.054C38.7711 120.777 38.4998 120.659 38.2997 120.448C38.0997 120.238 37.9873 119.953 37.9873 119.656C37.9873 119.358 38.0997 119.073 38.2997 118.863C38.4998 118.652 38.7711 118.534 39.054 118.534H91.7643C92.0472 118.534 92.3185 118.652 92.5186 118.863C92.7186 119.073 92.831 119.358 92.831 119.656C92.831 119.953 92.7186 120.238 92.5186 120.448C92.3185 120.659 92.0472 120.777 91.7643 120.777Z" fill="#FAFAFA"/>
<path d="M84.1861 0.0274658H125.307C126.237 0.0289486 127.129 0.418065 127.787 1.10953C128.445 1.80099 128.815 2.73839 128.816 3.71626V17.9221C128.815 18.8999 128.445 19.8373 127.787 20.5288C127.129 21.2202 126.237 21.6094 125.307 21.6108H96.4744L90.0049 28.4166V21.6108H84.1861C83.2558 21.6094 82.364 21.2202 81.7062 20.5288C81.0484 19.8373 80.6782 18.8999 80.6768 17.9221V3.71626C80.6782 2.73839 81.0484 1.80099 81.7062 1.10953C82.364 0.418065 83.2558 0.0289486 84.1861 0.0274658Z" fill="#E1A2FF"/>
<path d="M85.1191 4.80383H101.637" stroke="#B9B8F1" stroke-width="2" stroke-linecap="round" stroke-linejoin="round"/>
<path d="M105.162 4.80383H111.514" stroke="#B9B8F1" stroke-width="2" stroke-linecap="round" stroke-linejoin="round"/>
<path d="M114.673 4.80383H124.369" stroke="#B9B8F1" stroke-width="2" stroke-linecap="round" stroke-linejoin="round"/>
<path d="M85.1191 10.8192H91.2526" stroke="#B9B8F1" stroke-width="2" stroke-linecap="round" stroke-linejoin="round"/>
<path d="M94.5078 10.8192H107.201" stroke="#B9B8F1" stroke-width="2" stroke-linecap="round" stroke-linejoin="round"/>
<path d="M110.341 10.8192H124.368" stroke="#B9B8F1" stroke-width="2" stroke-linecap="round" stroke-linejoin="round"/>
<path d="M85.1191 16.8346H96.5167" stroke="#B9B8F1" stroke-width="2" stroke-linecap="round" stroke-linejoin="round"/>
<path d="M99.3711 16.8346H105.163" stroke="#B9B8F1" stroke-width="2" stroke-linecap="round" stroke-linejoin="round"/>
</svg>
