<svg width="213" height="147" fill="none" xmlns="http://www.w3.org/2000/svg"><path d="M208.956 3.363H7.651C3.44 3.363.029 6.95.029 11.374v126.827c0 4.424 3.413 8.011 7.622 8.011h201.305c4.209 0 7.621-3.587 7.621-8.011V11.374c0-4.424-3.412-8.01-7.621-8.01z" fill="#F4EBF9"/><path d="M133.899 18.146v74.6c0 1.041-.393 2.04-1.093 2.775-.7.736-1.65 1.15-2.64 1.15H12.654c-.99 0-1.94-.414-2.64-1.15a4.028 4.028 0 01-1.093-2.775v-74.6c0-1.04.393-2.039 1.093-2.775.7-.736 1.65-1.149 2.64-1.149h117.512c.99 0 1.94.414 2.64 1.15a4.029 4.029 0 011.093 2.774z" fill="#FAFAFA"/><path d="M112.448 83.676a52.12 52.12 0 01-1.632 12.995H19.262a52.309 52.309 0 01-1.024-21.03c1.087-7.007 3.587-13.689 7.33-19.598 3.743-5.909 8.644-10.909 14.375-14.666 5.731-3.756 12.16-6.183 18.855-7.117a45.209 45.209 0 0119.967 1.704c6.465 2.056 12.437 5.54 17.516 10.218 5.08 4.679 9.15 10.444 11.938 16.91a52.01 52.01 0 014.229 20.584z" fill="#E9E8F9"/><path d="M64.827 51.043s-13.168 1.681-16.581 2.444c-3.414.762-4.62 5.045-4.422 12.894.198 7.849 0 30.273 0 30.273h41.708s.197-41.485-.406-41.8c-3.434-1.776-15.67-3.054-20.299-3.811z" fill="#5B4DAF"/><path d="M43.802 81.002l5.797-10.893-2.896 26.562h-2.901V81z" fill="#493B91"/><path d="M47.566 53.694s-4.544.847-7.76 6.319c-3.216 5.471-13.643 27.155-13.643 27.155s.501 6.548 8.032 4.12C41.726 88.862 50.857 67.3 50.857 67.3s4.245-12.894-3.29-13.605z" fill="#6254B6"/><path d="M66.165 57.395a4.802 4.802 0 01-1.92-.402 5.004 5.004 0 01-1.627-1.144 5.295 5.295 0 01-1.087-1.711 5.503 5.503 0 01-.38-2.019v-7.394h10.027v7.394c0 .693-.128 1.379-.38 2.019a5.295 5.295 0 01-1.086 1.711 5.004 5.004 0 01-1.627 1.144 4.802 4.802 0 01-1.92.402zM54.67 88.043s6.805.656 8.768.42c1.963-.235 5.867.953 6.4 5.046H55.971l-1.301-5.466z" fill="#FEC9CF"/><path d="M26.164 87.168s-3.317 9.503 5.019 9.503h26.635l1.797-10.091s-7.797-.46-15.717-.802c-8.219-.353-16.091-1.828-17.734 1.39zM83.428 54.216s3.616.325 6.832 5.819c3.217 5.494 13.659 27.133 13.659 27.133s-.501 6.548-8.037 4.12C88.346 88.862 79.21 67.3 79.21 67.3s-3.318-12.333 4.218-13.084z" fill="#6254B6"/><path d="M104.096 87.168s3.312 9.503-5.024 9.503H72.437L70.644 86.58s7.793-.46 15.713-.802c8.203-.353 16.075-1.828 17.739 1.39z" fill="#6254B6"/><path d="M61.135 47.203s1.968 3.924 10.027 2.803v-4.81l-10.027 2.007z" fill="#EE84AA"/><path d="M59.652 23.343s-2.272.432-3.232 3.79c-.742 2.59 1.52 9.53 1.52 9.53s.656-12.21 1.712-13.32zM72.635 23.343s2.25.56 3.253 4.3c.704 2.607-1.541 9.004-1.541 9.004s-.656-12.194-1.712-13.304z" fill="#2D2056"/><path d="M58.166 35.458a1.77 1.77 0 00-1.329-.327 1.824 1.824 0 00-1.178.725c-1.066 1.424.822 4.827 2.992 4.115l-.485-4.513zM74.106 35.458a1.775 1.775 0 011.331-.328c.467.074.89.334 1.18.726 1.067 1.424-.82 4.827-2.997 4.115l.486-4.513z" fill="#FFCAD0"/><path d="M71.161 24.767c-3.514-1.682-5.018-1.682-5.018-1.682s-1.51 0-5.025 1.682c-2.954 1.43-3.488 7.815-2.912 16.05.576 8.236 7.958 8.342 7.958 8.342s7.333-.106 7.936-8.342c.603-8.235.064-14.62-2.939-16.05z" fill="#FFCAD0"/><path d="M58.735 23.68s.678 3.027 4.688 2.393c4.011-.633 5.574 5.876 11.275 2.921 1.632-.852 1.958-1.682 2.24-2.971.694-3.195-1.68-7.238-5.397-7.07-5.221.242-11.43-.745-12.806 4.727z" fill="#2D2056"/><path d="M60.953 25.087s1.21 1.889-1.067 4.182c-1.722 1.76-1.456 7.377-1.456 7.377s-.17-.42-.442-1.3c-.272-.88-1.6-7.608-.235-9.53 1.365-1.923 2.448-2.551 3.2-.73zM71.455 25.087s-1.21 1.889 1.067 4.182c1.728 1.76 1.472 7.377 1.472 7.377s.17-.42.443-1.3c.272-.88 1.626-7.608.234-9.53-1.392-1.923-2.464-2.551-3.216-.73zM63.243 36.271a.674.674 0 01-.105.361.626.626 0 01-.277.24.59.59 0 01-.675-.141.681.681 0 01-.134-.709.645.645 0 01.228-.292.598.598 0 01.781.081.668.668 0 01.182.46zM70.31 36.922c.341 0 .618-.292.618-.651 0-.36-.277-.65-.619-.65-.341 0-.619.29-.619.65 0 .36.278.65.62.65z" fill="#2D2056"/><path d="M60.783 33.737a4.016 4.016 0 012.913-.847M72.23 33.306a4.016 4.016 0 00-2.914-.847" stroke="#2D2056" stroke-width="1.06" stroke-linecap="round" stroke-linejoin="round"/><path d="M66.442 34.892c.155 1.148.425 2.275.806 3.363.5 1.161-1.254 1.794-1.254 1.794M74.644 38.02s.336-1.85 1.44-1.744M56.648 36.27c.351.212.653.502.884.85.232.348.387.745.456 1.164" stroke="#EE84AA" stroke-width=".86" stroke-linecap="round" stroke-linejoin="round"/><path d="M61.136 51.043s-.042 4.58 3.638 6.127c0 0-.934 2.926-2.774 2.926-1.84 0-3.258-7.046-2.517-8.347l1.653-.706zM71.16 51.043s.044 4.58-3.637 6.127c0 0 .934 2.926 2.769 2.926 1.834 0 3.408-6.615 2.666-7.91l-1.797-1.143z" fill="#FAFAFA"/><path d="M63.908 42.505c.119.571.42 1.082.853 1.45.433.366.972.566 1.529.566.556 0 1.095-.2 1.528-.567.434-.367.734-.878.853-1.45h-4.763z" fill="#EE84AA"/><path d="M64.49 38.468h-3.888a.471.471 0 01-.316-.122.518.518 0 01-.164-.31l-.358-2.617a.54.54 0 01.113-.415.492.492 0 01.373-.18h4.65a.475.475 0 01.371.182.53.53 0 01.115.413l-.384 2.618a.521.521 0 01-.177.319.475.475 0 01-.335.112v0zM72.248 38.468H68.36a.471.471 0 01-.316-.122.517.517 0 01-.164-.31l-.384-2.617a.543.543 0 01.113-.415.493.493 0 01.372-.18h4.651a.476.476 0 01.37.182.53.53 0 01.115.413l-.384 2.618a.523.523 0 01-.167.31.476.476 0 01-.318.121v0zM65.295 35.84s1.371-.702 2.273 0M57.919 35.1l1.82.319M73.2 35.62l1.29-.52" stroke="#2D2056" stroke-width=".75" stroke-linecap="round" stroke-linejoin="round"/><path d="M100.447 96.67H55.348a1.91 1.91 0 01-1.384-.602 2.112 2.112 0 01-.573-1.455v-1.12h49.041v1.12c0 .273-.052.543-.152.794-.1.252-.247.48-.431.671a1.961 1.961 0 01-.644.444 1.877 1.877 0 01-.758.149z" fill="#302855"/><path d="M105.02 71.174H74.817c-.408 0-.804.145-1.122.412-.32.267-.542.64-.633 1.057L68.299 94.35a1.988 1.988 0 00-.002.844c.06.278.179.538.347.76.169.224.383.404.627.528s.512.189.783.189H100.3a1.75 1.75 0 001.123-.412c.32-.267.544-.64.637-1.057l4.746-21.712a1.983 1.983 0 00-.357-1.615 1.816 1.816 0 00-.638-.523 1.727 1.727 0 00-.791-.178z" fill="#3B2E64"/><path d="M88.203 81.198L86.228 84a.42.42 0 00-.037.43.402.402 0 00.145.166c.063.04.134.06.207.06h3.088a.375.375 0 00.182-.047.397.397 0 00.14-.132.424.424 0 00.04-.382l-1.098-2.803a.41.41 0 00-.122-.185.373.373 0 00-.409-.056.395.395 0 00-.162.146z" fill="#E1DEFB"/><path d="M206.081 14.222h-62.118c-2.062 0-3.734 1.757-3.734 3.924v113.282c0 2.168 1.672 3.925 3.734 3.925h62.118c2.062 0 3.734-1.757 3.734-3.925V18.146c0-2.167-1.672-3.924-3.734-3.924z" fill="#FAFAFA"/><path d="M190.573 37.667l-14.651 4.07V25.715c3.235.436 6.299 1.774 8.876 3.876 2.576 2.102 4.57 4.89 5.775 8.076z" fill="#E1DEFB"/><path d="M191.863 44.758c0 3.798-1.071 7.51-3.078 10.668-2.008 3.157-4.861 5.618-8.198 7.072a17.446 17.446 0 01-10.555 1.092c-3.543-.74-6.798-2.57-9.353-5.255-2.554-2.685-4.294-6.106-4.999-9.83a20.109 20.109 0 011.04-11.095c1.382-3.508 3.724-6.507 6.728-8.617 3.004-2.11 6.535-3.235 10.148-3.235v19.2l17.664-4.9c.402 1.6.605 3.247.603 4.9z" fill="#E1DEFB"/><path d="M194.701 36.517l-4.15 1.121-14.629 4.099V21.2c4.177.46 8.149 2.138 11.467 4.844 3.318 2.706 5.851 6.334 7.312 10.472z" fill="#E1DEFB"/><path d="M194.701 36.517l-4.15 1.121-14.629 4.099V21.2c4.177.46 8.149 2.138 11.467 4.844 3.318 2.706 5.851 6.334 7.312 10.472z" fill="#E1A2FF"/><path d="M198.967 89.955h-47.851c-.283 0-.555-.118-.755-.329a1.15 1.15 0 01-.312-.793c0-.297.112-.582.312-.792.2-.21.472-.329.755-.329h47.851c.283 0 .554.118.754.329.2.21.313.495.313.792 0 .298-.113.583-.313.793-.2.21-.471.329-.754.329zM177.787 75.956h-18.939a1.04 1.04 0 01-.754-.328c-.2-.21-.313-.496-.313-.793 0-.297.113-.583.313-.793.2-.21.471-.328.754-.328h18.939c.283 0 .554.118.754.328.2.21.313.496.313.793 0 .297-.113.583-.313.793-.2.21-.471.328-.754.328zM198.967 97.416h-47.851c-.283 0-.555-.118-.755-.328a1.15 1.15 0 01-.312-.793c0-.297.112-.582.312-.793.2-.21.472-.328.755-.328h47.851c.283 0 .554.118.754.328.2.21.313.496.313.793 0 .297-.113.583-.313.793-.2.21-.471.328-.754.328zM198.967 104.861h-47.851c-.283 0-.555-.118-.755-.328-.2-.21-.312-.496-.312-.793 0-.297.112-.583.312-.793.2-.21.472-.328.755-.328h47.851c.283 0 .554.118.754.328.2.21.313.496.313.793 0 .297-.113.583-.313.793-.2.21-.471.328-.754.328zM198.967 112.345h-47.851c-.283 0-.555-.118-.755-.328-.2-.21-.312-.496-.312-.793 0-.297.112-.583.312-.793.2-.21.472-.328.755-.328h47.851c.283 0 .554.118.754.328.2.21.313.496.313.793 0 .297-.113.583-.313.793-.2.21-.471.328-.754.328zM198.967 119.807h-47.851a1.04 1.04 0 01-.755-.329c-.2-.21-.312-.495-.312-.792 0-.298.112-.583.312-.793.2-.21.472-.329.755-.329h47.851c.283 0 .554.119.754.329.2.21.313.495.313.793 0 .297-.113.582-.313.792-.2.211-.471.329-.754.329zM153.062 72.755h-2.058c-.528 0-.955.45-.955 1.004v2.164c0 .554.427 1.003.955 1.003h2.058c.527 0 .955-.45.955-1.003v-2.164c0-.555-.428-1.004-.955-1.004zM177.787 83.676h-18.939a1.04 1.04 0 01-.754-.329c-.2-.21-.313-.495-.313-.793 0-.297.113-.582.313-.792.2-.21.471-.329.754-.329h18.939c.283 0 .554.118.754.329.2.21.313.495.313.792 0 .298-.113.583-.313.793-.2.21-.471.329-.754.329zM153.062 80.47h-2.058c-.528 0-.955.448-.955 1.003v2.163c0 .555.427 1.004.955 1.004h2.058c.527 0 .955-.45.955-1.004v-2.163c0-.555-.428-1.004-.955-1.004z" fill="#E1DEFB"/><path d="M94.501 110.585H11.993c-.815 0-1.596-.34-2.172-.946a3.316 3.316 0 01-.9-2.283c0-.857.324-1.678.9-2.284a3 3 0 012.172-.945h82.508c.404-.001.804.082 1.177.244.374.162.713.399.999.699.286.3.512.657.667 1.049a3.37 3.37 0 010 2.474 3.246 3.246 0 01-.667 1.048c-.286.3-.625.538-.999.7a2.937 2.937 0 01-1.177.244zM132.21 110.585h-25.745a2.934 2.934 0 01-1.177-.244 3.064 3.064 0 01-.999-.7 3.264 3.264 0 01-.667-1.048 3.368 3.368 0 01-.234-1.237c0-.425.079-.845.234-1.237.155-.392.382-.749.667-1.049.286-.3.625-.537.999-.699a2.934 2.934 0 011.177-.244h25.745c.403-.001.803.082 1.177.244.373.162.712.399.998.699.286.3.513.657.668 1.049a3.385 3.385 0 010 2.474 3.25 3.25 0 01-.668 1.048 3.07 3.07 0 01-.998.7 2.941 2.941 0 01-1.177.244zM34.165 120.777H10.697c-.282 0-.554-.118-.754-.329a1.15 1.15 0 01-.312-.792c0-.298.112-.583.312-.793.2-.211.472-.329.755-.329h23.467c.283 0 .554.118.754.329.2.21.312.495.312.793 0 .297-.112.582-.312.792-.2.211-.471.329-.754.329zM54.096 131.311H10.698c-.283 0-.555-.119-.755-.329a1.15 1.15 0 01-.312-.793c0-.297.112-.582.312-.792.2-.211.472-.329.755-.329h43.376c.283 0 .555.118.755.329.2.21.312.495.312.792 0 .294-.11.576-.305.785-.195.21-.461.331-.74.337zM72.32 131.311H58.543c-.283 0-.554-.119-.754-.329a1.15 1.15 0 01-.312-.793c0-.297.112-.582.312-.792.2-.211.471-.329.754-.329H72.32c.282 0 .554.118.754.329.2.21.312.495.312.792 0 .298-.112.583-.312.793-.2.21-.472.329-.754.329zM91.764 120.777h-52.71c-.283 0-.554-.118-.754-.329a1.15 1.15 0 01-.313-.792c0-.298.113-.583.313-.793.2-.211.471-.329.754-.329h52.71c.283 0 .555.118.755.329.2.21.312.495.312.793 0 .297-.112.582-.312.792-.2.211-.472.329-.755.329z" fill="#FAFAFA"/><path d="M84.186.027h41.121c.93.002 1.822.391 2.48 1.083a3.79 3.79 0 011.029 2.606v14.206a3.79 3.79 0 01-1.029 2.607 3.431 3.431 0 01-2.48 1.082H96.474l-6.47 6.806V21.61h-5.818a3.43 3.43 0 01-2.48-1.082 3.792 3.792 0 01-1.03-2.607V3.716a3.792 3.792 0 011.03-2.606 3.43 3.43 0 012.48-1.083z" fill="#E1A2FF"/><path d="M85.12 4.804h16.517M105.162 4.804h6.352M114.673 4.804h9.696M85.12 10.82h6.133M94.508 10.82H107.2M110.341 10.82h14.027M85.12 16.835h11.397M99.371 16.835h5.792" stroke="#B9B8F1" stroke-width="2" stroke-linecap="round" stroke-linejoin="round"/></svg>