<svg width="141" height="166" fill="none" xmlns="http://www.w3.org/2000/svg"><path d="M72.006 19.145C72.157 10.772 78.99-1.028 88.444.216l49.239 27.758-16.612 18.25S71.979 20.583 72.006 19.146z" fill="#CDCDF7"/><path d="M61.768 93.625l-.027 1.722c.062.534.152 1.064.272 1.588.226.584.61 1.094 1.108 1.472l47.979 27.878a3.256 3.256 0 01-1.42-2.132c-.196-.857 0-2.847 0-2.847L61.768 93.625z" fill="#8181E2"/><path d="M119.878 45.444L72.006 19.145l-.058 70.701c-.307 3.123-2.475 6.795-5.092 8.307a4.577 4.577 0 01-2.39.691l45.108 24.091c0 3.265 2.315 4.604 5.141 2.971 2.827-1.633 5.163-5.643 5.163-8.896a5.71 5.71 0 00-.098-1.075l.098-70.491z" fill="#CDCDF7"/><path d="M90.705 30.098v.521L113.9 44.03v-.521l-23.195-13.41zM90.705 31.784v.522l23.195 13.41v-.522l-23.195-13.41zM90.705 33.47v.522l23.195 13.41v-.522L90.705 33.47zM90.705 35.156v.522l23.195 13.41v-.521l-23.195-13.41zM90.705 36.843v.522l23.195 13.41v-.522l-23.195-13.41zM90.705 38.525v.526l23.195 13.41v-.521L90.705 38.525zM90.705 40.21v.527l7.5 4.346v-.522l-7.5-4.35zM90.705 26.983v1.415l8.773 5.081v-1.414l-8.773-5.081z" fill="#ACACDD"/><path d="M76.941 26.988c0-3.685 2.609-5.188 5.787-3.35 3.178 1.838 5.786 6.361 5.786 10.042 0 3.68-2.603 5.188-5.786 3.346-3.183-1.843-5.787-6.358-5.787-10.038z" fill="#C0C6FF"/><path d="M76.941 26.988c0-3.685 2.609-5.188 5.787-3.35 3.178 1.838 5.786 6.361 5.786 10.042 0 3.68-2.603 5.188-5.786 3.346-3.183-1.843-5.787-6.358-5.787-10.038z" fill="#ACACDD"/><path d="M82.867 32.614c1.486.856 2.706.156 2.706-1.566a6.025 6.025 0 00-2.706-4.689c-1.487-.857-2.707-.156-2.707 1.566a6.022 6.022 0 002.707 4.689z" fill="#fff"/><path d="M84.05 28.585c-.445.723-1.931.562-2.92 0a4.609 4.609 0 01-.97-.798c.058-1.629 1.25-2.284 2.702-1.446a6.1 6.1 0 012.64 3.98l-.254-.13a2.272 2.272 0 01-1.198-1.606z" fill="#3C3592"/><path fill-rule="evenodd" clip-rule="evenodd" d="M83.984 32.03v2.484l-1.896-1.12V30.91l1.896 1.12z" fill="#fff"/><path d="M78.509 34.478c.087-.272.203-.534.347-.78.17-.3.408-.557.694-.75.454-.242.97-.343 1.483-.29.057 0 .565.076.565.076h.093c.115.03.226.071.334.12l1.745.95a6.402 6.402 0 012.402 2.289c.586.96.909 2.06.936 3.186l.05 1.9-8.992-4.907a9.906 9.906 0 01.343-1.794z" fill="#3C3592"/><path d="M92.2 42.981l.45 1.352 1.01.866-.73.308.17 1.262-.904-1.164-.9-.085.174-1.026-.73-1.312 1.01.527.45-.728zM95.948 45.145l.45 1.352 1.006.865-.73.308.173 1.263-.903-1.165-.904-.085.174-1.026-.726-1.311 1.006.53.454-.731zM99.696 47.309l.45 1.356 1.006.86-.73.309.173 1.262-.903-1.164-.904-.085.174-1.022-.726-1.316 1.006.531.454-.731zM103.439 49.472l.454 1.352 1.006.866-.73.307.17 1.263-.9-1.164-.903-.085.173-1.026-.73-1.312 1.011.531.449-.732zM107.188 51.636l.449 1.356 1.01.861-.729.308.169 1.263-.904-1.165-.899-.084.174-1.022-.73-1.316 1.01.53.45-.73z" fill="#48EDE7"/><path d="M90.705 56.378v.527l23.195 13.41v-.522L90.705 56.378zM90.705 58.065v.522L113.9 72v-.526l-23.195-13.41zM90.705 59.751v.522L113.9 73.688v-.527l-23.195-13.41zM90.705 61.437v.522L113.9 75.37v-.521l-23.195-13.41zM90.705 63.124v.522l23.195 13.41v-.522l-23.195-13.41zM90.705 64.81v.522l23.195 13.41v-.522L90.705 64.81zM90.705 66.496v.522l7.5 4.35v-.527l-7.5-4.345zM90.705 53.264v1.42l8.773 5.08v-1.418l-8.773-5.082z" fill="#ACACDD"/><path d="M76.941 53.269c0-3.68 2.609-5.188 5.787-3.346 3.178 1.842 5.786 6.362 5.786 10.042 0 3.68-2.603 5.188-5.786 3.346-3.183-1.843-5.787-6.362-5.787-10.042z" fill="#C0C6FF"/><path d="M82.867 58.895c1.486.86 2.706.156 2.706-1.562a6.025 6.025 0 00-2.706-4.689c-1.487-.86-2.707-.156-2.707 1.562a6.015 6.015 0 002.707 4.688z" fill="#fff"/><path d="M84.05 54.87c-.445.723-1.931.563-2.92 0a4.585 4.585 0 01-.97-.771c.058-1.633 1.25-2.284 2.702-1.446a6.1 6.1 0 012.64 3.98l-.254-.134a2.263 2.263 0 01-1.198-1.629z" fill="#3C3592"/><path fill-rule="evenodd" clip-rule="evenodd" d="M83.984 58.315V60.8l-1.896-1.12v-2.485l1.896 1.12z" fill="#fff"/><path d="M78.509 60.773c.085-.273.201-.535.347-.781.17-.301.408-.56.694-.754.455-.241.971-.34 1.483-.285.057 0 .565.075.565.075l.093.023c.114.03.226.07.334.116l1.745.954a6.412 6.412 0 013.338 5.474l.05 1.896-8.992-4.907c.057-.613.172-1.22.343-1.811z" fill="#3C3592"/><path d="M92.2 69.98l.45 1.352 1.01.866-.73.303.17 1.263-.904-1.16-.9-.085.174-1.026-.73-1.316 1.01.53.45-.726zM95.948 72.144l.45 1.352 1.006.865-.73.304.173 1.262-.903-1.16-.904-.084.174-1.027-.726-1.316 1.006.531.454-.727z" fill="#48EDE7"/><path d="M99.696 74.308l.45 1.352 1.006.865-.73.303.173 1.263-.903-1.16-.904-.085.174-1.026-.726-1.316 1.006.531.454-.727zM103.439 76.471l.454 1.352 1.006.866-.73.303.17 1.267-.9-1.164-.903-.085.173-1.026-.73-1.316 1.011.53.449-.727zM107.188 78.635l.449 1.352 1.01.866-.729.303.169 1.267-.904-1.165-.899-.084.174-1.026-.73-1.312 1.01.53.45-.73z" fill="#C0C6FF"/><path d="M90.705 81.392v.522l23.195 13.41v-.522l-23.195-13.41zM90.705 83.079v.521L113.9 97.01v-.521l-23.195-13.41zM90.705 84.765v.522l23.195 13.41v-.522l-23.195-13.41zM90.705 86.451v.522l23.195 13.41v-.521l-23.195-13.41zM90.705 88.138v.521L113.9 102.07v-.522l-23.195-13.41zM90.705 89.824v.522l23.195 13.41v-.522l-23.195-13.41zM90.705 91.51v.522l7.5 4.345v-.522l-7.5-4.345zM90.705 78.278v1.414l8.773 5.082V83.36l-8.773-5.082z" fill="#ACACDD"/><path d="M76.941 78.283c0-3.68 2.609-5.189 5.787-3.346 3.178 1.842 5.786 6.357 5.786 10.038 0 3.68-2.603 5.188-5.786 3.35-3.183-1.838-5.787-6.362-5.787-10.042z" fill="#C0C6FF"/><path d="M82.867 83.908c1.486.861 2.706.156 2.706-1.561a6.01 6.01 0 00-2.706-4.689c-1.487-.86-2.707-.156-2.707 1.562a6.022 6.022 0 002.707 4.688z" fill="#fff"/><path d="M84.05 79.884c-.445.719-1.931.562-2.92 0a4.585 4.585 0 01-.97-.772c.058-1.632 1.25-2.284 2.702-1.445a6.086 6.086 0 012.64 3.98l-.254-.134a2.272 2.272 0 01-1.198-1.629z" fill="#3C3592"/><path fill-rule="evenodd" clip-rule="evenodd" d="M83.984 83.324v2.49l-1.896-1.12v-2.49l1.896 1.12z" fill="#fff"/><path d="M78.509 85.782c.085-.273.201-.535.347-.78.17-.302.408-.56.694-.755.455-.24.97-.341 1.483-.29l.565.08.093.023c.115.03.226.068.334.116l1.745.95a6.408 6.408 0 013.338 5.479l.05 1.896-8.992-4.908c.057-.613.172-1.22.343-1.811z" fill="#3C3592"/><path d="M92.2 94.763l.45 1.356 1.01.86-.73.308.17 1.263-.904-1.164-.9-.085.174-1.022-.73-1.316 1.01.531.45-.731zM95.948 96.93l.45 1.352 1.006.861-.73.308.173 1.263-.903-1.165-.904-.085.174-1.021-.726-1.316 1.006.53.454-.727zM99.696 99.094l.45 1.352 1.006.861-.73.308.173 1.262-.903-1.164-.904-.085.174-1.021-.726-1.317 1.006.531.454-.727z" fill="#48EDE7"/><path d="M103.439 101.258l.454 1.352 1.006.865-.73.304.17 1.262-.9-1.164-.903-.081.173-1.026-.73-1.316 1.011.531.449-.727zM107.188 103.422l.449 1.351 1.01.866-.729.303.169 1.263-.904-1.165-.899-.085.174-1.021-.73-1.316 1.01.531.45-.727z" fill="#C0C6FF"/><path d="M41.217 40.666c.156-8.37 6.988-20.169 16.442-18.924l49.23 27.753-16.616 18.25S41.19 42.108 41.217 40.667z" fill="#E3E3FC"/><path d="M89.112 66.97L41.218 40.647l-.054 70.701c-.307 3.123-2.48 6.794-5.096 8.307a4.479 4.479 0 01-2.386.691l45.108 24.091c0 3.27 2.31 4.604 5.14 2.971 2.832-1.633 5.137-5.644 5.137-8.922a5.819 5.819 0 00-.093-1.076l.138-70.442z" fill="#E3E3FC"/><path d="M59.77 53.541v.522l23.194 13.41v-.522L59.77 53.541zM59.77 55.227v.522l23.194 13.41v-.521L59.77 55.228zM59.77 56.914v.522l23.194 13.41v-.522L59.77 56.914zM59.77 58.6v.522l23.194 13.41v-.522L59.77 58.6zM59.77 60.286v.522l23.194 13.41v-.521L59.77 60.287zM59.77 61.973v.522l23.194 13.41v-.522L59.77 61.973zM59.77 63.659v.522l7.5 4.345v-.522l-7.5-4.345z" fill="#C0C6FF"/><path d="M59.77 50.427v1.414l8.773 5.081v-1.414l-8.774-5.081z" fill="#A5AFEF"/><path d="M45.988 50.431c0-3.68 2.609-5.188 5.787-3.345 3.178 1.842 5.786 6.357 5.786 10.042 0 3.685-2.608 5.184-5.786 3.346-3.178-1.838-5.787-6.366-5.787-10.042z" fill="#C0C6FF"/><path d="M51.931 56.057c1.492.861 2.707.156 2.707-1.561a5.997 5.997 0 00-2.707-4.689c-1.486-.86-2.701-.156-2.701 1.561a6.019 6.019 0 002.701 4.69z" fill="#fff"/><path d="M53.11 52.033c-.445.718-1.931.562-2.92 0a4.564 4.564 0 01-.965-.772c.053-1.632 1.246-2.284 2.697-1.445a6.075 6.075 0 012.64 3.98l-.254-.135a2.27 2.27 0 01-1.197-1.628z" fill="#3C3592"/><path fill-rule="evenodd" clip-rule="evenodd" d="M53.048 55.473v2.49l-1.896-1.12v-2.49l1.896 1.12z" fill="#fff"/><path d="M47.573 57.935c.085-.272.202-.534.347-.78.173-.302.412-.56.7-.754a2.59 2.59 0 011.477-.29l.565.08h.098c.113.03.223.069.33.116l1.744.95a6.417 6.417 0 013.338 5.478l.05 1.897-8.992-4.908c.061-.605.176-1.204.343-1.789z" fill="#3C3592"/><path d="M61.266 66.43l.454 1.351 1.006.865-.73.304.169 1.262-.9-1.164-.903-.085.174-1.021-.73-1.316 1.01.53.45-.727zM65.013 68.593l.45 1.352 1.01.865-.73.304.169 1.262-.904-1.164-.899-.08.174-1.027-.73-1.316 1.01.531.45-.727zM68.76 70.757l.45 1.352 1.01.865-.734.303.174 1.263-.904-1.165-.903-.08.173-1.026-.725-1.316 1.006.53.454-.726zM72.51 72.92l.449 1.352 1.006.866-.73.303.169 1.263-.9-1.165-.903-.08.174-1.026-.73-1.316 1.01.53.454-.727zM76.252 75.084l.45 1.352 1.01.865-.73.304.17 1.262-.9-1.164-.904-.08.174-1.026-.73-1.317 1.01.531.45-.727z" fill="#48EDE7"/><path d="M59.77 79.826v.522l23.194 13.41v-.521L59.77 79.827zM59.77 81.513v.521l23.194 13.41v-.521L59.77 81.513zM59.77 83.199v.522l23.194 13.41v-.522L59.77 83.2zM59.77 84.885v.522l23.194 13.41v-.521L59.77 84.886zM59.77 86.567v.527l23.194 13.41v-.522L59.77 86.567zM59.77 88.254v.526l23.194 13.41v-.522L59.77 88.253zM59.77 89.94v.526l7.5 4.346v-.522l-7.5-4.35z" fill="#C0C6FF"/><path d="M59.77 76.712v1.415l8.773 5.08v-1.413l-8.774-5.082z" fill="#A5AFEF"/><path d="M45.988 76.717c0-3.685 2.609-5.189 5.787-3.35 3.178 1.837 5.786 6.361 5.786 10.042 0 3.68-2.608 5.188-5.786 3.345-3.178-1.842-5.787-6.357-5.787-10.037z" fill="#C0C6FF"/><path d="M51.931 82.342c1.492.857 2.707.157 2.707-1.566a6.01 6.01 0 00-2.707-4.688c-1.486-.857-2.701-.156-2.701 1.566a6.019 6.019 0 002.701 4.688z" fill="#fff"/><path d="M53.11 78.314c-.445.723-1.931.562-2.92 0a4.589 4.589 0 01-.965-.776c.053-1.629 1.246-2.284 2.697-1.446a6.082 6.082 0 012.64 3.98l-.254-.13a2.272 2.272 0 01-1.197-1.628z" fill="#3C3592"/><path fill-rule="evenodd" clip-rule="evenodd" d="M53.048 81.758v2.49l-1.896-1.125v-2.485l1.896 1.12z" fill="#fff"/><path d="M47.573 84.216c.087-.272.203-.534.347-.78.173-.301.412-.558.7-.75a2.555 2.555 0 011.477-.29c.058 0 .565.076.565.076h.098c.113.031.223.072.33.12l1.744.95a6.416 6.416 0 013.338 5.474l.05 1.9-8.992-4.906c.062-.607.177-1.207.343-1.794z" fill="#3C3592"/><path d="M61.266 93.424l.454 1.352 1.006.865-.73.308.169 1.263-.9-1.165-.903-.085.174-1.026-.73-1.311 1.01.53.45-.731zM65.013 95.588l.45 1.351 1.01.866-.73.308.169 1.262-.904-1.164-.899-.085.174-1.022-.73-1.316 1.01.531.45-.731z" fill="#48EDE7"/><path d="M68.76 97.751l.45 1.357 1.01.86-.734.308.174 1.263-.904-1.164-.903-.085.173-1.026-.725-1.312 1.006.531.454-.732zM72.51 99.915l.449 1.356 1.006.861-.73.308.169 1.263-.9-1.165-.903-.085.174-1.021-.73-1.316 1.01.531.454-.732zM76.252 102.079l.45 1.356 1.01.861-.73.308.17 1.262-.9-1.164-.904-.085.174-1.021-.73-1.317 1.01.531.45-.731zM59.77 104.836v.526l23.194 13.41v-.521L59.77 104.836zM59.77 106.522v.526l23.194 13.411v-.522L59.77 106.522zM59.77 108.208v.522l23.194 13.415v-.526L59.77 108.208zM59.77 109.895v.522l23.194 13.415v-.522L59.77 109.895zM59.77 111.581v.522l23.194 13.415v-.527l-23.194-13.41zM59.77 113.267v.522l23.194 13.415v-.526L59.77 113.267zM59.77 114.954v.522l7.5 4.349v-.526l-7.5-4.345z" fill="#C0C6FF"/><path d="M59.77 101.726v1.414l8.773 5.082v-1.419l-8.774-5.077z" fill="#A5AFEF"/><path d="M45.988 101.726c0-3.68 2.609-5.188 5.787-3.346 3.178 1.843 5.786 6.362 5.786 10.043 0 3.68-2.608 5.188-5.786 3.345-3.178-1.842-5.787-6.357-5.787-10.042z" fill="#C0C6FF"/><path d="M51.931 107.352c1.492.861 2.707.156 2.707-1.562a5.994 5.994 0 00-2.706-4.688c-1.487-.861-2.703-.157-2.703 1.561a6.002 6.002 0 002.702 4.689z" fill="#fff"/><path d="M53.11 103.328c-.445.723-1.931.562-2.92 0a4.559 4.559 0 01-.965-.772c.053-1.633 1.246-2.284 2.697-1.445a6.102 6.102 0 012.64 3.979l-.254-.134a2.267 2.267 0 01-1.197-1.628z" fill="#3C3592"/><path fill-rule="evenodd" clip-rule="evenodd" d="M53.048 106.772v2.485l-1.896-1.12v-2.485l1.896 1.12z" fill="#fff"/><path d="M47.573 109.23c.086-.273.203-.534.347-.781.173-.3.412-.557.7-.749a2.523 2.523 0 011.477-.29c.058 0 .565.076.565.076h.098c.113.031.223.071.33.12l1.744.95a6.39 6.39 0 013.339 5.474l.049 1.901-8.992-4.908c.061-.606.176-1.207.343-1.793z" fill="#3C3592"/><path d="M61.266 118.21l.454 1.352 1.006.866-.73.303.169 1.262-.9-1.164-.903-.08.174-1.026-.73-1.316 1.01.531.45-.728zM65.013 120.374l.45 1.352 1.01.865-.73.304.169 1.262-.904-1.16-.899-.085.174-1.026-.73-1.316 1.01.531.45-.727zM68.76 122.538l.45 1.351 1.01.866-.734.303.174 1.263-.904-1.165-.903-.08.173-1.026-.725-1.316 1.006.531.454-.727z" fill="#48EDE7"/><path d="M72.51 124.701l.449 1.352 1.006.866-.73.303.169 1.267-.9-1.165-.903-.084.174-1.026-.73-1.312 1.01.526.454-.727zM76.252 126.865l.45 1.352 1.01.865-.73.304.17 1.262-.9-1.16-.904-.084.174-1.027-.73-1.311 1.01.526.45-.727z" fill="#C0C6FF"/><path d="M10.406 58.279c.156-8.37 6.989-20.17 16.443-18.925l49.23 27.753-16.612 18.256S10.38 59.72 10.407 58.279zM53.11 153.146c-.044 0-.084.053-.129.08L10.352 128.98c-.307 3.122-2.479 6.794-5.096 8.306a4.48 4.48 0 01-2.386.692l45.108 24.09c0 3.266 2.31 4.6 5.141 2.967 2.831-1.633 5.141-5.643 5.141-8.922 0-3.279-2.314-4.582-5.15-2.967z" fill="#EDEEF7"/><path d="M10.406 58.279l-.054 70.701 47.806 27.565.13-71.896-47.882-26.37z" fill="#EDEEF7"/><path d="M136.757 27.456a5.04 5.04 0 00-2.203-.258 12.534 12.534 0 00-3.584 1.155c-6.405 3.123-10.447 11.242-11.003 15.958-.031.285-.058.682-.071 1.133v.165c-.054 1.7 0 4.015 0 4.015v3.382l20.622 11.808.04-26.628c.868-7.651-1.749-10.025-3.801-10.73zM79.434 146.954l-.053-.081a3.764 3.764 0 01-.485-1.177 2.994 2.994 0 01-.071-.58c-.021-.745.009-1.49.089-2.231l.013-35.243V77.359c.86-7.664-1.78-10.033-3.81-10.742a5.042 5.042 0 00-2.203-.26 12.887 12.887 0 00-3.579 1.156c-3.116 1.53-5.675 4.23-7.54 7.138-1.972 3.079-3.179 6.393-3.463 8.816-.04.32-.063.785-.08 1.302v.21c-.045 1.668 0 3.8 0 3.8l-.076 42.132v4.096l22.113 12.852a2.898 2.898 0 01-.855-.905zM110.218 125.433l-.049-.08a3.948 3.948 0 01-.445-1.013v-.067l.049-64.549c.859-7.664-1.758-10.033-3.81-10.742a5.043 5.043 0 00-2.204-.26 12.491 12.491 0 00-3.56 1.156c-6.406 3.123-10.447 11.242-11.004 15.958-.035.285-.058.687-.075 1.138v.165c-.054 1.695 0 4.015 0 4.015l-.076 38.245v4.096l22.082 12.83a2.896 2.896 0 01-.908-.892zM48.624 164.567a.792.792 0 01-.05-.081 3.663 3.663 0 01-.489-1.177 2.994 2.994 0 01-.071-.58c-.02-.757.01-1.514.093-2.267L6.471 136.403l-6.303-3.645-.026 1.722c.063.542.155 1.079.276 1.611a3.39 3.39 0 001.103 1.472l47.98 27.878a2.903 2.903 0 01-.877-.874z" fill="#8D92FF"/><path d="M28.278 96.913v.526l23.2 13.41v-.526l-23.2-13.41zM28.278 98.599v.522l23.2 13.415v-.527l-23.2-13.41zM28.278 100.285v.522l23.2 13.415v-.526l-23.2-13.411zM28.278 101.972v.522l23.2 13.41v-.522l-23.2-13.41zM28.278 103.658v.522l23.2 13.41v-.522l-23.2-13.41zM28.278 105.344v.522l23.2 13.411v-.522l-23.2-13.411zM28.278 107.031v.522l7.5 4.345v-.522l-7.5-4.345z" fill="#C0C6FF"/><path d="M28.278 93.799v1.418l8.774 5.077V98.88L28.278 93.8z" fill="#A5AFEF"/><path d="M14.52 93.812c0-3.68 2.608-5.188 5.786-3.346 3.178 1.843 5.787 6.357 5.787 10.042 0 3.685-2.609 5.189-5.787 3.346-3.178-1.842-5.787-6.37-5.787-10.042z" fill="#C0C6FF"/><path d="M19.825 93.455s-3.944-2.39-2.35 6.076l6.005 3.458s1.45-7.78-1.83-8.958c-3.28-1.178-1.825-.576-1.825-.576z" fill="#3C3592"/><path d="M20.444 99.429c1.486.861 2.706.156 2.706-1.562a6.023 6.023 0 00-2.706-4.688c-1.487-.861-2.707-.157-2.707 1.561a6.014 6.014 0 002.707 4.689z" fill="#fff"/><path d="M21.628 95.405c-.445.722-1.932.562-2.92 0a4.586 4.586 0 01-.97-.772c.057-1.633 1.246-2.284 2.701-1.445 1.287.745 2.595 2.145 2.64 3.979 0-.094-.17-.085-.254-.134a2.225 2.225 0 01-1.197-1.628z" fill="#3C3592"/><path fill-rule="evenodd" clip-rule="evenodd" d="M21.556 98.849v2.485l-1.896-1.12v-2.485l1.896 1.12z" fill="#fff"/><path d="M16.085 101.307c.084-.273.2-.535.343-.781.174-.3.413-.558.699-.754a2.56 2.56 0 011.478-.285c.062 0 .57.076.57.076l.093.022c.114.031.225.07.334.116l1.745.955a6.401 6.401 0 012.401 2.288c.586.961.91 2.06.937 3.185l.045 1.896-8.992-4.907c.061-.613.178-1.219.348-1.811zM29.777 110.515l.45 1.352 1.01.865-.734.303.174 1.263-.904-1.164-.9-.081.174-1.026-.73-1.316 1.006.531.454-.727zM33.525 112.678l.45 1.352 1.006.866-.73.303.174 1.263-.904-1.16-.904-.085.174-1.026-.726-1.316 1.006.531.454-.728z" fill="#48EDE7"/><path d="M37.274 114.842l.445 1.352 1.01.865-.73.304.17 1.262-.9-1.16-.903-.084.174-1.026-.73-1.316 1.01.53.454-.727zM41.017 117.006l.45 1.352 1.01.865-.73.303.169 1.267-.9-1.164-.903-.085.174-1.026-.73-1.311 1.01.526.45-.727zM44.765 119.17l.45 1.351 1.01.866-.735.308.174 1.262-.904-1.164-.903-.085.173-1.026-.725-1.312 1.006.527.454-.727zM28.278 121.927v.521l23.2 13.411v-.522l-23.2-13.41zM28.278 123.613v.522l23.2 13.41v-.522l-23.2-13.41zM28.278 125.299v.522l23.2 13.41v-.521l-23.2-13.411zM28.278 126.985v.522l23.2 13.411v-.522l-23.2-13.411zM28.278 128.672v.522l23.2 13.41v-.522l-23.2-13.41zM28.278 130.358v.522l23.2 13.41v-.521l-23.2-13.411zM28.278 132.045v.522l7.5 4.345v-.522l-7.5-4.345z" fill="#C0C6FF"/><path d="M28.278 118.813v1.414l8.774 5.081v-1.414l-8.774-5.081z" fill="#A5AFEF"/><path d="M14.52 118.817c0-3.68 2.608-5.188 5.786-3.346 3.178 1.843 5.787 6.357 5.787 10.038 0 3.68-2.609 5.188-5.787 3.35-3.178-1.838-5.787-6.361-5.787-10.042z" fill="#C0C6FF"/><path d="M20.444 124.443c1.486.856 2.706.156 2.706-1.562a5.995 5.995 0 00-2.706-4.688c-1.487-.861-2.707-.157-2.707 1.561a6.023 6.023 0 002.707 4.689z" fill="#fff"/><path d="M21.628 120.414c-.445.723-1.932.567-2.92 0a4.582 4.582 0 01-.97-.771c.057-1.633 1.246-2.285 2.701-1.446a6.084 6.084 0 012.64 3.979c-.085-.04-.17-.089-.254-.133a2.231 2.231 0 01-1.197-1.629z" fill="#3C3592"/><path fill-rule="evenodd" clip-rule="evenodd" d="M21.556 123.858v2.49l-1.896-1.12v-2.489l1.896 1.119z" fill="#fff"/><path d="M16.086 126.316c.084-.271.2-.531.343-.776.173-.301.412-.558.698-.754.454-.24.968-.341 1.478-.29l.57.076.107.022c.114.031.226.071.334.121l1.744.95a6.42 6.42 0 013.339 5.474l.044 1.9-8.991-4.907c.057-.614.169-1.222.334-1.816z" fill="#3C3592"/><path d="M29.777 135.297l.45 1.351 1.01.866-.734.308.174 1.262-.904-1.164-.9-.085.174-1.026-.73-1.311 1.006.53.454-.731zM33.525 137.46l.45 1.357 1.006.861-.73.307.174 1.263-.904-1.164-.904-.085.174-1.022-.726-1.316 1.006.531.454-.732zM37.274 139.624l.445 1.356 1.01.861-.73.308.17 1.263-.9-1.165-.903-.084.174-1.022-.73-1.316 1.01.531.454-.732z" fill="#48EDE7"/><path d="M41.017 141.792l.45 1.352 1.01.861-.73.308.169 1.262-.9-1.164-.903-.085.174-1.021-.73-1.316 1.01.53.45-.727zM44.765 143.956l.45 1.352 1.01.865-.735.304.174 1.262-.904-1.164-.903-.085.173-1.022-.725-1.316 1.006.531.454-.727zM28.278 70.632v.522l23.2 13.41v-.522l-23.2-13.41zM28.278 72.318v.522l23.2 13.41v-.521l-23.2-13.41zM28.278 74v.526l23.2 13.41v-.521L28.278 74zM28.278 75.69v.523l23.2 13.41v-.522l-23.2-13.41zM28.278 77.373v.526l23.2 13.41v-.522l-23.2-13.414zM28.278 79.059v.526l23.2 13.41v-.521l-23.2-13.415zM28.278 80.745v.527l7.5 4.345v-.522l-7.5-4.35z" fill="#C0C6FF"/><path d="M28.278 67.518v1.414l8.774 5.081V72.6l-8.774-5.081z" fill="#A5AFEF"/><path d="M14.52 67.518c0-3.68 2.608-5.184 5.786-3.346 3.178 1.838 5.787 6.362 5.787 10.042 0 3.68-2.609 5.189-5.787 3.346-3.178-1.842-5.787-6.357-5.787-10.042z" fill="#C0C6FF"/><path d="M20.444 73.144c1.486.86 2.706.16 2.706-1.562a6.023 6.023 0 00-2.706-4.689c-1.487-.856-2.707-.156-2.707 1.566a6.005 6.005 0 002.707 4.684z" fill="#fff"/><path d="M21.628 69.12c-.445.722-1.932.561-2.92 0a4.449 4.449 0 01-.97-.772c.057-1.629 1.246-2.284 2.701-1.446a6.102 6.102 0 012.64 3.98l-.254-.13a2.228 2.228 0 01-1.197-1.633z" fill="#3C3592"/><path fill-rule="evenodd" clip-rule="evenodd" d="M21.556 72.564v2.484l-1.896-1.12v-2.484l1.896 1.12z" fill="#fff"/><path d="M16.086 75.022c.085-.272.2-.534.343-.781a2.3 2.3 0 01.698-.75 2.564 2.564 0 011.478-.29c.063 0 .57.076.57.076l.107.014c.114.03.226.07.334.12l1.744.95a6.412 6.412 0 012.4 2.29c.587.96.91 2.059.939 3.184l.044 1.9-8.991-4.907c.057-.61.169-1.215.334-1.806z" fill="#3C3592"/><path d="M29.777 83.516l.45 1.351 1.01.866-.734.303.174 1.267-.904-1.164-.9-.085.174-1.026-.73-1.312 1.006.531.454-.731zM33.525 85.68l.45 1.351 1.006.866-.73.307.174 1.263-.904-1.164-.904-.085.174-1.026-.726-1.312 1.006.531.454-.732zM37.274 87.843l.445 1.352 1.01.865-.73.308.17 1.263-.9-1.165-.903-.085.174-1.026-.73-1.311 1.01.53.454-.731zM41.017 90.007l.45 1.352 1.01.865-.73.308.169 1.262-.9-1.164-.903-.085.174-1.022-.73-1.316 1.01.531.45-.731zM44.765 92.17l.45 1.357 1.01.86-.735.308.174 1.263-.904-1.164-.903-.085.173-1.022-.725-1.316 1.006.531.454-.732z" fill="#48EDE7"/><path d="M19.793 71.194l.022.352 1.042.607-.027-.388-1.037-.571z" fill="#3C3592"/></svg>