<svg width="141" height="166" viewBox="0 0 141 166" fill="none" xmlns="http://www.w3.org/2000/svg">
<path d="M72.0059 19.1453C72.1572 10.7716 78.9898 -1.02824 88.444 0.216435L137.683 27.974L121.071 46.2247C121.071 46.2247 71.9792 20.5818 72.0059 19.1453Z" fill="#CDCDF7"/>
<path d="M61.7679 93.6248L61.7412 95.3468C61.8026 95.8808 61.8932 96.411 62.0127 96.935C62.2392 97.519 62.6228 98.0287 63.1211 98.4071L111.1 126.285C110.732 126.045 110.416 125.732 110.171 125.365C109.927 124.999 109.76 124.586 109.68 124.153C109.484 123.296 109.68 121.306 109.68 121.306L61.7679 93.6248Z" fill="#8181E2"/>
<path d="M119.878 45.444L72.0061 19.1453L71.9482 89.8462C71.6411 92.969 69.4734 96.6406 66.8561 98.1529C66.1382 98.5998 65.3109 98.8391 64.4658 98.8444L109.574 122.935C109.574 126.2 111.889 127.539 114.715 125.906C117.542 124.273 119.878 120.263 119.878 117.01C119.879 116.65 119.847 116.29 119.78 115.935L119.878 45.444Z" fill="#CDCDF7"/>
<path d="M90.7051 30.0975V30.6195L113.9 44.0298V43.5079L90.7051 30.0975Z" fill="#ACACDD"/>
<path d="M90.7051 31.7837V32.3056L113.9 45.716V45.194L90.7051 31.7837Z" fill="#ACACDD"/>
<path d="M90.7051 33.4701V33.9921L113.9 47.4024V46.8804L90.7051 33.4701Z" fill="#ACACDD"/>
<path d="M90.7051 35.1564V35.6783L113.9 49.0887V48.5667L90.7051 35.1564Z" fill="#ACACDD"/>
<path d="M90.7051 36.8428V37.3647L113.9 50.7751V50.2531L90.7051 36.8428Z" fill="#ACACDD"/>
<path d="M90.7051 38.5247V39.0511L113.9 52.4614V51.9395L90.7051 38.5247Z" fill="#ACACDD"/>
<path d="M90.7051 40.2109V40.7374L98.2053 45.0826V44.5606L90.7051 40.2109Z" fill="#ACACDD"/>
<path d="M90.7051 26.9835V28.3977L99.4783 33.479V32.0648L90.7051 26.9835Z" fill="#ACACDD"/>
<path d="M76.9414 26.9881C76.9414 23.3031 79.5498 21.7997 82.7279 23.6377C85.9061 25.4757 88.5144 29.9994 88.5144 33.6798C88.5144 37.3603 85.9105 38.8682 82.7279 37.0257C79.5453 35.1833 76.9414 30.6685 76.9414 26.9881Z" fill="#C0C6FF"/>
<path d="M76.9414 26.9881C76.9414 23.3031 79.5498 21.7997 82.7279 23.6377C85.9061 25.4757 88.5144 29.9994 88.5144 33.6798C88.5144 37.3603 85.9105 38.8682 82.7279 37.0257C79.5453 35.1833 76.9414 30.6685 76.9414 26.9881Z" fill="#ACACDD"/>
<path d="M82.8665 32.6137C84.3532 33.4702 85.5728 32.7698 85.5728 31.0478C85.519 30.1086 85.2462 29.1951 84.7762 28.3808C84.3061 27.5664 83.652 26.874 82.8665 26.3591C81.3798 25.5025 80.1602 26.2029 80.1602 27.925C80.2139 28.8642 80.4867 29.7777 80.9568 30.592C81.4268 31.4063 82.0809 32.0988 82.8665 32.6137Z" fill="white"/>
<path d="M84.0505 28.5852C83.6054 29.3079 82.1187 29.1473 81.1305 28.5852C80.7722 28.3646 80.4457 28.0959 80.1602 27.7866C80.218 26.1583 81.4109 25.5025 82.862 26.3412C83.5463 26.7926 84.1327 27.3777 84.5862 28.0614C85.0397 28.7451 85.3511 29.5135 85.5015 30.3206L85.2478 30.1912C84.9391 30.0329 84.6707 29.8059 84.4631 29.5275C84.2556 29.2491 84.1144 28.9267 84.0505 28.5852Z" fill="#3C3592"/>
<path fill-rule="evenodd" clip-rule="evenodd" d="M83.9841 32.0292V34.5141L82.0879 33.3943V30.9094L83.9841 32.0292Z" fill="white"/>
<path d="M78.5088 34.4783C78.5957 34.2062 78.7121 33.9443 78.8559 33.6976C79.0264 33.3973 79.2641 33.1407 79.5503 32.9481C80.0045 32.7056 80.5207 32.6046 81.0326 32.6582C81.0904 32.6582 81.5979 32.734 81.5979 32.734H81.6913C81.8058 32.7648 81.9174 32.8051 82.0252 32.8545L83.77 33.8047C84.7572 34.3428 85.5855 35.132 86.1716 36.093C86.7576 37.0539 87.0807 38.1527 87.1084 39.2786L87.1574 41.179L78.166 36.2717C78.2248 35.6646 78.3396 35.0642 78.5088 34.4783Z" fill="#3C3592"/>
<path d="M92.2002 42.9814L92.6498 44.3332L93.6602 45.1987L92.9302 45.5065L93.0994 46.769L92.1958 45.6046L91.2966 45.5199L91.4702 44.4938L90.7402 43.1822L91.7506 43.7086L92.2002 42.9814Z" fill="#48EDE7"/>
<path d="M95.9483 45.145L96.3978 46.4968L97.4038 47.3622L96.6738 47.6701L96.8474 48.9326L95.9438 47.7682L95.0402 47.6834L95.2138 46.6574L94.4883 45.3458L95.4942 45.8767L95.9483 45.145Z" fill="#48EDE7"/>
<path d="M99.6963 47.3086L100.146 48.6648L101.152 49.5258L100.422 49.8336L100.595 51.0962L99.6919 49.9318L98.7883 49.847L98.9619 48.8254L98.2363 47.5093L99.2423 48.0402L99.6963 47.3086Z" fill="#48EDE7"/>
<path d="M103.439 49.4724L103.893 50.8242L104.899 51.6896L104.169 51.9974L104.339 53.26L103.439 52.0956L102.536 52.0108L102.709 50.9848L101.979 49.6732L102.99 50.204L103.439 49.4724Z" fill="#48EDE7"/>
<path d="M107.188 51.6361L107.637 52.9923L108.647 53.8533L107.918 54.1611L108.087 55.4237L107.183 54.2593L106.284 54.1745L106.458 53.1529L105.728 51.8369L106.738 52.3677L107.188 51.6361Z" fill="#48EDE7"/>
<path d="M90.7051 56.3783V56.9047L113.9 70.315V69.7931L90.7051 56.3783Z" fill="#ACACDD"/>
<path d="M90.7051 58.0647V58.5867L113.9 72.0014V71.475L90.7051 58.0647Z" fill="#ACACDD"/>
<path d="M90.7051 59.751V60.2729L113.9 73.6877V73.1613L90.7051 59.751Z" fill="#ACACDD"/>
<path d="M90.7051 61.4374V61.9593L113.9 75.3697V74.8477L90.7051 61.4374Z" fill="#ACACDD"/>
<path d="M90.7051 63.1237V63.6456L113.9 77.0559V76.534L90.7051 63.1237Z" fill="#ACACDD"/>
<path d="M90.7051 64.8099V65.3319L113.9 78.7422V78.2203L90.7051 64.8099Z" fill="#ACACDD"/>
<path d="M90.7051 66.4962V67.0182L98.2053 71.3678V70.8414L90.7051 66.4962Z" fill="#ACACDD"/>
<path d="M90.7051 53.2644V54.6831L99.4783 59.7643V58.3457L90.7051 53.2644Z" fill="#ACACDD"/>
<path d="M76.9414 53.2689C76.9414 49.5884 79.5498 48.0805 82.7279 49.923C85.9061 51.7654 88.5144 56.2846 88.5144 59.9651C88.5144 63.6456 85.9105 65.1535 82.7279 63.311C79.5453 61.4685 76.9414 56.9493 76.9414 53.2689Z" fill="#C0C6FF"/>
<path d="M82.8665 58.8945C84.3532 59.7555 85.5728 59.0506 85.5728 57.3331C85.519 56.3938 85.2462 55.4803 84.7762 54.666C84.3061 53.8517 83.652 53.1593 82.8665 52.6444C81.3798 51.7833 80.1602 52.4882 80.1602 54.2058C80.2132 55.1452 80.4858 56.0589 80.9558 56.8733C81.4259 57.6878 82.0804 58.3801 82.8665 58.8945Z" fill="white"/>
<path d="M84.0505 54.8705C83.6054 55.5932 82.1187 55.4326 81.1305 54.8705C80.7737 54.6584 80.4473 54.3988 80.1602 54.0987C80.218 52.4659 81.4109 51.8146 82.862 52.6533C83.5463 53.1047 84.1327 53.6898 84.5862 54.3735C85.0397 55.0572 85.3511 55.8256 85.5015 56.6327L85.2478 56.4988C84.9361 56.3389 84.6656 56.1086 84.4578 55.826C84.25 55.5434 84.1106 55.2163 84.0505 54.8705Z" fill="#3C3592"/>
<path fill-rule="evenodd" clip-rule="evenodd" d="M83.9841 58.3146V60.7995L82.0879 59.6797V57.1948L83.9841 58.3146Z" fill="white"/>
<path d="M78.5088 60.7726C78.594 60.4998 78.7105 60.2378 78.8559 59.9919C79.0266 59.6905 79.2642 59.4326 79.5503 59.238C80.0049 58.9967 80.5211 58.8973 81.0326 58.9525C81.0904 58.9525 81.5979 59.0283 81.5979 59.0283L81.6913 59.0506C81.8051 59.0819 81.9166 59.1206 82.0252 59.1666L83.77 60.1213C84.7578 60.6587 85.5866 61.4478 86.1727 62.4089C86.7589 63.37 87.0816 64.4691 87.1084 65.5952L87.1574 67.4912L78.166 62.5839C78.2233 61.9707 78.3381 61.3643 78.5088 60.7726Z" fill="#3C3592"/>
<path d="M92.2002 69.9805L92.6498 71.3322L93.6602 72.1977L92.9302 72.501L93.0994 73.7636L92.1958 72.6036L91.2966 72.5189L91.4702 71.4928L90.7402 70.1768L91.7506 70.7076L92.2002 69.9805Z" fill="#48EDE7"/>
<path d="M95.9483 72.1442L96.3978 73.4959L97.4038 74.3614L96.6738 74.6647L96.8474 75.9273L95.9438 74.7673L95.0402 74.6826L95.2138 73.6565L94.4883 72.3405L95.4942 72.8713L95.9483 72.1442Z" fill="#48EDE7"/>
<path d="M99.6963 74.3079L100.146 75.6596L101.152 76.5251L100.422 76.8284L100.595 78.091L99.6919 76.931L98.7883 76.8463L98.9619 75.8202L98.2363 74.5042L99.2423 75.035L99.6963 74.3079Z" fill="#C0C6FF"/>
<path d="M103.439 76.4714L103.893 77.8232L104.899 78.6886L104.169 78.992L104.339 80.259L103.439 79.0946L102.536 79.0099L102.709 77.9838L101.979 76.6677L102.99 77.1986L103.439 76.4714Z" fill="#C0C6FF"/>
<path d="M107.188 78.6353L107.637 79.987L108.647 80.8525L107.918 81.1558L108.087 82.4228L107.183 81.2584L106.284 81.1737L106.458 80.1476L105.728 78.836L106.738 79.3669L107.188 78.6353Z" fill="#C0C6FF"/>
<path d="M90.7051 81.3921V81.914L113.9 95.3244V94.8024L90.7051 81.3921Z" fill="#ACACDD"/>
<path d="M90.7051 83.0785V83.6004L113.9 97.0108V96.4888L90.7051 83.0785Z" fill="#ACACDD"/>
<path d="M90.7051 84.7649V85.2869L113.9 98.6972V98.1752L90.7051 84.7649Z" fill="#ACACDD"/>
<path d="M90.7051 86.4512V86.9731L113.9 100.383V99.8615L90.7051 86.4512Z" fill="#ACACDD"/>
<path d="M90.7051 88.1375V88.6594L113.9 102.07V101.548L90.7051 88.1375Z" fill="#ACACDD"/>
<path d="M90.7051 89.8239V90.3458L113.9 103.756V103.234L90.7051 89.8239Z" fill="#ACACDD"/>
<path d="M90.7051 91.5101V92.0321L98.2053 96.3773V95.8553L90.7051 91.5101Z" fill="#ACACDD"/>
<path d="M90.7051 78.2783V79.6925L99.4783 84.7738V83.3596L90.7051 78.2783Z" fill="#ACACDD"/>
<path d="M76.9414 78.2827C76.9414 74.6022 79.5498 73.0943 82.7279 74.9368C85.9061 76.7792 88.5144 81.294 88.5144 84.9745C88.5144 88.6549 85.9105 90.1628 82.7279 88.3248C79.5453 86.4868 76.9414 81.9631 76.9414 78.2827Z" fill="#C0C6FF"/>
<path d="M82.8665 83.9083C84.3532 84.7693 85.5728 84.0644 85.5728 82.3469C85.5201 81.4074 85.2477 80.4935 84.7776 79.679C84.3074 78.8645 83.6528 78.1723 82.8665 77.6581C81.3798 76.7971 80.1602 77.502 80.1602 79.2196C80.2139 80.1588 80.4867 81.0723 80.9568 81.8866C81.4268 82.7009 82.0809 83.3934 82.8665 83.9083Z" fill="white"/>
<path d="M84.0505 79.8843C83.6054 80.6025 82.1187 80.4464 81.1305 79.8843C80.7737 79.6722 80.4473 79.4126 80.1602 79.1125C80.218 77.4797 81.4109 76.8284 82.862 77.6671C83.5468 78.1179 84.1336 78.7028 84.5872 79.3867C85.0408 80.0705 85.3518 80.8391 85.5015 81.6465L85.2478 81.5126C84.9365 81.3521 84.6664 81.1216 84.4587 80.8392C84.251 80.5567 84.1112 80.2299 84.0505 79.8843Z" fill="#3C3592"/>
<path fill-rule="evenodd" clip-rule="evenodd" d="M83.9841 83.3239V85.8132L82.0879 84.6934V82.2041L83.9841 83.3239Z" fill="white"/>
<path d="M78.5088 85.782C78.594 85.5092 78.7105 85.2472 78.8559 85.0013C79.0266 84.6999 79.2642 84.442 79.5503 84.2474C80.0052 84.0069 80.5208 83.906 81.0326 83.9574L81.5979 84.0377L81.6913 84.06C81.8057 84.0893 81.9173 84.1281 82.0252 84.176L83.77 85.1262C84.7576 85.6651 85.586 86.4551 86.1721 87.4168C86.7581 88.3785 87.0811 89.478 87.1084 90.6046L87.1574 92.5006L78.166 87.5933C78.2233 86.9801 78.3381 86.3737 78.5088 85.782Z" fill="#3C3592"/>
<path d="M92.2002 94.7625L92.6498 96.1186L93.6602 96.9797L92.9302 97.2875L93.0994 98.55L92.1958 97.3856L91.2966 97.3009L91.4702 96.2793L90.7402 94.9632L91.7506 95.4941L92.2002 94.7625Z" fill="#48EDE7"/>
<path d="M95.9483 96.9304L96.3978 98.2822L97.4038 99.1432L96.6738 99.451L96.8474 100.714L95.9438 99.5491L95.0402 99.4644L95.2138 98.4428L94.4883 97.1267L95.4942 97.6576L95.9483 96.9304Z" fill="#48EDE7"/>
<path d="M99.6963 99.0942L100.146 100.446L101.152 101.307L100.422 101.615L100.595 102.877L99.6919 101.713L98.7883 101.628L98.9619 100.607L98.2363 99.2905L99.2423 99.8214L99.6963 99.0942Z" fill="#48EDE7"/>
<path d="M103.439 101.258L103.893 102.61L104.899 103.475L104.169 103.779L104.339 105.041L103.439 103.877L102.536 103.796L102.709 102.77L101.979 101.454L102.99 101.985L103.439 101.258Z" fill="#C0C6FF"/>
<path d="M107.188 103.422L107.637 104.773L108.647 105.639L107.918 105.942L108.087 107.205L107.183 106.04L106.284 105.955L106.458 104.934L105.728 103.618L106.738 104.149L107.188 103.422Z" fill="#C0C6FF"/>
<path d="M41.2168 40.6661C41.3726 32.2969 48.2051 20.497 57.6594 21.7417L106.889 49.4948L90.2731 67.7455C90.2731 67.7455 41.1901 42.107 41.2168 40.6661Z" fill="#E3E3FC"/>
<path d="M89.112 66.9692L41.2175 40.6482L41.1641 111.349C40.8569 114.472 38.6848 118.143 36.0675 119.656C35.353 120.107 34.526 120.346 33.6816 120.347L78.7897 144.438C78.7897 147.708 81.0999 149.042 83.9308 147.409C86.7618 145.776 89.0675 141.765 89.0675 138.487C89.0697 138.126 89.0385 137.766 88.974 137.411L89.112 66.9692Z" fill="#E3E3FC"/>
<path d="M59.7695 53.541V54.063L82.9645 67.4733V66.9513L59.7695 53.541Z" fill="#C0C6FF"/>
<path d="M59.7695 55.2273V55.7493L82.9645 69.1596V68.6376L59.7695 55.2273Z" fill="#C0C6FF"/>
<path d="M59.7695 56.9137V57.4357L82.9645 70.846V70.324L59.7695 56.9137Z" fill="#C0C6FF"/>
<path d="M59.7695 58.6V59.1219L82.9645 72.5323V72.0103L59.7695 58.6Z" fill="#C0C6FF"/>
<path d="M59.7695 60.2863V60.8082L82.9645 74.2185V73.6966L59.7695 60.2863Z" fill="#C0C6FF"/>
<path d="M59.7695 61.9727V62.4946L82.9645 75.905V75.383L59.7695 61.9727Z" fill="#C0C6FF"/>
<path d="M59.7695 63.6589V64.1809L67.2697 68.5261V68.0041L59.7695 63.6589Z" fill="#C0C6FF"/>
<path d="M59.7695 50.427V51.8412L68.5428 56.9225V55.5083L59.7695 50.427Z" fill="#A5AFEF"/>
<path d="M45.9883 50.4315C45.9883 46.751 48.5967 45.2431 51.7748 47.0856C54.9529 48.928 57.5613 53.4428 57.5613 57.1277C57.5613 60.8127 54.9529 62.3116 51.7748 60.4736C48.5967 58.6356 45.9883 54.1075 45.9883 50.4315Z" fill="#C0C6FF"/>
<path d="M51.9313 56.0572C53.4225 56.9182 54.6377 56.2133 54.6377 54.4958C54.586 53.5561 54.3141 52.6418 53.8438 51.8271C53.3736 51.0125 52.7184 50.3204 51.9313 49.8071C50.4447 48.9461 49.2295 49.6509 49.2295 51.3685C49.2824 52.3074 49.5544 53.2208 50.0237 54.0351C50.4929 54.8495 51.1464 55.5421 51.9313 56.0572Z" fill="white"/>
<path d="M53.1105 52.0332C52.6654 52.7515 51.1787 52.5953 50.1905 52.0332C49.8351 51.821 49.5102 51.5614 49.2246 51.2614C49.278 49.6286 50.4709 48.9773 51.922 49.816C52.6073 50.2663 53.1945 50.851 53.6482 51.5349C54.1018 52.2189 54.4125 52.9878 54.5616 53.7954L54.3078 53.6615C53.9965 53.5011 53.7264 53.2706 53.5187 52.9881C53.311 52.7056 53.1713 52.3788 53.1105 52.0332Z" fill="#3C3592"/>
<path fill-rule="evenodd" clip-rule="evenodd" d="M53.0485 55.4729V57.9623L51.1523 56.8425V54.3531L53.0485 55.4729Z" fill="white"/>
<path d="M47.5732 57.9354C47.6584 57.6626 47.7749 57.4006 47.9204 57.1547C48.0927 56.8531 48.3318 56.5952 48.6192 56.4008C49.0724 56.1599 49.5867 56.0589 50.097 56.1108L50.6623 56.1911H50.7602C50.8729 56.2211 50.983 56.2598 51.0896 56.3071L52.8345 57.2573C53.8226 57.7954 54.6515 58.5853 55.2377 59.5472C55.8238 60.509 56.1464 61.6089 56.1728 62.7357L56.2218 64.6317L47.2305 59.7244C47.2913 59.119 47.406 58.5203 47.5732 57.9354Z" fill="#3C3592"/>
<path d="M61.2657 66.4293L61.7197 67.7811L62.7256 68.6465L61.9956 68.9499L62.1648 70.2124L61.2657 69.048L60.3621 68.9633L60.5357 67.9417L59.8057 66.6256L60.8161 67.1565L61.2657 66.4293Z" fill="#48EDE7"/>
<path d="M65.0127 68.593L65.4623 69.9448L66.4727 70.8102L65.7427 71.1136L65.9118 72.3761L65.0083 71.2117L64.1091 71.1314L64.2827 70.1054L63.5527 68.7893L64.5631 69.3202L65.0127 68.593Z" fill="#48EDE7"/>
<path d="M68.7608 70.7567L69.2103 72.1085L70.2207 72.9739L69.4863 73.2773L69.6599 74.5398L68.7563 73.3754L67.8527 73.2951L68.0263 72.2691L67.3008 70.953L68.3067 71.4839L68.7608 70.7567Z" fill="#48EDE7"/>
<path d="M72.5094 72.9204L72.9589 74.2722L73.9649 75.1376L73.2349 75.441L73.404 76.7035L72.5049 75.5391L71.6013 75.4588L71.7749 74.4328L71.0449 73.1167L72.0553 73.6476L72.5094 72.9204Z" fill="#48EDE7"/>
<path d="M76.252 75.0841L76.7015 76.4358L77.712 77.3013L76.982 77.6047L77.1511 78.8672L76.252 77.7028L75.3484 77.6225L75.522 76.5965L74.792 75.2804L75.8024 75.8113L76.252 75.0841Z" fill="#48EDE7"/>
<path d="M59.7695 79.8263V80.3483L82.9645 93.7586V93.2366L59.7695 79.8263Z" fill="#C0C6FF"/>
<path d="M59.7695 81.5126V82.0345L82.9645 95.4449V94.9229L59.7695 81.5126Z" fill="#C0C6FF"/>
<path d="M59.7695 83.199V83.7209L82.9645 97.1313V96.6093L59.7695 83.199Z" fill="#C0C6FF"/>
<path d="M59.7695 84.8853V85.4072L82.9645 98.8175V98.2956L59.7695 84.8853Z" fill="#C0C6FF"/>
<path d="M59.7695 86.5671V87.0936L82.9645 100.504V99.9819L59.7695 86.5671Z" fill="#C0C6FF"/>
<path d="M59.7695 88.2535V88.78L82.9645 102.19V101.668L59.7695 88.2535Z" fill="#C0C6FF"/>
<path d="M59.7695 89.9399V90.4664L67.2697 94.8116V94.2896L59.7695 89.9399Z" fill="#C0C6FF"/>
<path d="M59.7695 76.7124V78.1266L68.5428 83.2079V81.7937L59.7695 76.7124Z" fill="#A5AFEF"/>
<path d="M45.9883 76.7168C45.9883 73.0319 48.5967 71.5285 51.7748 73.3665C54.9529 75.2045 57.5613 79.7281 57.5613 83.4086C57.5613 87.0891 54.9529 88.597 51.7748 86.7545C48.5967 84.912 45.9883 80.3973 45.9883 76.7168Z" fill="#C0C6FF"/>
<path d="M51.9313 82.3424C53.4225 83.199 54.6377 82.4986 54.6377 80.7765C54.585 79.8371 54.3126 78.9232 53.8424 78.1087C53.3723 77.2942 52.7177 76.602 51.9313 76.0878C50.4447 75.2313 49.2295 75.9317 49.2295 77.6537C49.2824 78.5926 49.5544 79.506 50.0237 80.3203C50.4929 81.1347 51.1464 81.8273 51.9313 82.3424Z" fill="white"/>
<path d="M53.1105 78.314C52.6654 79.0367 51.1787 78.8761 50.1905 78.314C49.835 78.1002 49.5101 77.839 49.2246 77.5377C49.278 75.9094 50.4709 75.2536 51.922 76.0923C52.607 76.5429 53.1939 77.1278 53.6475 77.8116C54.1011 78.4955 54.412 79.2643 54.5616 80.0717L54.3078 79.9423C53.9965 79.7818 53.7264 79.5513 53.5187 79.2688C53.311 78.9863 53.1713 78.6595 53.1105 78.314Z" fill="#3C3592"/>
<path fill-rule="evenodd" clip-rule="evenodd" d="M53.0485 81.7581V84.2474L51.1523 83.1232V80.6383L53.0485 81.7581Z" fill="white"/>
<path d="M47.5732 84.2161C47.6601 83.9439 47.7765 83.6821 47.9204 83.4354C48.0927 83.135 48.3319 82.8785 48.6192 82.6859C49.0717 82.4429 49.5866 82.3419 50.097 82.3959C50.1549 82.3959 50.6623 82.4718 50.6623 82.4718H50.7602C50.873 82.5032 50.9831 82.5435 51.0896 82.5922L52.8345 83.5424C53.8219 84.0802 54.6505 84.8693 55.2366 85.8304C55.8227 86.7914 56.1456 87.8903 56.1728 89.0163L56.2218 90.9168L47.2305 86.0095C47.2918 85.4027 47.4065 84.8026 47.5732 84.2161Z" fill="#3C3592"/>
<path d="M61.2657 93.424L61.7197 94.7757L62.7256 95.6412L61.9956 95.949L62.1648 97.2115L61.2657 96.0471L60.3621 95.9624L60.5357 94.9363L59.8057 93.6247L60.8161 94.1556L61.2657 93.424Z" fill="#48EDE7"/>
<path d="M65.0127 95.5876L65.4623 96.9394L66.4727 97.8049L65.7427 98.1127L65.9118 99.3752L65.0083 98.2108L64.1091 98.1261L64.2827 97.1045L63.5527 95.7884L64.5631 96.3193L65.0127 95.5876Z" fill="#48EDE7"/>
<path d="M68.7608 97.7515L69.2103 99.1077L70.2207 99.9687L69.4863 100.276L69.6599 101.539L68.7563 100.375L67.8527 100.29L68.0263 99.2638L67.3008 97.9522L68.3067 98.4831L68.7608 97.7515Z" fill="#C0C6FF"/>
<path d="M72.5094 99.915L72.9589 101.271L73.9649 102.132L73.2349 102.44L73.404 103.703L72.5049 102.538L71.6013 102.453L71.7749 101.432L71.0449 100.116L72.0553 100.647L72.5094 99.915Z" fill="#C0C6FF"/>
<path d="M76.252 102.079L76.7015 103.435L77.712 104.296L76.982 104.604L77.1511 105.866L76.252 104.702L75.3484 104.617L75.522 103.596L74.792 102.279L75.8024 102.81L76.252 102.079Z" fill="#C0C6FF"/>
<path d="M59.7695 104.836V105.362L82.9645 118.772V118.251L59.7695 104.836Z" fill="#C0C6FF"/>
<path d="M59.7695 106.522V107.048L82.9645 120.459V119.937L59.7695 106.522Z" fill="#C0C6FF"/>
<path d="M59.7695 108.208V108.73L82.9645 122.145V121.619L59.7695 108.208Z" fill="#C0C6FF"/>
<path d="M59.7695 109.895V110.417L82.9645 123.832V123.31L59.7695 109.895Z" fill="#C0C6FF"/>
<path d="M59.7695 111.581V112.103L82.9645 125.518V124.991L59.7695 111.581Z" fill="#C0C6FF"/>
<path d="M59.7695 113.267V113.789L82.9645 127.204V126.678L59.7695 113.267Z" fill="#C0C6FF"/>
<path d="M59.7695 114.954V115.476L67.2697 119.825V119.299L59.7695 114.954Z" fill="#C0C6FF"/>
<path d="M59.7695 101.726V103.14L68.5428 108.222V106.803L59.7695 101.726Z" fill="#A5AFEF"/>
<path d="M45.9883 101.726C45.9883 98.0458 48.5967 96.5379 51.7748 98.3804C54.9529 100.223 57.5613 104.742 57.5613 108.423C57.5613 112.103 54.9529 113.611 51.7748 111.768C48.5967 109.926 45.9883 105.411 45.9883 101.726Z" fill="#C0C6FF"/>
<path d="M51.9313 107.352C53.4225 108.213 54.6377 107.508 54.6377 105.79C54.585 104.851 54.3126 103.937 53.8424 103.122C53.3723 102.308 52.7177 101.616 51.9313 101.102C50.4447 100.241 49.2295 100.945 49.2295 102.663C49.2813 103.602 49.5529 104.516 50.0223 105.33C50.4916 106.145 51.1456 106.837 51.9313 107.352Z" fill="white"/>
<path d="M53.1105 103.328C52.6654 104.051 51.1787 103.89 50.1905 103.328C49.8351 103.116 49.5102 102.856 49.2246 102.556C49.278 100.923 50.4709 100.272 51.922 101.111C52.607 101.561 53.1939 102.146 53.6475 102.83C54.1011 103.514 54.412 104.283 54.5616 105.09L54.3078 104.956C53.9959 104.796 53.7252 104.566 53.5174 104.284C53.3096 104.001 53.1703 103.674 53.1105 103.328Z" fill="#3C3592"/>
<path fill-rule="evenodd" clip-rule="evenodd" d="M53.0485 106.772V109.257L51.1523 108.137V105.652L53.0485 106.772Z" fill="white"/>
<path d="M47.5732 109.23C47.6592 108.957 47.7757 108.696 47.9204 108.449C48.0927 108.149 48.3319 107.892 48.6192 107.7C49.0709 107.455 49.5865 107.354 50.097 107.41C50.1549 107.41 50.6623 107.486 50.6623 107.486H50.7602C50.873 107.517 50.9831 107.557 51.0896 107.606L52.8345 108.556C53.8228 109.093 54.6521 109.882 55.2384 110.843C55.8246 111.804 56.147 112.904 56.1728 114.03L56.2218 115.931L47.2305 111.023C47.291 110.417 47.4057 109.816 47.5732 109.23Z" fill="#3C3592"/>
<path d="M61.2657 118.21L61.7197 119.562L62.7256 120.428L61.9956 120.731L62.1648 121.993L61.2657 120.829L60.3621 120.749L60.5357 119.723L59.8057 118.407L60.8161 118.938L61.2657 118.21Z" fill="#48EDE7"/>
<path d="M65.0127 120.374L65.4623 121.726L66.4727 122.591L65.7427 122.895L65.9118 124.157L65.0083 122.997L64.1091 122.912L64.2827 121.886L63.5527 120.57L64.5631 121.101L65.0127 120.374Z" fill="#48EDE7"/>
<path d="M68.7608 122.538L69.2103 123.889L70.2207 124.755L69.4863 125.058L69.6599 126.321L68.7563 125.156L67.8527 125.076L68.0263 124.05L67.3008 122.734L68.3067 123.265L68.7608 122.538Z" fill="#48EDE7"/>
<path d="M72.5094 124.701L72.9589 126.053L73.9649 126.919L73.2349 127.222L73.404 128.489L72.5049 127.324L71.6013 127.24L71.7749 126.214L71.0449 124.902L72.0553 125.428L72.5094 124.701Z" fill="#C0C6FF"/>
<path d="M76.252 126.865L76.7015 128.217L77.712 129.082L76.982 129.386L77.1511 130.648L76.252 129.488L75.3484 129.404L75.522 128.377L74.792 127.066L75.8024 127.592L76.252 126.865Z" fill="#C0C6FF"/>
<path d="M10.4063 58.2787C10.5621 49.9096 17.3946 38.1097 26.8489 39.3544L76.0788 67.1074L59.467 85.3626C59.467 85.3626 10.3796 59.7197 10.4063 58.2787Z" fill="#EDEEF7"/>
<path d="M53.1104 153.146C53.0659 153.146 53.0259 153.199 52.9813 153.226L10.3525 128.98C10.0454 132.102 7.87323 135.774 5.25594 137.286C4.54143 137.737 3.71447 137.977 2.87012 137.978L47.9782 162.068C47.9782 165.334 50.2884 166.668 53.1193 165.035C55.9503 163.402 58.2604 159.392 58.2604 156.113C58.2604 152.834 55.9458 151.531 53.1104 153.146Z" fill="#EDEEF7"/>
<path d="M10.406 58.2788L10.3525 128.98L58.158 156.545L58.2871 84.6489L10.406 58.2788Z" fill="#EDEEF7"/>
<path d="M136.757 27.4564C136.051 27.2076 135.298 27.1192 134.554 27.1977C133.308 27.4001 132.1 27.7896 130.97 28.3531C124.565 31.4759 120.523 39.5953 119.967 44.3108C119.936 44.5963 119.909 44.9933 119.896 45.4439C119.896 45.5019 119.896 45.5555 119.896 45.609C119.842 47.3087 119.896 49.6241 119.896 49.6241V53.0056L140.518 64.8144L140.558 38.1856C141.426 30.5346 138.809 28.1613 136.757 27.4564Z" fill="#8D92FF"/>
<path d="M79.4345 146.954L79.3811 146.873C79.1537 146.511 78.9897 146.113 78.896 145.696C78.8533 145.505 78.8295 145.311 78.8247 145.116C78.8039 144.371 78.8336 143.626 78.9138 142.885L78.9271 107.642V103.573V77.3592C79.7862 69.6949 77.1467 67.326 75.1169 66.6167C74.4107 66.3679 73.6581 66.2795 72.9136 66.3579C72.5798 66.4115 72.2504 66.4828 71.9254 66.5631C71.0305 66.7862 70.162 67.1048 69.3349 67.5134C66.219 69.0436 63.6596 71.7426 61.7946 74.6513C59.8227 77.7295 58.6164 81.0442 58.3316 83.4666C58.2915 83.7878 58.2693 84.2518 58.2515 84.7693V84.9789C58.2069 86.6474 58.2515 88.7799 58.2515 88.7799L58.1758 130.911V135.007L80.2892 147.859C79.9422 147.623 79.6506 147.314 79.4345 146.954Z" fill="#8D92FF"/>
<path d="M110.218 125.433L110.169 125.353C109.974 125.038 109.824 124.697 109.724 124.34V124.273L109.773 59.7241C110.632 52.0598 108.015 49.6909 105.963 48.9816C105.257 48.7328 104.504 48.6444 103.759 48.7228C102.521 48.927 101.321 49.3165 100.199 49.8783C93.7933 53.0011 89.7517 61.1204 89.1953 65.8359C89.1597 66.1214 89.1374 66.5229 89.1196 66.9735C89.1196 67.0271 89.1196 67.0806 89.1196 67.1386C89.0662 68.8338 89.1196 71.1537 89.1196 71.1537L89.0439 109.399V113.495L111.126 126.325C110.761 126.099 110.451 125.794 110.218 125.433Z" fill="#8D92FF"/>
<path d="M48.6237 164.567C48.6058 164.541 48.5894 164.514 48.5747 164.486C48.3439 164.125 48.1782 163.727 48.0851 163.309C48.0425 163.118 48.0186 162.924 48.0139 162.729C47.9936 161.972 48.0248 161.215 48.1074 160.462L6.47116 136.403L0.168309 132.758L0.141602 134.48C0.204653 135.022 0.296777 135.559 0.417574 136.091C0.64297 136.674 1.02503 137.184 1.52146 137.563L49.5006 165.441C49.1488 165.216 48.8497 164.918 48.6237 164.567Z" fill="#8D92FF"/>
<path d="M28.2783 96.9126V97.439L51.4778 110.849V110.323L28.2783 96.9126Z" fill="#C0C6FF"/>
<path d="M28.2783 98.599V99.121L51.4778 112.536V112.009L28.2783 98.599Z" fill="#C0C6FF"/>
<path d="M28.2783 100.285V100.807L51.4778 114.222V113.696L28.2783 100.285Z" fill="#C0C6FF"/>
<path d="M28.2783 101.972V102.494L51.4778 115.904V115.382L28.2783 101.972Z" fill="#C0C6FF"/>
<path d="M28.2783 103.658V104.18L51.4778 117.59V117.068L28.2783 103.658Z" fill="#C0C6FF"/>
<path d="M28.2783 105.344V105.866L51.4778 119.277V118.755L28.2783 105.344Z" fill="#C0C6FF"/>
<path d="M28.2783 107.031V107.553L35.7785 111.898V111.376L28.2783 107.031Z" fill="#C0C6FF"/>
<path d="M28.2783 93.7988V95.2175L37.0516 100.294V98.8801L28.2783 93.7988Z" fill="#A5AFEF"/>
<path d="M14.5195 93.8121C14.5195 90.1316 17.1279 88.6237 20.306 90.4662C23.4842 92.3087 26.0926 96.8234 26.0926 100.508C26.0926 104.193 23.4842 105.697 20.306 103.854C17.1279 102.012 14.5195 97.4836 14.5195 93.8121Z" fill="#C0C6FF"/>
<path d="M19.8252 93.4553C19.8252 93.4553 15.8814 91.0641 17.4749 99.5315L23.4796 102.989C23.4796 102.989 24.9306 95.2086 21.6501 94.0308C18.3696 92.8531 19.8252 93.4553 19.8252 93.4553Z" fill="#3C3592"/>
<path d="M20.4436 99.4288C21.9303 100.29 23.1499 99.5849 23.1499 97.8673C23.0962 96.9281 22.8233 96.0146 22.3533 95.2003C21.8833 94.386 21.2292 93.6936 20.4436 93.1787C18.9569 92.3176 17.7373 93.0225 17.7373 94.7401C17.7903 95.6795 18.0629 96.5932 18.533 97.4076C19.0031 98.2221 19.6575 98.9144 20.4436 99.4288Z" fill="white"/>
<path d="M21.6276 95.4048C21.1825 96.1275 19.6958 95.9669 18.7077 95.4048C18.3509 95.1927 18.0244 94.9331 17.7373 94.633C17.7952 93.0002 18.9836 92.3489 20.4392 93.1876C21.7256 93.9326 23.0342 95.3334 23.0787 97.167C23.0787 97.0733 22.9096 97.0822 22.825 97.0331C22.5115 96.8755 22.2396 96.6458 22.0316 96.3628C21.8235 96.0798 21.6851 95.7516 21.6276 95.4048Z" fill="#3C3592"/>
<path fill-rule="evenodd" clip-rule="evenodd" d="M21.5564 98.8489V101.334L19.6602 100.214V97.7291L21.5564 98.8489Z" fill="white"/>
<path d="M16.0855 101.307C16.1691 101.034 16.2841 100.772 16.4282 100.526C16.6018 100.226 16.8406 99.9679 17.127 99.7723C17.5801 99.5311 18.0948 99.4316 18.6048 99.4867C18.6671 99.4867 19.1746 99.5626 19.1746 99.5626L19.2681 99.5849C19.3818 99.6161 19.4933 99.6549 19.6019 99.7009L21.3468 100.656C22.3339 101.194 23.1622 101.983 23.7483 102.944C24.3343 103.905 24.6575 105.004 24.6851 106.129L24.7296 108.025L15.7383 103.118C15.7993 102.505 15.9155 101.899 16.0855 101.307Z" fill="#48EDE7"/>
<path d="M29.7774 110.515L30.2269 111.867L31.2373 112.732L30.5029 113.035L30.6765 114.298L29.7729 113.134L28.8738 113.053L29.0474 112.027L28.3174 110.711L29.3233 111.242L29.7774 110.515Z" fill="#48EDE7"/>
<path d="M33.5254 112.678L33.975 114.03L34.9809 114.896L34.251 115.199L34.4245 116.462L33.521 115.302L32.6174 115.217L32.791 114.191L32.0654 112.875L33.0714 113.406L33.5254 112.678Z" fill="#48EDE7"/>
<path d="M37.274 114.842L37.7191 116.194L38.7295 117.059L37.9995 117.363L38.1687 118.625L37.2696 117.465L36.366 117.381L36.5396 116.355L35.8096 115.039L36.82 115.569L37.274 114.842Z" fill="#C0C6FF"/>
<path d="M41.0166 117.006L41.4662 118.358L42.4766 119.223L41.7466 119.526L41.9158 120.793L41.0166 119.629L40.113 119.544L40.2866 118.518L39.5566 117.207L40.5671 117.733L41.0166 117.006Z" fill="#C0C6FF"/>
<path d="M44.7647 119.17L45.2142 120.521L46.2247 121.387L45.4902 121.695L45.6638 122.957L44.7602 121.793L43.8566 121.708L44.0302 120.682L43.3047 119.37L44.3107 119.897L44.7647 119.17Z" fill="#C0C6FF"/>
<path d="M28.2783 121.927V122.448L51.4778 135.859V135.337L28.2783 121.927Z" fill="#C0C6FF"/>
<path d="M28.2783 123.613V124.135L51.4778 137.545V137.023L28.2783 123.613Z" fill="#C0C6FF"/>
<path d="M28.2783 125.299V125.821L51.4778 139.231V138.71L28.2783 125.299Z" fill="#C0C6FF"/>
<path d="M28.2783 126.985V127.507L51.4778 140.918V140.396L28.2783 126.985Z" fill="#C0C6FF"/>
<path d="M28.2783 128.672V129.194L51.4778 142.604V142.082L28.2783 128.672Z" fill="#C0C6FF"/>
<path d="M28.2783 130.358V130.88L51.4778 144.29V143.769L28.2783 130.358Z" fill="#C0C6FF"/>
<path d="M28.2783 132.045V132.567L35.7785 136.912V136.39L28.2783 132.045Z" fill="#C0C6FF"/>
<path d="M28.2783 118.813V120.227L37.0516 125.308V123.894L28.2783 118.813Z" fill="#A5AFEF"/>
<path d="M14.5195 118.817C14.5195 115.137 17.1279 113.629 20.306 115.471C23.4842 117.314 26.0926 121.828 26.0926 125.509C26.0926 129.189 23.4842 130.697 20.306 128.859C17.1279 127.021 14.5195 122.498 14.5195 118.817Z" fill="#C0C6FF"/>
<path d="M20.4436 124.443C21.9303 125.299 23.1499 124.599 23.1499 122.881C23.0972 121.942 22.8248 121.028 22.3547 120.213C21.8846 119.399 21.2299 118.707 20.4436 118.193C18.9569 117.332 17.7373 118.036 17.7373 119.754C17.791 120.693 18.0639 121.607 18.5339 122.421C19.0039 123.235 19.658 123.928 20.4436 124.443Z" fill="white"/>
<path d="M21.6276 120.414C21.1825 121.137 19.6958 120.981 18.7077 120.414C18.3509 120.202 18.0244 119.943 17.7373 119.643C17.7952 118.01 18.9836 117.358 20.4392 118.197C21.1243 118.648 21.7113 119.232 22.165 119.916C22.6186 120.6 22.9294 121.369 23.0787 122.176C22.9941 122.136 22.9096 122.087 22.825 122.043C22.5115 121.885 22.2396 121.655 22.0316 121.372C21.8235 121.089 21.6851 120.761 21.6276 120.414Z" fill="#3C3592"/>
<path fill-rule="evenodd" clip-rule="evenodd" d="M21.5564 123.858V126.348L19.6602 125.228V122.739L21.5564 123.858Z" fill="white"/>
<path d="M16.0858 126.316C16.1703 126.045 16.2853 125.785 16.4285 125.54C16.6021 125.239 16.8409 124.982 17.1274 124.786C17.5807 124.546 18.0948 124.445 18.6052 124.496L19.1749 124.572L19.2817 124.594C19.3962 124.625 19.5078 124.665 19.6156 124.715L21.3604 125.665C22.3467 126.204 23.1743 126.994 23.7602 127.954C24.3461 128.915 24.6698 130.013 24.6988 131.139L24.7433 133.039L15.752 128.132C15.809 127.518 15.9207 126.91 16.0858 126.316Z" fill="#3C3592"/>
<path d="M29.7774 135.297L30.2269 136.648L31.2373 137.514L30.5029 137.822L30.6765 139.084L29.7729 137.92L28.8738 137.835L29.0474 136.809L28.3174 135.498L29.3233 136.028L29.7774 135.297Z" fill="#48EDE7"/>
<path d="M33.5254 137.46L33.975 138.817L34.9809 139.678L34.251 139.985L34.4245 141.248L33.521 140.084L32.6174 139.999L32.791 138.977L32.0654 137.661L33.0714 138.192L33.5254 137.46Z" fill="#48EDE7"/>
<path d="M37.274 139.624L37.7191 140.98L38.7295 141.841L37.9995 142.149L38.1687 143.412L37.2696 142.247L36.366 142.163L36.5396 141.141L35.8096 139.825L36.82 140.356L37.274 139.624Z" fill="#48EDE7"/>
<path d="M41.0166 141.792L41.4662 143.144L42.4766 144.005L41.7466 144.313L41.9158 145.575L41.0166 144.411L40.113 144.326L40.2866 143.305L39.5566 141.989L40.5671 142.519L41.0166 141.792Z" fill="#C0C6FF"/>
<path d="M44.7647 143.956L45.2142 145.308L46.2247 146.173L45.4902 146.477L45.6638 147.739L44.7602 146.575L43.8566 146.49L44.0302 145.468L43.3047 144.152L44.3107 144.683L44.7647 143.956Z" fill="#C0C6FF"/>
<path d="M28.2783 70.6318V71.1538L51.4778 84.5641V84.0422L28.2783 70.6318Z" fill="#C0C6FF"/>
<path d="M28.2783 72.3182V72.8402L51.4778 86.2505V85.7286L28.2783 72.3182Z" fill="#C0C6FF"/>
<path d="M28.2783 74V74.5264L51.4778 87.9368V87.4148L28.2783 74Z" fill="#C0C6FF"/>
<path d="M28.2783 75.6908V76.2128L51.4778 89.6231V89.1011L28.2783 75.6908Z" fill="#C0C6FF"/>
<path d="M28.2783 77.3727V77.8991L51.4778 91.3094V90.7875L28.2783 77.3727Z" fill="#C0C6FF"/>
<path d="M28.2783 79.059V79.5854L51.4778 92.9957V92.4738L28.2783 79.059Z" fill="#C0C6FF"/>
<path d="M28.2783 80.7454V81.2718L35.7785 85.617V85.095L28.2783 80.7454Z" fill="#C0C6FF"/>
<path d="M28.2783 67.5178V68.932L37.0516 74.0133V72.5991L28.2783 67.5178Z" fill="#A5AFEF"/>
<path d="M14.5195 67.5179C14.5195 63.8374 17.1279 62.334 20.306 64.172C23.4842 66.01 26.0926 70.5337 26.0926 74.2141C26.0926 77.8946 23.4842 79.4025 20.306 77.56C17.1279 75.7176 14.5195 71.2028 14.5195 67.5179Z" fill="#C0C6FF"/>
<path d="M20.4436 73.1435C21.9303 74.0045 23.1499 73.3041 23.1499 71.5821C23.0962 70.6429 22.8233 69.7294 22.3533 68.9151C21.8833 68.1007 21.2292 67.4083 20.4436 66.8934C18.9569 66.0368 17.7373 66.7372 17.7373 68.4593C17.7903 69.3981 18.0629 70.3112 18.533 71.1249C19.0032 71.9386 19.6576 72.6301 20.4436 73.1435Z" fill="white"/>
<path d="M21.6276 69.1194C21.1825 69.8421 19.6958 69.6815 18.7077 69.1194C18.3499 68.9088 18.0233 68.649 17.7373 68.3476C17.7952 66.7193 18.9836 66.0635 20.4392 66.9022C21.1234 67.3536 21.7098 67.9387 22.1634 68.6224C22.6169 69.3062 22.9282 70.0745 23.0787 70.8816L22.825 70.7522C22.511 70.5941 22.2388 70.3638 22.0306 70.08C21.8225 69.7962 21.6844 69.467 21.6276 69.1194Z" fill="#3C3592"/>
<path fill-rule="evenodd" clip-rule="evenodd" d="M21.5564 72.5635V75.0484L19.6602 73.9286V71.4437L21.5564 72.5635Z" fill="white"/>
<path d="M16.0858 75.0216C16.1711 74.7496 16.286 74.4878 16.4285 74.2409C16.6023 73.9416 16.8411 73.6854 17.1274 73.4914C17.58 73.249 18.0947 73.148 18.6052 73.2015C18.6675 73.2015 19.1749 73.2773 19.1749 73.2773L19.2817 73.2907C19.3962 73.3214 19.5078 73.3617 19.6156 73.4111L21.3604 74.3614C22.347 74.9002 23.1748 75.6896 23.7608 76.6504C24.3467 77.6112 24.6702 78.7095 24.6988 79.8352L24.7433 81.7357L15.752 76.8284C15.8093 76.2174 15.921 75.6127 16.0858 75.0216Z" fill="#3C3592"/>
<path d="M29.7774 83.5156L30.2269 84.8674L31.2373 85.7328L30.5029 86.0362L30.6765 87.3032L29.7729 86.1388L28.8738 86.0541L29.0474 85.028L28.3174 83.7164L29.3233 84.2473L29.7774 83.5156Z" fill="#48EDE7"/>
<path d="M33.5254 85.6794L33.975 87.0312L34.9809 87.8967L34.251 88.2045L34.4245 89.467L33.521 88.3026L32.6174 88.2179L32.791 87.1918L32.0654 85.8802L33.0714 86.4111L33.5254 85.6794Z" fill="#48EDE7"/>
<path d="M37.274 87.843L37.7191 89.1948L38.7295 90.0602L37.9995 90.3681L38.1687 91.6306L37.2696 90.4662L36.366 90.3814L36.5396 89.3554L35.8096 88.0438L36.82 88.5747L37.274 87.843Z" fill="#48EDE7"/>
<path d="M41.0166 90.0067L41.4662 91.3585L42.4766 92.2239L41.7466 92.5318L41.9158 93.7943L41.0166 92.6299L40.113 92.5451L40.2866 91.5235L39.5566 90.2075L40.5671 90.7384L41.0166 90.0067Z" fill="#48EDE7"/>
<path d="M44.7647 92.1704L45.2142 93.5266L46.2247 94.3876L45.4902 94.6954L45.6638 95.958L44.7602 94.7936L43.8566 94.7088L44.0302 93.6872L43.3047 92.3712L44.3107 92.902L44.7647 92.1704Z" fill="#48EDE7"/>
<path d="M19.793 71.1938L19.8152 71.5463L20.8568 72.153L20.8301 71.7649L19.793 71.1938Z" fill="#3C3592"/>
</svg>
