<svg width="321" height="199" fill="none" xmlns="http://www.w3.org/2000/svg"><path d="M162.619 82.213c9.701 0 17.565-7.186 17.565-16.05 0-8.865-7.864-16.05-17.565-16.05s-17.565 7.185-17.565 16.05c0 8.864 7.864 16.05 17.565 16.05z" fill="#78E7FF"/><path d="M193.661 213.189s-37.402 14.99-63.901.303l.245-4.24 2.284-39.369 2.159-37.248 2.58-44.517h49.668l2.386 44.517 1.999 37.248 2.111 39.369.469 3.937z" fill="#3F3D56"/><path d="M191.081 169.883h-58.793l2.159-37.248h54.635l1.999 37.248z" fill="#78E7FF"/><path d="M189.724 83.272h-55.725v6.057h55.725v-6.056zM189.724 62.983h-55.725v6.056h55.725v-6.056z" fill="#3F3D56"/><path d="M142.176 69.04h-3.331v15.747h3.331V69.039zM150.959 69.04h-3.331v15.747h3.331V69.039zM159.742 69.04h-3.332v15.747h3.332V69.039zM168.525 69.04h-3.332v15.747h3.332V69.039zM177.307 69.04h-3.331v15.747h3.331V69.039zM150.959 44.964h-3.331v20.744h3.331V44.964zM159.742 44.964h-3.332v20.744h3.332V44.964zM168.525 44.964h-3.332v20.744h3.332V44.964zM177.307 44.964h-3.331v20.744h3.331V44.964zM186.089 69.04h-3.331v15.747h3.331V69.039zM142.328 47.387h-3.331V65.86h3.331V47.387zM186.242 47.387h-3.332V65.86h3.332V47.387z" fill="#3F3D56"/><path d="M189.876 50.87h-55.725V32.698l27.863-22.561 27.862 22.561v18.17z" fill="#3F3D56"/><path opacity=".3" d="M162.619 112.707c25.874 0 46.85-20.975 46.85-46.848 0-25.872-20.976-46.847-46.85-46.847-25.874 0-46.849 20.974-46.849 46.847s20.975 46.848 46.849 46.848z" fill="#78E7FF"/><path opacity=".1" d="M162.619 130.969c35.961 0 65.113-29.15 65.113-65.11C227.732 29.901 198.58.75 162.619.75S97.506 29.9 97.506 65.86c0 35.959 29.152 65.109 65.113 65.109z" fill="#78E7FF"/></svg>