<svg width="72" height="43" viewBox="0 0 72 43" fill="none" xmlns="http://www.w3.org/2000/svg">
<path d="M26.4935 25.65L2.13335 40.2732C1.97658 40.3673 1.78937 40.3983 1.61027 40.3597C1.43116 40.3211 1.2738 40.2159 1.17058 40.0658C0.656508 39.3197 0.300959 38.4778 0.125566 37.5912C-0.0498262 36.7046 -0.0413943 35.7919 0.150349 34.9087C0.342092 34.0254 0.713138 33.19 1.24091 32.4534C1.76867 31.7168 2.44213 31.0943 3.22029 30.6239L17.7775 21.7974C17.9359 21.7017 18.1254 21.6703 18.3065 21.7097L26.1311 23.4362C26.3696 23.4878 26.5868 23.6094 26.7546 23.785C26.9224 23.9606 27.0331 24.1822 27.0721 24.4209C27.1112 24.6597 27.0769 24.9046 26.9737 25.1238C26.8705 25.343 26.7032 25.5263 26.4935 25.65Z" fill="white"/>
<path d="M25.4736 23.2969C22.8075 22.7089 20.7983 25.6883 22.3426 27.9397C22.3553 27.9573 22.3741 27.9697 22.3955 27.9744C22.4169 27.979 22.4392 27.9757 22.4582 27.965L28.8983 24.2051C28.9134 24.1963 28.9256 24.1833 28.9331 24.1676C28.9406 24.1519 28.9432 24.1343 28.9404 24.1171C28.9376 24.1 28.9297 24.0841 28.9176 24.0715C28.9055 24.0589 28.8899 24.0502 28.8727 24.0466L25.4736 23.2969Z" fill="white"/>
<path d="M22.791 28.2302L29.2957 24.3453L35.8973 35.0079C36.2302 35.5265 36.4548 36.106 36.5581 36.7121C36.6613 37.3182 36.6409 37.9386 36.4982 38.5368C36.3555 39.1349 36.0934 39.6987 35.7272 40.1948C35.361 40.6908 34.8983 41.1092 34.3664 41.4251L33.0753 42.1922C32.9326 42.2772 32.7623 42.3045 32.5998 42.2684C32.4374 42.2323 32.2952 42.1356 32.2027 41.9983L22.791 28.2302Z" fill="white"/>
<path d="M20.7902 18.9193L42.9662 5.4528C43.122 5.35693 43.3091 5.32412 43.4886 5.36115C43.6681 5.39819 43.8264 5.50224 43.9307 5.65176C44.448 6.39386 44.8078 7.23244 44.9882 8.11658C45.1685 9.00072 45.1657 9.91197 44.9799 10.795C44.7941 11.678 44.4292 12.5144 43.9073 13.2534C43.3854 13.9923 42.7174 14.6184 41.9439 15.0937L29.5266 22.7012C29.3686 22.7979 29.1791 22.8305 28.9976 22.7922L21.1729 21.1163C20.9377 21.0642 20.7234 20.9441 20.5572 20.7712C20.391 20.5982 20.2804 20.3802 20.2394 20.1448C20.1984 19.9094 20.2289 19.6673 20.3269 19.4491C20.425 19.2309 20.5862 19.0465 20.7902 18.9193Z" fill="white"/>
<path d="M21.8339 21.2652C24.5034 21.8357 26.4927 18.8433 24.9335 16.6026C24.9208 16.585 24.9019 16.5726 24.8805 16.568C24.8592 16.5633 24.8368 16.5666 24.8178 16.5773L18.4033 20.3794C18.3889 20.3888 18.3776 20.4021 18.3707 20.4177C18.3638 20.4334 18.3616 20.4507 18.3645 20.4675C18.3674 20.4843 18.3752 20.4999 18.3869 20.5125C18.3987 20.525 18.4138 20.5338 18.4305 20.5379L21.8339 21.2652Z" fill="white"/>
<path d="M24.6044 16.0576L18.1959 19.9609L10.5839 7.23455C10.2475 6.71812 10.019 6.14012 9.91175 5.53469C9.80449 4.92925 9.82072 4.30865 9.95946 3.70953C10.0982 3.11041 10.3566 2.54492 10.7195 2.04645C11.0824 1.54799 11.5424 1.12664 12.0723 0.807304L13.2154 0.116021C13.394 0.00839991 13.6079 -0.0260886 13.8117 0.0198579C14.0155 0.0658044 14.1933 0.188579 14.3074 0.362185L24.6044 16.0576Z" fill="white"/>
<path d="M49.3154 22.7499V22.0856H57.1128V21.1364H58.1658V22.0856H60.5098V22.7499H58.1658V24.8828C58.1964 25.8944 57.702 26.3845 56.6825 26.3531H55.2468V25.6887H56.395C56.9053 25.7202 57.1446 25.483 57.1128 24.9772V22.7499H49.3154ZM50.7494 18.6714V18.0526H58.261V16.7746H50.416V16.1103H59.3139V19.1452C59.3775 20.1883 58.8354 20.6941 57.6878 20.6626H50.2714V20.0455H57.4003C58.0059 20.0781 58.2928 19.8095 58.261 19.2396V18.6714H50.7494ZM52.663 25.4055C52.3708 24.6849 51.9693 24.0129 51.4723 23.4126H52.3347C52.8884 23.9994 53.3407 24.6728 53.6734 25.4055H52.663Z" fill="white"/>
<path d="M62.3281 26.3531V16.9635H65.6757C65.6823 16.9134 65.6991 16.8653 65.725 16.8218C65.867 16.4193 65.9807 16.0075 66.0652 15.5893H67.1658C67.0902 16.0656 66.9452 16.5285 66.7354 16.9635H71.9983V24.8357C72.029 25.8473 71.471 26.3374 70.3246 26.3059H69.4026V25.6399H70.1204C70.726 25.6714 71.0129 25.4027 70.9811 24.834V17.675H63.3266V26.3531H62.3281ZM64.8626 23.8881V19.4774H69.4553V22.4651C69.4882 23.4452 68.9938 23.9196 67.9721 23.8881H64.8626ZM65.8203 23.2238H67.7339C68.2442 23.2238 68.4994 22.9551 68.4994 22.4179V20.0945H65.8203V23.2238Z" fill="white"/>
<path d="M49.4365 31.6423L50.651 30.1248L49.5624 28.6731H49.9536L50.8603 29.9444L51.7805 28.6748H52.1717L51.0695 30.1265L52.2823 31.644H51.8826L50.862 30.317L49.8295 31.644L49.4365 31.6423Z" fill="white"/>
<path d="M52.548 30.4114V28.6748H52.8695V30.4721C52.8695 31.1555 53.1717 31.4967 53.7761 31.4956C54.3998 31.5225 54.702 31.1814 54.6827 30.4721V28.6748H55.0042V30.403C55.0314 31.3022 54.6175 31.74 53.7625 31.7164C52.9449 31.7232 52.54 31.2882 52.548 30.4114Z" fill="white"/>
<path d="M55.4922 31.6574V28.6748H55.795L57.6082 31.219V28.6748H57.9161V31.6625H57.6082L55.795 29.1334V31.6625L55.4922 31.6574Z" fill="white"/>
<path d="M59.3428 31.6423L60.5573 30.1248L59.4687 28.6748H59.8599L60.7665 29.9461L61.6868 28.6748H62.078L60.9757 30.1265L62.1903 31.6439H61.7854L60.7648 30.317L59.7323 31.6439L59.3428 31.6423Z" fill="white"/>
<path d="M62.4287 31.6422V28.6748H62.7366V31.6422H62.4287Z" fill="white"/>
<path d="M62.999 31.6423L64.2561 28.6748H64.6048L65.8737 31.6473H65.5335L65.1508 30.7301H63.7134L63.3358 31.6423H62.999ZM64.4364 28.9732L63.8087 30.5295H65.0657L64.4364 28.9732Z" fill="white"/>
<path d="M66.1387 31.6574V28.6748H66.4466L68.2598 31.219V28.6748H68.5677V31.6625H68.2598L66.4466 29.1334V31.6625L66.1387 31.6574Z" fill="white"/>
<path d="M71.7621 29.5263H71.4134C71.2546 29.0654 70.9144 28.835 70.3928 28.835C69.7038 28.8822 69.3364 29.3408 69.2905 30.1839C69.3359 30.9954 69.7265 31.4287 70.4625 31.4838C70.9365 31.4838 71.2671 31.3455 71.4542 31.069V30.2951H70.4234V30.0726H71.7621V31.1651C71.5012 31.5158 71.0732 31.6912 70.4778 31.6912C69.5207 31.6451 69.0183 31.1393 68.9707 30.1737C69.0081 29.1868 69.4872 28.6703 70.4081 28.6243C71.0987 28.6186 71.55 28.9193 71.7621 29.5263Z" fill="white"/>
</svg>
