<svg xmlns="http://www.w3.org/2000/svg" viewBox="0 0 499.76 245.61"><defs><style>.cls-1{fill:#9179aa;}.cls-2{fill:#ffdf81;}.cls-3{fill:#9fd3f1;}.cls-4{fill:#f38762;}.cls-5{font-size:72px;}.cls-5,.cls-6{fill:#231f20;font-family:FZZHJW--GB1-0, FZZhengHeiS-R-GB;}.cls-6{font-size:21px;}</style></defs><g id="Layer_2" data-name="Layer 2"><g id="Layer_1-2" data-name="Layer 1"><path class="cls-1" d="M155.74,148.86,12.53,235.58a4.2,4.2,0,0,1-5.66-1.22h0a39.5,39.5,0,0,1,12.05-56l85.58-52.35a4.23,4.23,0,0,1,3.11-.52l46,10.24A7.15,7.15,0,0,1,155.74,148.86Z"/><path class="cls-2" d="M106.74,126.32,131,162a1.05,1.05,0,0,0,1.42.32L168.6,141a1.07,1.07,0,0,0-.31-2l-61-13.57A.55.55,0,0,0,106.74,126.32Z"/><path class="cls-2" d="M130.61,161.43l38.24-22,38.81,63.24a27.29,27.29,0,0,1-9,38.06L191.54,245a4.36,4.36,0,0,1-5.88-1.32Z"/><path class="cls-3" d="M122.21,108.94,252.58,29.06a4.21,4.21,0,0,1,5.67,1.19h0a39.49,39.49,0,0,1-11.68,56l-73,45.12a4.24,4.24,0,0,1-3.11.53l-46-9.93A7.15,7.15,0,0,1,122.21,108.94Z"/><path class="cls-4" d="M171.36,131.14,146.87,95.63a1.07,1.07,0,0,0-1.43-.31l-36,21.55a1.08,1.08,0,0,0,.33,2L170.78,132A.56.56,0,0,0,171.36,131.14Z"/><path class="cls-4" d="M147.82,97,109,118.19,64.25,42.71A27.29,27.29,0,0,1,73,4.59L79.25.77a5.29,5.29,0,0,1,7.19,1.64Z"/><text class="cls-5" transform="translate(286.81 146.84)">寻向</text><text class="cls-6" transform="translate(290.54 183.09)">XUN XIANG </text></g></g></svg>