<svg xmlns="http://www.w3.org/2000/svg" viewBox="0 0 499.76 245.61"><defs><style>.cls-2{fill:#ffdf81}.cls-4{fill:#f38762}</style></defs><g id="Layer_2" data-name="Layer 2"><g id="Layer_1-2" data-name="Layer 1"><path d="M155.74 148.86L12.53 235.58a4.2 4.2 0 01-5.66-1.22 39.5 39.5 0 0112.05-56l85.58-52.35a4.23 4.23 0 013.11-.52l46 10.24a7.15 7.15 0 012.13 13.13z" fill="#9179aa"/><path class="cls-2" d="M106.74 126.32L131 162a1.05 1.05 0 001.42.32L168.6 141a1.07 1.07 0 00-.31-2l-61-13.57a.55.55 0 00-.55.89z"/><path class="cls-2" d="M130.61 161.43l38.24-22 38.81 63.24a27.29 27.29 0 01-9 38.06l-7.12 4.27a4.36 4.36 0 01-5.88-1.32z"/><path d="M122.21 108.94l130.37-79.88a4.21 4.21 0 015.67 1.19 39.49 39.49 0 01-11.68 56l-73 45.12a4.24 4.24 0 01-3.11.53l-46-9.93a7.15 7.15 0 01-2.25-13.03z" fill="#9fd3f1"/><path class="cls-4" d="M171.36 131.14l-24.49-35.51a1.07 1.07 0 00-1.43-.31l-36 21.55a1.08 1.08 0 00.33 2L170.78 132a.56.56 0 00.58-.86z"/><path class="cls-4" d="M147.82 97L109 118.19 64.25 42.71A27.29 27.29 0 0173 4.59L79.25.77a5.29 5.29 0 017.19 1.64z"/><text transform="translate(286.81 146.84)" fill="#231f20" font-family="FZZHJW--GB1-0,FZZhengHeiS-R-GB" font-size="72">寻向</text><text transform="translate(290.54 183.09)" font-size="21" fill="#231f20" font-family="FZZHJW--GB1-0,FZZhengHeiS-R-GB">XUN XIANG</text></g></g></svg>