<svg xmlns="http://www.w3.org/2000/svg" viewBox="0 0 1440 595.6"><defs><clipPath id="clip-path"><path d="M0 0h1440v404.36C992.42 655.69 293.51 587.91 0 522.61z" fill="none"/></clipPath><style>.cls-12{fill:none}.cls-4{fill:#15466f}.cls-5{fill:#ffc6bb}.cls-7{fill:#ea7466}.cls-10{fill:#fff}.cls-11{fill:#424242}.cls-12{stroke:#424242;stroke-linecap:round;stroke-miterlimit:10;stroke-width:.75px}</style></defs><g id="Layer_2" data-name="Layer 2"><g id="Layer_1-2" data-name="Layer 1"><path d="M0 0h1440v404.36C992.42 655.69 293.51 587.91 0 522.61z" fill="#cb5252"/><g clip-path="url(#clip-path)"><path class="cls-4" d="M1140 274s-22-56.22 31.65-37.64c44.63 15.44 24 57.25 16.2 59.32z"/><path class="cls-5" d="M1248.51 571.84s-2 8.29-3.91 20.76c-.41 2.28 12.66 5 18.64.75 2.82-2.68 3.78-12.77 3.9-16 .17-4.74-1.14-17-1.14-17s-4.83-7.42-12-3.23c0 0-12.5 8.92-13 12.8-.52 4.39-4 9.8-2.67 10.59 2.34 1.3 7.92-2.18 10.18-8.67zM1007.1 351.13s-7.21-13.12-9.86-15.38c-3.92-3.35-18.57-12.35-20.16-11.13a2.93 2.93 0 00-.48 3c.43.86 10.23 9.84 10.23 9.84s-4.59 1.08-5.7 3.51c-.8 1.79 1 12.3 2.21 14.37 1.43 2.46 13.08 4.49 13.08 4.49l2.76.79s3.95-.8 7.92-9.49z"/><path class="cls-5" d="M1276.48 446.6c-2.82-19.45-26-96.72-38.25-104.94-12.55-8.4-40.43-8.65-60.9-10.75-20.17-2.07-52.08 2.44-61.68 7.18-13 6.35-51.77 55.56-58.37 56.24-7.69.57-28.48-24.5-50.18-43.2l-10.67 8.72s49.55 74.95 62.17 74.2c6.86-.41 36.69-21.29 51.24-31.28-2.79 45.5-8.95 134.18-8.95 134.18 73.21 19.09 139.67 0 139.67 0-2.28-65.82-3-117.34-3-117.34s6.63 25.85 8.37 36c2.61 15.26 5.6 103.44 5.6 103.44l14.49 1.33c5.79-24.87 11.98-103.38 10.46-113.78z"/><path d="M1276.48 446.6c-2.82-19.45-26-96.72-38.25-104.94-12.55-8.4-40.43-8.65-60.9-10.75-20.17-2.07-52.08 2.44-61.68 7.18-13 6.35-51.77 55.56-58.37 56.24-3.48.26-9.64-4.75-17.36-12l-14.64 18.19c13.27 17.47 27.38 33.88 33.32 33.52 6.86-.42 36.69-21.29 51.24-31.27-2.8 45.49-8.95 134.17-8.95 134.17 73.21 19.1 139.67 0 139.67 0-2.28-65.81-3-117.34-3-117.34s6.63 25.85 8.37 36c1.15 6.73 2.37 27.63 3.39 48.9l24 1.86c2.46-27.03 4.01-53.95 3.16-59.76z" fill="#f77"/><path class="cls-7" d="M1021.76 402.37l6.7 6.52 17.22-24.28-4.68-5.71zM1247.37 501.2l-.71 9.79 28.14.25 1.3-7.55z"/><path d="M1182.86 331.45l-1.15-33.67h-23.83l-.25 33.09 4.84 14.62c2.09 6.31 10 6.94 12.94 1z" fill="#ffaca4"/><path class="cls-5" d="M1140 274s5.74 42.32 13 43.22c21.27 2.61 35.43-27.09 35.43-27.09s4.2-1.05 6.29-8.78c1.68-6.12-2.11-10.24-5.1-4.32a3.14 3.14 0 01-2.83-1.08s1.06-8.62-.31-13.91-34.71 16.08-45.22-1.11c.01.01-1.96 4.43-1.26 13.07z"/><path d="M1162.54 290.59a22.75 22.75 0 00-2.82-1.17l-1.71-.59.06-.12c.16-.37.31-.74.47-1.13a47.92 47.92 0 002.5-7.4 45.65 45.65 0 00-3.41 7q-.24.58-.45 1.14c-.13.33-.26.64-.39.95l-.09.26v.06h.2l.51.12.72.17.49.11 1 .2a19 19 0 002.92.4z" fill="#a85e59"/><path class="cls-10" d="M1169.84 281.92a3.48 3.48 0 103.47-3.79 3.65 3.65 0 00-3.47 3.79z"/><path class="cls-11" d="M1173.59 283.93a2.13 2.13 0 10-1.94-2.12 2.05 2.05 0 001.94 2.12z"/><path class="cls-10" d="M1146.08 281.92a3.48 3.48 0 103.47-3.79 3.65 3.65 0 00-3.47 3.79z"/><path class="cls-11" d="M1149.83 284.15a2.13 2.13 0 10-1.94-2.12 2 2 0 001.94 2.12z"/><path class="cls-12" d="M1177.28 277.06a6.73 6.73 0 00-6.68-.37M1145.74 277.06a6.71 6.71 0 016.67-.37"/><path class="cls-4" d="M1143.4 293.51s25.6.75 39.47-1c1.06-1.34 2.64-8.46 3.19-9.43s2.72-.49 3.16 0-1.42 15.4-3.88 26-35.21 15.43-36.89 8.35c-2.71-11.25-5.05-23.92-5.05-23.92z"/><path class="cls-10" d="M1155 295.79l9.44-.08s-.72 4.1-4.69 4.13-4.75-4.05-4.75-4.05z"/></g></g></g></svg>