<svg width="565" height="375" viewBox="0 0 565 375" fill="none" xmlns="http://www.w3.org/2000/svg">
<path d="M24.4618 374.966C24.4618 374.966 -52.8222 207.584 99.4958 207.584C179.973 207.584 146.822 161.66 201.535 108.512C256.248 55.364 447.603 12.9012 488.319 115.533C529.035 218.164 428.406 296.088 525.664 282.72C642.54 266.657 688.709 374.966 688.709 374.966H24.4618Z" fill="#EEF4FF"/>
<path d="M650.397 353.729C643.185 348.369 628.446 351.989 617.571 355.859C615.791 353.324 613.784 350.963 611.576 348.805C635.008 333.452 667.369 300.704 650.216 297.945C635.306 295.535 615.182 325.002 604.429 342.941C593.261 335.301 576.15 329.684 550.025 331.633C482.225 336.688 429.253 292.207 390.208 307.043C359.165 318.838 330.713 325.447 303.271 323.189C304.452 302.803 304.709 262.778 288.97 258.627C272.99 254.409 288.663 299.864 297.374 322.561C295.332 322.297 293.294 321.98 291.258 321.61C285.615 310.296 276.32 295.493 266.106 294.987C256.494 294.512 268.356 307.819 280.033 319.096C246.477 311.931 206.674 339.671 206.016 372.48H624.933C624.933 372.48 624.192 367.693 620.906 361.381C637.096 361.047 658.218 359.551 650.397 353.729Z" fill="#7F6B9C"/>
<path d="M297.413 347.12H187.005V372.475H297.413V347.12Z" fill="#A9BBE0"/>
<path d="M263.367 347.12H152.962V372.478H263.367V347.12Z" fill="#E6EDF9"/>
<path d="M340.846 372.469H423.057V255.605H340.846V372.469Z" fill="#C95C12"/>
<path d="M315.495 372.469H397.705V255.605H315.495V372.469Z" fill="#E58D6A"/>
<path d="M397.705 255.605L423.054 273.152V255.605H397.705Z" fill="#C95C12"/>
<path d="M143.927 281.491C143.927 281.491 128.555 293.119 125.556 292.412C122.557 291.706 136.792 279.862 136.792 279.862C131.436 277.242 114.787 278.886 114.787 278.886C114.787 278.886 109.24 297.072 106.506 295.641C103.772 294.209 112.223 279.792 112.223 279.792C106.257 279.425 98.9414 283.929 98.9414 283.929C88.9244 291.976 99.6002 304.641 99.6002 304.641C99.6002 304.641 97.5444 310.902 91.2182 316.597C91.2182 316.597 82.1964 323.392 81.5566 335.531L83.197 335.682C83.197 335.682 85.7969 324.373 90.5183 319.024C90.7042 318.832 90.9694 318.554 91.3002 318.215C92.0684 317.492 92.607 316.947 92.9706 316.547C95.3217 314.247 98.5696 311.322 100.136 311.039C100.079 310.776 100.056 310.507 100.068 310.238C100.09 310.494 100.111 310.758 100.136 311.039C100.683 317.434 112.884 323.031 120.394 324.179C127.904 325.327 125.588 322.188 122.997 317.531C120.405 312.874 112.217 310.791 110.347 308.633C108.477 306.476 112.343 306.484 116.87 308.586C121.397 310.688 122.015 316.294 129.276 319.83C136.538 323.367 147.462 311.13 147.462 311.13C141.675 310.833 133.413 304.441 133.711 302.486C134.009 300.531 147.738 305.847 150.095 306.126C152.452 306.404 157.783 303.412 158.608 293.797C159.434 284.182 143.927 281.491 143.927 281.491Z" fill="#7F6B9C"/>
<path d="M62.28 288.711C62.28 288.711 79.2601 279.038 71.3346 265.912C71.3346 265.912 64.9974 257.849 58.212 255.78C58.212 255.78 61.8343 275.352 58.212 275.799C54.5896 276.247 55.7214 253.692 55.7214 253.692C55.7214 253.692 37.8336 244.942 30.8157 245.629C30.8157 245.629 41.9098 264.741 38.2874 264.28C34.6651 263.818 22.2122 244.478 22.2122 244.478C22.2122 244.478 3.87336 241.022 0.928973 252.077C-2.01542 263.132 2.74154 268.676 5.45081 269.368C8.16009 270.06 25.5995 269.827 25.1484 272.132C24.6973 274.437 12.9225 278.118 6.35572 276.047C6.35572 276.047 13.6005 294.236 23.1089 293.316C32.6174 292.396 35.5618 286.407 41.4505 285.948C47.3393 285.489 51.637 287.099 48.6953 288.711C45.7537 290.324 35.7887 289.237 31.0345 293.349C26.2802 297.461 22.4309 299.994 31.2614 301.835C40.0918 303.676 55.9401 302.525 59.1087 295.618L62.28 288.711Z" fill="#AEA3BD"/>
<path d="M66.8081 305.519C62.0539 296.538 62.2808 288.711 62.2808 288.711C56.8459 271.209 9.30371 255.552 9.30371 255.552C69.758 280.42 59.115 295.618 59.115 295.618C60.7553 296.586 63.1885 301.179 64.8835 304.73C65.124 305.33 65.5068 306.164 66.0754 307.293C66.3051 307.805 66.4882 308.225 66.6222 308.516C69.7334 316.435 68.0848 330.115 68.0848 330.115L69.9712 330.629C74.1404 316.844 66.8081 305.519 66.8081 305.519Z" fill="#7F6B9C"/>
<path d="M89.2929 275.371C89.2929 275.371 66.9107 262.623 77.3568 245.323C77.3568 245.323 85.7115 234.699 94.665 231.977C94.665 231.977 89.8916 257.779 94.665 258.391C99.4383 259.003 97.9456 229.252 97.9456 229.252C97.9456 229.252 121.528 217.708 130.78 218.611C130.78 218.611 116.156 243.805 120.938 243.196C125.719 242.587 142.128 217.093 142.128 217.093C142.128 217.093 166.303 212.539 170.183 227.103C174.062 241.667 167.796 248.957 164.215 249.866C160.633 250.775 137.652 250.475 138.243 253.509C138.833 256.542 154.373 261.402 163.015 258.669C163.015 258.669 153.465 282.647 140.93 281.435C128.396 280.223 124.511 272.338 116.744 271.729C108.977 271.12 103.312 273.247 107.194 275.371C111.076 277.495 124.205 276.069 130.473 281.488C136.742 286.907 141.813 290.246 130.173 292.674C118.532 295.101 97.6395 293.586 93.4648 284.477L89.2929 275.371Z" fill="#AEA3BD"/>
<path d="M159.133 231.663C159.133 231.663 96.4563 252.305 89.2935 275.371C89.2935 275.371 89.5943 285.692 83.3255 297.531C83.3255 297.531 73.6585 312.456 79.17 330.618L81.6578 329.937C81.6578 329.937 79.4707 311.909 83.5715 301.468C83.741 301.085 83.9816 300.531 84.2851 299.858C85.0342 298.368 85.5399 297.27 85.8571 296.477C88.0906 291.817 91.3111 285.742 93.46 284.466C93.4736 284.477 79.4461 264.444 159.133 231.663Z" fill="#7F6B9C"/>
<path d="M88.541 370.034C100.169 370.033 111.321 365.335 119.544 356.972C127.767 348.609 132.386 337.268 132.387 325.441H44.6924C44.6931 337.268 49.3132 348.61 57.5363 356.973C65.7595 365.336 76.9121 370.034 88.541 370.034Z" fill="#E58D6A"/>
<path d="M99.3289 369.692C93.1597 370.473 86.8978 369.912 80.958 368.046C75.0183 366.179 69.5364 363.051 64.8756 358.866C60.2148 354.682 56.4816 349.539 53.9235 343.776C51.3653 338.014 50.0406 331.764 50.0371 325.441H60.9289C60.9298 336.309 64.8322 346.802 71.9029 354.95C78.9737 363.098 88.7263 368.34 99.3289 369.692Z" fill="#EFB299"/>
<path d="M127.584 366.967H49.4906C48.0562 366.967 46.6807 367.547 45.6667 368.579C44.6526 369.611 44.083 371.01 44.083 372.469H132.991C132.991 371.01 132.422 369.611 131.408 368.579C130.394 367.547 129.018 366.967 127.584 366.967Z" fill="#CC6841"/>
<path d="M132.713 325.441H43.9245C43.7461 325.441 43.5751 325.513 43.4489 325.642C43.3228 325.77 43.252 325.944 43.252 326.125C43.252 326.307 43.3228 326.481 43.4489 326.609C43.5751 326.737 43.7461 326.809 43.9245 326.809H132.713C132.891 326.809 133.062 326.737 133.188 326.609C133.314 326.481 133.385 326.307 133.385 326.125C133.385 325.944 133.314 325.77 133.188 325.642C133.062 325.513 132.891 325.441 132.713 325.441Z" fill="#D86713"/>
<path d="M471.056 90.617C469.784 90.4196 465.954 94.0203 465.954 94.0203C457.777 94.9823 445.822 97.19 441.519 98.0324C438.465 98.6302 430.261 95.7858 422.245 92.5188C412.715 88.6262 403.45 84.1497 403.45 84.1497C398.16 83.8717 392.153 93.6894 402.881 99.9287C404.521 100.882 410.67 102.509 417.756 103.991C427.53 106.04 439.08 107.817 443.006 107.194C447.572 106.465 460.503 101.658 468.182 97.9768H468.201L468.286 97.9379C468.748 97.7182 470.629 96.8646 471.887 96.9397C473.327 97.0287 476.534 94.3484 476.633 93.631C476.731 92.9137 472.33 90.8116 471.056 90.617Z" fill="#ED975D"/>
<path d="M461.075 214.257L456.567 215.189C456.567 215.189 435.961 191.644 432.782 181.735C431.081 176.452 420.206 174.152 408.833 171.169C398.939 168.566 388.673 165.433 383.772 159.316C373.232 146.176 390.388 130.027 390.388 130.027C390.388 130.027 408.631 141.054 424.367 152.443C435.365 160.406 445.144 168.544 446.615 173.221C450.199 184.587 457.786 206.208 461.075 214.257Z" fill="#2B478B"/>
<path d="M455.045 222.026H457.58C458.427 221.89 459.053 221.639 459.923 221.525C461.246 221.347 461.853 221.898 461.973 222.026L461.998 222.051H472.755C473.029 221.659 472.755 220.747 472.512 220.077C472.427 219.852 472.292 219.651 472.118 219.489C471.943 219.326 471.734 219.208 471.506 219.143C470.366 218.806 468.116 218.506 466.055 216.609C464.898 215.545 460.461 212.695 460.461 212.695H460.437C460.338 212.695 459.876 212.839 457.856 214.574C456.814 215.467 455.034 213.309 455.034 213.309C454.79 213.536 454.592 213.81 454.452 214.115C454.203 214.632 454.123 215.217 454.223 215.784C454.381 216.768 453.864 218.6 453.452 219.84C453.2 220.591 452.99 221.125 452.99 221.125C452.99 221.125 452.866 221.748 455.045 222.026Z" fill="#233862"/>
<path d="M424.373 152.437L408.839 171.163C398.945 168.561 388.679 165.427 383.777 159.31C373.238 146.17 390.393 130.021 390.393 130.021C390.393 130.021 408.637 141.048 424.373 152.437Z" fill="#1E3D70"/>
<path d="M410.257 142.658C410.257 142.658 409.005 146.673 406.976 152.715C404.398 160.356 400.56 171.233 396.396 181.32C395.48 183.545 394.548 185.719 393.61 187.815C390.149 195.578 386.603 202.232 383.495 205.61C377.885 211.688 364.251 250.773 364.251 250.773L360.853 249.816C360.853 249.816 356.115 216.451 372.882 197.452C373.07 197.262 373.19 197.012 373.221 196.743C373.445 193.932 374.244 181.345 375.982 168.589C376.409 165.458 376.893 162.322 377.434 159.313L377.541 158.74C380.091 144.838 382.538 138.657 385.693 135.546L408.893 142.264L410.257 142.658Z" fill="#2B478B"/>
<path d="M360.447 255.577H362.982C363.829 255.441 364.455 255.193 365.325 255.077C366.648 254.901 367.255 255.452 367.375 255.577L367.4 255.605H378.158C378.431 255.21 378.158 254.301 377.914 253.631C377.83 253.406 377.695 253.204 377.52 253.042C377.345 252.879 377.136 252.76 376.908 252.694C375.765 252.357 373.518 252.06 371.457 250.164C370.298 249.099 365.861 246.246 365.861 246.246H365.839C365.74 246.246 365.278 246.394 363.258 248.126C362.216 249.021 360.437 246.863 360.437 246.863C360.193 247.09 359.995 247.363 359.854 247.667C359.606 248.184 359.524 248.768 359.622 249.335C359.783 250.322 359.266 252.154 358.854 253.395C358.602 254.145 358.389 254.676 358.389 254.676C358.389 254.676 358.269 255.302 360.447 255.577Z" fill="#233862"/>
<path d="M365.423 97.2678C365.423 97.2678 361.543 106.927 357.065 116.328C353.301 124.232 349.118 131.954 346.466 133.6C342.726 135.924 332.425 142.478 325.74 147.366C325.74 147.366 320.527 147.327 319.726 148.342C318.925 149.356 317.047 153.919 317.593 154.381C318.14 154.842 322.285 154.628 323.293 153.58C324.171 152.662 326.126 152.006 326.612 151.85L326.703 151.823H326.724C334.844 149.281 347.584 143.987 351.439 141.399C354.76 139.174 362.12 129.949 367.99 121.744C372.246 115.797 375.718 110.38 376.298 108.556C380.093 96.5894 369.154 93.4447 365.423 97.2678Z" fill="#FFB27D"/>
<path d="M385.725 59.3956C385.297 58.7604 384.833 58.1505 384.337 57.5688C384.919 57.5985 385.5 57.5096 386.048 57.3074C387.415 56.7347 388.033 52.3332 387.828 51.0292C387.623 49.7252 385.731 45.9521 383.396 45.574C381.061 45.1959 378.65 47.8234 378.65 47.8234C379.082 45.9215 383.024 44.8233 383.024 44.8233C374.891 46.3497 375.307 51.8661 375.37 52.3749C367.925 49.6779 363.554 63.9388 363.554 63.9388L382.841 75.4971C382.841 75.4971 382.89 72.3496 384.73 72.5526C387.598 72.8779 389.988 65.7127 385.725 59.3956Z" fill="#2C3A64"/>
<path d="M386.955 89.3186C382.529 91.4401 376.657 88.3844 376.687 88.351C377.067 87.9673 376.933 86.8107 376.586 85.2925C376.238 83.716 375.416 81.5612 373.898 78.9893C373.584 78.4332 373.267 77.8966 372.887 77.321L373.392 77.1292L381.991 73.623C381.991 73.623 383.382 76.1644 384.837 78.4777C386.07 80.4073 387.365 82.1423 387.934 82.0923C387.967 82.0533 393.656 86.0377 386.955 89.3186Z" fill="#FFB27D"/>
<path d="M381.992 74.4961C381.77 77.6158 380.729 83.2406 376.587 85.3009C376.24 83.7244 375.417 81.5696 373.899 78.9977L381.992 74.4961Z" fill="#ED975D"/>
<path d="M373.396 82.5483C373.396 82.5483 384.605 78.0607 381.734 71.0151C378.864 63.9695 378.402 58.6422 371.135 61.2085C363.868 63.7748 363.576 67.0474 363.967 69.6304C364.358 72.2134 370.411 83.5326 373.396 82.5483Z" fill="#FFB27D"/>
<path d="M377.573 69.408C382.74 68.6656 384.249 66.5413 384.249 66.5413C381.11 65.4538 378.439 63.2917 376.693 60.4244C376.693 60.4244 370.883 58.4308 366.577 61.7618C366.303 62.1243 366.116 62.547 366.031 62.9963C365.044 62.6682 363.57 62.7544 362.704 65.5904C361.419 69.85 365.984 74.4878 365.984 74.4878C367.094 74.1709 365.842 70.3728 365.667 68.3458C365.539 66.8555 366.331 64.9454 366.761 64.0417C367.307 64.7618 372.775 71.7324 379.419 72.0104C377.026 71.1047 374.766 69.8708 372.701 68.3431C374.301 69.1383 375.993 69.6332 377.573 69.408Z" fill="#2C3A64"/>
<path d="M408.266 103.835C408.171 103.496 408.07 103.143 407.963 102.781C409.383 100.094 410.338 97.1785 410.787 94.1621C411.547 88.9516 410.24 85.7374 410.24 85.7374C410.24 85.7374 402.476 81.5501 399.048 81.0107C399.033 81.0081 399.019 81.0081 399.004 81.0107L398.867 80.9968C395.406 80.5102 387.915 82.0672 387.915 82.0672C387.915 82.0672 389.359 85.9793 385.283 88.5901C381.206 91.201 376.849 87.92 376.849 87.92L376.436 88.1981C376.436 88.1981 365.708 95.3966 364.746 97.0426C363.783 98.6887 359.655 106.835 359.655 106.835C359.655 106.835 360.965 113.672 375.457 114.245C376.649 117.184 377.562 120.051 377.857 122.442C379.008 131.726 377.672 139.047 379.014 144.466C380.356 149.885 404.537 146.793 408.917 145.753C413.297 144.713 412.31 139.953 412.649 135.332C413.081 129.546 409.694 108.957 408.266 103.835Z" fill="#699DEE"/>
<path d="M410.786 94.1732C410.333 97.2001 409.371 100.125 407.943 102.82C407.563 101.116 406.015 94.8794 403.517 92.049C403.528 92.049 407.721 92.4354 410.786 94.1732Z" fill="#4A82D3"/>
<path d="M312.325 155.012C312.325 155.012 316.831 149.451 317.793 148.803C318.755 148.155 323.017 146.996 323.261 147.227C323.504 147.457 323.515 147.783 322.987 148.267C322.46 148.75 320.45 149.935 320.735 150.071C321.019 150.207 327.093 147.129 327.971 148.164C328.849 149.198 327.473 153.466 325.133 155.512C322.793 157.559 315.811 158.432 315.373 158.715C311.669 161.14 312.325 155.012 312.325 155.012Z" fill="#ED975D"/>
<path d="M233.008 142.188C233.008 142.188 239.495 149.999 247.724 146.732C247.724 146.732 249.496 142.372 249.52 139.155C249.52 138.76 249.52 138.376 249.534 138.012C249.578 134.398 249.698 132.36 249.698 132.36C249.324 132.198 237.098 127.096 237.122 127.519C237.308 137.312 233.008 142.188 233.008 142.188Z" fill="#FFB27D"/>
<path d="M238.328 129.846C239.506 132.071 243.553 136.416 249.537 138.004C249.581 134.389 249.701 132.351 249.701 132.351C249.351 132.265 237.978 129.198 238.328 129.846Z" fill="#ED975D"/>
<path d="M252.258 131.984C252.258 131.984 238.509 135.271 236.629 126.532C234.748 117.793 231.708 112.332 240.404 109.863C249.1 107.394 251.531 110.35 252.857 113.111C254.183 115.872 255.785 130.903 252.258 131.984Z" fill="#FFB27D"/>
<path d="M237.101 128.915C236.912 129.034 233.954 129.96 228.352 118.61C227.472 116.828 226.873 112.974 228.924 109.568C230.974 106.162 238.244 103.485 244.283 102.32C250.322 101.155 251.771 104.608 253.192 108.084C254.685 111.729 258.997 114.732 258.997 114.732C253.802 117.69 247.514 113.458 245.343 114.153C243.173 114.848 242.405 118.324 242.241 119.45C242.076 120.576 241.828 121.494 239.094 120.496C236.36 119.497 237.861 124.435 238.296 125.378C238.296 125.378 238.676 127.9 237.101 128.915Z" fill="#A9453D"/>
<path d="M201.686 347.12H193.361C191.617 347.12 189.676 345.318 189.192 342.021C188.708 338.723 185.119 336.924 184.342 334.236C183.566 331.547 187.552 327.727 187.552 327.727L188.216 326.845L188.908 325.928L195.502 327.526C195.502 327.526 195.666 329.145 195.775 331.205C195.847 332.695 195.885 334.416 195.803 335.932C195.609 339.532 196.779 343.405 199.882 344.106C202.985 344.807 201.686 347.12 201.686 347.12Z" fill="#2C3A64"/>
<path d="M259.641 347.201H237.584C237.423 347.174 237.265 347.126 237.116 347.059C235.643 346.286 236.105 340.386 236.28 338.556C236.315 338.217 236.34 338.02 236.34 338.02C236.34 338.02 244.099 331.522 245.165 336.496C245.199 336.652 245.238 336.805 245.28 336.955C246.627 341.609 252.647 343.725 256.128 344.315C258.774 344.773 259.455 346.392 259.641 347.201Z" fill="#2C3A64"/>
<path d="M255.192 217.43C255.192 217.43 254.014 232.377 252.62 250.35C250.739 274.768 248.472 304.757 248.246 310.441C247.857 320.306 246.305 336.087 246.305 336.087C246.305 336.087 242.619 339.835 235.246 338.256C235.246 338.256 228.685 315.735 226.801 291.892C226.771 291.5 226.741 291.108 226.714 290.713C224.967 266.449 222.252 215.364 222.252 215.364L255.192 217.43Z" fill="#C95C12"/>
<path d="M255.191 217.43C255.191 217.43 254.013 232.377 252.618 250.35L226.805 291.892C226.775 291.5 226.745 291.108 226.718 290.714C224.971 266.449 222.256 215.364 222.256 215.364L255.191 217.43Z" fill="#AD4E0E"/>
<path d="M249.809 219.201C249.809 219.201 228.561 273.353 214.602 298.802C200.643 324.251 196.285 331.352 196.285 331.352C196.285 331.352 188.272 328.091 187.553 325.867C187.553 325.867 192.892 276.736 202.245 264.761C207.529 257.993 213.727 237.682 214.03 230.581C214.334 223.48 215.919 209.425 215.919 209.425L249.809 219.201Z" fill="#E58D6A"/>
<path d="M201.177 210.181C201.177 210.181 200.63 216.943 200.222 217.983C199.815 219.023 197.136 222.24 196.824 222.195C196.512 222.151 196.327 221.895 196.485 221.239C196.644 220.583 197.579 218.559 197.275 218.611C196.972 218.664 193.907 224.367 192.682 224.044C191.457 223.722 190.263 219.671 190.99 216.815C191.717 213.96 196.663 209.455 196.851 208.994C198.454 205.071 201.177 210.181 201.177 210.181Z" fill="#ED975D"/>
<path d="M198.898 211.897C201.249 212.664 201.632 212.492 201.632 212.492C201.632 212.492 213.073 191.302 214.232 189.364C215.392 187.426 238.528 165.603 238.528 165.603L232.582 143.056C232.582 143.056 206.263 177.711 203.409 182.674C198.715 190.891 195.962 209.975 195.962 209.975C196.763 210.861 197.774 211.523 198.898 211.897Z" fill="#1E3D70"/>
<path d="M259.675 174.455C259.593 179.088 259.328 184.293 258.969 189.581L258.904 190.521C258.677 193.796 258.428 197.08 258.147 200.28C258.032 201.565 257.911 202.831 257.783 204.078L257.764 204.248C257.764 204.715 257.698 205.218 257.649 205.682C256.487 217.672 255.27 227.145 255.046 227.292C254.783 227.479 254.461 227.562 254.141 227.525C251.049 227.131 241.823 227.845 234.272 226.174C227.899 224.806 222.409 222.215 216.594 218.72C215.823 218.255 214.063 217.027 214.208 216.106C214.347 215.097 214.607 213.64 214.938 211.805C216.083 205.427 218.062 194.455 218.735 181.615C218.866 179.224 219.058 176.86 219.306 174.539C219.888 168.835 220.918 163.187 222.387 157.65C224.976 148.169 228.782 140.907 233.555 138.065C234.179 137.709 237.536 139.881 240.617 141.894C243.214 143.585 246.298 144.329 249.365 144.004L251.93 146.89C255.049 150.549 258.36 155.426 259.259 162.377C259.328 162.892 259.385 163.437 259.434 164.018C259.689 167.49 259.77 170.974 259.675 174.455Z" fill="#2A4E96"/>
<path d="M259.675 174.455C259.593 179.088 259.328 184.293 258.97 189.581L258.904 190.521C241.244 179.277 238.523 158.704 238.523 158.704C247.212 159.091 254.106 161.123 259.435 164.029C259.69 167.498 259.77 170.978 259.675 174.455Z" fill="#1E3D70"/>
<path d="M315.007 155.565C314.097 153.063 312.68 153.224 312.68 153.224C312.68 153.224 286.435 159.88 284.062 160.175C281.689 160.47 255.786 149.888 255.786 149.888C255.786 149.888 245.583 145.233 240.804 149.484C236.651 153.18 236.463 157.859 237.433 161.791C238.008 164.079 239.247 166.138 240.99 167.7C242.732 169.262 244.897 170.254 247.201 170.546C257.776 171.917 278.876 174.494 283.289 173.869C293.13 172.479 315.433 159.383 315.433 159.383C315.582 158.094 315.436 156.787 315.007 155.565Z" fill="#2A4E96"/>
<path d="M573.941 204.518C573.941 204.518 577.588 207.957 576.878 210.401C576.167 212.845 572.872 214.471 572.427 217.458C571.981 220.444 570.204 222.073 568.599 222.073H560.963C560.963 222.073 559.785 219.971 562.631 219.34C565.477 218.709 566.552 215.197 566.374 211.938C566.196 208.68 566.647 204.337 566.647 204.337L572.697 202.888L573.941 204.518Z" fill="#2C3A64"/>
<path d="M528.464 221.667C528.095 221.856 526.793 221.987 525.008 222.073H507.741C507.799 221.55 508.2 219.69 511.022 219.226C514.212 218.698 519.737 216.812 520.968 212.664C521.011 212.53 521.048 212.393 521.077 212.255C522.053 207.823 529.172 213.612 529.172 213.612C529.172 213.612 529.194 213.79 529.224 214.093C529.399 215.723 529.831 220.983 528.464 221.667Z" fill="#2C3A64"/>
<path d="M511.877 103.062C511.877 103.062 512.971 116.781 514.228 133.272C515.956 155.671 518.034 183.186 518.239 188.399C518.594 197.452 520.019 211.93 520.019 211.93C520.019 211.93 523.398 215.369 530.164 213.921C530.164 213.921 536.179 193.251 537.912 171.38L537.994 170.299C539.593 148.036 542.095 101.158 542.095 101.158L511.877 103.062Z" fill="#35488B"/>
<path d="M511.877 103.062C511.877 103.062 512.971 116.781 514.228 133.272L537.912 171.383L537.994 170.301C539.593 148.039 542.095 101.161 542.095 101.161L511.877 103.062Z" fill="#2C3A64"/>
<path d="M516.812 104.692C516.812 104.692 536.3 154.375 549.113 177.722C561.927 201.07 565.918 207.587 565.918 207.587C565.918 207.587 573.262 204.601 573.929 202.563C573.929 202.563 569.03 157.489 560.448 146.501C555.598 140.292 549.903 121.658 549.635 115.143C549.368 108.629 547.899 95.7302 547.899 95.7302L516.812 104.692Z" fill="#35488B"/>
<path d="M456.707 77.7435C456.707 77.7435 451.422 76.5146 450.531 76.5758C449.64 76.6369 446.531 77.966 446.49 78.219C446.449 78.472 446.594 78.6861 447.133 78.7223C447.671 78.7584 449.44 78.5276 449.32 78.7445C449.2 78.9614 444.109 79.9818 444.055 81.0272C444 82.0727 446.788 84.0079 449.151 84.1385C451.513 84.2692 456.149 81.4805 456.549 81.4443C459.93 81.144 456.707 77.7435 456.707 77.7435Z" fill="#FFB27D"/>
<path d="M454.447 79.1087C453.687 76.6536 453.865 76.2616 453.865 76.2616C453.865 76.2616 475.293 64.4809 477.253 63.2853C479.213 62.0897 501.358 38.1252 501.358 38.1252L524.049 44.473C524.049 44.473 488.94 71.6655 483.905 74.5933C475.594 79.4313 456.344 82.17 456.344 82.17C455.464 81.3318 454.811 80.2776 454.447 79.1087Z" fill="#E58D6A"/>
<path d="M508.234 26.4752C508.234 26.4752 500.284 40.7027 492.512 42.56C492.512 42.56 492.834 37.7805 494.726 34.5107C493.952 33.582 493.272 32.7284 492.684 31.9638C491.651 30.6469 490.687 29.2751 489.797 27.8543L492.435 20.6419L494.223 15.7483C495.013 17.2111 495.952 18.5848 497.025 19.8467C502.108 25.8024 508.234 26.4752 508.234 26.4752Z" fill="#FFB27D"/>
<path d="M497.025 19.8468C497.025 19.8468 497.963 26.9702 492.678 31.9749C491.645 30.658 490.681 29.2863 489.791 27.8655L492.429 20.6531C495.256 19.7661 497.025 19.8468 497.025 19.8468Z" fill="#ED975D"/>
<path d="M487.695 28.9165C487.695 28.9165 499.577 24.2064 496.578 16.7271C493.579 9.24771 493.095 3.60344 485.382 6.29489C477.67 8.98635 477.35 12.4452 477.755 15.1923C478.159 17.9393 484.529 29.9369 487.695 28.9165Z" fill="#FFB27D"/>
<path d="M549.066 99.4865C544.273 106.493 508.443 115.858 508.878 111.006C509.165 107.823 509.165 104.621 508.878 101.438C508.79 100.399 508.662 99.3003 508.498 98.1353C507.588 91.7597 505.425 83.5658 500.603 74.079C500.238 73.3709 499.862 72.6536 499.473 71.9269C497.508 68.2917 495.847 64.4951 494.506 60.5772C492.024 53.2786 491.023 46.2997 492.275 41.7343C492.275 41.712 492.275 41.6926 492.294 41.6703C499.785 38.1475 502.683 24.4901 502.683 24.4901C502.683 24.4901 528.234 29.1556 542.548 63.7942C542.537 63.7942 553.235 93.3863 549.066 99.4865Z" fill="#E58D6A"/>
<path d="M508.861 101.439C508.774 100.399 508.645 99.3004 508.481 98.1354C507.571 91.7599 505.408 83.5659 500.586 74.079C501.406 68.9769 502.557 64.7312 503.812 62.8183C508.908 55.0525 511.877 53.8375 511.877 53.8375C511.877 53.8375 519.518 86.616 508.861 101.439Z" fill="#C95C12"/>
<path d="M468.593 93.6394C468.593 93.6394 461.523 94.0175 460.429 94.4179C459.336 94.8183 455.891 97.6154 455.929 97.9518C455.968 98.2883 456.225 98.5079 456.914 98.3466C457.603 98.1854 459.743 97.2651 459.678 97.5792C459.612 97.8934 453.57 101.027 453.868 102.356C454.166 103.685 458.352 105.109 461.362 104.414C464.372 103.718 469.216 98.5302 469.703 98.3411C473.823 96.7396 468.593 93.6394 468.593 93.6394Z" fill="#FFB27D"/>
<path d="M467.248 96.367C465.832 94.0398 466.854 92.9776 466.854 92.9776C466.854 92.9776 488.69 75.5916 490.401 73.8344C492.112 72.0771 500.032 44.106 500.032 44.106C500.032 44.106 502.766 32.7869 509.153 31.5385C514.705 30.4513 518.544 33.2456 521.056 36.5238C522.512 38.4379 523.368 40.754 523.511 43.1699C523.653 45.5857 523.077 47.9894 521.857 50.0673C516.283 59.6208 505.035 78.5889 501.752 81.8281C494.442 89.0406 469.984 99.1168 469.984 99.1168C468.877 98.4257 467.941 97.4848 467.248 96.367Z" fill="#E58D6A"/>
<path d="M498.283 2.82212C498.365 2.6553 498.608 2.47735 499.196 2.29384C498.807 2.17935 498.397 2.16407 498.001 2.24936C497.667 1.41523 496.858 0.0250238 495.335 0C495.604 0.082805 495.85 0.225694 496.057 0.41816C496.264 0.610626 496.425 0.847775 496.53 1.11217C494.447 -0.230775 490.584 -0.620033 480.947 2.64696C468.232 6.95105 474.582 14.4582 476.521 15.0615C478.459 15.6649 481.989 11.8029 485.182 11.2746C488.375 10.7463 490.103 15.2673 491.314 15.6399C492.525 16.0124 491.836 14.9865 493.11 13.9716C494.384 12.9567 495.114 15.3618 495.087 17.0662C495.059 18.7706 497.547 20.3805 497.547 20.3805L499.004 17.664C500.459 14.9475 500.062 5.08538 498.671 3.31148L498.283 2.82212Z" fill="#2B478B"/>
<path d="M297.414 346.834V361.461L263.369 346.834H297.414Z" fill="#A9BBE0"/>
<path d="M588.756 222.073H476.169V372.469H588.756V222.073Z" fill="#A9BBE0"/>
<path d="M554.042 222.073H441.453V372.469H554.042V222.073Z" fill="#E6EDF9"/>
<path d="M588.757 222.073V244.564L554.042 222.073H588.757Z" fill="#A9BBE0"/>
</svg>
