<svg width="565" height="375" fill="none" xmlns="http://www.w3.org/2000/svg"><path d="M24.462 374.966s-77.284-167.382 75.034-167.382c80.477 0 47.326-45.924 102.039-99.072s246.068-95.61 286.784 7.021c40.716 102.631-59.913 180.555 37.345 167.187 116.876-16.063 163.045 92.246 163.045 92.246H24.462z" fill="#EEF4FF"/><path d="M650.397 353.729c-7.212-5.36-21.951-1.74-32.826 2.13a50.2 50.2 0 00-5.995-7.054c23.432-15.353 55.793-48.101 38.64-50.86-14.91-2.41-35.034 27.057-45.787 44.996-11.168-7.64-28.279-13.257-54.404-11.308-67.8 5.055-120.772-39.426-159.817-24.59-31.043 11.795-59.495 18.404-86.937 16.146 1.181-20.386 1.438-60.411-14.301-64.562-15.98-4.218-.307 41.237 8.404 63.934-2.042-.264-4.08-.581-6.116-.951-5.643-11.314-14.938-26.117-25.152-26.623-9.612-.475 2.25 12.832 13.927 24.109-33.556-7.165-73.359 20.575-74.017 53.384h418.917s-.741-4.787-4.027-11.099c16.19-.334 37.312-1.83 29.491-7.652z" fill="#7F6B9C"/><path d="M297.413 347.12H187.005v25.355h110.408V347.12z" fill="#A9BBE0"/><path d="M263.367 347.12H152.962v25.358h110.405V347.12z" fill="#E6EDF9"/><path d="M340.846 372.469h82.211V255.605h-82.211v116.864z" fill="#C95C12"/><path d="M315.495 372.469h82.21V255.605h-82.21v116.864z" fill="#E58D6A"/><path d="M397.705 255.605l25.349 17.547v-17.547h-25.349z" fill="#C95C12"/><path d="M143.927 281.491s-15.372 11.628-18.371 10.921c-2.999-.706 11.236-12.55 11.236-12.55-5.356-2.62-22.005-.976-22.005-.976s-5.547 18.186-8.281 16.755c-2.734-1.432 5.717-15.849 5.717-15.849-5.966-.367-13.282 4.137-13.282 4.137-10.017 8.047.66 20.712.66 20.712s-2.057 6.261-8.383 11.956c0 0-9.022 6.795-9.661 18.934l1.64.151s2.6-11.309 7.321-16.658c.186-.192.451-.47.782-.809a31.545 31.545 0 001.67-1.668c2.352-2.3 5.6-5.225 7.166-5.508a3.123 3.123 0 01-.068-.801c.022.256.043.52.068.801.547 6.395 12.748 11.992 20.258 13.14 7.51 1.148 5.194-1.991 2.603-6.648-2.592-4.657-10.78-6.74-12.65-8.898-1.87-2.157 1.996-2.149 6.523-.047 4.527 2.102 5.145 7.708 12.406 11.244 7.262 3.537 18.186-8.7 18.186-8.7-5.787-.297-14.049-6.689-13.751-8.644.298-1.955 14.027 3.361 16.384 3.64 2.357.278 7.688-2.714 8.513-12.329.826-9.615-14.681-12.306-14.681-12.306z" fill="#7F6B9C"/><path d="M62.28 288.711s16.98-9.673 9.055-22.799c0 0-6.338-8.063-13.123-10.132 0 0 3.622 19.572 0 20.019-3.622.448-2.49-22.107-2.49-22.107s-17.888-8.75-24.906-8.063c0 0 11.094 19.112 7.471 18.651-3.622-.462-16.075-19.802-16.075-19.802S3.873 241.022.93 252.077c-2.944 11.055 1.813 16.599 4.522 17.291 2.71.692 20.148.459 19.697 2.764-.45 2.305-12.226 5.986-18.792 3.915 0 0 7.245 18.189 16.753 17.269 9.508-.92 12.453-6.909 18.341-7.368 5.89-.459 10.187 1.151 7.245 2.763-2.941 1.613-12.906.526-17.66 4.638-4.755 4.112-8.604 6.645.226 8.486 8.83 1.841 24.68.69 27.848-6.217l3.171-6.907z" fill="#AEA3BD"/><path d="M66.808 305.519c-4.754-8.981-4.527-16.808-4.527-16.808-5.435-17.502-52.977-33.159-52.977-33.159 60.454 24.868 49.811 40.066 49.811 40.066 1.64.968 4.073 5.561 5.768 9.112.241.6.624 1.434 1.192 2.563.23.512.413.932.547 1.223 3.111 7.919 1.463 21.599 1.463 21.599l1.886.514c4.17-13.785-3.163-25.11-3.163-25.11z" fill="#7F6B9C"/><path d="M89.293 275.371s-22.382-12.748-11.936-30.048c0 0 8.355-10.624 17.308-13.346 0 0-4.773 25.802 0 26.414 4.773.612 3.28-29.139 3.28-29.139s23.583-11.544 32.835-10.641c0 0-14.624 25.194-9.842 24.585 4.781-.609 21.19-26.103 21.19-26.103s24.175-4.554 28.055 10.01c3.879 14.564-2.387 21.854-5.968 22.763-3.582.909-26.563.609-25.972 3.643.59 3.033 16.13 7.893 24.772 5.16 0 0-9.55 23.978-22.085 22.766-12.534-1.212-16.419-9.097-24.186-9.706-7.767-.609-13.432 1.518-9.55 3.642 3.882 2.124 17.011.698 23.279 6.117 6.269 5.419 11.34 8.758-.3 11.186-11.641 2.427-32.534.912-36.708-8.197l-4.172-9.106z" fill="#AEA3BD"/><path d="M159.133 231.663s-62.677 20.642-69.84 43.708c0 0 .301 10.321-5.968 22.16 0 0-9.666 14.925-4.155 33.087l2.488-.681s-2.187-18.028 1.913-28.469c.17-.383.41-.937.714-1.61.75-1.49 1.255-2.588 1.572-3.381 2.234-4.66 5.454-10.735 7.603-12.011.014.011-14.014-20.022 65.673-52.803z" fill="#7F6B9C"/><path d="M88.541 370.034c11.628-.001 22.78-4.699 31.003-13.062 8.223-8.363 12.842-19.704 12.843-31.531H44.692c.001 11.827 4.621 23.169 12.844 31.532 8.224 8.363 19.376 13.061 31.005 13.061z" fill="#E58D6A"/><path d="M99.329 369.692a43.18 43.18 0 01-18.371-1.646 43.677 43.677 0 01-16.082-9.18 44.569 44.569 0 01-10.953-15.09 45.259 45.259 0 01-3.886-18.335H60.93c0 10.868 3.903 21.361 10.974 29.509 7.07 8.148 16.823 13.39 27.426 14.742z" fill="#EFB299"/><path d="M127.584 366.967H49.491a5.36 5.36 0 00-3.824 1.612 5.55 5.55 0 00-1.584 3.89h88.908a5.55 5.55 0 00-1.583-3.89 5.361 5.361 0 00-3.824-1.612z" fill="#CC6841"/><path d="M132.713 325.441H43.925a.665.665 0 00-.476.201.689.689 0 000 .967c.126.128.297.2.476.2h88.788a.667.667 0 00.475-.2.69.69 0 000-.967.664.664 0 00-.475-.201z" fill="#D86713"/><path d="M471.056 90.617c-1.272-.197-5.102 3.403-5.102 3.403-8.177.962-20.132 3.17-24.435 4.012-3.054.598-11.258-2.246-19.274-5.513-9.53-3.893-18.795-8.37-18.795-8.37-5.29-.277-11.297 9.54-.569 15.78 1.64.953 7.789 2.58 14.875 4.062 9.774 2.049 21.324 3.826 25.25 3.203 4.566-.729 17.497-5.536 25.176-9.217h.019l.085-.04c.462-.219 2.343-1.072 3.601-.997 1.44.089 4.647-2.592 4.746-3.309.098-.717-4.303-2.82-5.577-3.014z" fill="#ED975D"/><path d="M461.075 214.257l-4.508.932s-20.606-23.545-23.785-33.454c-1.701-5.283-12.576-7.583-23.949-10.566-9.894-2.603-20.16-5.736-25.061-11.853-10.54-13.14 6.616-29.289 6.616-29.289s18.243 11.027 33.979 22.416c10.998 7.963 20.777 16.101 22.248 20.778 3.584 11.366 11.171 32.987 14.46 41.036z" fill="#2B478B"/><path d="M455.045 222.026h2.535c.847-.136 1.473-.387 2.343-.501 1.323-.178 1.93.373 2.05.501l.025.025h10.757c.274-.392 0-1.304-.243-1.974a1.552 1.552 0 00-.394-.588 1.5 1.5 0 00-.612-.346c-1.14-.337-3.39-.637-5.451-2.534-1.157-1.064-5.594-3.914-5.594-3.914h-.024c-.099 0-.561.144-2.581 1.879-1.042.893-2.822-1.265-2.822-1.265a2.559 2.559 0 00-.582.806 2.75 2.75 0 00-.229 1.669c.158.984-.359 2.816-.771 4.056a29.741 29.741 0 01-.462 1.285s-.124.623 2.055.901z" fill="#233862"/><path d="M424.373 152.437l-15.534 18.726c-9.894-2.602-20.16-5.736-25.062-11.853-10.539-13.14 6.616-29.289 6.616-29.289s18.244 11.027 33.98 22.416z" fill="#1E3D70"/><path d="M410.257 142.658s-1.252 4.015-3.281 10.057c-2.578 7.641-6.416 18.518-10.58 28.605a234.238 234.238 0 01-2.786 6.495c-3.461 7.763-7.007 14.417-10.115 17.795-5.61 6.078-19.244 45.163-19.244 45.163l-3.398-.957s-4.738-33.365 12.029-52.364c.188-.19.308-.44.339-.709.224-2.811 1.023-15.398 2.761-28.154a223.47 223.47 0 011.452-9.276l.107-.573c2.55-13.902 4.997-20.083 8.152-23.194l23.2 6.718 1.364.394z" fill="#2B478B"/><path d="M360.447 255.577h2.535c.847-.136 1.473-.384 2.343-.5 1.323-.176 1.93.375 2.05.5l.025.028h10.758c.273-.395 0-1.304-.244-1.974a1.533 1.533 0 00-1.006-.937c-1.143-.337-3.39-.634-5.451-2.53-1.159-1.065-5.596-3.918-5.596-3.918h-.022c-.099 0-.561.148-2.581 1.88-1.042.895-2.821-1.263-2.821-1.263a2.58 2.58 0 00-.583.804 2.77 2.77 0 00-.232 1.668c.161.987-.356 2.819-.768 4.06-.252.75-.465 1.281-.465 1.281s-.12.626 2.058.901z" fill="#233862"/><path d="M365.423 97.268s-3.88 9.659-8.358 19.06c-3.764 7.904-7.947 15.626-10.599 17.272-3.74 2.324-14.041 8.878-20.726 13.766 0 0-5.213-.039-6.014.976-.801 1.014-2.679 5.577-2.133 6.039.547.461 4.692.247 5.7-.801.878-.918 2.833-1.574 3.319-1.73l.091-.027h.021c8.12-2.542 20.86-7.836 24.715-10.424 3.321-2.225 10.681-11.45 16.551-19.655 4.256-5.947 7.728-11.364 8.308-13.188 3.795-11.967-7.144-15.111-10.875-11.288z" fill="#FFB27D"/><path d="M385.725 59.396a20.298 20.298 0 00-1.388-1.827c.582.03 1.163-.06 1.711-.262 1.367-.572 1.985-4.974 1.78-6.278-.205-1.304-2.097-5.077-4.432-5.455-2.335-.378-4.746 2.25-4.746 2.25.432-1.902 4.374-3 4.374-3-8.133 1.526-7.717 7.042-7.654 7.55-7.445-2.696-11.816 11.565-11.816 11.565l19.287 11.558s.049-3.147 1.889-2.944c2.868.325 5.258-6.84.995-13.157z" fill="#2C3A64"/><path d="M386.955 89.319c-4.426 2.121-10.298-.935-10.268-.968.38-.384.246-1.54-.101-3.058-.348-1.577-1.17-3.732-2.688-6.304a27.372 27.372 0 00-1.011-1.668l.505-.192 8.599-3.506s1.391 2.541 2.846 4.855c1.233 1.93 2.528 3.664 3.097 3.614.033-.039 5.722 3.946-.979 7.227z" fill="#FFB27D"/><path d="M381.992 74.496c-.222 3.12-1.263 8.745-5.405 10.805-.347-1.577-1.17-3.731-2.688-6.303l8.093-4.502z" fill="#ED975D"/><path d="M373.396 82.548s11.209-4.487 8.338-11.533c-2.87-7.046-3.332-12.373-10.599-9.806-7.267 2.566-7.559 5.838-7.168 8.421.391 2.583 6.444 13.903 9.429 12.918z" fill="#FFB27D"/><path d="M377.573 69.408c5.167-.742 6.676-2.867 6.676-2.867a14.364 14.364 0 01-7.556-6.117s-5.81-1.993-10.116 1.338a2.96 2.96 0 00-.546 1.234c-.987-.328-2.461-.242-3.327 2.594-1.285 4.26 3.28 8.898 3.28 8.898 1.11-.317-.142-4.115-.317-6.142-.128-1.49.664-3.4 1.094-4.304.546.72 6.014 7.69 12.658 7.968a27.904 27.904 0 01-6.718-3.667c1.6.795 3.292 1.29 4.872 1.065z" fill="#2C3A64"/><path d="M408.266 103.835a77.398 77.398 0 00-.303-1.054 26.936 26.936 0 002.824-8.619c.76-5.21-.547-8.425-.547-8.425s-7.764-4.187-11.192-4.726a.125.125 0 00-.044 0l-.137-.014c-3.461-.487-10.952 1.07-10.952 1.07s1.444 3.912-2.632 6.523c-4.077 2.611-8.434-.67-8.434-.67l-.413.278s-10.728 7.199-11.69 8.845c-.963 1.646-5.091 9.792-5.091 9.792s1.31 6.837 15.802 7.41c1.192 2.939 2.105 5.806 2.4 8.197 1.151 9.284-.185 16.605 1.157 22.024 1.342 5.419 25.523 2.327 29.903 1.287 4.38-1.04 3.393-5.8 3.732-10.421.432-5.786-2.955-26.375-4.383-31.497z" fill="#699DEE"/><path d="M410.786 94.173a27.008 27.008 0 01-2.843 8.647c-.38-1.704-1.928-7.94-4.426-10.771.011 0 4.204.386 7.269 2.124z" fill="#4A82D3"/><path d="M312.325 155.012s4.506-5.561 5.468-6.209c.962-.648 5.224-1.807 5.468-1.576.243.23.254.556-.274 1.04-.527.483-2.537 1.668-2.252 1.804.284.136 6.358-2.942 7.236-1.907.878 1.034-.498 5.302-2.838 7.348-2.34 2.047-9.322 2.92-9.76 3.203-3.704 2.425-3.048-3.703-3.048-3.703z" fill="#ED975D"/><path d="M233.008 142.188s6.487 7.811 14.716 4.544c0 0 1.772-4.36 1.796-7.577 0-.395 0-.779.014-1.143.044-3.614.164-5.652.164-5.652-.374-.162-12.6-5.264-12.576-4.841.186 9.793-4.114 14.669-4.114 14.669z" fill="#FFB27D"/><path d="M238.328 129.846c1.178 2.225 5.225 6.57 11.209 8.158.044-3.615.164-5.653.164-5.653-.35-.086-11.723-3.153-11.373-2.505z" fill="#ED975D"/><path d="M252.258 131.984s-13.749 3.287-15.629-5.452c-1.881-8.739-4.921-14.2 3.775-16.669 8.696-2.469 11.127.487 12.453 3.248 1.326 2.761 2.928 17.792-.599 18.873z" fill="#FFB27D"/><path d="M237.101 128.915c-.189.119-3.147 1.045-8.749-10.305-.88-1.782-1.479-5.636.572-9.042 2.05-3.406 9.32-6.083 15.359-7.248s7.488 2.288 8.909 5.764c1.493 3.645 5.805 6.648 5.805 6.648-5.195 2.958-11.483-1.274-13.654-.579-2.17.695-2.938 4.171-3.102 5.297-.165 1.126-.413 2.044-3.147 1.046-2.734-.999-1.233 3.939-.798 4.882 0 0 .38 2.522-1.195 3.537z" fill="#A9453D"/><path d="M201.686 347.12h-8.325c-1.744 0-3.685-1.802-4.169-5.099-.484-3.298-4.073-5.097-4.85-7.785-.776-2.689 3.21-6.509 3.21-6.509l.664-.882.692-.917 6.594 1.598s.164 1.619.273 3.679c.072 1.49.11 3.211.028 4.727-.194 3.6.976 7.473 4.079 8.174 3.103.701 1.804 3.014 1.804 3.014zM259.641 347.201h-22.057a1.917 1.917 0 01-.468-.142c-1.473-.773-1.011-6.673-.836-8.503.035-.339.06-.536.06-.536s7.759-6.498 8.825-1.524c.034.156.073.309.115.459 1.347 4.654 7.367 6.77 10.848 7.36 2.646.458 3.327 2.077 3.513 2.886z" fill="#2C3A64"/><path d="M255.192 217.43s-1.178 14.947-2.572 32.92c-1.881 24.418-4.148 54.407-4.374 60.091-.389 9.865-1.941 25.646-1.941 25.646s-3.686 3.748-11.059 2.169c0 0-6.561-22.521-8.445-46.364-.03-.392-.06-.784-.087-1.179-1.747-24.264-4.462-75.349-4.462-75.349l32.94 2.066z" fill="#C95C12"/><path d="M255.191 217.43s-1.178 14.947-2.573 32.92l-25.813 41.542c-.03-.392-.06-.784-.087-1.178-1.747-24.265-4.462-75.35-4.462-75.35l32.935 2.066z" fill="#AD4E0E"/><path d="M249.809 219.201s-21.248 54.152-35.207 79.601c-13.959 25.449-18.317 32.55-18.317 32.55s-8.013-3.261-8.732-5.485c0 0 5.339-49.131 14.692-61.106 5.284-6.768 11.482-27.079 11.785-34.18.304-7.101 1.889-21.156 1.889-21.156l33.89 9.776z" fill="#E58D6A"/><path d="M201.177 210.181s-.547 6.762-.955 7.802c-.407 1.04-3.086 4.257-3.398 4.212-.312-.044-.497-.3-.339-.956.159-.656 1.094-2.68.79-2.628-.303.053-3.368 5.756-4.593 5.433-1.225-.322-2.419-4.373-1.692-7.229.727-2.855 5.673-7.36 5.861-7.821 1.603-3.923 4.326 1.187 4.326 1.187z" fill="#ED975D"/><path d="M198.898 211.897c2.351.767 2.734.595 2.734.595s11.441-21.19 12.6-23.128c1.16-1.938 24.296-23.761 24.296-23.761l-5.946-22.547s-26.319 34.655-29.173 39.618c-4.694 8.217-7.447 27.301-7.447 27.301a6.895 6.895 0 002.936 1.922z" fill="#1E3D70"/><path d="M259.675 174.455c-.082 4.633-.347 9.838-.706 15.126l-.065.94a535.506 535.506 0 01-.757 9.759 292.903 292.903 0 01-.364 3.798l-.019.17c0 .467-.066.97-.115 1.434-1.162 11.99-2.379 21.463-2.603 21.61-.263.187-.585.27-.905.233-3.092-.394-12.318.32-19.869-1.351-6.373-1.368-11.863-3.959-17.678-7.454-.771-.465-2.531-1.693-2.386-2.614.139-1.009.399-2.466.73-4.301 1.145-6.378 3.124-17.35 3.797-30.19.131-2.391.323-4.755.571-7.076a109.018 109.018 0 013.081-16.889c2.589-9.481 6.395-16.743 11.168-19.585.624-.356 3.981 1.816 7.062 3.829a13.428 13.428 0 008.748 2.11l2.565 2.886c3.119 3.659 6.43 8.536 7.329 15.487.069.515.126 1.06.175 1.641.255 3.472.336 6.956.241 10.437z" fill="#2A4E96"/><path d="M259.675 174.455c-.082 4.633-.347 9.838-.705 15.126l-.066.94c-17.66-11.244-20.381-31.817-20.381-31.817 8.689.387 15.583 2.419 20.912 5.325.255 3.469.335 6.949.24 10.426z" fill="#1E3D70"/><path d="M315.007 155.565c-.91-2.502-2.327-2.341-2.327-2.341s-26.245 6.656-28.618 6.951c-2.373.295-28.276-10.287-28.276-10.287s-10.203-4.655-14.982-.404c-4.153 3.696-4.341 8.375-3.371 12.307a11.789 11.789 0 003.557 5.909 11.464 11.464 0 006.211 2.846c10.575 1.371 31.675 3.948 36.088 3.323 9.841-1.39 32.144-14.486 32.144-14.486a8.564 8.564 0 00-.426-3.818z" fill="#2A4E96"/><path d="M573.941 204.518s3.647 3.439 2.937 5.883c-.711 2.444-4.006 4.07-4.451 7.057-.446 2.986-2.223 4.615-3.828 4.615h-7.636s-1.178-2.102 1.668-2.733c2.846-.631 3.921-4.143 3.743-7.402-.178-3.258.273-7.601.273-7.601l6.05-1.449 1.244 1.63zM528.464 221.667c-.369.189-1.671.32-3.456.406h-17.267c.058-.523.459-2.383 3.281-2.847 3.19-.528 8.715-2.414 9.946-6.562.043-.134.08-.271.109-.409.976-4.432 8.095 1.357 8.095 1.357s.022.178.052.481c.175 1.63.607 6.89-.76 7.574z" fill="#2C3A64"/><path d="M511.877 103.062s1.094 13.719 2.351 30.21c1.728 22.399 3.806 49.914 4.011 55.127.355 9.053 1.78 23.531 1.78 23.531s3.379 3.439 10.145 1.991c0 0 6.015-20.67 7.748-42.541l.082-1.081c1.599-22.263 4.101-69.141 4.101-69.141l-30.218 1.904z" fill="#35488B"/><path d="M511.877 103.062s1.094 13.719 2.351 30.21l23.684 38.111.082-1.082c1.599-22.262 4.101-69.14 4.101-69.14l-30.218 1.901z" fill="#2C3A64"/><path d="M516.812 104.692s19.488 49.683 32.301 73.03c12.814 23.348 16.805 29.865 16.805 29.865s7.344-2.986 8.011-5.024c0 0-4.899-45.074-13.481-56.062-4.85-6.209-10.545-24.843-10.813-31.358-.267-6.514-1.736-19.413-1.736-19.413l-31.087 8.962z" fill="#35488B"/><path d="M456.707 77.743s-5.285-1.228-6.176-1.167c-.891.06-4 1.39-4.041 1.643-.041.253.104.467.643.503.538.036 2.307-.194 2.187.023-.12.216-5.211 1.237-5.265 2.282-.055 1.046 2.733 2.98 5.096 3.111 2.362.131 6.998-2.657 7.398-2.694 3.381-.3.158-3.7.158-3.7z" fill="#FFB27D"/><path d="M454.447 79.109c-.76-2.455-.582-2.847-.582-2.847s21.428-11.781 23.388-12.977c1.96-1.195 24.105-25.16 24.105-25.16l22.691 6.348s-35.109 27.192-40.144 30.12c-8.311 4.838-27.561 7.577-27.561 7.577a7.17 7.17 0 01-1.897-3.061z" fill="#E58D6A"/><path d="M508.234 26.475s-7.95 14.228-15.722 16.085c0 0 .322-4.78 2.214-8.05a83.389 83.389 0 01-2.042-2.546 47.604 47.604 0 01-2.887-4.11l2.638-7.212 1.788-4.894a23.742 23.742 0 002.802 4.099c5.083 5.955 11.209 6.628 11.209 6.628z" fill="#FFB27D"/><path d="M497.025 19.847s.938 7.123-4.347 12.128a47.603 47.603 0 01-2.887-4.11l2.638-7.212c2.827-.887 4.596-.806 4.596-.806z" fill="#ED975D"/><path d="M487.695 28.916s11.882-4.71 8.883-12.189c-2.999-7.48-3.483-13.124-11.196-10.432-7.712 2.691-8.032 6.15-7.627 8.897.404 2.747 6.774 14.745 9.94 13.724z" fill="#FFB27D"/><path d="M549.066 99.487c-4.793 7.006-40.623 16.371-40.188 11.519a53.27 53.27 0 000-9.568 60.253 60.253 0 00-.38-3.303c-.91-6.375-3.073-14.57-7.895-24.056-.365-.708-.741-1.425-1.13-2.152a74.818 74.818 0 01-4.967-11.35c-2.482-7.298-3.483-14.277-2.231-18.843 0-.022 0-.041.019-.064 7.491-3.523 10.389-17.18 10.389-17.18s25.551 4.666 39.865 39.304c-.011 0 10.687 29.592 6.518 35.693z" fill="#E58D6A"/><path d="M508.861 101.439a59.209 59.209 0 00-.38-3.304c-.91-6.375-3.073-14.57-7.895-24.056.82-5.102 1.971-9.348 3.226-11.26 5.096-7.767 8.065-8.982 8.065-8.982s7.641 32.779-3.016 47.602z" fill="#C95C12"/><path d="M468.593 93.64s-7.07.377-8.164.778c-1.093.4-4.538 3.197-4.5 3.534.039.336.296.556.985.395.689-.162 2.829-1.082 2.764-.768-.066.314-6.108 3.448-5.81 4.777.298 1.329 4.484 2.753 7.494 2.058 3.01-.696 7.854-5.884 8.341-6.073 4.12-1.601-1.11-4.702-1.11-4.702z" fill="#FFB27D"/><path d="M467.248 96.367c-1.416-2.327-.394-3.39-.394-3.39s21.836-17.385 23.547-19.143c1.711-1.757 9.631-29.728 9.631-29.728s2.734-11.32 9.121-12.568c5.552-1.087 9.391 1.708 11.903 4.986a12.214 12.214 0 01.801 13.544c-5.574 9.553-16.822 28.52-20.105 31.76-7.31 7.213-31.768 17.289-31.768 17.289a8.55 8.55 0 01-2.736-2.75z" fill="#E58D6A"/><path d="M498.283 2.822c.082-.167.325-.345.913-.528a2.422 2.422 0 00-1.195-.045c-.334-.834-1.143-2.224-2.666-2.249.269.083.515.226.722.418.207.193.368.43.473.694-2.083-1.343-5.946-1.732-15.583 1.535-12.715 4.304-6.365 11.811-4.426 12.415 1.938.603 5.468-3.26 8.661-3.787 3.193-.529 4.921 3.992 6.132 4.365 1.211.372.522-.654 1.796-1.668 1.274-1.015 2.004 1.39 1.977 3.094-.028 1.705 2.46 3.315 2.46 3.315l1.457-2.717c1.455-2.717 1.058-12.579-.333-14.353l-.388-.489z" fill="#2B478B"/><path d="M297.414 346.834v14.627l-34.045-14.627h34.045zM588.756 222.073H476.169v150.396h112.587V222.073z" fill="#A9BBE0"/><path d="M554.042 222.073H441.453v150.396h112.589V222.073z" fill="#E6EDF9"/><path d="M588.757 222.073v22.491l-34.715-22.491h34.715z" fill="#A9BBE0"/></svg>