<svg width="301" height="345" viewBox="0 0 301 345" fill="none" xmlns="http://www.w3.org/2000/svg">
<path d="M163.614 41.4113C163.614 41.4113 141.599 -14.8169 195.263 3.76608C239.888 19.2107 219.233 61.0146 211.455 63.0863L163.614 41.4113Z" fill="#15466F"/>
<path d="M272.117 339.218C272.117 339.218 270.106 347.505 268.208 359.981C267.797 362.254 280.872 365.021 286.851 360.723C289.67 358.048 290.633 347.953 290.747 344.722C290.917 339.991 289.613 327.747 289.613 327.747C289.613 327.747 284.782 320.326 277.657 324.516C277.657 324.516 265.162 333.436 264.694 337.317C264.17 341.707 260.643 347.118 262.017 347.907C264.283 349.19 269.865 345.711 272.117 339.218Z" fill="#FFC6BB"/>
<path d="M30.7161 118.511C30.7161 118.511 23.5053 105.385 20.8561 103.128C16.9319 99.773 2.28365 90.7752 0.696992 91.9966C0.0169936 92.5222 -0.209673 94.161 0.215326 95.0113C0.640325 95.8616 10.4436 104.844 10.4436 104.844C10.4436 104.844 5.85364 105.926 4.74864 108.353C3.94114 110.147 5.75447 120.659 6.95864 122.731C8.38947 125.189 20.0344 127.215 20.0344 127.215L22.7969 128.003C22.8253 128.003 26.7494 127.199 30.7161 118.511Z" fill="#FFC6BB"/>
<path d="M300.093 213.976C297.274 194.528 274.139 117.258 261.843 109.034C249.291 100.639 221.411 100.391 200.941 98.2888C180.767 96.2172 148.864 100.731 139.259 105.462C126.311 111.816 87.4942 161.026 80.8925 161.706C73.2001 162.278 52.4176 137.202 30.7143 118.511L20.0469 127.23C20.0469 127.23 69.5876 202.18 82.21 201.423C89.0667 201.021 118.902 180.134 133.451 170.147C130.66 215.646 124.497 304.325 124.497 304.325C197.711 323.418 264.166 304.325 264.166 304.325C261.885 238.511 261.149 186.983 261.149 186.983C261.149 186.983 267.779 212.832 269.521 222.974C272.128 238.233 275.117 326.417 275.117 326.417L289.609 327.747C295.418 302.887 301.609 224.412 300.093 213.976Z" fill="#FFC6BB"/>
<path d="M300.093 213.976C297.274 194.528 274.14 117.258 261.843 109.034C249.292 100.639 221.412 100.391 200.941 98.2888C180.768 96.2172 148.865 100.731 139.26 105.462C126.311 111.816 87.4947 161.026 80.893 161.706C77.4081 161.969 71.2456 156.96 63.5389 149.693L48.8906 167.89C62.1648 185.36 76.2747 201.763 82.2105 201.407C89.0672 200.99 118.902 180.119 133.451 170.132C130.646 215.631 124.498 304.309 124.498 304.309C197.711 323.402 264.167 304.309 264.167 304.309C261.886 238.496 261.149 186.968 261.149 186.968C261.149 186.968 267.779 212.817 269.522 222.959C270.669 229.684 271.888 250.586 272.908 271.859L296.863 273.714C299.385 246.705 300.943 219.789 300.093 213.976Z" fill="#FF7777"/>
<path d="M45.377 169.745L52.0778 176.269L69.2902 151.982L64.5727 146.277L45.377 169.745Z" fill="#EA7466"/>
<path d="M270.982 268.581L270.273 278.367L298.408 278.615L299.712 271.07L270.982 268.581Z" fill="#EA7466"/>
<path d="M206.469 98.8299L205.322 65.1579H181.493L181.238 98.2424L186.083 112.868C188.166 119.175 196.113 119.809 199.017 113.903L206.469 98.8299Z" fill="#FFACA4"/>
<path d="M163.615 41.4113C163.615 41.4113 169.352 83.7254 176.634 84.622C197.898 87.2348 212.065 57.5361 212.065 57.5361C212.065 57.5361 216.258 56.4848 218.355 48.7548C220.026 42.6326 216.244 38.5203 213.255 44.4414C213.255 44.4414 211.81 44.7816 210.421 43.3592C210.421 43.3592 211.484 34.7326 210.11 29.4452C208.721 24.1579 175.401 45.5236 164.89 28.3321C164.875 28.3166 162.906 32.7382 163.615 41.4113Z" fill="#FFC6BB"/>
<path d="M186.152 57.969C185.486 57.6288 184.509 57.2114 183.333 56.794C182.795 56.6085 182.228 56.423 181.619 56.2065C181.619 56.1911 181.605 56.1911 181.619 56.1756L181.633 56.1601L181.69 56.0365C181.845 55.6654 182.001 55.2944 182.157 54.9079C183.418 51.8468 184.339 49.0795 184.665 47.5026C183.8 48.8012 182.511 51.3985 181.25 54.475C181.095 54.8615 180.939 55.248 180.797 55.6191C180.67 55.9437 180.542 56.2529 180.415 56.5621L180.315 56.8249L180.287 56.8868L180.358 56.9022L180.485 56.9331L180.995 57.0568C181.236 57.1187 181.477 57.1805 181.718 57.2269C181.888 57.2578 182.058 57.3042 182.214 57.3351C182.54 57.3969 182.851 57.4742 183.163 57.5361C184.381 57.7989 185.415 57.938 186.152 57.969Z" fill="#A85E59"/>
<path d="M193.449 49.2959C193.449 51.3831 195.008 53.0837 196.92 53.0837C198.833 53.0837 200.391 51.3831 200.391 49.2959C200.391 47.2088 198.833 45.5082 196.92 45.5082C195.008 45.5082 193.449 47.2088 193.449 49.2959Z" fill="white"/>
<path d="M197.201 51.3058C198.277 51.3058 199.141 50.3627 199.141 49.1877C199.141 48.0128 198.277 47.0697 197.201 47.0697C196.124 47.0697 195.26 48.0128 195.26 49.1877C195.26 50.3472 196.138 51.3058 197.201 51.3058Z" fill="#424242"/>
<path d="M169.691 49.2959C169.691 51.3831 171.25 53.0837 173.162 53.0837C175.075 53.0837 176.633 51.3831 176.633 49.2959C176.633 47.2088 175.075 45.5082 173.162 45.5082C171.25 45.5082 169.691 47.2088 169.691 49.2959Z" fill="white"/>
<path d="M173.445 51.5222C174.517 51.5222 175.385 50.5739 175.385 49.4041C175.385 48.2344 174.517 47.2861 173.445 47.2861C172.373 47.2861 171.504 48.2344 171.504 49.4041C171.504 50.5739 172.373 51.5222 173.445 51.5222Z" fill="#424242"/>
<path d="M200.887 44.4415C200.887 44.4415 197.983 42.277 194.215 44.0704" stroke="#424242" stroke-width="0.75" stroke-miterlimit="10" stroke-linecap="round"/>
<path d="M169.35 44.4415C169.35 44.4415 172.254 42.277 176.022 44.0704" stroke="#424242" stroke-width="0.75" stroke-miterlimit="10" stroke-linecap="round"/>
<path d="M167.014 60.891C167.014 60.891 192.613 61.633 206.482 59.917C207.544 58.572 209.117 51.4603 209.669 50.4864C210.236 49.5124 212.389 49.9916 212.828 50.4864C213.268 50.9811 211.412 65.8845 208.947 76.521C206.482 87.1576 173.743 91.9502 172.057 84.8695C169.351 73.5527 167.014 60.891 167.014 60.891Z" fill="#15466F"/>
<path d="M178.645 63.1636L188.079 63.0863C188.079 63.0863 187.357 67.1832 183.39 67.2141C179.424 67.2605 178.645 63.1636 178.645 63.1636Z" fill="white"/>
</svg>
