<svg width="132" height="132" fill="none" xmlns="http://www.w3.org/2000/svg"><g clip-path="url(#clip0)"><path d="M125.354 20.483h-6.625V5.162a3.312 3.312 0 116.625 0v15.321z" fill="#676E84"/><path d="M116.065 16.83v98.108l3.911 15.034c.586 2.25 3.78 2.25 4.366 0l3.911-15.034V16.83a2.59 2.59 0 00-2.59-2.59h-7.008a2.59 2.59 0 00-2.59 2.59z" fill="#7DECC4"/><path d="M124.342 129.972l3.911-15.033h-12.188l3.911 15.033c.586 2.25 3.781 2.25 4.366 0zM116.065 23.522h12.188v8.174h-12.188v-8.174z" fill="#676E84"/><path d="M100.54 131.66H18.664a6.274 6.274 0 01-6.274-6.274V6.827A6.274 6.274 0 0118.664.553h81.876a6.274 6.274 0 016.274 6.274v118.559a6.274 6.274 0 01-6.274 6.274z" fill="#EAECF0"/><path d="M100.541.553h-7.629V131.66h7.629a6.274 6.274 0 006.274-6.274V6.827a6.274 6.274 0 00-6.274-6.274z" fill="#D3D7DE"/><path d="M64.221 17.639h-31.28a1.978 1.978 0 110-3.957h31.28a1.978 1.978 0 010 3.957zM91.806 38.8H32.94a1.978 1.978 0 010-3.956h58.866a1.978 1.978 0 110 3.957zM91.806 58.142H32.94a1.978 1.978 0 010-3.957h58.866a1.978 1.978 0 110 3.957zM91.806 77.484H32.94a1.978 1.978 0 110-3.957h58.866a1.978 1.978 0 110 3.957zM91.806 96.825H32.94a1.978 1.978 0 110-3.957h58.866a1.978 1.978 0 110 3.957zM91.806 116.166H32.94a1.978 1.978 0 010-3.957h58.866a1.979 1.979 0 010 3.957zM16.413 24.25H8.366a4.378 4.378 0 010-8.756h8.047a4.378 4.378 0 010 8.755zM16.413 47.367H8.366a4.378 4.378 0 010-8.755h8.047a4.378 4.378 0 010 8.755zM16.413 70.484H8.366a4.378 4.378 0 010-8.755h8.047a4.378 4.378 0 010 8.755zM16.413 93.601H8.366a4.378 4.378 0 010-8.754h8.047a4.378 4.378 0 010 8.754zM16.413 116.719H8.366a4.378 4.378 0 010-8.755h8.047a4.378 4.378 0 010 8.755z" fill="#676E84"/></g><defs><clipPath id="clip0"><path fill="#fff" transform="translate(.567 .553)" d="M0 0h131.107v131.107H0z"/></clipPath></defs></svg>