<svg width="1307" height="1202" viewBox="0 0 1307 1202" fill="none" xmlns="http://www.w3.org/2000/svg">
<mask id="path-1-inside-1_1743_11" fill="white">
<path d="M767.423 727.987L61.7956 1151.57C57.2546 1154.3 51.8318 1155.19 46.6438 1154.07C41.4557 1152.96 36.8975 1149.91 33.9076 1145.56C19.0167 1123.95 8.71772 1099.56 3.63722 1073.88C-1.44329 1048.2 -1.19905 1021.76 4.35508 996.177C9.90922 970.592 20.6571 946.395 35.9447 925.058C51.2323 903.721 70.7399 885.69 93.2806 872.063L514.952 616.389C519.539 613.617 525.029 612.707 530.276 613.85L756.928 663.861C763.834 665.356 770.126 668.876 774.987 673.963C779.848 679.05 783.053 685.469 784.185 692.385C785.317 699.301 784.323 706.395 781.334 712.744C778.345 719.093 773.498 724.404 767.423 727.987Z"/>
<path d="M643.757 789.294L522.342 612.287L836.354 681.541C836.851 681.645 837.304 681.897 837.654 682.261C837.949 682.57 838.159 682.947 838.266 683.356L1023.25 990.79C1032.89 1005.81 1039.4 1022.6 1042.39 1040.15C1045.38 1057.71 1044.79 1075.68 1040.65 1093.01C1036.52 1110.33 1028.93 1126.66 1018.32 1141.03C1007.71 1155.4 994.311 1167.52 978.902 1176.67L941.505 1198.89C937.37 1201.35 932.439 1202.14 927.733 1201.1C923.026 1200.05 918.907 1197.25 916.228 1193.28L643.605 789.377L643.757 789.294Z"/>
<path d="M602.21 533.022L1244.57 142.944C1249.09 140.167 1254.5 139.216 1259.7 140.289C1264.9 141.362 1269.49 144.376 1272.51 148.707C1287.49 170.203 1297.92 194.494 1303.14 220.104C1308.37 245.715 1308.28 272.11 1302.9 297.689C1297.52 323.267 1286.95 347.494 1271.83 368.899C1256.71 390.304 1237.37 408.44 1214.96 422.206L855.273 642.568C850.698 645.37 845.209 646.314 839.949 645.206L613.297 596.66C606.484 595.152 600.277 591.673 595.463 586.663C590.648 581.653 587.444 575.338 586.256 568.52C585.068 561.702 585.951 554.688 588.791 548.368C591.632 542.048 596.302 536.707 602.21 533.022Z"/>
<path d="M531.941 577.724L316.63 209.56C306.887 194.6 300.266 177.858 297.16 160.32C294.053 142.783 294.523 124.807 298.542 107.452C302.561 90.0978 310.047 73.7176 320.558 59.2786C331.07 44.8397 344.394 32.6349 359.743 23.3848L392.854 3.36073C398.028 0.243316 404.223 -0.755697 410.127 0.575214C416.032 1.90612 421.182 5.46247 424.487 10.4912L727.957 474.131L843.989 640.875C845.544 643.108 843.561 646.091 840.9 645.522L533.873 579.907C533.388 579.789 532.949 579.532 532.61 579.17C532.27 578.808 532.045 578.355 531.961 577.868C531.953 577.82 531.946 577.772 531.941 577.724Z"/>
</mask>
<path d="M767.423 727.987L764.883 723.68L764.866 723.69L764.85 723.7L767.423 727.987ZM61.7956 1151.57L59.2222 1147.28L59.222 1147.28L61.7956 1151.57ZM33.9076 1145.56L38.0276 1142.73L38.0248 1142.73L33.9076 1145.56ZM93.2806 872.063L95.8674 876.341L95.8729 876.338L93.2806 872.063ZM514.952 616.389L512.366 612.11L512.36 612.114L514.952 616.389ZM530.276 613.85L531.353 608.967L531.34 608.964L530.276 613.85ZM756.928 663.861L755.851 668.744L755.86 668.746L755.87 668.748L756.928 663.861ZM522.342 612.287L523.419 607.404L511.06 604.678L518.219 615.115L522.342 612.287ZM643.757 789.294L646.166 793.675L651.002 791.016L647.88 786.465L643.757 789.294ZM836.354 681.541L835.277 686.423L835.301 686.429L835.324 686.433L836.354 681.541ZM837.654 682.261L834.044 685.721L834.044 685.722L837.654 682.261ZM838.266 683.356L833.426 684.613L833.608 685.314L833.981 685.934L838.266 683.356ZM1023.25 990.79L1018.96 993.367L1019 993.429L1019.04 993.49L1023.25 990.79ZM1042.39 1040.15L1047.32 1039.31L1047.32 1039.31L1042.39 1040.15ZM1040.65 1093.01L1035.79 1091.85L1035.79 1091.85L1040.65 1093.01ZM1018.32 1141.03L1014.3 1138.06L1014.3 1138.06L1018.32 1141.03ZM978.902 1176.67L976.35 1172.37L976.348 1172.37L978.902 1176.67ZM941.505 1198.89L938.951 1194.59L938.947 1194.6L941.505 1198.89ZM916.228 1193.28L920.375 1190.48L920.372 1190.48L916.228 1193.28ZM643.605 789.377L641.196 784.996L636.396 787.635L639.461 792.174L643.605 789.377ZM602.21 533.022L599.615 528.748L599.59 528.764L599.565 528.78L602.21 533.022ZM1244.57 142.944L1247.17 147.218L1247.18 147.21L1247.19 147.202L1244.57 142.944ZM1272.51 148.707L1276.61 145.848L1276.61 145.847L1272.51 148.707ZM1214.96 422.206L1217.57 426.47L1217.58 426.466L1214.96 422.206ZM855.273 642.568L857.883 646.833L857.885 646.832L855.273 642.568ZM839.949 645.206L838.902 650.095L838.91 650.097L838.918 650.098L839.949 645.206ZM613.297 596.66L612.216 601.542L612.233 601.545L612.25 601.549L613.297 596.66ZM531.941 577.724L536.909 577.162L536.79 576.112L536.257 575.199L531.941 577.724ZM316.63 209.56L320.946 207.035L320.885 206.932L320.82 206.831L316.63 209.56ZM297.16 160.32L302.083 159.448L302.083 159.448L297.16 160.32ZM298.542 107.452L293.671 106.324L293.671 106.324L298.542 107.452ZM320.558 59.2786L324.601 62.2214L324.601 62.2214L320.558 59.2786ZM359.743 23.3848L362.324 27.6672L362.33 27.6632L359.743 23.3848ZM392.854 3.36073L390.274 -0.922015L390.267 -0.917733L392.854 3.36073ZM410.127 0.575214L409.028 5.45283L409.028 5.45283L410.127 0.575214ZM424.487 10.4912L428.67 7.75296L428.665 7.74504L424.487 10.4912ZM727.957 474.131L723.773 476.87L723.812 476.929L723.853 476.987L727.957 474.131ZM843.989 640.875L839.885 643.731L839.885 643.731L843.989 640.875ZM840.9 645.522L841.945 640.633L841.945 640.633L840.9 645.522ZM533.873 579.907L532.684 584.764L532.756 584.781L532.828 584.797L533.873 579.907ZM531.961 577.868L527.033 578.714L527.033 578.714L531.961 577.868ZM764.85 723.7L59.2222 1147.28L64.369 1155.86L769.996 732.274L764.85 723.7ZM59.222 1147.28C55.7719 1149.35 51.646 1150.04 47.6966 1149.19L45.5909 1158.96C52.0175 1160.35 58.7372 1159.24 64.3693 1155.86L59.222 1147.28ZM47.6966 1149.19C43.7479 1148.34 40.2903 1146.02 38.0276 1142.73L29.7875 1148.39C33.5047 1153.8 39.1636 1157.58 45.5909 1158.96L47.6966 1149.19ZM38.0248 1142.73C23.5202 1121.67 13.4899 1097.92 8.54216 1072.91L-1.26773 1074.85C3.94556 1101.2 14.5133 1126.23 29.7903 1148.4L38.0248 1142.73ZM8.54216 1072.91C3.59444 1047.9 3.83228 1022.15 9.24128 997.238L-0.531106 995.117C-6.23037 1021.37 -6.48102 1048.5 -1.26773 1074.85L8.54216 1072.91ZM9.24128 997.238C14.6503 972.322 25.1178 948.754 40.0091 927.97L31.8802 922.146C16.1964 944.036 5.16815 968.863 -0.531106 995.117L9.24128 997.238ZM40.0091 927.97C54.9005 907.186 73.9048 889.619 95.8674 876.341L90.6937 867.784C67.5751 881.761 47.5641 900.256 31.8802 922.146L40.0091 927.97ZM95.8729 876.338L517.544 620.665L512.36 612.114L90.6882 867.787L95.8729 876.338ZM517.539 620.668C521.028 618.559 525.211 617.864 529.212 618.735L531.34 608.964C524.846 607.55 518.049 608.675 512.366 612.11L517.539 620.668ZM529.198 618.732L755.851 668.744L758.005 658.979L531.353 608.967L529.198 618.732ZM755.87 668.748C761.804 670.033 767.204 673.056 771.372 677.418L778.602 670.509C773.048 664.697 765.864 660.68 757.986 658.974L755.87 668.748ZM771.372 677.418C775.54 681.779 778.282 687.276 779.25 693.193L789.119 691.577C787.824 683.662 784.157 676.322 778.602 670.509L771.372 677.418ZM779.25 693.193C780.219 699.109 779.37 705.179 776.81 710.614L785.858 714.874C789.277 707.611 790.415 699.493 789.119 691.577L779.25 693.193ZM776.81 710.614C774.251 716.05 770.098 720.605 764.883 723.68L769.963 732.294C776.898 728.204 782.439 722.136 785.858 714.874L776.81 710.614ZM518.219 615.115L639.634 792.122L647.88 786.465L526.465 609.458L518.219 615.115ZM837.431 676.658L523.419 607.404L521.265 617.169L835.277 686.423L837.431 676.658ZM841.263 678.801C840.214 677.707 838.861 676.959 837.384 676.648L835.324 686.433C834.841 686.332 834.394 686.086 834.044 685.721L841.263 678.801ZM843.105 682.1C842.784 680.861 842.149 679.726 841.263 678.801L834.044 685.722C833.749 685.414 833.535 685.032 833.426 684.613L843.105 682.1ZM833.981 685.934L1018.96 993.367L1027.53 988.212L842.55 680.778L833.981 685.934ZM1019.04 993.49C1028.32 1007.95 1034.58 1024.1 1037.46 1040.99L1047.32 1039.31C1044.21 1021.09 1037.46 1003.67 1027.46 988.089L1019.04 993.49ZM1037.46 1040.99C1040.34 1057.88 1039.77 1075.18 1035.79 1091.85L1045.52 1094.17C1049.81 1076.19 1050.42 1057.53 1047.32 1039.31L1037.46 1040.99ZM1035.79 1091.85C1031.81 1108.52 1024.51 1124.23 1014.3 1138.06L1022.34 1144C1033.35 1129.09 1041.23 1112.15 1045.52 1094.17L1035.79 1091.85ZM1014.3 1138.06C1004.09 1151.9 991.187 1163.56 976.35 1172.37L981.455 1180.97C997.436 1171.48 1011.34 1158.91 1022.34 1144L1014.3 1138.06ZM976.348 1172.37L938.951 1194.59L944.059 1203.19L981.457 1180.97L976.348 1172.37ZM938.947 1194.6C935.91 1196.4 932.282 1196.99 928.817 1196.22L926.648 1205.98C932.596 1207.3 938.831 1206.3 944.063 1203.19L938.947 1194.6ZM928.817 1196.22C925.353 1195.45 922.333 1193.39 920.375 1190.48L912.082 1196.07C915.481 1201.11 920.7 1204.66 926.648 1205.98L928.817 1196.22ZM920.372 1190.48L647.749 786.58L639.461 792.174L912.084 1196.07L920.372 1190.48ZM646.014 793.758L646.166 793.675L641.348 784.912L641.196 784.996L646.014 793.758ZM604.806 537.296L1247.17 147.218L1241.98 138.67L599.615 528.748L604.806 537.296ZM1247.19 147.202C1250.62 145.094 1254.74 144.37 1258.69 145.186L1260.71 135.392C1254.27 134.063 1247.55 135.24 1241.95 138.686L1247.19 147.202ZM1258.69 145.186C1262.65 146.002 1266.12 148.292 1268.41 151.567L1276.61 145.847C1272.85 140.46 1267.16 136.722 1260.71 135.392L1258.69 145.186ZM1268.41 151.566C1283 172.505 1293.15 196.163 1298.24 221.104L1308.04 219.105C1302.68 192.825 1291.99 167.901 1276.61 145.848L1268.41 151.566ZM1298.24 221.104C1303.33 246.044 1303.25 271.75 1298.01 296.659L1307.79 298.718C1313.32 272.471 1313.4 245.385 1308.04 219.105L1298.24 221.104ZM1298.01 296.659C1292.77 321.569 1282.47 345.165 1267.75 366.015L1275.92 371.784C1291.43 349.823 1302.27 324.965 1307.79 298.718L1298.01 296.659ZM1267.75 366.015C1253.02 386.865 1234.17 404.533 1212.34 417.946L1217.58 426.466C1240.56 412.347 1260.41 393.744 1275.92 371.784L1267.75 366.015ZM1212.35 417.943L852.661 638.305L857.885 646.832L1217.57 426.47L1212.35 417.943ZM852.662 638.304C849.178 640.437 844.993 641.159 840.98 640.313L838.918 650.098C845.425 651.469 852.217 650.302 857.883 646.833L852.662 638.304ZM840.996 640.317L614.344 591.77L612.25 601.549L838.902 650.095L840.996 640.317ZM614.377 591.778C608.523 590.482 603.196 587.494 599.068 583.198L591.857 590.127C597.358 595.852 604.445 599.822 612.216 601.542L614.377 591.778ZM599.068 583.198C594.94 578.903 592.198 573.495 591.182 567.662L581.33 569.379C582.69 577.182 586.356 584.403 591.857 590.127L599.068 583.198ZM591.182 567.662C590.166 561.83 590.92 555.828 593.352 550.418L584.231 546.319C580.981 553.548 579.971 561.575 581.33 569.379L591.182 567.662ZM593.352 550.418C595.784 545.007 599.786 540.427 604.856 537.265L599.565 528.78C592.819 532.986 587.48 539.089 584.231 546.319L593.352 550.418ZM536.257 575.199L320.946 207.035L312.314 212.084L527.624 580.248L536.257 575.199ZM320.82 206.831C311.442 192.434 305.072 176.322 302.083 159.448L292.236 161.193C295.461 179.394 302.331 196.767 312.44 212.288L320.82 206.831ZM302.083 159.448C299.094 142.575 299.546 125.278 303.413 108.58L293.671 106.324C289.5 124.335 289.012 142.992 292.236 161.193L302.083 159.448ZM303.413 108.58C307.28 91.882 314.483 76.1187 324.601 62.2214L316.516 56.3359C305.61 71.3164 297.841 88.3136 293.671 106.324L303.413 108.58ZM324.601 62.2214C334.718 48.324 347.544 36.574 362.324 27.6672L357.162 19.1023C341.243 28.6957 327.422 41.3554 316.516 56.3359L324.601 62.2214ZM362.33 27.6632L395.441 7.63919L390.267 -0.917733L357.156 19.1063L362.33 27.6632ZM395.434 7.64346C399.502 5.1927 404.378 4.40475 409.028 5.45283L411.227 -4.3024C404.068 -5.91614 396.554 -4.70607 390.274 -0.922009L395.434 7.64346ZM409.028 5.45283C413.677 6.50074 417.719 9.29809 420.308 13.2374L428.665 7.74504C424.644 1.62684 418.387 -2.68849 411.227 -4.3024L409.028 5.45283ZM420.303 13.2295L723.773 476.87L732.14 471.393L428.67 7.75297L420.303 13.2295ZM848.093 638.019L732.061 471.275L723.853 476.987L839.885 643.731L848.093 638.019ZM839.855 650.412C846.95 651.928 852.238 643.975 848.093 638.019L839.885 643.731C838.849 642.242 840.171 640.254 841.945 640.633L839.855 650.412ZM532.828 584.797L839.855 650.412L841.945 640.633L534.918 575.017L532.828 584.797ZM528.962 582.589C529.967 583.662 531.262 584.416 532.684 584.764L535.061 575.05C535.514 575.161 535.931 575.402 536.258 575.751L528.962 582.589ZM527.033 578.714C527.283 580.17 527.956 581.516 528.962 582.589L536.258 575.751C536.585 576.1 536.806 576.541 536.889 577.021L527.033 578.714ZM526.972 578.285C526.989 578.43 527.009 578.573 527.033 578.714L536.889 577.022C536.897 577.067 536.903 577.114 536.909 577.162L526.972 578.285Z" fill="url(#paint0_linear_1743_11)" mask="url(#path-1-inside-1_1743_11)"/>
<defs>
<linearGradient id="paint0_linear_1743_11" x1="569.835" y1="0" x2="569.835" y2="645.593" gradientUnits="userSpaceOnUse">
<stop stop-color="white" stop-opacity="0"/>
<stop offset="0.536458" stop-color="white"/>
</linearGradient>
</defs>
</svg>
