<svg xmlns="http://www.w3.org/2000/svg" viewBox="0 0 423.23 246.01"><defs><style>.cls-2{fill:#ffdf81}.cls-4{fill:#f38762}.cls-5{fill:#231f20}</style></defs><g id="Layer_2" data-name="Layer 2"><g id="Layer_1-2" data-name="Layer 1"><path d="M155.74 149.06L12.53 235.79a4.21 4.21 0 01-5.66-1.23 39.5 39.5 0 0112.05-56l85.58-52.35a4.23 4.23 0 013.11-.52l46 10.24a7.15 7.15 0 012.13 13.13z" fill="#9179aa"/><path class="cls-2" d="M106 125.37l25.34 37.27a.52.52 0 00.68.15l37.86-22.3a.51.51 0 00-.15-.94z"/><path class="cls-2" d="M130.61 161.63l38.24-22 38.81 63.24a27.29 27.29 0 01-9 38.06l-7.59 4.55a3.81 3.81 0 01-5.13-1.15z"/><path d="M122.21 109.14l130.37-79.87a4.2 4.2 0 015.67 1.18 39.48 39.48 0 01-11.68 56l-73 45.12a4.24 4.24 0 01-3.11.54l-46-9.94a7.15 7.15 0 01-2.25-13.03z" fill="#9fd3f1"/><path class="cls-4" d="M172.16 132.5l-25.59-37.1a.52.52 0 00-.68-.15l-37.71 22.55a.52.52 0 00.16.94z"/><path class="cls-4" d="M147.82 97.22L109 118.39 64.25 42.91A27.29 27.29 0 0173 4.79l6.72-4.1a4.73 4.73 0 016.42 1.46z"/><path class="cls-5" d="M289.91 131.86v-3.94h45.84v-5.63h6.19v5.63h13.78v3.94h-13.78v12.65q.27 9-8.72 8.72h-8.44v-3.94h6.75q4.5.28 4.22-4.22v-13.21zm8.43-24.19V104h44.16v-7.58h-46.12v-3.94h52.31v18q.56 9.28-9.56 9h-43.6v-3.66h41.91q5.34.29 5.06-4.78v-3.37zm11.25 39.94a45.21 45.21 0 00-7-11.82h5.07a43.35 43.35 0 017.87 11.82zM366.41 153.23V97.54h19.68a2.22 2.22 0 01.29-.84 54.73 54.73 0 002-7.31h6.47a29.53 29.53 0 01-2.53 8.15h30.94v46.69q.27 9-9.84 8.72H408V149h4.22q5.34.28 5.06-4.78v-42.46h-45v51.47zm14.9-14.62v-26.16h27v17.72q.29 8.72-8.72 8.44zm5.63-3.94h11.25q4.5 0 4.5-4.78v-13.78h-15.75zM290.62 184.6l7.14-9-6.4-8.61h2.3l5.33 7.54 5.41-7.53h2.3l-6.48 8.61 7.13 9H305l-6-7.87-6.07 7.87zM308.91 177.3V167h1.89v10.66q0 6.08 5.33 6.07 5.5.24 5.33-6.07V167h1.89v10.25q.24 8-7.3 7.79-7.21.06-7.14-7.74zM326.22 184.69V167H328l10.66 15.09V167h1.81v17.72h-1.81l-10.66-15v15zM348.86 184.6l7.14-9-6.4-8.6h2.3l5.33 7.54 5.41-7.54h2.3l-6.48 8.61 7.14 9h-2.38l-6-7.87-6.07 7.87zM367 184.6V167h1.81v17.6zM370.35 184.6l7.39-17.6h2.05l7.46 17.63h-2l-2.25-5.44h-8.45l-2.22 5.41zm8.45-15.83l-3.69 9.23h7.39zM388.81 184.69V167h1.81l10.66 15.09V167h1.81v17.72h-1.81l-10.66-15v15zM421.87 172.05h-2.05q-1.4-4.1-6-4.1c-4.05.28-6.21 3-6.48 8q.4 7.22 6.89 7.71 4.18 0 5.83-2.46v-4.59H414v-1.32h7.87v6.48q-2.3 3.12-7.55 3.12-8.44-.41-8.86-9 .33-8.78 8.45-9.19 6.09-.05 7.96 5.35z"/></g></g></svg>